v -0.498797 -0.412949 -0.004535
v -0.498797 -0.412949 0.004535
v -0.498797 -0.044142 -0.004535
v -0.498797 -0.044142 0.004535
v -0.498797 0.045037 -0.004535
v -0.498797 0.045037 0.004535
v -0.498797 0.412015 -0.004535
v -0.498797 0.412015 0.004535
v -0.421710 -0.412949 -0.004535
v -0.421710 -0.412949 0.004535
v -0.421710 -0.045653 -0.004535
v -0.421710 -0.045653 0.004535
v -0.421710 0.045037 -0.004535
v -0.421710 0.045037 0.004535
v -0.421710 0.412333 -0.004535
v -0.421710 0.412333 0.004535
v -0.412641 0.421402 -0.004535
v -0.412641 0.421402 0.004535
v -0.412641 0.500000 -0.004535
v -0.412641 0.500000 0.004535
v -0.412634 -0.500000 -0.004535
v -0.412634 -0.500000 0.004535
v -0.412634 -0.422018 -0.004535
v -0.412634 -0.422018 0.004535
v -0.385434 -0.000308 -0.004535
v -0.385434 -0.000308 0.004535
v -0.384970 -0.019221 -0.004535
v -0.384970 -0.019221 0.004535
v -0.384970 0.018604 -0.004535
v -0.384970 0.018604 0.004535
v -0.383578 -0.038087 -0.004535
v -0.383578 -0.038087 0.004535
v -0.383578 0.037471 -0.004535
v -0.383578 0.037471 0.004535
v -0.381262 -0.056863 -0.004535
v -0.381262 -0.056863 0.004535
v -0.381262 0.056247 -0.004535
v -0.381262 0.056247 0.004535
v -0.378028 -0.075503 -0.004535
v -0.378028 -0.075503 0.004535
v -0.378028 0.074886 -0.004535
v -0.378028 0.074886 0.004535
v -0.373883 -0.093961 -0.004535
v -0.373883 -0.093961 0.004535
v -0.373883 0.093344 -0.004535
v -0.373883 0.093344 0.004535
v -0.368837 -0.112194 -0.004535
v -0.368837 -0.112194 0.004535
v -0.368837 0.111577 -0.004535
v -0.368837 0.111577 0.004535
v -0.362903 -0.130157 -0.004535
v -0.362903 -0.130157 0.004535
v -0.362903 0.129540 -0.004535
v -0.362903 0.129540 0.004535
v -0.356094 -0.147807 -0.004535
v -0.356094 -0.147807 0.004535
v -0.356094 0.147191 -0.004535
v -0.356094 0.147191 0.004535
v -0.348428 -0.165103 -0.004535
v -0.348428 -0.165103 0.004535
v -0.348428 0.164486 -0.004535
v -0.348428 0.164486 0.004535
v -0.339922 -0.182001 -0.004535
v -0.339922 -0.182001 0.004535
v -0.339922 0.181384 -0.004535
v -0.339922 0.181384 0.004535
v -0.330598 -0.198461 -0.004535
v -0.330598 -0.198461 0.004535
v -0.330598 0.197844 -0.004535
v -0.330598 0.197844 0.004535
v -0.320476 -0.214444 -0.004535
v -0.320476 -0.214444 0.004535
v -0.320476 0.213827 -0.004535
v -0.320476 0.213827 0.004535
v -0.309583 -0.229911 -0.004535
v -0.309583 -0.229911 0.004535
v -0.309583 0.229294 -0.004535
v -0.309583 0.229294 0.004535
v -0.297944 -0.244825 -0.004535
v -0.297944 -0.244825 0.004535
v -0.297944 0.244208 -0.004535
v -0.297944 0.244208 0.004535
v -0.285588 -0.259150 -0.004535
v -0.285588 -0.259150 0.004535
v -0.285588 0.258533 -0.004535
v -0.285588 0.258533 0.004535
v -0.272543 -0.272851 -0.004535
v -0.272543 -0.272851 0.004535
v -0.272543 0.272235 -0.004535
v -0.272543 0.272235 0.004535
v -0.258842 -0.285896 -0.004535
v -0.258842 -0.285896 0.004535
v -0.258842 0.285279 -0.004535
v -0.258842 0.285279 0.004535
v -0.244517 -0.298253 -0.004535
v -0.244517 -0.298253 0.004535
v -0.244517 0.297636 -0.004535
v -0.244517 0.297636 0.004535
v -0.229603 -0.309892 -0.004535
v -0.229603 -0.309892 0.004535
v -0.229603 0.309275 -0.004535
v -0.229603 0.309275 0.004535
v -0.214136 -0.320785 -0.004535
v -0.214136 -0.320785 0.004535
v -0.214136 0.320168 -0.004535
v -0.214136 0.320168 0.004535
v -0.198153 -0.330906 -0.004535
v -0.198153 -0.330906 0.004535
v -0.198153 0.330289 -0.004535
v -0.198153 0.330289 0.004535
v -0.181692 -0.340231 -0.004535
v -0.181692 -0.340231 0.004535
v -0.181692 0.339614 -0.004535
v -0.181692 0.339614 0.004535
v -0.164794 -0.348736 -0.004535
v -0.164794 -0.348736 0.004535
v -0.164794 0.348120 -0.004535
v -0.164794 0.348120 0.004535
v -0.147499 -0.356403 -0.004535
v -0.147499 -0.356403 0.004535
v -0.147499 0.355786 -0.004535
v -0.147499 0.355786 0.004535
v -0.129849 -0.363211 -0.004535
v -0.129849 -0.363211 0.004535
v -0.129849 0.362595 -0.004535
v -0.129849 0.362595 0.004535
v -0.111886 -0.369145 -0.004535
v -0.111886 -0.369145 0.004535
v -0.111886 0.368529 -0.004535
v -0.111886 0.368529 0.004535
v -0.093653 -0.374191 -0.004535
v -0.093653 -0.374191 0.004535
v -0.093653 0.373575 -0.004535
v -0.093653 0.373575 0.004535
v -0.075194 -0.378336 -0.004535
v -0.075194 -0.378336 0.004535
v -0.075194 0.377719 -0.004535
v -0.075194 0.377719 0.004535
v -0.056555 -0.381570 -0.004535
v -0.056555 -0.381570 0.004535
v -0.056555 0.380954 -0.004535
v -0.056555 0.380954 0.004535
v -0.045345 0.421402 -0.004535
v -0.045345 0.421402 0.004535
v -0.045345 0.498488 -0.004535
v -0.045345 0.498488 0.004535
v -0.045336 -0.422918 -0.004535
v -0.045336 -0.422918 0.004535
v -0.044466 -0.500000 -0.004535
v -0.044466 -0.500000 0.004535
v -0.037779 -0.383886 -0.004535
v -0.037779 -0.383886 0.004535
v -0.037779 0.383269 -0.004535
v -0.037779 0.383269 0.004535
v -0.018912 -0.385278 -0.004535
v -0.018912 -0.385278 0.004535
v -0.018912 0.384661 -0.004535
v -0.018912 0.384661 0.004535
v -0.000000 -0.385742 -0.004535
v -0.000000 -0.385742 0.004535
v 0.000000 0.385125 -0.004535
v 0.000000 0.385125 0.004535
v 0.018912 -0.385278 -0.004535
v 0.018912 -0.385278 0.004535
v 0.018912 0.384661 -0.004535
v 0.018912 0.384661 0.004535
v 0.037779 -0.383886 -0.004535
v 0.037779 -0.383886 0.004535
v 0.037779 0.383269 -0.004535
v 0.037779 0.383269 0.004535
v 0.044611 0.498485 -0.004535
v 0.044611 0.498485 0.004535
v 0.045345 -0.500000 -0.004535
v 0.045345 -0.500000 0.004535
v 0.045345 -0.422913 -0.004535
v 0.045345 -0.422913 0.004535
v 0.045345 0.421402 -0.004535
v 0.045345 0.421402 0.004535
v 0.056555 -0.381570 -0.004535
v 0.056555 -0.381570 0.004535
v 0.056555 0.380954 -0.004535
v 0.056555 0.380954 0.004535
v 0.075194 -0.378336 -0.004535
v 0.075194 -0.378336 0.004535
v 0.075194 0.377719 -0.004535
v 0.075194 0.377719 0.004535
v 0.093653 -0.374191 -0.004535
v 0.093653 -0.374191 0.004535
v 0.093653 0.373575 -0.004535
v 0.093653 0.373575 0.004535
v 0.111886 -0.369145 -0.004535
v 0.111886 -0.369145 0.004535
v 0.111886 0.368529 -0.004535
v 0.111886 0.368529 0.004535
v 0.129849 -0.363211 -0.004535
v 0.129849 -0.363211 0.004535
v 0.129849 0.362595 -0.004535
v 0.129849 0.362595 0.004535
v 0.147499 -0.356403 -0.004535
v 0.147499 -0.356403 0.004535
v 0.147499 0.355786 -0.004535
v 0.147499 0.355786 0.004535
v 0.164794 -0.348736 -0.004535
v 0.164794 -0.348736 0.004535
v 0.164794 0.348120 -0.004535
v 0.164794 0.348120 0.004535
v 0.181692 -0.340231 -0.004535
v 0.181692 -0.340231 0.004535
v 0.181692 0.339614 -0.004535
v 0.181692 0.339614 0.004535
v 0.198153 -0.330906 -0.004535
v 0.198153 -0.330906 0.004535
v 0.198153 0.330289 -0.004535
v 0.198153 0.330289 0.004535
v 0.214136 -0.320785 -0.004535
v 0.214136 -0.320785 0.004535
v 0.214136 0.320168 -0.004535
v 0.214136 0.320168 0.004535
v 0.229603 -0.309892 -0.004535
v 0.229603 -0.309892 0.004535
v 0.229603 0.309275 -0.004535
v 0.229603 0.309275 0.004535
v 0.244517 -0.298253 -0.004535
v 0.244517 -0.298253 0.004535
v 0.244517 0.297636 -0.004535
v 0.244517 0.297636 0.004535
v 0.258842 -0.285896 -0.004535
v 0.258842 -0.285896 0.004535
v 0.258842 0.285279 -0.004535
v 0.258842 0.285279 0.004535
v 0.272543 -0.272851 -0.004535
v 0.272543 -0.272851 0.004535
v 0.272543 0.272235 -0.004535
v 0.272543 0.272235 0.004535
v 0.285588 -0.259150 -0.004535
v 0.285588 -0.259150 0.004535
v 0.285588 0.258533 -0.004535
v 0.285588 0.258533 0.004535
v 0.297944 -0.244825 -0.004535
v 0.297944 -0.244825 0.004535
v 0.297944 0.244208 -0.004535
v 0.297944 0.244208 0.004535
v 0.309583 -0.229911 -0.004535
v 0.309583 -0.229911 0.004535
v 0.309583 0.229294 -0.004535
v 0.309583 0.229294 0.004535
v 0.320476 -0.214444 -0.004535
v 0.320476 -0.214444 0.004535
v 0.320476 0.213827 -0.004535
v 0.320476 0.213827 0.004535
v 0.330598 -0.198461 -0.004535
v 0.330598 -0.198461 0.004535
v 0.330598 0.197844 -0.004535
v 0.330598 0.197844 0.004535
v 0.339922 -0.182001 -0.004535
v 0.339922 -0.182001 0.004535
v 0.339922 0.181384 -0.004535
v 0.339922 0.181384 0.004535
v 0.348428 -0.165103 -0.004535
v 0.348428 -0.165103 0.004535
v 0.348428 0.164486 -0.004535
v 0.348428 0.164486 0.004535
v 0.356094 -0.147807 -0.004535
v 0.356094 -0.147807 0.004535
v 0.356094 0.147191 -0.004535
v 0.356094 0.147191 0.004535
v 0.362903 -0.130157 -0.004535
v 0.362903 -0.130157 0.004535
v 0.362903 0.129540 -0.004535
v 0.362903 0.129540 0.004535
v 0.368837 -0.112194 -0.004535
v 0.368837 -0.112194 0.004535
v 0.368837 0.111577 -0.004535
v 0.368837 0.111577 0.004535
v 0.373883 -0.093961 -0.004535
v 0.373883 -0.093961 0.004535
v 0.373883 0.093344 -0.004535
v 0.373883 0.093344 0.004535
v 0.378028 -0.075503 -0.004535
v 0.378028 -0.075503 0.004535
v 0.378028 0.074886 -0.004535
v 0.378028 0.074886 0.004535
v 0.381262 -0.056863 -0.004535
v 0.381262 -0.056863 0.004535
v 0.381262 0.056247 -0.004535
v 0.381262 0.056247 0.004535
v 0.383578 -0.038087 -0.004535
v 0.383578 -0.038087 0.004535
v 0.383578 0.037471 -0.004535
v 0.383578 0.037471 0.004535
v 0.384970 -0.019221 -0.004535
v 0.384970 -0.019221 0.004535
v 0.384970 0.018604 -0.004535
v 0.384970 0.018604 0.004535
v 0.385434 -0.000308 -0.004535
v 0.385434 -0.000308 0.004535
v 0.412634 -0.500000 -0.004535
v 0.412634 -0.500000 0.004535
v 0.412641 -0.422018 -0.004535
v 0.412641 -0.422018 0.004535
v 0.412641 0.421402 -0.004535
v 0.412641 0.421402 0.004535
v 0.412641 0.500000 -0.004535
v 0.412641 0.500000 0.004535
v 0.421710 -0.412949 -0.004535
v 0.421710 -0.412949 0.004535
v 0.421710 -0.044142 -0.004535
v 0.421710 -0.044142 0.004535
v 0.421710 0.046548 -0.004535
v 0.421710 0.046548 0.004535
v 0.421710 0.412333 -0.004535
v 0.421710 0.412333 0.004535
v 0.498797 0.412488 -0.004535
v 0.498797 0.412488 0.004535
v 0.498797 -0.412949 -0.004535
v 0.498797 -0.412949 0.004535
v 0.498797 -0.044142 -0.004535
v 0.498797 -0.044142 0.004535
v 0.498797 0.046548 -0.004535
v 0.498797 0.046548 0.004535
f 16 18 15
f 15 18 17
f 18 20 17
f 17 20 19
f 20 146 19
f 19 146 145
f 146 144 145
f 145 144 143
f 144 178 143
f 143 178 177
f 178 172 177
f 177 172 171
f 172 304 171
f 171 304 303
f 304 302 303
f 303 302 301
f 302 312 301
f 301 312 311
f 312 314 311
f 311 314 313
f 314 320 313
f 313 320 319
f 320 310 319
f 319 310 309
f 310 308 309
f 309 308 307
f 308 318 307
f 307 318 317
f 318 316 317
f 317 316 315
f 316 306 315
f 315 306 305
f 306 300 305
f 305 300 299
f 300 298 299
f 299 298 297
f 298 174 297
f 297 174 173
f 174 176 173
f 173 176 175
f 176 148 175
f 175 148 147
f 148 150 147
f 147 150 149
f 150 22 149
f 149 22 21
f 22 24 21
f 21 24 23
f 24 10 23
f 23 10 9
f 10 2 9
f 9 2 1
f 2 4 1
f 1 4 3
f 4 12 3
f 3 12 11
f 12 14 11
f 11 14 13
f 14 6 13
f 13 6 5
f 6 8 5
f 5 8 7
f 8 16 7
f 7 16 15
f 294 293 296
f 294 289 293
f 294 290 289
f 289 290 285
f 285 290 286
f 281 286 282
f 277 282 278
f 273 278 274
f 269 274 270
f 265 270 266
f 261 266 262
f 257 262 258
f 253 258 254
f 249 254 250
f 245 250 246
f 241 246 242
f 237 242 238
f 233 238 234
f 229 234 230
f 225 230 226
f 221 226 222
f 217 222 218
f 213 218 214
f 209 214 210
f 205 210 206
f 201 206 202
f 197 202 198
f 193 198 194
f 189 194 190
f 185 190 186
f 181 186 182
f 169 182 170
f 165 170 166
f 161 166 162
f 157 162 158
f 153 158 154
f 141 154 142
f 137 142 138
f 133 138 134
f 129 134 130
f 125 130 126
f 121 126 122
f 117 122 118
f 113 118 114
f 109 114 110
f 105 110 106
f 101 106 102
f 97 102 98
f 93 98 94
f 89 94 90
f 85 90 86
f 81 86 82
f 77 82 78
f 73 78 74
f 69 74 70
f 65 70 66
f 61 66 62
f 57 62 58
f 53 58 54
f 49 54 50
f 45 50 46
f 41 46 42
f 37 42 38
f 33 38 34
f 29 34 30
f 25 30 26
f 27 26 28
f 31 28 32
f 35 32 36
f 39 36 40
f 43 40 44
f 47 44 48
f 51 48 52
f 55 52 56
f 59 56 60
f 63 60 64
f 67 64 68
f 71 68 72
f 75 72 76
f 79 76 80
f 83 80 84
f 87 84 88
f 91 88 92
f 95 92 96
f 99 96 100
f 103 100 104
f 107 104 108
f 111 108 112
f 115 112 116
f 119 116 120
f 123 120 124
f 127 124 128
f 131 128 132
f 135 132 136
f 139 136 140
f 151 140 152
f 155 152 156
f 159 156 160
f 163 160 164
f 167 164 168
f 179 168 180
f 183 180 184
f 187 184 188
f 191 188 192
f 195 192 196
f 199 196 200
f 203 200 204
f 207 204 208
f 211 208 212
f 215 212 216
f 219 216 220
f 223 220 224
f 227 224 228
f 231 228 232
f 235 232 236
f 239 236 240
f 243 240 244
f 247 244 248
f 251 248 252
f 255 252 256
f 259 256 260
f 263 260 264
f 267 264 268
f 271 268 272
f 275 272 276
f 279 276 280
f 283 280 284
f 287 284 288
f 291 288 292
f 295 292 296
f 293 295 296
f 295 291 292
f 291 287 288
f 287 283 284
f 283 279 280
f 279 275 276
f 275 271 272
f 271 267 268
f 267 263 264
f 263 259 260
f 259 255 256
f 255 251 252
f 251 247 248
f 247 243 244
f 243 239 240
f 239 235 236
f 235 231 232
f 231 227 228
f 227 223 224
f 223 219 220
f 219 215 216
f 215 211 212
f 211 207 208
f 207 203 204
f 203 199 200
f 199 195 196
f 195 191 192
f 191 187 188
f 187 183 184
f 183 179 180
f 179 167 168
f 167 163 164
f 163 159 160
f 159 155 156
f 155 151 152
f 151 139 140
f 139 135 136
f 135 131 132
f 131 127 128
f 127 123 124
f 123 119 120
f 119 115 116
f 115 111 112
f 111 107 108
f 107 103 104
f 103 99 100
f 99 95 96
f 95 91 92
f 91 87 88
f 87 83 84
f 83 79 80
f 79 75 76
f 75 71 72
f 71 67 68
f 67 63 64
f 63 59 60
f 59 55 56
f 55 51 52
f 51 47 48
f 47 43 44
f 43 39 40
f 39 35 36
f 35 31 32
f 31 27 28
f 27 25 26
f 25 29 30
f 29 33 34
f 33 37 38
f 37 41 42
f 41 45 46
f 45 49 50
f 49 53 54
f 53 57 58
f 57 61 62
f 61 65 66
f 65 69 70
f 69 73 74
f 73 77 78
f 77 81 82
f 81 85 86
f 85 89 90
f 89 93 94
f 93 97 98
f 97 101 102
f 101 105 106
f 105 109 110
f 109 113 114
f 113 117 118
f 117 121 122
f 121 125 126
f 125 129 130
f 129 133 134
f 133 137 138
f 137 141 142
f 141 153 154
f 153 157 158
f 157 161 162
f 161 165 166
f 165 169 170
f 169 181 182
f 181 185 186
f 185 189 190
f 189 193 194
f 193 197 198
f 197 201 202
f 201 205 206
f 205 209 210
f 209 213 214
f 213 217 218
f 217 221 222
f 221 225 226
f 225 229 230
f 229 233 234
f 233 237 238
f 237 241 242
f 241 245 246
f 245 249 250
f 249 253 254
f 253 257 258
f 257 261 262
f 261 265 266
f 265 269 270
f 269 273 274
f 273 277 278
f 277 281 282
f 281 285 286
f 292 308 296
f 292 288 308
f 308 288 284
f 280 308 284
f 280 276 308
f 308 276 318
f 318 276 272
f 268 318 272
f 268 264 318
f 318 264 316
f 316 264 260
f 256 316 260
f 256 252 316
f 316 252 248
f 306 248 244
f 240 306 244
f 240 236 306
f 306 236 232
f 228 306 232
f 228 224 306
f 306 224 300
f 300 224 220
f 216 300 220
f 216 212 300
f 300 212 208
f 298 208 204
f 200 298 204
f 200 174 298
f 200 196 174
f 174 196 192
f 188 174 192
f 188 176 174
f 188 184 176
f 176 184 180
f 168 176 180
f 168 164 176
f 176 164 160
f 148 160 156
f 152 148 156
f 152 140 148
f 148 140 136
f 132 148 136
f 132 128 148
f 148 128 150
f 150 128 124
f 120 150 124
f 120 22 150
f 120 116 22
f 22 116 112
f 24 112 108
f 104 24 108
f 104 100 24
f 24 100 96
f 10 96 92
f 88 10 92
f 88 84 10
f 10 84 80
f 76 10 80
f 76 72 10
f 10 72 2
f 2 72 68
f 64 2 68
f 64 60 2
f 2 60 56
f 4 56 52
f 48 4 52
f 48 44 4
f 4 44 12
f 12 44 40
f 36 12 40
f 36 32 12
f 12 32 28
f 26 12 28
f 26 14 12
f 26 30 14
f 14 30 34
f 38 14 34
f 38 42 14
f 14 42 46
f 6 46 50
f 54 6 50
f 54 58 6
f 6 58 62
f 8 62 66
f 70 8 66
f 70 74 8
f 8 74 16
f 16 74 78
f 82 16 78
f 82 86 16
f 16 86 90
f 94 16 90
f 94 98 16
f 16 98 18
f 18 98 102
f 106 18 102
f 106 110 18
f 18 110 114
f 20 114 118
f 122 20 118
f 122 146 20
f 122 126 146
f 146 126 130
f 134 146 130
f 134 144 146
f 134 138 144
f 144 138 142
f 154 144 142
f 154 158 144
f 144 158 162
f 178 162 166
f 170 178 166
f 170 182 178
f 178 182 186
f 190 178 186
f 190 194 178
f 178 194 172
f 172 194 198
f 202 172 198
f 202 304 172
f 202 206 304
f 304 206 210
f 302 210 214
f 218 302 214
f 218 222 302
f 302 222 226
f 312 226 230
f 234 312 230
f 234 238 312
f 312 238 242
f 246 312 242
f 246 250 312
f 312 250 314
f 314 250 254
f 258 314 254
f 258 262 314
f 314 262 320
f 320 262 266
f 270 320 266
f 270 274 320
f 320 274 278
f 310 278 282
f 286 310 282
f 286 290 310
f 310 290 294
f 296 310 294
f 296 308 310
f 8 6 62
f 6 14 46
f 4 2 56
f 10 24 96
f 24 22 112
f 148 176 160
f 298 300 208
f 306 316 248
f 310 320 278
f 312 302 226
f 302 304 210
f 178 144 162
f 20 18 114
f 293 309 295
f 293 289 309
f 309 289 285
f 281 309 285
f 281 277 309
f 309 277 319
f 319 277 273
f 269 319 273
f 269 265 319
f 319 265 261
f 313 261 257
f 253 313 257
f 253 249 313
f 313 249 311
f 311 249 245
f 241 311 245
f 241 237 311
f 311 237 233
f 229 311 233
f 229 225 311
f 311 225 301
f 301 225 221
f 217 301 221
f 217 213 301
f 301 213 209
f 303 209 205
f 201 303 205
f 201 171 303
f 201 197 171
f 171 197 193
f 189 171 193
f 189 177 171
f 189 185 177
f 177 185 181
f 169 177 181
f 169 165 177
f 177 165 161
f 143 161 157
f 153 143 157
f 153 141 143
f 143 141 137
f 133 143 137
f 133 129 143
f 143 129 145
f 145 129 125
f 121 145 125
f 121 19 145
f 121 117 19
f 19 117 113
f 17 113 109
f 105 17 109
f 105 101 17
f 17 101 97
f 15 97 93
f 89 15 93
f 89 85 15
f 15 85 81
f 77 15 81
f 77 73 15
f 15 73 7
f 7 73 69
f 65 7 69
f 65 61 7
f 7 61 5
f 5 61 57
f 53 5 57
f 53 49 5
f 5 49 45
f 13 45 41
f 37 13 41
f 37 33 13
f 13 33 29
f 25 13 29
f 25 11 13
f 25 27 11
f 11 27 31
f 35 11 31
f 35 39 11
f 11 39 43
f 3 43 47
f 51 3 47
f 51 55 3
f 3 55 1
f 1 55 59
f 63 1 59
f 63 67 1
f 1 67 71
f 9 71 75
f 79 9 75
f 79 83 9
f 9 83 87
f 91 9 87
f 91 95 9
f 9 95 23
f 23 95 99
f 103 23 99
f 103 107 23
f 23 107 111
f 21 111 115
f 119 21 115
f 119 149 21
f 119 123 149
f 149 123 127
f 131 149 127
f 131 147 149
f 131 135 147
f 147 135 139
f 151 147 139
f 151 155 147
f 147 155 159
f 175 159 163
f 167 175 163
f 167 179 175
f 175 179 183
f 187 175 183
f 187 191 175
f 175 191 173
f 173 191 195
f 199 173 195
f 199 297 173
f 199 203 297
f 297 203 207
f 299 207 211
f 215 299 211
f 215 219 299
f 299 219 223
f 305 223 227
f 231 305 227
f 231 235 305
f 305 235 239
f 243 305 239
f 243 247 305
f 305 247 315
f 315 247 251
f 255 315 251
f 255 259 315
f 315 259 263
f 317 263 267
f 271 317 267
f 271 275 317
f 317 275 307
f 307 275 279
f 283 307 279
f 283 287 307
f 307 287 291
f 295 307 291
f 295 309 307
f 15 17 97
f 17 19 113
f 143 177 161
f 303 301 209
f 313 319 261
f 317 315 263
f 305 299 223
f 299 297 207
f 175 147 159
f 21 23 111
f 9 1 71
f 3 11 43
f 13 5 45
