v -0.500000 -0.500000 -0.193182
v -0.500000 -0.500000 -0.170455
v -0.500000 0.500000 -0.193182
v -0.500000 0.500000 -0.170455
v -0.309091 0.000000 -0.170455
v -0.308719 -0.015166 -0.170455
v -0.308719 0.015166 -0.170455
v -0.307603 -0.030296 -0.170455
v -0.307603 0.030296 -0.170455
v -0.305745 -0.045353 -0.170455
v -0.305745 0.045353 -0.170455
v -0.303152 -0.060301 -0.170455
v -0.303152 0.060301 -0.170455
v -0.299828 -0.075103 -0.170455
v -0.299828 0.075103 -0.170455
v -0.295782 -0.089724 -0.170455
v -0.295782 0.089724 -0.170455
v -0.291023 -0.104130 -0.170455
v -0.291023 0.104130 -0.170455
v -0.290909 -0.000000 0.193182
v -0.290909 0.000000 -0.152273
v -0.290559 -0.014274 -0.152273
v -0.290559 -0.014274 0.193182
v -0.290559 0.014274 -0.152273
v -0.290559 0.014274 0.193182
v -0.289508 -0.028514 -0.152273
v -0.289508 -0.028514 0.193182
v -0.289508 0.028514 -0.152273
v -0.289508 0.028514 0.193182
v -0.287760 -0.042685 -0.152273
v -0.287760 -0.042685 0.193182
v -0.287760 0.042685 -0.152273
v -0.287760 0.042685 0.193182
v -0.285563 -0.118284 -0.170455
v -0.285563 0.118284 -0.170455
v -0.285319 -0.056754 -0.152273
v -0.285319 -0.056754 0.193182
v -0.285319 0.056754 -0.152273
v -0.285319 0.056754 0.193182
v -0.282191 -0.070685 -0.152273
v -0.282191 -0.070685 0.193182
v -0.282191 0.070685 -0.152273
v -0.282191 0.070685 0.193182
v -0.279415 -0.132153 -0.170455
v -0.279415 0.132153 -0.170455
v -0.278383 -0.084446 -0.152273
v -0.278383 -0.084446 0.193182
v -0.278383 0.084446 -0.152273
v -0.278383 0.084446 0.193182
v -0.273904 -0.098004 -0.152273
v -0.273904 -0.098004 0.193182
v -0.273904 0.098004 -0.152273
v -0.273904 0.098004 0.193182
v -0.272594 -0.145704 -0.170455
v -0.272594 0.145704 -0.170455
v -0.268765 -0.111326 -0.152273
v -0.268765 -0.111326 0.193182
v -0.268765 0.111326 -0.152273
v -0.268765 0.111326 0.193182
v -0.268182 0.000000 -0.193182
v -0.268182 0.000000 0.193182
v -0.267859 -0.013159 -0.193182
v -0.267859 -0.013159 0.193182
v -0.267859 0.013159 -0.193182
v -0.267859 0.013159 0.193182
v -0.266890 -0.026286 -0.193182
v -0.266890 -0.026286 0.193182
v -0.266890 0.026286 -0.193182
v -0.266890 0.026286 0.193182
v -0.265279 -0.039350 -0.193182
v -0.265279 -0.039350 0.193182
v -0.265279 0.039350 -0.193182
v -0.265279 0.039350 0.193182
v -0.265116 -0.158904 -0.170455
v -0.265116 0.158904 -0.170455
v -0.263029 -0.052320 -0.193182
v -0.263029 -0.052320 0.193182
v -0.263029 0.052320 -0.193182
v -0.263029 0.052320 0.193182
v -0.262979 -0.124380 -0.152273
v -0.262979 -0.124380 0.193182
v -0.262979 0.124380 -0.152273
v -0.262979 0.124380 0.193182
v -0.260145 -0.065163 -0.193182
v -0.260145 -0.065163 0.193182
v -0.260145 0.065163 -0.193182
v -0.260145 0.065163 0.193182
v -0.257000 -0.171722 -0.170455
v -0.257000 0.171722 -0.170455
v -0.256634 -0.077849 -0.193182
v -0.256634 -0.077849 0.193182
v -0.256634 0.077849 -0.193182
v -0.256634 0.077849 0.193182
v -0.256559 -0.137134 -0.152273
v -0.256559 -0.137134 0.193182
v -0.256559 0.137134 -0.152273
v -0.256559 0.137134 0.193182
v -0.252505 -0.090348 -0.193182
v -0.252505 -0.090348 0.193182
v -0.252505 0.090348 -0.193182
v -0.252505 0.090348 0.193182
v -0.249521 -0.149557 -0.152273
v -0.249521 -0.149557 0.193182
v -0.249521 0.149557 -0.152273
v -0.249521 0.149557 0.193182
v -0.248264 -0.184125 -0.170455
v -0.248264 0.184125 -0.170455
v -0.247768 -0.102629 -0.193182
v -0.247768 -0.102629 0.193182
v -0.247768 0.102629 -0.193182
v -0.247768 0.102629 0.193182
v -0.245455 0.436364 -0.170455
v -0.245455 0.500000 -0.170455
v -0.242433 -0.114662 -0.193182
v -0.242433 -0.114662 0.193182
v -0.242433 0.114662 -0.193182
v -0.242433 0.114662 0.193182
v -0.241882 -0.161620 -0.152273
v -0.241882 -0.161620 0.193182
v -0.241882 0.161620 -0.152273
v -0.241882 0.161620 0.193182
v -0.238931 -0.196085 -0.170455
v -0.238931 0.196085 -0.170455
v -0.236515 -0.126420 -0.193182
v -0.236515 -0.126420 0.193182
v -0.236515 0.126420 -0.193182
v -0.236515 0.126420 0.193182
v -0.233660 -0.173294 -0.152273
v -0.233660 -0.173294 0.193182
v -0.233660 0.173294 -0.152273
v -0.233660 0.173294 0.193182
v -0.230027 -0.137873 -0.193182
v -0.230027 -0.137873 0.193182
v -0.230027 0.137873 -0.193182
v -0.230027 0.137873 0.193182
v -0.229021 -0.207573 -0.170455
v -0.229021 0.207573 -0.170455
v -0.227273 0.454545 -0.152273
v -0.227273 0.454545 0.193182
v -0.227273 0.500000 -0.152273
v -0.227273 0.500000 0.193182
v -0.224876 -0.184551 -0.152273
v -0.224876 -0.184551 0.193182
v -0.224876 0.184551 -0.152273
v -0.224876 0.184551 0.193182
v -0.222985 -0.148994 -0.193182
v -0.222985 -0.148994 0.193182
v -0.222985 0.148994 -0.193182
v -0.222985 0.148994 0.193182
v -0.218560 -0.218560 -0.170455
v -0.218560 0.218560 -0.170455
v -0.215549 -0.195363 -0.152273
v -0.215549 -0.195363 0.193182
v -0.215549 0.195363 -0.152273
v -0.215549 0.195363 0.193182
v -0.215406 -0.159756 -0.193182
v -0.215406 -0.159756 0.193182
v -0.215406 0.159756 -0.193182
v -0.215406 0.159756 0.193182
v -0.207573 -0.229021 -0.170455
v -0.207573 0.229021 -0.170455
v -0.207307 -0.170133 -0.193182
v -0.207307 -0.170133 0.193182
v -0.207307 0.170133 -0.193182
v -0.207307 0.170133 0.193182
v -0.205704 -0.205704 -0.152273
v -0.205704 -0.205704 0.193182
v -0.205704 0.205704 -0.152273
v -0.205704 0.205704 0.193182
v -0.198710 -0.180100 -0.193182
v -0.198710 -0.180100 0.193182
v -0.198710 0.180100 -0.193182
v -0.198710 0.180100 0.193182
v -0.196085 -0.238931 -0.170455
v -0.196085 0.238931 -0.170455
v -0.195363 -0.215549 -0.152273
v -0.195363 -0.215549 0.193182
v -0.195363 0.215549 -0.152273
v -0.195363 0.215549 0.193182
v -0.189633 -0.189633 -0.193182
v -0.189633 -0.189633 0.193182
v -0.189633 0.189633 -0.193182
v -0.189633 0.189633 0.193182
v -0.184551 -0.224876 -0.152273
v -0.184551 -0.224876 0.193182
v -0.184551 0.224876 -0.152273
v -0.184551 0.224876 0.193182
v -0.184125 -0.248264 -0.170455
v -0.184125 0.248264 -0.170455
v -0.180100 -0.198710 -0.193182
v -0.180100 -0.198710 0.193182
v -0.180100 0.198710 -0.193182
v -0.180100 0.198710 0.193182
v -0.173294 -0.233660 -0.152273
v -0.173294 -0.233660 0.193182
v -0.173294 0.233660 -0.152273
v -0.173294 0.233660 0.193182
v -0.171722 -0.257000 -0.170455
v -0.171722 0.257000 -0.170455
v -0.170133 -0.207307 -0.193182
v -0.170133 -0.207307 0.193182
v -0.170133 0.207307 -0.193182
v -0.170133 0.207307 0.193182
v -0.161620 -0.241882 -0.152273
v -0.161620 -0.241882 0.193182
v -0.161620 0.241882 -0.152273
v -0.161620 0.241882 0.193182
v -0.159756 -0.215406 -0.193182
v -0.159756 -0.215406 0.193182
v -0.159756 0.215406 -0.193182
v -0.159756 0.215406 0.193182
v -0.158904 -0.265116 -0.170455
v -0.158904 0.265116 -0.170455
v -0.149557 -0.249521 -0.152273
v -0.149557 -0.249521 0.193182
v -0.149557 0.249521 -0.152273
v -0.149557 0.249521 0.193182
v -0.148994 -0.222985 -0.193182
v -0.148994 -0.222985 0.193182
v -0.148994 0.222985 -0.193182
v -0.148994 0.222985 0.193182
v -0.145704 -0.272594 -0.170455
v -0.145704 0.272594 -0.170455
v -0.137873 -0.230027 -0.193182
v -0.137873 -0.230027 0.193182
v -0.137873 0.230027 -0.193182
v -0.137873 0.230027 0.193182
v -0.137134 -0.256559 -0.152273
v -0.137134 -0.256559 0.193182
v -0.137134 0.256559 -0.152273
v -0.137134 0.256559 0.193182
v -0.132153 -0.279415 -0.170455
v -0.132153 0.279415 -0.170455
v -0.126420 -0.236515 -0.193182
v -0.126420 -0.236515 0.193182
v -0.126420 0.236515 -0.193182
v -0.126420 0.236515 0.193182
v -0.124380 -0.262979 -0.152273
v -0.124380 -0.262979 0.193182
v -0.124380 0.262979 -0.152273
v -0.124380 0.262979 0.193182
v -0.118284 -0.285563 -0.170455
v -0.118284 0.285563 -0.170455
v -0.114662 -0.242433 -0.193182
v -0.114662 -0.242433 0.193182
v -0.114662 0.242433 -0.193182
v -0.114662 0.242433 0.193182
v -0.111326 -0.268765 -0.152273
v -0.111326 -0.268765 0.193182
v -0.111326 0.268765 -0.152273
v -0.111326 0.268765 0.193182
v -0.104130 -0.291023 -0.170455
v -0.104130 0.291023 -0.170455
v -0.102629 -0.247768 -0.193182
v -0.102629 -0.247768 0.193182
v -0.102629 0.247768 -0.193182
v -0.102629 0.247768 0.193182
v -0.098004 -0.273904 -0.152273
v -0.098004 -0.273904 0.193182
v -0.098004 0.273904 -0.152273
v -0.098004 0.273904 0.193182
v -0.090348 -0.252505 -0.193182
v -0.090348 -0.252505 0.193182
v -0.090348 0.252505 -0.193182
v -0.090348 0.252505 0.193182
v -0.089724 -0.295782 -0.170455
v -0.089724 0.295782 -0.170455
v -0.084446 -0.278383 -0.152273
v -0.084446 -0.278383 0.193182
v -0.084446 0.278383 -0.152273
v -0.084446 0.278383 0.193182
v -0.077849 -0.256634 -0.193182
v -0.077849 -0.256634 0.193182
v -0.077849 0.256634 -0.193182
v -0.077849 0.256634 0.193182
v -0.075103 -0.299828 -0.170455
v -0.075103 0.299828 -0.170455
v -0.070685 -0.282191 -0.152273
v -0.070685 -0.282191 0.193182
v -0.070685 0.282191 -0.152273
v -0.070685 0.282191 0.193182
v -0.065163 -0.260145 -0.193182
v -0.065163 -0.260145 0.193182
v -0.065163 0.260145 -0.193182
v -0.065163 0.260145 0.193182
v -0.060301 -0.303152 -0.170455
v -0.060301 0.303152 -0.170455
v -0.056754 -0.285319 -0.152273
v -0.056754 -0.285319 0.193182
v -0.056754 0.285319 -0.152273
v -0.056754 0.285319 0.193182
v -0.052320 -0.263029 -0.193182
v -0.052320 -0.263029 0.193182
v -0.052320 0.263029 -0.193182
v -0.052320 0.263029 0.193182
v -0.045353 -0.305745 -0.170455
v -0.045353 0.305745 -0.170455
v -0.042685 -0.287760 -0.152273
v -0.042685 -0.287760 0.193182
v -0.042685 0.287760 -0.152273
v -0.042685 0.287760 0.193182
v -0.039350 -0.265279 -0.193182
v -0.039350 -0.265279 0.193182
v -0.039350 0.265279 -0.193182
v -0.039350 0.265279 0.193182
v -0.030296 -0.307603 -0.170455
v -0.030296 0.307603 -0.170455
v -0.028514 -0.289508 -0.152273
v -0.028514 -0.289508 0.193182
v -0.028514 0.289508 -0.152273
v -0.028514 0.289508 0.193182
v -0.026286 -0.266890 -0.193182
v -0.026286 -0.266890 0.193182
v -0.026286 0.266890 -0.193182
v -0.026286 0.266890 0.193182
v -0.015166 -0.308719 -0.170455
v -0.015166 0.308719 -0.170455
v -0.014274 -0.290559 -0.152273
v -0.014274 -0.290559 0.193182
v -0.014274 0.290559 -0.152273
v -0.014274 0.290559 0.193182
v -0.013159 -0.267859 -0.193182
v -0.013159 -0.267859 0.193182
v -0.013159 0.267859 -0.193182
v -0.013159 0.267859 0.193182
v -0.000000 0.290909 0.193182
v -0.000000 -0.268182 -0.193182
v -0.000000 -0.268182 0.193182
v -0.000000 -0.309091 -0.170455
v -0.000000 0.309091 -0.170455
v -0.000000 -0.290909 -0.152273
v -0.000000 0.290909 -0.152273
v 0.000000 0.268182 -0.193182
v 0.000000 0.268182 0.193182
v 0.000000 -0.290909 0.193182
v 0.013159 -0.267859 -0.193182
v 0.013159 -0.267859 0.193182
v 0.013159 0.267859 -0.193182
v 0.013159 0.267859 0.193182
v 0.014274 -0.290559 -0.152273
v 0.014274 -0.290559 0.193182
v 0.014274 0.290559 -0.152273
v 0.014274 0.290559 0.193182
v 0.015166 -0.308719 -0.170455
v 0.015166 0.308719 -0.170455
v 0.026286 -0.266890 -0.193182
v 0.026286 -0.266890 0.193182
v 0.026286 0.266890 -0.193182
v 0.026286 0.266890 0.193182
v 0.028514 -0.289508 -0.152273
v 0.028514 -0.289508 0.193182
v 0.028514 0.289508 -0.152273
v 0.028514 0.289508 0.193182
v 0.030296 -0.307603 -0.170455
v 0.030296 0.307603 -0.170455
v 0.039350 -0.265279 -0.193182
v 0.039350 -0.265279 0.193182
v 0.039350 0.265279 -0.193182
v 0.039350 0.265279 0.193182
v 0.042685 -0.287760 -0.152273
v 0.042685 -0.287760 0.193182
v 0.042685 0.287760 -0.152273
v 0.042685 0.287760 0.193182
v 0.045353 -0.305745 -0.170455
v 0.045353 0.305745 -0.170455
v 0.052320 -0.263029 -0.193182
v 0.052320 -0.263029 0.193182
v 0.052320 0.263029 -0.193182
v 0.052320 0.263029 0.193182
v 0.056754 -0.285319 -0.152273
v 0.056754 -0.285319 0.193182
v 0.056754 0.285319 -0.152273
v 0.056754 0.285319 0.193182
v 0.060301 -0.303152 -0.170455
v 0.060301 0.303152 -0.170455
v 0.065163 -0.260145 -0.193182
v 0.065163 -0.260145 0.193182
v 0.065163 0.260145 -0.193182
v 0.065163 0.260145 0.193182
v 0.070685 -0.282191 -0.152273
v 0.070685 -0.282191 0.193182
v 0.070685 0.282191 -0.152273
v 0.070685 0.282191 0.193182
v 0.075103 -0.299828 -0.170455
v 0.075103 0.299828 -0.170455
v 0.077849 -0.256634 -0.193182
v 0.077849 -0.256634 0.193182
v 0.077849 0.256634 -0.193182
v 0.077849 0.256634 0.193182
v 0.084446 -0.278383 -0.152273
v 0.084446 -0.278383 0.193182
v 0.084446 0.278383 -0.152273
v 0.084446 0.278383 0.193182
v 0.089724 -0.295782 -0.170455
v 0.089724 0.295782 -0.170455
v 0.090348 -0.252505 -0.193182
v 0.090348 -0.252505 0.193182
v 0.090348 0.252505 -0.193182
v 0.090348 0.252505 0.193182
v 0.098004 -0.273904 -0.152273
v 0.098004 -0.273904 0.193182
v 0.098004 0.273904 -0.152273
v 0.098004 0.273904 0.193182
v 0.102629 -0.247768 -0.193182
v 0.102629 -0.247768 0.193182
v 0.102629 0.247768 -0.193182
v 0.102629 0.247768 0.193182
v 0.104130 -0.291023 -0.170455
v 0.104130 0.291023 -0.170455
v 0.111326 -0.268765 -0.152273
v 0.111326 -0.268765 0.193182
v 0.111326 0.268765 -0.152273
v 0.111326 0.268765 0.193182
v 0.114662 -0.242433 -0.193182
v 0.114662 -0.242433 0.193182
v 0.114662 0.242433 -0.193182
v 0.114662 0.242433 0.193182
v 0.118284 -0.285563 -0.170455
v 0.118284 0.285563 -0.170455
v 0.124380 -0.262979 -0.152273
v 0.124380 -0.262979 0.193182
v 0.124380 0.262979 -0.152273
v 0.124380 0.262979 0.193182
v 0.126420 -0.236515 -0.193182
v 0.126420 -0.236515 0.193182
v 0.126420 0.236515 -0.193182
v 0.126420 0.236515 0.193182
v 0.132153 -0.279415 -0.170455
v 0.132153 0.279415 -0.170455
v 0.137134 -0.256559 -0.152273
v 0.137134 -0.256559 0.193182
v 0.137134 0.256559 -0.152273
v 0.137134 0.256559 0.193182
v 0.137873 -0.230027 -0.193182
v 0.137873 -0.230027 0.193182
v 0.137873 0.230027 -0.193182
v 0.137873 0.230027 0.193182
v 0.145704 -0.272594 -0.170455
v 0.145704 0.272594 -0.170455
v 0.148994 -0.222985 -0.193182
v 0.148994 -0.222985 0.193182
v 0.148994 0.222985 -0.193182
v 0.148994 0.222985 0.193182
v 0.149557 -0.249521 -0.152273
v 0.149557 -0.249521 0.193182
v 0.149557 0.249521 -0.152273
v 0.149557 0.249521 0.193182
v 0.158904 -0.265116 -0.170455
v 0.158904 0.265116 -0.170455
v 0.159756 -0.215406 -0.193182
v 0.159756 -0.215406 0.193182
v 0.159756 0.215406 -0.193182
v 0.159756 0.215406 0.193182
v 0.161620 -0.241882 -0.152273
v 0.161620 -0.241882 0.193182
v 0.161620 0.241882 -0.152273
v 0.161620 0.241882 0.193182
v 0.170133 -0.207307 -0.193182
v 0.170133 -0.207307 0.193182
v 0.170133 0.207307 -0.193182
v 0.170133 0.207307 0.193182
v 0.171722 -0.257000 -0.170455
v 0.171722 0.257000 -0.170455
v 0.173294 -0.233660 -0.152273
v 0.173294 -0.233660 0.193182
v 0.173294 0.233660 -0.152273
v 0.173294 0.233660 0.193182
v 0.180100 -0.198710 -0.193182
v 0.180100 -0.198710 0.193182
v 0.180100 0.198710 -0.193182
v 0.180100 0.198710 0.193182
v 0.184125 -0.248264 -0.170455
v 0.184125 0.248264 -0.170455
v 0.184551 -0.224876 -0.152273
v 0.184551 -0.224876 0.193182
v 0.184551 0.224876 -0.152273
v 0.184551 0.224876 0.193182
v 0.189633 -0.189633 -0.193182
v 0.189633 -0.189633 0.193182
v 0.189633 0.189633 -0.193182
v 0.189633 0.189633 0.193182
v 0.195363 -0.215549 -0.152273
v 0.195363 -0.215549 0.193182
v 0.195363 0.215549 -0.152273
v 0.195363 0.215549 0.193182
v 0.196085 -0.238931 -0.170455
v 0.196085 0.238931 -0.170455
v 0.198710 -0.180100 -0.193182
v 0.198710 -0.180100 0.193182
v 0.198710 0.180100 -0.193182
v 0.198710 0.180100 0.193182
v 0.205704 -0.205704 -0.152273
v 0.205704 -0.205704 0.193182
v 0.205704 0.205704 -0.152273
v 0.205704 0.205704 0.193182
v 0.207307 -0.170133 -0.193182
v 0.207307 -0.170133 0.193182
v 0.207307 0.170133 -0.193182
v 0.207307 0.170133 0.193182
v 0.207573 -0.229021 -0.170455
v 0.207573 0.229021 -0.170455
v 0.215406 -0.159756 -0.193182
v 0.215406 -0.159756 0.193182
v 0.215406 0.159756 -0.193182
v 0.215406 0.159756 0.193182
v 0.215549 -0.195363 -0.152273
v 0.215549 -0.195363 0.193182
v 0.215549 0.195363 -0.152273
v 0.215549 0.195363 0.193182
v 0.218560 -0.218560 -0.170455
v 0.218560 0.218560 -0.170455
v 0.222985 -0.148994 -0.193182
v 0.222985 -0.148994 0.193182
v 0.222985 0.148994 -0.193182
v 0.222985 0.148994 0.193182
v 0.224876 -0.184551 -0.152273
v 0.224876 -0.184551 0.193182
v 0.224876 0.184551 -0.152273
v 0.224876 0.184551 0.193182
v 0.227273 0.454545 -0.152273
v 0.227273 0.454545 0.193182
v 0.227273 0.500000 -0.152273
v 0.227273 0.500000 0.193182
v 0.229021 -0.207573 -0.170455
v 0.229021 0.207573 -0.170455
v 0.230027 -0.137873 -0.193182
v 0.230027 -0.137873 0.193182
v 0.230027 0.137873 -0.193182
v 0.230027 0.137873 0.193182
v 0.233660 -0.173294 -0.152273
v 0.233660 -0.173294 0.193182
v 0.233660 0.173294 -0.152273
v 0.233660 0.173294 0.193182
v 0.236515 -0.126420 -0.193182
v 0.236515 -0.126420 0.193182
v 0.236515 0.126420 -0.193182
v 0.236515 0.126420 0.193182
v 0.238931 -0.196085 -0.170455
v 0.238931 0.196085 -0.170455
v 0.241882 -0.161620 -0.152273
v 0.241882 -0.161620 0.193182
v 0.241882 0.161620 -0.152273
v 0.241882 0.161620 0.193182
v 0.242433 -0.114662 -0.193182
v 0.242433 -0.114662 0.193182
v 0.242433 0.114662 -0.193182
v 0.242433 0.114662 0.193182
v 0.245455 0.436364 -0.170455
v 0.245455 0.500000 -0.170455
v 0.247768 -0.102629 -0.193182
v 0.247768 -0.102629 0.193182
v 0.247768 0.102629 -0.193182
v 0.247768 0.102629 0.193182
v 0.248264 -0.184125 -0.170455
v 0.248264 0.184125 -0.170455
v 0.249521 -0.149557 -0.152273
v 0.249521 -0.149557 0.193182
v 0.249521 0.149557 -0.152273
v 0.249521 0.149557 0.193182
v 0.252505 -0.090348 -0.193182
v 0.252505 -0.090348 0.193182
v 0.252505 0.090348 -0.193182
v 0.252505 0.090348 0.193182
v 0.256559 -0.137134 -0.152273
v 0.256559 -0.137134 0.193182
v 0.256559 0.137134 -0.152273
v 0.256559 0.137134 0.193182
v 0.256634 -0.077849 -0.193182
v 0.256634 -0.077849 0.193182
v 0.256634 0.077849 -0.193182
v 0.256634 0.077849 0.193182
v 0.257000 -0.171722 -0.170455
v 0.257000 0.171722 -0.170455
v 0.260145 -0.065163 -0.193182
v 0.260145 -0.065163 0.193182
v 0.260145 0.065163 -0.193182
v 0.260145 0.065163 0.193182
v 0.262979 -0.124380 -0.152273
v 0.262979 -0.124380 0.193182
v 0.262979 0.124380 -0.152273
v 0.262979 0.124380 0.193182
v 0.263029 -0.052320 -0.193182
v 0.263029 -0.052320 0.193182
v 0.263029 0.052320 -0.193182
v 0.263029 0.052320 0.193182
v 0.265116 -0.158904 -0.170455
v 0.265116 0.158904 -0.170455
v 0.265279 -0.039350 -0.193182
v 0.265279 -0.039350 0.193182
v 0.265279 0.039350 -0.193182
v 0.265279 0.039350 0.193182
v 0.266890 -0.026286 -0.193182
v 0.266890 -0.026286 0.193182
v 0.266890 0.026286 -0.193182
v 0.266890 0.026286 0.193182
v 0.267859 -0.013159 -0.193182
v 0.267859 -0.013159 0.193182
v 0.267859 0.013159 -0.193182
v 0.267859 0.013159 0.193182
v 0.268182 0.000000 -0.193182
v 0.268182 0.000000 0.193182
v 0.268765 -0.111326 -0.152273
v 0.268765 -0.111326 0.193182
v 0.268765 0.111326 -0.152273
v 0.268765 0.111326 0.193182
v 0.272594 -0.145704 -0.170455
v 0.272594 0.145704 -0.170455
v 0.273904 -0.098004 -0.152273
v 0.273904 -0.098004 0.193182
v 0.273904 0.098004 -0.152273
v 0.273904 0.098004 0.193182
v 0.278383 -0.084446 -0.152273
v 0.278383 -0.084446 0.193182
v 0.278383 0.084446 -0.152273
v 0.278383 0.084446 0.193182
v 0.279415 -0.132153 -0.170455
v 0.279415 0.132153 -0.170455
v 0.282191 -0.070685 -0.152273
v 0.282191 -0.070685 0.193182
v 0.282191 0.070685 -0.152273
v 0.282191 0.070685 0.193182
v 0.285319 -0.056754 -0.152273
v 0.285319 -0.056754 0.193182
v 0.285319 0.056754 -0.152273
v 0.285319 0.056754 0.193182
v 0.285563 -0.118284 -0.170455
v 0.285563 0.118284 -0.170455
v 0.287760 -0.042685 -0.152273
v 0.287760 -0.042685 0.193182
v 0.287760 0.042685 -0.152273
v 0.287760 0.042685 0.193182
v 0.289508 -0.028514 -0.152273
v 0.289508 -0.028514 0.193182
v 0.289508 0.028514 -0.152273
v 0.289508 0.028514 0.193182
v 0.290559 -0.014274 -0.152273
v 0.290559 -0.014274 0.193182
v 0.290559 0.014274 -0.152273
v 0.290559 0.014274 0.193182
v 0.290909 -0.000000 -0.152273
v 0.290909 0.000000 0.193182
v 0.291023 -0.104130 -0.170455
v 0.291023 0.104130 -0.170455
v 0.295782 -0.089724 -0.170455
v 0.295782 0.089724 -0.170455
v 0.299828 -0.075103 -0.170455
v 0.299828 0.075103 -0.170455
v 0.303152 -0.060301 -0.170455
v 0.303152 0.060301 -0.170455
v 0.305745 -0.045353 -0.170455
v 0.305745 0.045353 -0.170455
v 0.307603 -0.030296 -0.170455
v 0.307603 0.030296 -0.170455
v 0.308719 -0.015166 -0.170455
v 0.308719 0.015166 -0.170455
v 0.309091 0.000000 -0.170455
v 0.500000 -0.500000 -0.193182
v 0.500000 -0.500000 -0.170455
v 0.500000 0.500000 -0.193182
v 0.500000 0.500000 -0.170455
f 522 520 549
f 549 520 548
f 112 548 138
f 138 548 520
f 112 138 113
f 113 138 140
f 636 654 640
f 636 652 654
f 636 632 652
f 652 632 650
f 650 632 628
f 648 628 622
f 646 622 618
f 644 618 612
f 642 612 608
f 626 608 602
f 616 602 578
f 606 578 564
f 586 564 556
f 572 556 540
f 554 540 530
f 538 530 516
f 524 516 506
f 510 506 492
f 500 492 482
f 486 482 474
f 472 474 464
f 462 464 454
f 448 454 444
f 438 444 430
f 428 430 420
f 418 420 410
f 408 410 400
f 394 400 390
f 384 390 380
f 374 380 370
f 364 370 360
f 354 360 350
f 344 350 340
f 329 340 331
f 316 331 318
f 306 318 308
f 296 308 298
f 286 298 288
f 276 288 278
f 266 278 268
f 252 268 258
f 242 258 248
f 232 248 238
f 222 238 228
f 212 228 214
f 198 214 204
f 188 204 194
f 174 194 184
f 160 184 176
f 150 176 166
f 136 166 152
f 122 152 142
f 106 142 128
f 88 128 118
f 74 118 102
f 54 102 94
f 44 94 80
f 34 80 56
f 18 56 50
f 16 50 46
f 14 46 40
f 12 40 36
f 10 36 30
f 8 30 26
f 6 26 22
f 5 22 21
f 7 21 24
f 9 24 28
f 11 28 32
f 13 32 38
f 15 38 42
f 17 42 48
f 19 48 52
f 35 52 58
f 45 58 82
f 55 82 96
f 75 96 104
f 89 104 120
f 107 120 130
f 123 130 144
f 137 144 154
f 151 154 168
f 161 168 178
f 175 178 186
f 189 186 196
f 199 196 206
f 213 206 216
f 223 216 230
f 233 230 240
f 243 240 250
f 253 250 260
f 267 260 270
f 277 270 280
f 287 280 290
f 297 290 300
f 307 300 310
f 317 310 320
f 330 320 332
f 345 332 342
f 355 342 352
f 365 352 362
f 375 362 372
f 385 372 382
f 395 382 392
f 409 392 402
f 419 402 412
f 429 412 422
f 439 422 432
f 449 432 446
f 463 446 456
f 473 456 466
f 487 466 476
f 501 476 484
f 511 484 494
f 525 494 508
f 539 508 518
f 555 518 532
f 573 532 542
f 587 542 558
f 607 558 566
f 617 566 580
f 627 580 604
f 643 604 610
f 645 610 614
f 647 614 620
f 649 620 624
f 651 624 630
f 653 630 634
f 655 634 638
f 656 638 640
f 654 656 640
f 656 655 638
f 655 653 634
f 653 651 630
f 651 649 624
f 649 647 620
f 647 645 614
f 645 643 610
f 643 627 604
f 627 617 580
f 617 607 566
f 607 587 558
f 587 573 542
f 573 555 532
f 555 539 518
f 539 525 508
f 525 511 494
f 511 501 484
f 501 487 476
f 487 473 466
f 473 463 456
f 463 449 446
f 449 439 432
f 439 429 422
f 429 419 412
f 419 409 402
f 409 395 392
f 395 385 382
f 385 375 372
f 375 365 362
f 365 355 352
f 355 345 342
f 345 330 332
f 330 317 320
f 317 307 310
f 307 297 300
f 297 287 290
f 287 277 280
f 277 267 270
f 267 253 260
f 253 243 250
f 243 233 240
f 233 223 230
f 223 213 216
f 213 199 206
f 199 189 196
f 189 175 186
f 175 161 178
f 161 151 168
f 151 137 154
f 137 123 144
f 123 107 130
f 107 89 120
f 89 75 104
f 75 55 96
f 55 45 82
f 45 35 58
f 35 19 52
f 19 17 48
f 17 15 42
f 15 13 38
f 13 11 32
f 11 9 28
f 9 7 24
f 7 5 21
f 5 6 22
f 6 8 26
f 8 10 30
f 10 12 36
f 12 14 40
f 14 16 46
f 16 18 50
f 18 34 56
f 34 44 80
f 44 54 94
f 54 74 102
f 74 88 118
f 88 106 128
f 106 122 142
f 122 136 152
f 136 150 166
f 150 160 176
f 160 174 184
f 174 188 194
f 188 198 204
f 198 212 214
f 212 222 228
f 222 232 238
f 232 242 248
f 242 252 258
f 252 266 268
f 266 276 278
f 276 286 288
f 286 296 298
f 296 306 308
f 306 316 318
f 316 329 331
f 329 344 340
f 344 354 350
f 354 364 360
f 364 374 370
f 374 384 380
f 384 394 390
f 394 408 400
f 408 418 410
f 418 428 420
f 428 438 430
f 438 448 444
f 448 462 454
f 462 472 464
f 472 486 474
f 486 500 482
f 500 510 492
f 510 524 506
f 524 538 516
f 538 554 530
f 554 572 540
f 572 586 556
f 586 606 564
f 606 616 578
f 616 626 602
f 626 642 608
f 642 644 612
f 644 646 618
f 646 648 622
f 648 650 628
f 637 636 641
f 637 632 636
f 637 633 632
f 632 633 628
f 628 633 629
f 622 629 623
f 618 623 619
f 612 619 613
f 608 613 609
f 602 609 603
f 578 603 579
f 564 579 565
f 556 565 557
f 540 557 541
f 530 541 531
f 516 531 517
f 506 517 507
f 492 507 493
f 482 493 483
f 474 483 475
f 464 475 465
f 454 465 455
f 444 455 445
f 430 445 431
f 420 431 421
f 410 421 411
f 400 411 401
f 390 401 391
f 380 391 381
f 370 381 371
f 360 371 361
f 350 361 351
f 340 351 341
f 331 341 335
f 318 335 319
f 308 319 309
f 298 309 299
f 288 299 289
f 278 289 279
f 268 279 269
f 258 269 259
f 248 259 249
f 238 249 239
f 228 239 229
f 214 229 215
f 204 215 205
f 194 205 195
f 184 195 185
f 176 185 177
f 166 177 167
f 152 167 153
f 142 153 143
f 128 143 129
f 118 129 119
f 102 119 103
f 94 103 95
f 80 95 81
f 56 81 57
f 50 57 51
f 46 51 47
f 40 47 41
f 36 41 37
f 30 37 31
f 26 31 27
f 22 27 23
f 21 23 20
f 24 20 25
f 28 25 29
f 32 29 33
f 38 33 39
f 42 39 43
f 48 43 49
f 52 49 53
f 58 53 59
f 82 59 83
f 96 83 97
f 104 97 105
f 120 105 121
f 130 121 131
f 144 131 145
f 154 145 155
f 168 155 169
f 178 169 179
f 186 179 187
f 196 187 197
f 206 197 207
f 216 207 217
f 230 217 231
f 240 231 241
f 250 241 251
f 260 251 261
f 270 261 271
f 280 271 281
f 290 281 291
f 300 291 301
f 310 301 311
f 320 311 321
f 332 321 326
f 342 326 343
f 352 343 353
f 362 353 363
f 372 363 373
f 382 373 383
f 392 383 393
f 402 393 403
f 412 403 413
f 422 413 423
f 432 423 433
f 446 433 447
f 456 447 457
f 466 457 467
f 476 467 477
f 484 477 485
f 494 485 495
f 508 495 509
f 518 509 519
f 532 519 533
f 542 533 543
f 558 543 559
f 566 559 567
f 580 567 581
f 604 581 605
f 610 605 611
f 614 611 615
f 620 615 621
f 624 621 625
f 630 625 631
f 634 631 635
f 638 635 639
f 640 639 641
f 636 640 641
f 640 638 639
f 638 634 635
f 634 630 631
f 630 624 625
f 624 620 621
f 620 614 615
f 614 610 611
f 610 604 605
f 604 580 581
f 580 566 567
f 566 558 559
f 558 542 543
f 542 532 533
f 532 518 519
f 518 508 509
f 508 494 495
f 494 484 485
f 484 476 477
f 476 466 467
f 466 456 457
f 456 446 447
f 446 432 433
f 432 422 423
f 422 412 413
f 412 402 403
f 402 392 393
f 392 382 383
f 382 372 373
f 372 362 363
f 362 352 353
f 352 342 343
f 342 332 326
f 332 320 321
f 320 310 311
f 310 300 301
f 300 290 291
f 290 280 281
f 280 270 271
f 270 260 261
f 260 250 251
f 250 240 241
f 240 230 231
f 230 216 217
f 216 206 207
f 206 196 197
f 196 186 187
f 186 178 179
f 178 168 169
f 168 154 155
f 154 144 145
f 144 130 131
f 130 120 121
f 120 104 105
f 104 96 97
f 96 82 83
f 82 58 59
f 58 52 53
f 52 48 49
f 48 42 43
f 42 38 39
f 38 32 33
f 32 28 29
f 28 24 25
f 24 21 20
f 21 22 23
f 22 26 27
f 26 30 31
f 30 36 37
f 36 40 41
f 40 46 47
f 46 50 51
f 50 56 57
f 56 80 81
f 80 94 95
f 94 102 103
f 102 118 119
f 118 128 129
f 128 142 143
f 142 152 153
f 152 166 167
f 166 176 177
f 176 184 185
f 184 194 195
f 194 204 205
f 204 214 215
f 214 228 229
f 228 238 239
f 238 248 249
f 248 258 259
f 258 268 269
f 268 278 279
f 278 288 289
f 288 298 299
f 298 308 309
f 308 318 319
f 318 331 335
f 331 340 341
f 340 350 351
f 350 360 361
f 360 370 371
f 370 380 381
f 380 390 391
f 390 400 401
f 400 410 411
f 410 420 421
f 420 430 431
f 430 444 445
f 444 454 455
f 454 464 465
f 464 474 475
f 474 482 483
f 482 492 493
f 492 506 507
f 506 516 517
f 516 530 531
f 530 540 541
f 540 556 557
f 556 564 565
f 564 578 579
f 578 602 603
f 602 608 609
f 608 612 613
f 612 618 619
f 618 622 623
f 622 628 629
f 549 548 660
f 660 548 555
f 573 660 555
f 573 587 660
f 660 587 607
f 617 660 607
f 617 627 660
f 660 627 643
f 645 660 643
f 645 647 660
f 660 647 649
f 651 660 649
f 651 653 660
f 660 653 655
f 656 660 655
f 656 658 660
f 656 654 658
f 658 654 652
f 650 658 652
f 650 648 658
f 658 648 646
f 644 658 646
f 644 642 658
f 658 642 626
f 616 658 626
f 616 606 658
f 658 606 586
f 572 658 586
f 572 554 658
f 658 554 538
f 524 658 538
f 524 510 658
f 658 510 500
f 486 658 500
f 486 472 658
f 658 472 462
f 448 658 462
f 448 438 658
f 658 438 428
f 418 658 428
f 418 408 658
f 658 408 394
f 384 658 394
f 384 374 658
f 658 374 364
f 354 658 364
f 354 344 658
f 658 344 329
f 2 329 316
f 306 2 316
f 306 296 2
f 2 296 286
f 276 2 286
f 276 266 2
f 2 266 252
f 242 2 252
f 242 232 2
f 2 232 222
f 212 2 222
f 212 198 2
f 2 198 188
f 174 2 188
f 174 160 2
f 2 160 150
f 136 2 150
f 136 122 2
f 2 122 106
f 88 2 106
f 88 74 2
f 2 74 54
f 44 2 54
f 44 34 2
f 2 34 18
f 16 2 18
f 16 14 2
f 2 14 12
f 10 2 12
f 10 8 2
f 2 8 6
f 5 2 6
f 5 4 2
f 5 7 4
f 4 7 9
f 11 4 9
f 11 13 4
f 4 13 15
f 17 4 15
f 17 19 4
f 4 19 35
f 45 4 35
f 45 55 4
f 4 55 75
f 89 4 75
f 89 107 4
f 4 107 112
f 113 4 112
f 307 317 112
f 297 112 287
f 297 307 112
f 2 658 329
f 107 123 112
f 112 123 137
f 151 112 137
f 151 161 112
f 112 161 175
f 189 112 175
f 189 199 112
f 112 199 213
f 223 112 213
f 223 233 112
f 112 233 243
f 253 112 243
f 253 267 112
f 112 267 277
f 287 112 277
f 317 330 112
f 112 330 548
f 548 330 345
f 355 548 345
f 355 365 548
f 548 365 375
f 385 548 375
f 385 395 548
f 548 395 409
f 419 548 409
f 419 429 548
f 548 429 439
f 449 548 439
f 449 463 548
f 548 463 473
f 487 548 473
f 487 501 548
f 548 501 511
f 525 548 511
f 525 539 548
f 548 539 555
f 520 522 521
f 521 522 523
f 138 520 139
f 139 520 521
f 140 138 141
f 141 138 139
f 523 141 521
f 521 141 139
f 326 334 343
f 326 321 334
f 334 321 325
f 325 321 311
f 315 311 301
f 305 301 291
f 295 291 281
f 285 281 271
f 275 271 261
f 265 261 251
f 257 251 241
f 247 241 231
f 237 231 217
f 227 217 207
f 221 207 197
f 211 197 187
f 203 187 179
f 193 179 169
f 183 169 155
f 173 155 145
f 165 145 131
f 159 131 121
f 149 121 105
f 135 105 97
f 127 97 83
f 117 83 59
f 111 59 53
f 101 53 49
f 93 49 43
f 87 43 39
f 79 39 33
f 73 33 29
f 69 29 25
f 65 25 20
f 61 20 63
f 61 65 20
f 343 339 353
f 343 334 339
f 353 349 363
f 353 339 349
f 363 359 373
f 363 349 359
f 373 369 383
f 373 359 369
f 383 379 393
f 383 369 379
f 393 389 403
f 393 379 389
f 403 399 413
f 403 389 399
f 413 407 423
f 413 399 407
f 423 417 433
f 423 407 417
f 433 427 447
f 433 417 427
f 447 437 457
f 447 427 437
f 457 443 467
f 457 437 443
f 467 453 477
f 467 443 453
f 477 461 485
f 477 453 461
f 485 471 495
f 485 461 471
f 20 23 63
f 63 23 67
f 67 23 27
f 71 27 31
f 77 31 37
f 85 37 41
f 91 41 47
f 99 47 51
f 109 51 57
f 115 57 81
f 125 81 95
f 133 95 103
f 147 103 119
f 157 119 129
f 163 129 143
f 171 143 153
f 181 153 167
f 191 167 177
f 201 177 185
f 209 185 195
f 219 195 205
f 225 205 215
f 235 215 229
f 245 229 239
f 255 239 249
f 263 249 259
f 273 259 269
f 283 269 279
f 293 279 289
f 303 289 299
f 313 299 309
f 323 309 319
f 328 319 335
f 341 328 335
f 341 337 328
f 341 351 337
f 337 351 347
f 347 351 361
f 357 361 371
f 367 371 381
f 377 381 391
f 387 391 401
f 397 401 411
f 405 411 421
f 415 421 431
f 425 431 445
f 435 445 455
f 441 455 465
f 451 465 475
f 459 475 483
f 469 483 493
f 479 493 507
f 489 507 517
f 497 517 531
f 503 531 541
f 513 541 557
f 527 557 565
f 535 565 579
f 545 579 603
f 551 603 609
f 561 609 613
f 569 613 619
f 575 619 623
f 583 623 629
f 589 629 633
f 593 633 637
f 597 637 601
f 597 593 637
f 637 641 601
f 601 641 599
f 599 641 639
f 595 639 635
f 591 635 631
f 585 631 625
f 577 625 621
f 571 621 615
f 563 615 611
f 553 611 605
f 547 605 581
f 537 581 567
f 529 567 559
f 515 559 543
f 505 543 533
f 499 533 519
f 491 519 509
f 481 509 495
f 471 481 495
f 593 589 633
f 589 583 629
f 583 575 623
f 575 569 619
f 569 561 613
f 561 551 609
f 551 545 603
f 545 535 579
f 535 527 565
f 527 513 557
f 513 503 541
f 503 497 531
f 497 489 517
f 489 479 507
f 479 469 493
f 469 459 483
f 459 451 475
f 451 441 465
f 441 435 455
f 435 425 445
f 425 415 431
f 415 405 421
f 405 397 411
f 397 387 401
f 387 377 391
f 377 367 381
f 367 357 371
f 357 347 361
f 328 323 319
f 323 313 309
f 313 303 299
f 303 293 289
f 293 283 279
f 283 273 269
f 273 263 259
f 263 255 249
f 255 245 239
f 245 235 229
f 235 225 215
f 225 219 205
f 219 209 195
f 209 201 185
f 201 191 177
f 191 181 167
f 181 171 153
f 171 163 143
f 163 157 129
f 157 147 119
f 147 133 103
f 133 125 95
f 125 115 81
f 115 109 57
f 109 99 51
f 99 91 47
f 91 85 41
f 85 77 37
f 77 71 31
f 71 67 27
f 65 69 25
f 69 73 29
f 73 79 33
f 79 87 39
f 87 93 43
f 93 101 49
f 101 111 53
f 111 117 59
f 117 127 83
f 127 135 97
f 135 149 105
f 149 159 121
f 159 165 131
f 165 173 145
f 173 183 155
f 183 193 169
f 193 203 179
f 203 211 187
f 211 221 197
f 221 227 207
f 227 237 217
f 237 247 231
f 247 257 241
f 257 265 251
f 265 275 261
f 275 285 271
f 285 295 281
f 295 305 291
f 305 315 301
f 315 325 311
f 481 491 509
f 491 499 519
f 499 505 533
f 505 515 543
f 515 529 559
f 529 537 567
f 537 547 581
f 547 553 605
f 553 563 611
f 563 571 615
f 571 577 621
f 577 585 625
f 585 591 631
f 591 595 635
f 595 599 639
f 4 113 3
f 3 113 549
f 659 549 660
f 659 3 549
f 549 113 522
f 522 113 140
f 523 140 141
f 523 522 140
f 660 658 659
f 659 658 657
f 658 2 657
f 657 2 1
f 2 4 1
f 1 4 3
f 599 598 601
f 599 594 598
f 599 595 594
f 594 595 590
f 590 595 591
f 584 591 585
f 576 585 577
f 570 577 571
f 562 571 563
f 552 563 553
f 546 553 547
f 536 547 537
f 528 537 529
f 514 529 515
f 504 515 505
f 498 505 499
f 490 499 491
f 480 491 481
f 470 481 471
f 460 471 461
f 452 461 453
f 442 453 443
f 436 443 437
f 426 437 427
f 416 427 417
f 406 417 407
f 398 407 399
f 388 399 389
f 378 389 379
f 368 379 369
f 358 369 359
f 348 359 349
f 338 349 339
f 333 339 334
f 324 334 325
f 314 325 315
f 304 315 305
f 294 305 295
f 284 295 285
f 274 285 275
f 264 275 265
f 256 265 257
f 246 257 247
f 236 247 237
f 226 237 227
f 220 227 221
f 210 221 211
f 202 211 203
f 192 203 193
f 182 193 183
f 172 183 173
f 164 173 165
f 158 165 159
f 148 159 149
f 134 149 135
f 126 135 127
f 116 127 117
f 110 117 111
f 100 111 101
f 92 101 93
f 86 93 87
f 78 87 79
f 72 79 73
f 68 73 69
f 64 69 65
f 60 65 61
f 62 61 63
f 66 63 67
f 70 67 71
f 76 71 77
f 84 77 85
f 90 85 91
f 98 91 99
f 108 99 109
f 114 109 115
f 124 115 125
f 132 125 133
f 146 133 147
f 156 147 157
f 162 157 163
f 170 163 171
f 180 171 181
f 190 181 191
f 200 191 201
f 208 201 209
f 218 209 219
f 224 219 225
f 234 225 235
f 244 235 245
f 254 245 255
f 262 255 263
f 272 263 273
f 282 273 283
f 292 283 293
f 302 293 303
f 312 303 313
f 322 313 323
f 327 323 328
f 336 328 337
f 346 337 347
f 356 347 357
f 366 357 367
f 376 367 377
f 386 377 387
f 396 387 397
f 404 397 405
f 414 405 415
f 424 415 425
f 434 425 435
f 440 435 441
f 450 441 451
f 458 451 459
f 468 459 469
f 478 469 479
f 488 479 489
f 496 489 497
f 502 497 503
f 512 503 513
f 526 513 527
f 534 527 535
f 544 535 545
f 550 545 551
f 560 551 561
f 568 561 569
f 574 569 575
f 582 575 583
f 588 583 589
f 592 589 593
f 596 593 597
f 600 597 601
f 598 600 601
f 600 596 597
f 596 592 593
f 592 588 589
f 588 582 583
f 582 574 575
f 574 568 569
f 568 560 561
f 560 550 551
f 550 544 545
f 544 534 535
f 534 526 527
f 526 512 513
f 512 502 503
f 502 496 497
f 496 488 489
f 488 478 479
f 478 468 469
f 468 458 459
f 458 450 451
f 450 440 441
f 440 434 435
f 434 424 425
f 424 414 415
f 414 404 405
f 404 396 397
f 396 386 387
f 386 376 377
f 376 366 367
f 366 356 357
f 356 346 347
f 346 336 337
f 336 327 328
f 327 322 323
f 322 312 313
f 312 302 303
f 302 292 293
f 292 282 283
f 282 272 273
f 272 262 263
f 262 254 255
f 254 244 245
f 244 234 235
f 234 224 225
f 224 218 219
f 218 208 209
f 208 200 201
f 200 190 191
f 190 180 181
f 180 170 171
f 170 162 163
f 162 156 157
f 156 146 147
f 146 132 133
f 132 124 125
f 124 114 115
f 114 108 109
f 108 98 99
f 98 90 91
f 90 84 85
f 84 76 77
f 76 70 71
f 70 66 67
f 66 62 63
f 62 60 61
f 60 64 65
f 64 68 69
f 68 72 73
f 72 78 79
f 78 86 87
f 86 92 93
f 92 100 101
f 100 110 111
f 110 116 117
f 116 126 127
f 126 134 135
f 134 148 149
f 148 158 159
f 158 164 165
f 164 172 173
f 172 182 183
f 182 192 193
f 192 202 203
f 202 210 211
f 210 220 221
f 220 226 227
f 226 236 237
f 236 246 247
f 246 256 257
f 256 264 265
f 264 274 275
f 274 284 285
f 284 294 295
f 294 304 305
f 304 314 315
f 314 324 325
f 324 333 334
f 333 338 339
f 338 348 349
f 348 358 359
f 358 368 369
f 368 378 379
f 378 388 389
f 388 398 399
f 398 406 407
f 406 416 417
f 416 426 427
f 426 436 437
f 436 442 443
f 442 452 453
f 452 460 461
f 460 470 471
f 470 480 481
f 480 490 491
f 490 498 499
f 498 504 505
f 504 514 515
f 514 528 529
f 528 536 537
f 536 546 547
f 546 552 553
f 552 562 563
f 562 570 571
f 570 576 577
f 576 584 585
f 584 590 591
f 598 659 600
f 598 594 659
f 659 594 590
f 584 659 590
f 584 576 659
f 659 576 570
f 562 659 570
f 562 552 659
f 659 552 546
f 536 659 546
f 536 528 659
f 659 528 514
f 504 659 514
f 504 498 659
f 659 498 490
f 480 659 490
f 480 470 659
f 659 470 460
f 452 659 460
f 452 442 659
f 659 442 436
f 426 659 436
f 426 416 659
f 659 416 406
f 398 659 406
f 398 388 659
f 659 388 378
f 368 659 378
f 368 358 659
f 659 358 348
f 338 659 348
f 338 333 659
f 659 333 3
f 3 333 324
f 314 3 324
f 314 304 3
f 3 304 294
f 284 3 294
f 284 274 3
f 3 274 264
f 256 3 264
f 256 246 3
f 3 246 236
f 226 3 236
f 226 220 3
f 3 220 210
f 202 3 210
f 202 192 3
f 3 192 182
f 172 3 182
f 172 164 3
f 3 164 158
f 148 3 158
f 148 134 3
f 3 134 126
f 116 3 126
f 116 110 3
f 3 110 100
f 92 3 100
f 92 86 3
f 3 86 78
f 72 3 78
f 72 68 3
f 3 68 64
f 60 3 64
f 60 1 3
f 60 62 1
f 1 62 66
f 70 1 66
f 70 76 1
f 1 76 84
f 90 1 84
f 90 98 1
f 1 98 108
f 114 1 108
f 114 124 1
f 1 124 132
f 146 1 132
f 146 156 1
f 1 156 162
f 170 1 162
f 170 180 1
f 1 180 190
f 200 1 190
f 200 208 1
f 1 208 218
f 224 1 218
f 224 234 1
f 1 234 244
f 254 1 244
f 254 262 1
f 1 262 272
f 282 1 272
f 282 292 1
f 1 292 302
f 312 1 302
f 312 322 1
f 1 322 327
f 657 327 336
f 346 657 336
f 346 356 657
f 657 356 366
f 376 657 366
f 376 386 657
f 657 386 396
f 404 657 396
f 404 414 657
f 657 414 424
f 434 657 424
f 434 440 657
f 657 440 450
f 458 657 450
f 458 468 657
f 657 468 478
f 488 657 478
f 488 496 657
f 657 496 502
f 512 657 502
f 512 526 657
f 657 526 534
f 544 657 534
f 544 550 657
f 657 550 560
f 568 657 560
f 568 574 657
f 657 574 582
f 588 657 582
f 588 592 657
f 657 592 596
f 600 657 596
f 600 659 657
f 657 1 327
