v -0.500000 -0.250000 -0.199902
v -0.500000 -0.250000 -0.062469
v -0.500000 0.250000 -0.199902
v -0.500000 0.250000 -0.062469
v -0.499049 -0.271789 -0.199902
v -0.499049 -0.271789 -0.062469
v -0.499049 0.271789 -0.199902
v -0.499049 0.271789 -0.062469
v -0.496202 -0.293412 -0.199902
v -0.496202 -0.293412 -0.062469
v -0.496202 0.293412 -0.199902
v -0.496202 0.293412 -0.062469
v -0.491482 -0.314705 -0.199902
v -0.491482 -0.314705 -0.062469
v -0.491481 0.314705 -0.199902
v -0.491481 0.314705 -0.062469
v -0.484923 -0.335505 -0.199902
v -0.484923 -0.335505 -0.062469
v -0.484923 0.335505 -0.199902
v -0.484923 0.335505 -0.062469
v -0.476577 -0.355655 -0.199902
v -0.476577 -0.355655 -0.062469
v -0.476577 0.355655 -0.199902
v -0.476577 0.355655 -0.062469
v -0.466506 -0.375000 -0.199902
v -0.466506 -0.375000 -0.062469
v -0.466506 0.375000 -0.199902
v -0.466506 0.375000 -0.062469
v -0.454788 -0.393394 -0.199902
v -0.454788 -0.393394 -0.062469
v -0.454788 0.393394 -0.199902
v -0.454788 0.393394 -0.062469
v -0.449998 -0.236675 -0.074963
v -0.449998 -0.236675 -0.062469
v -0.449871 0.244673 -0.074963
v -0.449871 0.244673 -0.062469
v -0.449601 0.224878 -0.074963
v -0.449601 0.224878 -0.062469
v -0.449111 -0.256334 -0.074963
v -0.449111 -0.256334 -0.062469
v -0.448949 -0.217025 -0.074963
v -0.448949 -0.217025 -0.062469
v -0.448183 0.264398 -0.074963
v -0.448183 0.264398 -0.062469
v -0.447375 0.205206 -0.074963
v -0.447375 0.205206 -0.062469
v -0.446297 -0.275810 -0.074963
v -0.446297 -0.275810 -0.062469
v -0.445974 -0.197572 -0.074963
v -0.445974 -0.197572 -0.062469
v -0.444553 0.283860 -0.074963
v -0.444553 0.283860 -0.062469
v -0.443216 0.185850 -0.074963
v -0.443216 0.185850 -0.062469
v -0.441582 -0.294915 -0.074963
v -0.441582 -0.294915 -0.062469
v -0.441511 -0.410697 -0.199902
v -0.441511 -0.410697 -0.062469
v -0.441511 0.410697 -0.199902
v -0.441511 0.410697 -0.062469
v -0.441101 -0.178506 -0.074963
v -0.441101 -0.178506 -0.062469
v -0.439016 0.302867 -0.074963
v -0.439016 0.302867 -0.062469
v -0.437163 0.167001 -0.074963
v -0.437163 0.167001 -0.062469
v -0.435012 -0.313465 -0.074963
v -0.435012 -0.313465 -0.062469
v -0.434379 -0.160012 -0.074963
v -0.434379 -0.160012 -0.062469
v -0.431628 0.321234 -0.074963
v -0.431628 0.321234 -0.062469
v -0.429276 0.148842 -0.074963
v -0.429276 0.148842 -0.062469
v -0.426777 -0.426777 -0.199902
v -0.426777 -0.426777 -0.062469
v -0.426777 0.426777 -0.199902
v -0.426777 0.426777 -0.062469
v -0.426651 -0.331279 -0.074963
v -0.426651 -0.331279 -0.062469
v -0.425871 -0.142267 -0.074963
v -0.425871 -0.142267 -0.062469
v -0.422459 0.338781 -0.074963
v -0.422459 0.338781 -0.062469
v -0.419632 0.131552 -0.074963
v -0.419632 0.131552 -0.062469
v -0.416580 -0.348185 -0.074963
v -0.416580 -0.348185 -0.062469
v -0.415661 -0.125445 -0.074963
v -0.415661 -0.125445 -0.062469
v -0.411601 0.355335 -0.074963
v -0.411601 0.355335 -0.062469
v -0.410697 -0.441511 -0.199902
v -0.410697 -0.441511 -0.062469
v -0.410697 0.441511 -0.199902
v -0.410697 0.441511 -0.062469
v -0.408327 0.115301 -0.074963
v -0.408327 0.115301 -0.062469
v -0.404896 -0.364020 -0.074963
v -0.404896 -0.364020 -0.062469
v -0.403847 -0.109707 -0.074963
v -0.403847 -0.109707 -0.062469
v -0.399160 0.370734 -0.074963
v -0.399160 0.370734 -0.062469
v -0.395470 0.100246 -0.074963
v -0.395470 0.100246 -0.062469
v -0.393394 -0.454788 -0.199902
v -0.393394 -0.454788 -0.062469
v -0.393394 0.454788 -0.199902
v -0.393394 0.454788 -0.062469
v -0.391713 -0.378629 -0.074963
v -0.391713 -0.378629 -0.062469
v -0.390544 -0.095206 -0.074963
v -0.390544 -0.095206 -0.062469
v -0.385257 0.384828 -0.074963
v -0.385257 0.384828 -0.062469
v -0.381187 0.086537 -0.074963
v -0.381187 0.086537 -0.062469
v -0.377157 -0.391873 -0.074963
v -0.377157 -0.391873 -0.062469
v -0.375880 -0.082083 -0.074963
v -0.375880 -0.082083 -0.062469
v -0.375000 -0.466506 -0.199902
v -0.375000 -0.466506 -0.062469
v -0.375000 0.466506 -0.199902
v -0.375000 0.466506 -0.062469
v -0.370028 0.397479 -0.074963
v -0.370028 0.397479 -0.062469
v -0.365620 0.074307 -0.074963
v -0.365620 0.074307 -0.062469
v -0.361371 -0.403622 -0.074963
v -0.361371 -0.403622 -0.062469
v -0.359997 -0.070465 -0.074963
v -0.359997 -0.070465 -0.062469
v -0.355655 -0.476577 -0.199902
v -0.355655 -0.476577 -0.062469
v -0.355654 0.476577 -0.199902
v -0.355654 0.476577 -0.062469
v -0.353624 0.408562 -0.074963
v -0.353624 0.408562 -0.062469
v -0.349847 -0.231979 -0.199902
v -0.349847 -0.231979 -0.074963
v -0.349847 0.231979 -0.199902
v -0.349847 0.231979 -0.074963
v -0.349629 -0.246105 -0.199902
v -0.349629 -0.246105 -0.074963
v -0.349629 0.246105 -0.199902
v -0.349629 0.246105 -0.074963
v -0.348919 0.063675 -0.074963
v -0.348919 0.063675 -0.062469
v -0.348073 -0.217963 -0.199902
v -0.348073 -0.217963 -0.074963
v -0.348073 0.217963 -0.199902
v -0.348073 0.217963 -0.074963
v -0.347422 -0.260059 -0.199902
v -0.347422 -0.260059 -0.074963
v -0.347422 0.260059 -0.199902
v -0.347422 0.260059 -0.074963
v -0.344507 -0.413763 -0.074963
v -0.344507 -0.413763 -0.062469
v -0.344341 -0.204337 -0.199902
v -0.344341 -0.204337 -0.074963
v -0.344341 0.204337 -0.199902
v -0.344341 0.204337 -0.074963
v -0.343271 -0.273563 -0.199902
v -0.343271 -0.273563 -0.074963
v -0.343271 0.273563 -0.199902
v -0.343271 0.273563 -0.074963
v -0.343049 -0.060464 -0.074963
v -0.343049 -0.060464 -0.062469
v -0.338726 -0.191373 -0.199902
v -0.338726 -0.191373 -0.074963
v -0.338726 0.191373 -0.199902
v -0.338726 0.191373 -0.074963
v -0.337258 -0.286347 -0.199902
v -0.337258 -0.286347 -0.074963
v -0.337258 0.286347 -0.199902
v -0.337258 0.286347 -0.074963
v -0.337184 0.066775 -0.074963
v -0.337184 0.066775 -0.062469
v -0.336204 0.417969 -0.074963
v -0.336204 0.417969 -0.062469
v -0.335505 -0.484923 -0.199902
v -0.335505 -0.484923 -0.062469
v -0.335505 0.484923 -0.199902
v -0.335505 0.484923 -0.062469
v -0.331340 -0.179330 -0.199902
v -0.331340 -0.179330 -0.074963
v -0.331340 0.179330 -0.199902
v -0.331340 0.179330 -0.074963
v -0.329504 -0.298156 -0.199902
v -0.329504 -0.298156 -0.074963
v -0.329504 0.298156 -0.199902
v -0.329504 0.298156 -0.074963
v -0.326727 -0.422197 -0.074963
v -0.326727 -0.422197 -0.062469
v -0.326103 0.071728 -0.074963
v -0.326103 0.071728 -0.062469
v -0.325201 -0.052176 -0.074963
v -0.325201 -0.052176 -0.062469
v -0.322331 -0.168447 -0.199902
v -0.322331 -0.168447 -0.074963
v -0.322331 0.168447 -0.199902
v -0.322331 0.168447 -0.074963
v -0.320162 -0.308755 -0.199902
v -0.320162 -0.308755 -0.074963
v -0.320162 0.308755 -0.199902
v -0.320162 0.308755 -0.074963
v -0.317940 0.425607 -0.074963
v -0.317940 0.425607 -0.062469
v -0.315966 0.078402 -0.074963
v -0.315966 0.078402 -0.062469
v -0.314705 -0.491481 -0.199902
v -0.314705 -0.491481 -0.062469
v -0.314705 0.491481 -0.199902
v -0.314705 0.491481 -0.062469
v -0.311878 -0.158943 -0.199902
v -0.311878 -0.158943 -0.074963
v -0.311878 0.158943 -0.199902
v -0.311878 0.158943 -0.074963
v -0.309420 -0.317931 -0.199902
v -0.309420 -0.317931 -0.074963
v -0.309420 0.317931 -0.199902
v -0.309420 0.317931 -0.074963
v -0.308205 -0.428843 -0.074963
v -0.308205 -0.428843 -0.062469
v -0.307038 0.086625 -0.074963
v -0.307038 0.086625 -0.062469
v -0.306625 -0.045683 -0.074963
v -0.306625 -0.045683 -0.062469
v -0.300190 -0.151007 -0.199902
v -0.300190 -0.151007 -0.074963
v -0.300190 0.151007 -0.199902
v -0.300190 0.151007 -0.074963
v -0.299553 0.096180 -0.074963
v -0.299553 0.096180 -0.062469
v -0.299009 0.431402 -0.074963
v -0.299009 0.431402 -0.062469
v -0.297493 -0.325502 -0.199902
v -0.297493 -0.325502 -0.074963
v -0.297493 0.325503 -0.199902
v -0.297493 0.325503 -0.074963
v -0.293708 0.106817 -0.074963
v -0.293708 0.106817 -0.062469
v -0.293412 -0.496202 -0.199902
v -0.293412 -0.496202 -0.062469
v -0.293412 0.496202 -0.199902
v -0.293412 0.496202 -0.062469
v -0.289655 0.118258 -0.074963
v -0.289655 0.118258 -0.062469
v -0.289119 -0.433637 -0.074963
v -0.289119 -0.433637 -0.062469
v -0.287500 -0.144797 -0.199902
v -0.287500 -0.144797 -0.074963
v -0.287500 -0.041047 -0.074963
v -0.287500 -0.041047 -0.062469
v -0.287500 0.130203 -0.074963
v -0.287500 0.130203 -0.062469
v -0.287500 0.144798 -0.199902
v -0.287500 0.144798 -0.074963
v -0.284617 -0.331317 -0.199902
v -0.284617 -0.331317 -0.074963
v -0.284617 0.331317 -0.199902
v -0.284617 0.331317 -0.074963
v -0.279599 0.435298 -0.074963
v -0.279599 0.435298 -0.062469
v -0.271789 -0.499049 -0.199902
v -0.271789 -0.499049 -0.062469
v -0.271789 0.499049 -0.199902
v -0.271789 0.499049 -0.062469
v -0.271051 -0.335259 -0.199902
v -0.271051 -0.335259 -0.074963
v -0.271051 0.335259 -0.199902
v -0.271051 0.335259 -0.074963
v -0.269655 -0.436532 -0.074963
v -0.269655 -0.436532 -0.062469
v -0.259899 0.437255 -0.074963
v -0.259899 0.437255 -0.062469
v -0.257064 -0.337250 -0.199902
v -0.257064 -0.337250 -0.074963
v -0.257064 0.337250 -0.199902
v -0.257064 0.337250 -0.074963
v -0.250000 -0.500000 -0.199902
v -0.250000 -0.500000 -0.062469
v -0.250000 -0.437500 -0.074963
v -0.250000 -0.437500 -0.062469
v -0.250000 0.500000 -0.199902
v -0.250000 0.500000 -0.062469
v -0.242936 -0.337250 -0.199902
v -0.242936 -0.337250 -0.074963
v -0.242936 0.337250 -0.199902
v -0.242936 0.337250 -0.074963
v -0.240101 0.437255 -0.074963
v -0.240101 0.437255 -0.062469
v -0.230345 -0.436532 -0.074963
v -0.230345 -0.436532 -0.062469
v -0.228949 -0.335259 -0.199902
v -0.228949 -0.335259 -0.074963
v -0.228949 0.335259 -0.199902
v -0.228949 0.335259 -0.074963
v -0.220401 0.435298 -0.074963
v -0.220401 0.435298 -0.062469
v -0.215383 -0.331317 -0.199902
v -0.215383 -0.331317 -0.074963
v -0.215383 0.331317 -0.199902
v -0.215383 0.331317 -0.074963
v -0.212500 -0.144797 -0.199902
v -0.212500 -0.144797 -0.074963
v -0.212500 -0.041047 -0.074963
v -0.212500 -0.041047 -0.062469
v -0.212500 0.130203 -0.074963
v -0.212500 0.130203 -0.062469
v -0.212500 0.144798 -0.199902
v -0.212500 0.144798 -0.074963
v -0.210881 -0.433637 -0.074963
v -0.210881 -0.433637 -0.062469
v -0.210345 0.118258 -0.074963
v -0.210345 0.118258 -0.062469
v -0.206292 0.106817 -0.074963
v -0.206292 0.106817 -0.062469
v -0.202507 -0.325502 -0.199902
v -0.202507 -0.325502 -0.074963
v -0.202507 0.325503 -0.199902
v -0.202507 0.325503 -0.074963
v -0.200991 0.431402 -0.074963
v -0.200991 0.431402 -0.062469
v -0.200447 0.096180 -0.074963
v -0.200447 0.096180 -0.062469
v -0.199810 -0.151007 -0.199902
v -0.199810 -0.151007 -0.074963
v -0.199810 0.151007 -0.199902
v -0.199810 0.151007 -0.074963
v -0.193375 -0.045683 -0.074963
v -0.193375 -0.045683 -0.062469
v -0.192962 0.086625 -0.074963
v -0.192962 0.086625 -0.062469
v -0.191795 -0.428843 -0.074963
v -0.191795 -0.428843 -0.062469
v -0.190580 -0.317931 -0.199902
v -0.190580 -0.317931 -0.074963
v -0.190580 0.317931 -0.199902
v -0.190580 0.317931 -0.074963
v -0.188122 -0.158943 -0.199902
v -0.188122 -0.158943 -0.074963
v -0.188122 0.158943 -0.199902
v -0.188122 0.158943 -0.074963
v -0.184034 0.078402 -0.074963
v -0.184034 0.078402 -0.062469
v -0.182060 0.425607 -0.074963
v -0.182060 0.425607 -0.062469
v -0.179838 -0.308755 -0.199902
v -0.179838 -0.308755 -0.074963
v -0.179838 0.308755 -0.199902
v -0.179838 0.308755 -0.074963
v -0.177669 -0.168447 -0.199902
v -0.177669 -0.168447 -0.074963
v -0.177669 0.168447 -0.199902
v -0.177669 0.168447 -0.074963
v -0.174799 -0.052176 -0.074963
v -0.174799 -0.052176 -0.062469
v -0.173897 0.071727 -0.074963
v -0.173897 0.071727 -0.062469
v -0.173273 -0.422197 -0.074963
v -0.173273 -0.422197 -0.062469
v -0.170497 -0.298156 -0.199902
v -0.170497 -0.298156 -0.074963
v -0.170496 0.298156 -0.199902
v -0.170496 0.298156 -0.074963
v -0.168660 -0.179330 -0.199902
v -0.168660 -0.179330 -0.074963
v -0.168660 0.179330 -0.199902
v -0.168660 0.179330 -0.074963
v -0.163796 0.417968 -0.074963
v -0.163796 0.417968 -0.062469
v -0.162816 0.066775 -0.074963
v -0.162816 0.066775 -0.062469
v -0.162742 -0.286347 -0.199902
v -0.162742 -0.286347 -0.074963
v -0.162742 0.286347 -0.199902
v -0.162742 0.286347 -0.074963
v -0.161274 -0.191373 -0.199902
v -0.161274 -0.191373 -0.074963
v -0.161274 0.191373 -0.199902
v -0.161274 0.191373 -0.074963
v -0.156951 -0.060464 -0.074963
v -0.156951 -0.060464 -0.062469
v -0.156729 -0.273563 -0.199902
v -0.156729 -0.273563 -0.074963
v -0.156729 0.273563 -0.199902
v -0.156729 0.273563 -0.074963
v -0.155659 -0.204337 -0.199902
v -0.155659 -0.204337 -0.074963
v -0.155659 0.204337 -0.199902
v -0.155659 0.204337 -0.074963
v -0.155493 -0.413763 -0.074963
v -0.155493 -0.413763 -0.062469
v -0.152578 -0.260059 -0.199902
v -0.152578 -0.260059 -0.074963
v -0.152578 0.260059 -0.199902
v -0.152578 0.260059 -0.074963
v -0.151927 -0.217963 -0.199902
v -0.151927 -0.217963 -0.074963
v -0.151927 0.217963 -0.199902
v -0.151927 0.217963 -0.074963
v -0.151081 0.063675 -0.074963
v -0.151081 0.063675 -0.062469
v -0.150371 -0.246105 -0.199902
v -0.150371 -0.246105 -0.074963
v -0.150371 0.246105 -0.199902
v -0.150371 0.246105 -0.074963
v -0.150153 -0.231979 -0.199902
v -0.150153 -0.231979 -0.074963
v -0.150153 0.231979 -0.199902
v -0.150153 0.231979 -0.074963
v -0.146376 0.408562 -0.074963
v -0.146376 0.408562 -0.062469
v -0.140003 -0.070465 -0.074963
v -0.140003 -0.070465 -0.062469
v -0.138629 -0.403622 -0.074963
v -0.138629 -0.403622 -0.062469
v -0.134380 0.074307 -0.074963
v -0.134380 0.074307 -0.062469
v -0.129972 0.397479 -0.074963
v -0.129972 0.397479 -0.062469
v -0.124120 -0.082083 -0.074963
v -0.124120 -0.082083 -0.062469
v -0.122843 -0.391873 -0.074963
v -0.122843 -0.391873 -0.062469
v -0.118813 0.086537 -0.074963
v -0.118813 0.086537 -0.062469
v -0.114743 0.384828 -0.074963
v -0.114743 0.384828 -0.062469
v -0.109456 -0.095206 -0.074963
v -0.109456 -0.095206 -0.062469
v -0.108287 -0.378629 -0.074963
v -0.108287 -0.378629 -0.062469
v -0.104530 0.100246 -0.074963
v -0.104530 0.100246 -0.062469
v -0.100840 0.370734 -0.074963
v -0.100840 0.370734 -0.062469
v -0.096153 -0.109707 -0.074963
v -0.096153 -0.109707 -0.062469
v -0.095104 -0.364020 -0.074963
v -0.095104 -0.364020 -0.062469
v -0.091673 0.115301 -0.074963
v -0.091673 0.115301 -0.062469
v -0.088399 0.355335 -0.074963
v -0.088399 0.355335 -0.062469
v -0.084339 -0.125445 -0.074963
v -0.084339 -0.125445 -0.062469
v -0.083420 -0.348185 -0.074963
v -0.083420 -0.348185 -0.062469
v -0.080368 0.131552 -0.074963
v -0.080368 0.131552 -0.062469
v -0.077541 0.338781 -0.074963
v -0.077541 0.338781 -0.062469
v -0.074129 -0.142267 -0.074963
v -0.074129 -0.142267 -0.062469
v -0.073349 -0.331279 -0.074963
v -0.073349 -0.331279 -0.062469
v -0.070724 0.148842 -0.074963
v -0.070724 0.148842 -0.062469
v -0.068372 0.321234 -0.074963
v -0.068372 0.321234 -0.062469
v -0.065621 -0.160012 -0.074963
v -0.065621 -0.160012 -0.062469
v -0.064988 -0.313465 -0.074963
v -0.064988 -0.313465 -0.062469
v -0.062837 0.167001 -0.074963
v -0.062837 0.167001 -0.062469
v -0.060984 0.302867 -0.074963
v -0.060984 0.302867 -0.062469
v -0.058899 -0.178506 -0.074963
v -0.058899 -0.178506 -0.062469
v -0.058418 -0.294915 -0.074963
v -0.058418 -0.294915 -0.062469
v -0.056784 0.185850 -0.074963
v -0.056784 0.185850 -0.062469
v -0.055447 0.283860 -0.074963
v -0.055447 0.283860 -0.062469
v -0.054026 -0.197572 -0.074963
v -0.054026 -0.197572 -0.062469
v -0.053703 -0.275810 -0.074963
v -0.053703 -0.275810 -0.062469
v -0.052625 0.205206 -0.074963
v -0.052625 0.205206 -0.062469
v -0.051817 0.264398 -0.074963
v -0.051817 0.264398 -0.062469
v -0.051051 -0.217025 -0.074963
v -0.051051 -0.217025 -0.062469
v -0.050889 -0.256334 -0.074963
v -0.050889 -0.256334 -0.062469
v -0.050399 0.224877 -0.074963
v -0.050399 0.224877 -0.062469
v -0.050129 0.244673 -0.074963
v -0.050129 0.244673 -0.062469
v -0.050002 -0.236675 -0.074963
v -0.050002 -0.236675 -0.062469
v 0.025000 -0.500000 -0.062469
v 0.025000 -0.500000 0.099951
v 0.025000 0.500000 -0.062469
v 0.025000 0.500000 0.099951
v 0.062669 -0.342099 -0.199902
v 0.062669 -0.342099 0.099951
v 0.062669 -0.082901 -0.199902
v 0.062669 -0.082901 0.099951
v 0.062669 0.082901 -0.199902
v 0.062669 0.082901 0.099951
v 0.062669 0.342099 -0.199902
v 0.062669 0.342099 0.099951
v 0.062828 -0.331106 -0.199902
v 0.062828 -0.331106 0.099951
v 0.062828 -0.093894 -0.199902
v 0.062828 -0.093894 0.099951
v 0.062828 0.093894 -0.199902
v 0.062828 0.093894 0.099951
v 0.062828 0.331106 -0.199902
v 0.062828 0.331106 0.099951
v 0.064440 -0.352950 -0.199902
v 0.064440 -0.352950 0.099951
v 0.064440 -0.072050 -0.199902
v 0.064440 -0.072050 0.099951
v 0.064440 0.072050 -0.199902
v 0.064440 0.072050 0.099951
v 0.064440 0.352950 -0.199902
v 0.064440 0.352950 0.099951
v 0.064910 -0.320311 -0.199902
v 0.064910 -0.320311 0.099951
v 0.064910 -0.104689 -0.199902
v 0.064910 -0.104689 0.099951
v 0.064910 0.104689 -0.199902
v 0.064910 0.104689 0.099951
v 0.064910 0.320311 -0.199902
v 0.064910 0.320311 0.099951
v 0.068084 -0.363323 -0.199902
v 0.068084 -0.363323 0.099951
v 0.068084 -0.061677 -0.199902
v 0.068084 -0.061677 0.099951
v 0.068084 0.061677 -0.199902
v 0.068084 0.061677 0.099951
v 0.068084 0.363323 -0.199902
v 0.068084 0.363323 0.099951
v 0.068852 -0.310048 -0.199902
v 0.068852 -0.310048 0.099951
v 0.068852 -0.114952 -0.199902
v 0.068852 -0.114952 0.099951
v 0.068852 0.114952 -0.199902
v 0.068852 0.114952 0.099951
v 0.068852 0.310048 -0.199902
v 0.068852 0.310048 0.099951
v 0.073489 -0.372896 -0.199902
v 0.073489 -0.372896 0.099951
v 0.073489 -0.052104 -0.199902
v 0.073489 -0.052104 0.099951
v 0.073489 0.052104 -0.199902
v 0.073489 0.052104 0.099951
v 0.073489 0.372896 -0.199902
v 0.073489 0.372896 0.099951
v 0.074531 -0.300634 -0.199902
v 0.074531 -0.300634 0.099951
v 0.074531 -0.124366 -0.199902
v 0.074531 -0.124366 0.099951
v 0.074531 0.124366 -0.199902
v 0.074531 0.124366 0.099951
v 0.074531 0.300634 -0.199902
v 0.074531 0.300634 0.099951
v 0.080489 -0.381375 -0.199902
v 0.080489 -0.381375 0.099951
v 0.080489 -0.043625 -0.199902
v 0.080489 -0.043625 0.099951
v 0.080489 0.043625 -0.199902
v 0.080489 0.043625 0.099951
v 0.080489 0.381375 -0.199902
v 0.080489 0.381375 0.099951
v 0.081771 -0.292361 -0.199902
v 0.081771 -0.292361 0.099951
v 0.081771 -0.132639 -0.199902
v 0.081771 -0.132639 0.099951
v 0.081771 0.132639 -0.199902
v 0.081771 0.132639 0.099951
v 0.081771 0.292361 -0.199902
v 0.081771 0.292361 0.099951
v 0.088865 -0.388495 -0.199902
v 0.088865 -0.388495 0.099951
v 0.088865 -0.036505 -0.199902
v 0.088865 -0.036505 0.099951
v 0.088865 0.036505 -0.199902
v 0.088865 0.036505 0.099951
v 0.088865 0.388495 -0.199902
v 0.088865 0.388495 0.099951
v 0.090350 -0.285485 -0.199902
v 0.090350 -0.285485 0.099951
v 0.090350 -0.139515 -0.199902
v 0.090350 -0.139515 0.099951
v 0.090350 0.139515 -0.199902
v 0.090350 0.139515 0.099951
v 0.090350 0.285485 -0.199902
v 0.090350 0.285485 0.099951
v 0.098360 -0.394038 -0.199902
v 0.098360 -0.394038 0.099951
v 0.098360 -0.030962 -0.199902
v 0.098360 -0.030962 0.099951
v 0.098360 0.030962 -0.199902
v 0.098360 0.030962 0.099951
v 0.098360 0.394038 -0.199902
v 0.098360 0.394038 0.099951
v 0.100000 -0.280218 -0.199902
v 0.100000 -0.280218 0.099951
v 0.100000 -0.144782 -0.199902
v 0.100000 -0.144782 0.099951
v 0.100000 0.144782 -0.199902
v 0.100000 0.144782 0.099951
v 0.100000 0.280218 -0.199902
v 0.100000 0.280218 0.099951
v 0.108679 -0.397831 -0.199902
v 0.108679 -0.397831 0.099951
v 0.108679 -0.027169 -0.199902
v 0.108679 -0.027169 0.099951
v 0.108679 0.027169 -0.199902
v 0.108679 0.027169 0.099951
v 0.108679 0.397831 -0.199902
v 0.108679 0.397831 0.099951
v 0.119503 -0.399758 -0.199902
v 0.119503 -0.399758 0.099951
v 0.119503 -0.025242 -0.199902
v 0.119503 -0.025242 0.099951
v 0.119503 0.025242 -0.199902
v 0.119503 0.025242 0.099951
v 0.119503 0.399758 -0.199902
v 0.119503 0.399758 0.099951
v 0.130497 -0.399758 -0.199902
v 0.130497 -0.399758 0.099951
v 0.130497 -0.025242 -0.199902
v 0.130497 -0.025242 0.099951
v 0.130497 0.025242 -0.199902
v 0.130497 0.025242 0.099951
v 0.130497 0.399758 -0.199902
v 0.130497 0.399758 0.099951
v 0.141321 -0.397831 -0.199902
v 0.141321 -0.397831 0.099951
v 0.141321 -0.027169 -0.199902
v 0.141321 -0.027169 0.099951
v 0.141321 0.027169 -0.199902
v 0.141321 0.027169 0.099951
v 0.141321 0.397831 -0.199902
v 0.141321 0.397831 0.099951
v 0.150000 -0.280218 -0.199902
v 0.150000 -0.280218 0.099951
v 0.150000 -0.144782 -0.199902
v 0.150000 -0.144782 0.099951
v 0.150000 0.144782 -0.199902
v 0.150000 0.144782 0.099951
v 0.150000 0.280218 -0.199902
v 0.150000 0.280218 0.099951
v 0.151640 -0.394038 -0.199902
v 0.151640 -0.394038 0.099951
v 0.151640 -0.030962 -0.199902
v 0.151640 -0.030962 0.099951
v 0.151640 0.030962 -0.199902
v 0.151640 0.030962 0.099951
v 0.151640 0.394038 -0.199902
v 0.151640 0.394038 0.099951
v 0.159650 -0.285485 -0.199902
v 0.159650 -0.285485 0.099951
v 0.159650 -0.139515 -0.199902
v 0.159650 -0.139515 0.099951
v 0.159650 0.139515 -0.199902
v 0.159650 0.139515 0.099951
v 0.159650 0.285485 -0.199902
v 0.159650 0.285485 0.099951
v 0.161135 -0.388495 -0.199902
v 0.161135 -0.388495 0.099951
v 0.161135 -0.036505 -0.199902
v 0.161135 -0.036505 0.099951
v 0.161135 0.036505 -0.199902
v 0.161135 0.036505 0.099951
v 0.161135 0.388495 -0.199902
v 0.161135 0.388495 0.099951
v 0.168229 -0.292361 -0.199902
v 0.168229 -0.292361 0.099951
v 0.168229 -0.132639 -0.199902
v 0.168229 -0.132639 0.099951
v 0.168229 0.132639 -0.199902
v 0.168229 0.132639 0.099951
v 0.168229 0.292361 -0.199902
v 0.168229 0.292361 0.099951
v 0.169511 -0.381375 -0.199902
v 0.169511 -0.381375 0.099951
v 0.169511 -0.043625 -0.199902
v 0.169511 -0.043625 0.099951
v 0.169511 0.043625 -0.199902
v 0.169511 0.043625 0.099951
v 0.169511 0.381375 -0.199902
v 0.169511 0.381375 0.099951
v 0.175469 -0.300634 -0.199902
v 0.175469 -0.300634 0.099951
v 0.175469 -0.124366 -0.199902
v 0.175469 -0.124366 0.099951
v 0.175469 0.124366 -0.199902
v 0.175469 0.124366 0.099951
v 0.175469 0.300634 -0.199902
v 0.175469 0.300634 0.099951
v 0.176511 -0.372896 -0.199902
v 0.176511 -0.372896 0.099951
v 0.176511 -0.052104 -0.199902
v 0.176511 -0.052104 0.099951
v 0.176511 0.052104 -0.199902
v 0.176511 0.052104 0.099951
v 0.176511 0.372896 -0.199902
v 0.176511 0.372896 0.099951
v 0.181148 -0.310048 -0.199902
v 0.181148 -0.310048 0.099951
v 0.181148 -0.114952 -0.199902
v 0.181148 -0.114952 0.099951
v 0.181148 0.114952 -0.199902
v 0.181148 0.114952 0.099951
v 0.181148 0.310048 -0.199902
v 0.181148 0.310048 0.099951
v 0.181916 -0.363323 -0.199902
v 0.181916 -0.363323 0.099951
v 0.181916 -0.061677 -0.199902
v 0.181916 -0.061677 0.099951
v 0.181916 0.061677 -0.199902
v 0.181916 0.061677 0.099951
v 0.181916 0.363323 -0.199902
v 0.181916 0.363323 0.099951
v 0.185090 -0.320311 -0.199902
v 0.185090 -0.320311 0.099951
v 0.185090 -0.104689 -0.199902
v 0.185090 -0.104689 0.099951
v 0.185090 0.104689 -0.199902
v 0.185090 0.104689 0.099951
v 0.185090 0.320311 -0.199902
v 0.185090 0.320311 0.099951
v 0.185560 -0.352950 -0.199902
v 0.185560 -0.352950 0.099951
v 0.185560 -0.072050 -0.199902
v 0.185560 -0.072050 0.099951
v 0.185560 0.072050 -0.199902
v 0.185560 0.072050 0.099951
v 0.185560 0.352950 -0.199902
v 0.185560 0.352950 0.099951
v 0.187172 -0.331106 -0.199902
v 0.187172 -0.331106 0.099951
v 0.187172 -0.093894 -0.199902
v 0.187172 -0.093894 0.099951
v 0.187172 0.093894 -0.199902
v 0.187172 0.093894 0.099951
v 0.187172 0.331106 -0.199902
v 0.187172 0.331106 0.099951
v 0.187330 -0.342099 -0.199902
v 0.187330 -0.342099 0.099951
v 0.187331 -0.082901 -0.199902
v 0.187331 -0.082901 0.099951
v 0.187331 0.082901 -0.199902
v 0.187331 0.082901 0.099951
v 0.187331 0.342099 -0.199902
v 0.187331 0.342099 0.099951
v 0.225000 -0.500000 0.099951
v 0.225000 -0.500000 0.199902
v 0.225000 0.500000 0.099951
v 0.225000 0.500000 0.199902
v 0.250000 -0.500000 -0.199902
v 0.250000 -0.500000 0.199902
v 0.250000 0.500000 -0.199902
v 0.250000 0.500000 0.199902
v 0.271789 -0.499049 -0.199902
v 0.271789 -0.499049 0.199902
v 0.271789 0.499049 -0.199902
v 0.271789 0.499049 0.199902
v 0.275769 -0.177356 -0.199902
v 0.275769 -0.177356 0.199902
v 0.276057 -0.164332 -0.199902
v 0.276057 -0.164332 0.199902
v 0.276704 0.176959 -0.199902
v 0.276704 0.176959 0.199902
v 0.276923 0.163934 -0.199902
v 0.276923 0.163934 0.199902
v 0.277419 -0.190278 -0.199902
v 0.277419 -0.190278 0.199902
v 0.278275 -0.151495 -0.199902
v 0.278275 -0.151495 0.199902
v 0.278422 0.189873 -0.199902
v 0.278422 0.189873 0.199902
v 0.279073 0.151085 -0.199902
v 0.279073 0.151085 0.199902
v 0.280968 -0.202813 -0.199902
v 0.280968 -0.202813 0.199902
v 0.282037 0.202388 -0.199902
v 0.282037 0.202388 0.199902
v 0.282374 -0.139130 -0.199902
v 0.282374 -0.139130 0.199902
v 0.283107 0.138699 -0.199902
v 0.283107 0.138699 0.199902
v 0.286340 -0.214681 -0.199902
v 0.286340 -0.214681 0.199902
v 0.287471 0.214228 -0.199902
v 0.287471 0.214228 0.199902
v 0.288264 -0.127510 -0.199902
v 0.288264 -0.127510 0.199902
v 0.288935 0.127048 -0.199902
v 0.288935 0.127048 0.199902
v 0.293412 -0.496202 -0.199902
v 0.293412 -0.496202 0.199902
v 0.293412 0.496202 -0.199902
v 0.293412 0.496202 0.199902
v 0.293413 -0.225620 -0.199902
v 0.293413 -0.225620 0.199902
v 0.294603 0.225130 -0.199902
v 0.294603 0.225130 0.199902
v 0.295813 -0.116893 -0.199902
v 0.295813 -0.116893 0.199902
v 0.296429 0.116392 -0.199902
v 0.296429 0.116392 0.199902
v 0.302033 -0.235388 -0.199902
v 0.302033 -0.235388 0.199902
v 0.303274 0.234852 -0.199902
v 0.303274 0.234852 0.199902
v 0.304856 -0.107515 -0.199902
v 0.304856 -0.107515 0.199902
v 0.305421 0.106966 -0.199902
v 0.305421 0.106966 0.199902
v 0.312007 -0.243768 -0.199902
v 0.312007 -0.243768 0.199902
v 0.313292 0.243179 -0.199902
v 0.313292 0.243179 0.199902
v 0.314705 -0.491481 -0.199902
v 0.314705 -0.491481 0.199902
v 0.314705 0.491481 -0.199902
v 0.314705 0.491481 0.199902
v 0.315190 -0.099584 -0.199902
v 0.315190 -0.099584 0.199902
v 0.315714 0.098980 -0.199902
v 0.315714 0.098980 0.199902
v 0.323115 -0.250574 -0.199902
v 0.323115 -0.250574 0.199902
v 0.324436 0.249927 -0.199902
v 0.324436 0.249927 0.199902
v 0.326587 -0.093274 -0.199902
v 0.326587 -0.093274 0.199902
v 0.327078 0.092611 -0.199902
v 0.327078 0.092611 0.199902
v 0.330432 -0.071803 -0.199902
v 0.330432 -0.071803 0.199902
v 0.332980 0.058613 -0.199902
v 0.332980 0.058613 0.199902
v 0.335111 -0.255656 -0.199902
v 0.335111 -0.255656 0.199902
v 0.335505 -0.484923 -0.199902
v 0.335505 -0.484923 0.199902
v 0.335505 0.484923 -0.199902
v 0.335505 0.484923 0.199902
v 0.336458 0.254945 -0.199902
v 0.336458 0.254945 0.199902
v 0.347727 -0.258900 -0.199902
v 0.347727 -0.258900 0.199902
v 0.349092 0.258122 -0.199902
v 0.349092 0.258122 0.199902
v 0.355655 -0.476577 -0.199902
v 0.355655 -0.476577 0.199902
v 0.355655 0.476577 -0.199902
v 0.355655 0.476577 0.199902
v 0.360686 -0.260235 -0.199902
v 0.360686 -0.260235 0.199902
v 0.362057 0.259389 -0.199902
v 0.362057 0.259389 0.199902
v 0.369360 -0.004785 -0.199902
v 0.369360 -0.004785 0.199902
v 0.373699 -0.259631 -0.199902
v 0.373699 -0.259631 0.199902
v 0.375000 -0.466506 -0.199902
v 0.375000 -0.466506 0.199902
v 0.375000 0.466506 -0.199902
v 0.375000 0.466506 0.199902
v 0.375067 0.258717 -0.199902
v 0.375067 0.258717 0.199902
v 0.386479 -0.257102 -0.199902
v 0.386479 -0.257102 0.199902
v 0.387833 0.256120 -0.199902
v 0.387833 0.256120 0.199902
v 0.393394 -0.454788 -0.199902
v 0.393394 -0.454788 0.199902
v 0.393394 0.454788 -0.199902
v 0.393394 0.454788 0.199902
v 0.398741 -0.252704 -0.199902
v 0.398741 -0.252704 0.199902
v 0.400072 0.251657 -0.199902
v 0.400072 0.251657 0.199902
v 0.410214 -0.246534 -0.199902
v 0.410214 -0.246534 0.199902
v 0.410697 -0.441511 -0.199902
v 0.410697 -0.441511 0.199902
v 0.410697 0.441511 -0.199902
v 0.410697 0.441511 0.199902
v 0.411512 0.245426 -0.199902
v 0.411512 0.245426 0.199902
v 0.418624 0.003767 -0.199902
v 0.418624 0.003767 0.199902
v 0.420644 -0.238728 -0.199902
v 0.420644 -0.238728 0.199902
v 0.421901 0.237566 -0.199902
v 0.421901 0.237566 0.199902
v 0.425022 -0.110899 -0.199902
v 0.425022 -0.110899 0.199902
v 0.425604 0.109716 -0.199902
v 0.425604 0.109716 0.199902
v 0.426777 -0.426777 -0.199902
v 0.426777 -0.426777 0.199902
v 0.426777 0.426777 -0.199902
v 0.426777 0.426777 0.199902
v 0.429800 -0.229461 -0.199902
v 0.429800 -0.229461 0.199902
v 0.431008 0.228251 -0.199902
v 0.431008 0.228251 0.199902
v 0.431506 0.075718 -0.199902
v 0.431506 0.075718 0.199902
v 0.431880 -0.072594 -0.199902
v 0.431880 -0.072594 0.199902
v 0.433522 -0.120771 -0.199902
v 0.433522 -0.120771 0.199902
v 0.434156 0.119543 -0.199902
v 0.434156 0.119543 0.199902
v 0.437478 -0.218937 -0.199902
v 0.437478 -0.218937 0.199902
v 0.438630 0.217686 -0.199902
v 0.438630 0.217686 0.199902
v 0.440462 -0.131795 -0.199902
v 0.440462 -0.131795 0.199902
v 0.441155 0.130530 -0.199902
v 0.441155 0.130530 0.199902
v 0.441511 -0.410697 -0.199902
v 0.441511 -0.410697 0.199902
v 0.441511 0.410697 -0.199902
v 0.441511 0.410697 0.199902
v 0.443509 -0.207390 -0.199902
v 0.443509 -0.207390 0.199902
v 0.444600 0.206107 -0.199902
v 0.444600 0.206107 0.199902
v 0.445689 -0.143728 -0.199902
v 0.445689 -0.143728 0.199902
v 0.446444 0.142435 -0.199902
v 0.446444 0.142435 0.199902
v 0.447758 -0.195075 -0.199902
v 0.447758 -0.195075 0.199902
v 0.448784 0.193770 -0.199902
v 0.448784 0.193770 0.199902
v 0.449086 -0.156305 -0.199902
v 0.449086 -0.156305 0.199902
v 0.449907 0.154994 -0.199902
v 0.449907 0.154994 0.199902
v 0.450132 -0.182266 -0.199902
v 0.450132 -0.182266 0.199902
v 0.450578 -0.169246 -0.199902
v 0.450578 -0.169246 0.199902
v 0.451090 0.180949 -0.199902
v 0.451090 0.180949 0.199902
v 0.451468 0.167927 -0.199902
v 0.451468 0.167927 0.199902
v 0.454788 -0.393394 -0.199902
v 0.454788 -0.393394 0.199902
v 0.454788 0.393394 -0.199902
v 0.454788 0.393394 0.199902
v 0.466506 -0.375000 -0.199902
v 0.466506 -0.375000 0.199902
v 0.466506 0.375000 -0.199902
v 0.466506 0.375000 0.199902
v 0.476577 -0.355655 -0.199902
v 0.476577 -0.355655 0.199902
v 0.476577 0.355655 -0.199902
v 0.476577 0.355655 0.199902
v 0.484923 -0.335505 -0.199902
v 0.484923 -0.335505 0.199902
v 0.484923 0.335505 -0.199902
v 0.484923 0.335505 0.199902
v 0.491481 -0.314705 -0.199902
v 0.491481 -0.314705 0.199902
v 0.491481 0.314705 -0.199902
v 0.491481 0.314705 0.199902
v 0.496202 -0.293412 -0.199902
v 0.496202 -0.293412 0.199902
v 0.496202 0.293412 -0.199902
v 0.496202 0.293412 0.199902
v 0.499049 -0.271789 -0.199902
v 0.499049 -0.271789 0.199902
v 0.499049 0.271789 -0.199902
v 0.499049 0.271789 0.199902
v 0.500000 -0.250000 -0.199902
v 0.500000 -0.250000 0.199902
v 0.500000 0.250000 -0.199902
v 0.500000 0.250000 0.199902
f 987 988 983
f 983 988 984
f 983 984 979
f 979 984 980
f 979 980 975
f 975 980 976
f 975 976 971
f 971 976 972
f 971 972 967
f 967 972 968
f 967 968 963
f 963 968 964
f 963 964 959
f 959 964 960
f 959 960 931
f 931 960 932
f 931 932 907
f 907 932 908
f 907 908 891
f 891 908 892
f 891 892 881
f 881 892 882
f 881 882 871
f 871 882 872
f 871 872 859
f 859 872 860
f 859 860 849
f 849 860 850
f 849 850 827
f 827 850 828
f 827 828 803
f 803 828 804
f 803 804 767
f 767 804 768
f 767 768 763
f 763 768 764
f 988 987 990
f 990 987 989
f 765 766 769
f 769 766 770
f 769 770 805
f 805 770 806
f 805 806 829
f 829 806 830
f 829 830 851
f 851 830 852
f 851 852 861
f 861 852 862
f 861 862 873
f 873 862 874
f 873 874 883
f 883 874 884
f 883 884 893
f 893 884 894
f 893 894 909
f 909 894 910
f 909 910 933
f 933 910 934
f 933 934 961
f 961 934 962
f 961 962 965
f 965 962 966
f 965 966 969
f 969 966 970
f 969 970 973
f 973 970 974
f 973 974 977
f 977 974 978
f 977 978 981
f 981 978 982
f 981 982 985
f 985 982 986
f 985 986 989
f 989 986 990
f 499 284 763
f 763 284 283
f 759 500 499
f 759 499 763
f 759 763 764
f 759 764 760
f 283 284 267
f 267 284 268
f 267 268 245
f 245 268 246
f 245 246 213
f 213 246 214
f 213 214 183
f 183 214 184
f 183 184 135
f 135 184 136
f 135 136 123
f 123 136 124
f 123 124 107
f 107 124 108
f 107 108 93
f 93 108 94
f 93 94 75
f 75 94 76
f 75 76 57
f 57 76 58
f 57 58 29
f 29 58 30
f 29 30 25
f 25 30 26
f 25 26 21
f 21 26 22
f 21 22 17
f 17 22 18
f 17 18 13
f 13 18 14
f 13 14 9
f 9 14 10
f 9 10 5
f 5 10 6
f 5 6 1
f 1 6 2
f 4 3 2
f 2 3 1
f 3 4 7
f 7 4 8
f 7 8 11
f 11 8 12
f 11 12 15
f 15 12 16
f 15 16 19
f 19 16 20
f 19 20 23
f 23 20 24
f 23 24 27
f 27 24 28
f 27 28 31
f 31 28 32
f 31 32 59
f 59 32 60
f 59 60 77
f 77 60 78
f 77 78 95
f 95 78 96
f 95 96 109
f 109 96 110
f 109 110 125
f 125 110 126
f 125 126 137
f 137 126 138
f 137 138 185
f 185 138 186
f 185 186 215
f 215 186 216
f 215 216 247
f 247 216 248
f 247 248 269
f 269 248 270
f 269 270 287
f 287 270 288
f 287 288 765
f 765 288 501
f 765 501 761
f 761 501 502
f 766 765 762
f 762 765 761
f 760 762 759
f 762 761 759
f 500 502 499
f 502 501 499
f 862 762 874
f 874 762 866
f 874 866 884
f 884 866 876
f 760 764 762
f 762 764 768
f 762 768 772
f 772 768 804
f 846 842 834
f 846 834 822
f 846 822 814
f 986 982 978
f 986 978 974
f 986 974 970
f 986 970 966
f 986 966 962
f 986 962 934
f 986 934 910
f 986 910 894
f 986 894 884
f 986 884 876
f 986 876 880
f 986 880 888
f 986 888 990
f 762 862 852
f 762 852 830
f 762 830 806
f 762 806 770
f 762 770 766
f 802 794 844
f 802 844 868
f 802 868 846
f 802 846 814
f 984 988 878
f 984 878 870
f 984 870 864
f 984 864 872
f 984 872 882
f 984 882 892
f 984 892 908
f 984 908 932
f 984 932 960
f 984 960 964
f 984 964 968
f 984 968 972
f 984 972 976
f 984 976 980
f 860 872 864
f 860 864 856
f 860 856 848
f 860 848 836
f 860 836 824
f 860 824 816
f 860 816 808
f 860 808 796
f 860 796 788
f 990 888 896
f 990 896 902
f 990 902 914
f 990 914 926
f 990 926 938
f 990 938 946
f 990 946 956
f 990 956 958
f 990 958 950
f 990 950 942
f 990 942 930
f 990 930 916
f 990 916 898
f 990 898 918
f 990 918 904
f 990 904 920
f 990 920 928
f 990 928 940
f 990 940 948
f 990 948 954
f 990 954 952
f 988 990 952
f 988 952 944
f 988 944 936
f 988 936 924
f 988 924 912
f 988 912 900
f 988 900 890
f 988 890 886
f 988 886 878
f 762 772 774
f 762 774 782
f 762 782 792
f 762 792 800
f 762 800 812
f 762 812 820
f 762 820 832
f 762 832 778
f 762 778 776
f 762 776 784
f 762 784 790
f 762 790 798
f 762 798 810
f 762 810 818
f 762 818 826
f 762 826 838
f 762 838 854
f 762 854 858
f 762 858 866
f 786 778 832
f 786 832 840
f 786 840 844
f 786 844 794
f 780 772 804
f 780 804 828
f 780 828 850
f 780 850 788
f 788 850 860
f 916 922 906
f 916 930 922
f 903 919 904
f 919 920 904
f 919 927 920
f 927 928 920
f 927 939 928
f 939 940 928
f 939 947 940
f 947 948 940
f 947 953 948
f 953 954 948
f 953 951 954
f 951 952 954
f 951 943 952
f 943 944 952
f 943 935 944
f 935 936 944
f 935 923 936
f 923 924 936
f 923 911 924
f 911 912 924
f 911 899 912
f 899 900 912
f 899 889 900
f 889 890 900
f 889 885 890
f 885 886 890
f 885 877 886
f 877 878 886
f 877 869 878
f 869 870 878
f 869 863 870
f 863 864 870
f 863 855 864
f 855 856 864
f 855 847 856
f 847 848 856
f 847 835 848
f 835 836 848
f 835 823 836
f 823 824 836
f 823 815 824
f 815 816 824
f 815 807 816
f 807 808 816
f 807 795 808
f 795 796 808
f 795 787 796
f 787 788 796
f 787 779 788
f 779 780 788
f 779 771 780
f 771 772 780
f 771 773 772
f 773 774 772
f 773 781 774
f 781 782 774
f 781 791 782
f 791 792 782
f 791 799 792
f 799 800 792
f 799 811 800
f 811 812 800
f 811 819 812
f 819 820 812
f 819 831 820
f 831 832 820
f 831 839 832
f 839 840 832
f 839 843 840
f 840 843 844
f 903 904 917
f 904 918 917
f 867 868 843
f 868 844 843
f 897 917 898
f 898 917 918
f 845 846 867
f 846 868 867
f 915 897 916
f 916 897 898
f 845 841 846
f 846 841 842
f 915 916 905
f 916 906 905
f 841 833 842
f 833 834 842
f 833 821 834
f 821 822 834
f 821 813 822
f 813 814 822
f 813 801 814
f 801 802 814
f 801 793 802
f 793 794 802
f 793 785 794
f 785 786 794
f 785 777 786
f 777 778 786
f 777 775 778
f 775 776 778
f 775 783 776
f 783 784 776
f 783 789 784
f 789 790 784
f 789 797 790
f 797 798 790
f 797 809 798
f 809 810 798
f 809 817 810
f 817 818 810
f 817 825 818
f 825 826 818
f 825 837 826
f 837 838 826
f 837 853 838
f 853 854 838
f 853 857 854
f 857 858 854
f 857 865 858
f 865 866 858
f 865 875 866
f 875 876 866
f 875 879 876
f 879 880 876
f 879 887 880
f 887 888 880
f 887 895 888
f 895 896 888
f 895 901 896
f 901 902 896
f 901 913 902
f 913 914 902
f 913 925 914
f 925 926 914
f 925 937 926
f 937 938 926
f 937 945 938
f 945 946 938
f 945 955 946
f 955 956 946
f 955 957 956
f 957 958 956
f 957 949 958
f 949 950 958
f 949 941 950
f 941 942 950
f 941 929 942
f 929 930 942
f 929 921 930
f 921 922 930
f 921 905 922
f 905 906 922
f 647 663 648
f 663 664 648
f 663 679 664
f 679 680 664
f 679 695 680
f 695 696 680
f 695 711 696
f 711 712 696
f 711 727 712
f 727 728 712
f 727 743 728
f 743 744 728
f 743 751 744
f 751 752 744
f 751 735 752
f 735 736 752
f 735 719 736
f 719 720 736
f 719 703 720
f 703 704 720
f 703 687 704
f 687 688 704
f 687 671 688
f 671 672 688
f 671 655 672
f 655 656 672
f 655 639 656
f 639 640 656
f 639 631 640
f 631 632 640
f 631 623 632
f 623 624 632
f 623 615 624
f 615 616 624
f 615 599 616
f 599 600 616
f 599 583 600
f 583 584 600
f 583 567 584
f 567 568 584
f 567 551 568
f 551 552 568
f 551 535 552
f 535 536 552
f 535 519 536
f 519 520 536
f 519 503 520
f 503 504 520
f 503 511 504
f 511 512 504
f 511 527 512
f 527 528 512
f 527 543 528
f 543 544 528
f 543 559 544
f 559 560 544
f 559 575 560
f 575 576 560
f 575 591 576
f 591 592 576
f 591 607 592
f 607 608 592
f 607 609 608
f 608 609 610
f 647 648 649
f 648 650 649
f 609 593 610
f 593 594 610
f 593 577 594
f 577 578 594
f 577 561 578
f 561 562 578
f 561 545 562
f 545 546 562
f 545 529 546
f 529 530 546
f 529 513 530
f 513 514 530
f 513 505 514
f 505 506 514
f 505 521 506
f 521 522 506
f 521 537 522
f 537 538 522
f 537 553 538
f 553 554 538
f 553 569 554
f 569 570 554
f 569 585 570
f 585 586 570
f 585 601 586
f 601 602 586
f 601 617 602
f 617 618 602
f 617 625 618
f 625 626 618
f 625 633 626
f 633 634 626
f 633 641 634
f 641 642 634
f 641 657 642
f 657 658 642
f 657 673 658
f 673 674 658
f 673 689 674
f 689 690 674
f 689 705 690
f 705 706 690
f 705 721 706
f 721 722 706
f 721 737 722
f 737 738 722
f 737 753 738
f 753 754 738
f 753 745 754
f 745 746 754
f 745 729 746
f 729 730 746
f 729 713 730
f 713 714 730
f 713 697 714
f 697 698 714
f 697 681 698
f 681 682 698
f 681 665 682
f 665 666 682
f 665 649 666
f 649 650 666
f 458 466 406
f 466 422 406
f 466 474 422
f 474 430 422
f 474 482 430
f 182 210 60
f 210 78 60
f 210 238 78
f 60 32 140
f 32 128 140
f 32 28 128
f 28 116 128
f 28 104 116
f 28 24 104
f 24 92 104
f 24 20 92
f 20 84 92
f 20 16 84
f 16 72 84
f 16 12 72
f 12 64 72
f 12 8 64
f 8 52 64
f 8 44 52
f 44 8 36
f 8 4 36
f 6 10 48
f 10 56 48
f 10 14 56
f 14 68 56
f 14 18 68
f 18 80 68
f 18 22 80
f 22 88 80
f 22 26 88
f 26 100 88
f 26 112 100
f 26 30 112
f 30 120 112
f 30 58 120
f 58 132 120
f 58 160 132
f 58 76 160
f 76 196 160
f 76 226 196
f 150 230 256
f 150 200 230
f 150 170 200
f 150 134 170
f 150 122 134
f 150 114 122
f 150 102 114
f 150 90 102
f 406 450 458
f 406 442 450
f 406 434 442
f 406 426 434
f 406 418 426
f 406 386 418
f 406 360 386
f 406 334 360
f 406 310 334
f 288 416 424
f 288 374 416
f 288 350 374
f 288 326 350
f 288 302 326
f 288 294 302
f 288 278 294
f 288 270 278
f 278 78 266
f 278 96 78
f 278 110 96
f 278 126 110
f 278 138 126
f 278 186 138
f 278 216 186
f 278 248 216
f 278 270 248
f 310 318 312
f 310 320 318
f 310 328 320
f 310 336 328
f 310 348 336
f 310 362 348
f 310 376 362
f 310 406 376
f 499 286 284
f 499 296 286
f 499 316 296
f 499 338 316
f 499 364 338
f 499 396 364
f 499 420 396
f 499 428 420
f 499 436 428
f 499 444 436
f 499 452 444
f 499 460 452
f 499 468 460
f 499 476 468
f 499 484 476
f 499 492 484
f 499 498 492
f 499 490 498
f 499 482 490
f 499 430 482
f 499 438 430
f 499 446 438
f 499 454 446
f 499 462 454
f 499 470 462
f 499 478 470
f 499 486 478
f 499 494 486
f 499 496 494
f 499 488 496
f 501 488 499
f 501 480 488
f 501 472 480
f 501 464 472
f 501 456 464
f 501 448 456
f 501 440 448
f 501 432 440
f 501 424 432
f 501 288 424
f 2 36 4
f 2 38 36
f 2 46 38
f 2 54 46
f 2 66 54
f 2 74 66
f 2 86 74
f 2 98 86
f 2 106 98
f 2 118 106
f 2 130 118
f 2 150 130
f 2 90 150
f 2 82 90
f 2 70 82
f 2 62 70
f 2 50 62
f 2 42 50
f 2 34 42
f 2 40 34
f 2 48 40
f 2 6 48
f 94 226 76
f 94 252 226
f 94 276 252
f 94 286 276
f 284 246 268
f 284 214 246
f 284 184 214
f 284 136 184
f 284 124 136
f 284 108 124
f 284 94 108
f 284 286 94
f 256 180 150
f 256 198 180
f 256 212 198
f 256 228 212
f 256 236 228
f 256 244 236
f 256 250 244
f 256 258 250
f 78 238 266
f 182 60 140
f 406 422 405
f 422 421 405
f 422 430 421
f 430 429 421
f 430 438 429
f 438 437 429
f 438 446 437
f 446 445 437
f 446 454 445
f 454 453 445
f 454 462 453
f 462 461 453
f 462 470 461
f 470 469 461
f 470 478 469
f 478 477 469
f 478 486 477
f 486 485 477
f 486 494 485
f 494 493 485
f 494 496 493
f 496 495 493
f 496 488 495
f 488 487 495
f 488 480 487
f 480 479 487
f 480 472 479
f 472 471 479
f 472 464 471
f 464 463 471
f 464 456 463
f 456 455 463
f 456 448 455
f 448 447 455
f 448 440 447
f 440 439 447
f 440 432 439
f 432 431 439
f 432 424 431
f 424 423 431
f 424 416 423
f 416 415 423
f 416 374 415
f 374 373 415
f 374 350 373
f 350 349 373
f 350 326 349
f 326 325 349
f 326 302 325
f 302 301 325
f 302 294 301
f 294 293 301
f 294 278 293
f 278 277 293
f 278 266 277
f 266 265 277
f 266 238 265
f 238 237 265
f 238 210 237
f 210 209 237
f 210 182 209
f 182 181 209
f 182 140 181
f 140 139 181
f 140 128 139
f 128 127 139
f 128 116 127
f 116 115 127
f 116 104 115
f 104 103 115
f 104 92 103
f 92 91 103
f 92 84 91
f 84 83 91
f 84 72 83
f 72 71 83
f 72 64 71
f 64 63 71
f 64 52 63
f 52 51 63
f 52 44 51
f 44 43 51
f 44 36 43
f 36 35 43
f 36 38 35
f 38 37 35
f 38 46 37
f 46 45 37
f 46 54 45
f 54 53 45
f 54 66 53
f 66 65 53
f 66 74 65
f 74 73 65
f 74 86 73
f 86 85 73
f 86 98 85
f 98 97 85
f 98 106 97
f 106 105 97
f 106 118 105
f 118 117 105
f 118 130 117
f 130 129 117
f 130 150 129
f 150 149 129
f 150 180 149
f 180 179 149
f 180 198 179
f 198 197 179
f 198 212 197
f 212 211 197
f 212 228 211
f 228 227 211
f 228 236 227
f 236 235 227
f 236 244 235
f 244 243 235
f 244 250 243
f 250 249 243
f 250 258 249
f 258 257 249
f 312 318 311
f 318 317 311
f 318 320 317
f 320 319 317
f 320 328 319
f 328 327 319
f 328 336 327
f 336 335 327
f 336 348 335
f 348 347 335
f 348 362 347
f 362 361 347
f 362 376 361
f 376 375 361
f 376 406 375
f 406 405 375
f 415 414 423
f 414 421 423
f 414 404 421
f 404 405 421
f 358 346 361
f 346 347 361
f 346 332 347
f 332 335 347
f 332 327 335
f 495 487 493
f 487 485 493
f 487 479 485
f 479 477 485
f 479 471 477
f 471 469 477
f 471 463 469
f 463 461 469
f 463 455 461
f 455 453 461
f 455 447 453
f 447 445 453
f 447 439 445
f 439 437 445
f 439 431 437
f 431 429 437
f 431 423 429
f 423 421 429
f 342 354 325
f 354 349 325
f 354 368 349
f 325 301 324
f 301 306 324
f 301 293 306
f 293 300 306
f 293 292 300
f 293 277 292
f 277 282 292
f 277 265 282
f 265 274 282
f 265 264 274
f 265 237 264
f 237 242 264
f 237 209 242
f 209 224 242
f 209 208 224
f 209 181 208
f 181 194 208
f 181 178 194
f 127 115 129
f 115 117 129
f 115 103 117
f 103 105 117
f 103 91 105
f 91 97 105
f 91 83 97
f 83 85 97
f 83 71 85
f 71 73 85
f 71 63 73
f 63 65 73
f 63 51 65
f 51 53 65
f 51 43 53
f 43 45 53
f 43 35 45
f 35 37 45
f 260 234 257
f 234 249 257
f 234 235 249
f 235 243 249
f 234 220 235
f 220 227 235
f 220 211 227
f 220 204 211
f 204 197 211
f 204 190 197
f 190 179 197
f 190 174 179
f 375 372 361
f 375 384 372
f 375 394 384
f 375 404 394
f 375 405 404
f 314 327 332
f 314 319 327
f 314 317 319
f 314 311 317
f 373 410 415
f 373 400 410
f 373 390 400
f 373 380 390
f 373 368 380
f 373 349 368
f 139 178 181
f 139 168 178
f 139 158 168
f 139 148 158
f 139 144 148
f 139 129 144
f 139 127 129
f 149 144 129
f 149 154 144
f 149 164 154
f 149 174 164
f 149 179 174
f 372 358 361
f 415 410 414
f 342 325 324
f 253 259 254
f 259 255 254
f 257 259 260
f 257 255 259
f 257 256 255
f 257 258 256
f 307 308 313
f 313 308 309
f 311 314 313
f 311 313 309
f 311 309 310
f 311 310 312
f 314 332 313
f 332 331 313
f 332 346 331
f 346 345 331
f 346 358 345
f 358 357 345
f 358 372 357
f 372 371 357
f 372 384 371
f 384 383 371
f 384 394 383
f 394 393 383
f 394 404 393
f 404 403 393
f 404 414 403
f 414 413 403
f 414 410 413
f 410 409 413
f 410 400 409
f 400 399 409
f 400 390 399
f 390 389 399
f 390 380 389
f 380 379 389
f 380 368 379
f 368 367 379
f 368 354 367
f 354 353 367
f 354 342 353
f 342 341 353
f 342 324 341
f 324 323 341
f 324 306 323
f 306 305 323
f 306 300 305
f 300 299 305
f 300 292 299
f 292 291 299
f 292 282 291
f 282 281 291
f 282 274 281
f 274 273 281
f 274 264 273
f 264 263 273
f 264 242 263
f 242 241 263
f 242 224 241
f 224 223 241
f 224 208 223
f 208 207 223
f 208 194 207
f 194 193 207
f 194 178 193
f 178 177 193
f 178 168 177
f 168 167 177
f 168 158 167
f 158 157 167
f 158 148 157
f 148 147 157
f 148 144 147
f 144 143 147
f 144 154 143
f 154 153 143
f 154 164 153
f 164 163 153
f 164 174 163
f 174 173 163
f 174 190 173
f 190 189 173
f 190 204 189
f 204 203 189
f 204 220 203
f 220 219 203
f 220 234 219
f 234 233 219
f 234 260 233
f 260 259 233
f 254 232 253
f 232 231 253
f 232 218 231
f 218 217 231
f 218 202 217
f 202 201 217
f 202 188 201
f 188 187 201
f 188 172 187
f 172 171 187
f 172 162 171
f 162 161 171
f 162 152 161
f 152 151 161
f 152 142 151
f 142 141 151
f 142 146 141
f 146 145 141
f 146 156 145
f 156 155 145
f 156 166 155
f 166 165 155
f 166 176 165
f 176 175 165
f 176 192 175
f 192 191 175
f 192 206 191
f 206 205 191
f 206 222 205
f 222 221 205
f 222 240 221
f 240 239 221
f 240 262 239
f 262 261 239
f 262 272 261
f 272 271 261
f 272 280 271
f 280 279 271
f 280 290 279
f 290 289 279
f 290 298 289
f 298 297 289
f 298 304 297
f 304 303 297
f 304 322 303
f 322 321 303
f 322 340 321
f 340 339 321
f 340 352 339
f 352 351 339
f 352 366 351
f 366 365 351
f 366 378 365
f 378 377 365
f 378 388 377
f 388 387 377
f 388 398 387
f 398 397 387
f 398 408 397
f 408 407 397
f 408 412 407
f 412 411 407
f 412 402 411
f 402 401 411
f 402 392 401
f 392 391 401
f 392 382 391
f 382 381 391
f 382 370 381
f 370 369 381
f 370 356 369
f 356 355 369
f 356 344 355
f 344 343 355
f 344 330 343
f 330 329 343
f 330 308 329
f 308 307 329
f 255 229 254
f 229 232 254
f 229 218 232
f 229 199 218
f 199 202 218
f 199 169 202
f 169 188 202
f 169 172 188
f 169 133 162
f 133 152 162
f 133 142 152
f 489 481 491
f 481 483 491
f 481 473 483
f 473 475 483
f 473 465 475
f 465 467 475
f 465 457 467
f 457 459 467
f 457 449 459
f 449 451 459
f 449 441 451
f 441 443 451
f 441 433 443
f 433 435 443
f 433 425 435
f 425 427 435
f 425 417 427
f 417 419 427
f 417 408 419
f 408 395 419
f 408 398 395
f 340 322 337
f 322 315 337
f 322 304 315
f 304 298 315
f 298 295 315
f 298 290 295
f 290 285 295
f 290 280 285
f 280 275 285
f 280 272 275
f 272 262 275
f 262 251 275
f 262 240 251
f 240 225 251
f 240 222 225
f 222 206 225
f 206 195 225
f 206 192 195
f 121 113 119
f 113 111 119
f 113 101 111
f 101 99 111
f 101 89 99
f 89 87 99
f 89 81 87
f 81 79 87
f 81 69 79
f 69 67 79
f 69 61 67
f 61 55 67
f 61 49 55
f 49 47 55
f 49 41 47
f 41 39 47
f 41 33 39
f 417 385 412
f 385 402 412
f 385 392 402
f 385 359 392
f 359 382 392
f 359 370 382
f 359 333 356
f 333 344 356
f 333 309 344
f 309 330 344
f 309 308 330
f 363 352 337
f 363 366 352
f 363 378 366
f 363 388 378
f 363 395 388
f 159 156 131
f 159 166 156
f 159 176 166
f 159 192 176
f 159 195 192
f 131 121 119
f 131 133 121
f 131 142 133
f 131 146 142
f 131 156 146
f 172 169 162
f 491 497 489
f 417 412 408
f 398 388 395
f 337 352 340
f 370 359 356
f 256 230 255
f 230 229 255
f 230 200 229
f 200 199 229
f 200 170 199
f 170 169 199
f 170 134 169
f 134 133 169
f 134 122 133
f 122 121 133
f 122 114 121
f 114 113 121
f 114 102 113
f 102 101 113
f 102 90 101
f 90 89 101
f 90 82 89
f 82 81 89
f 82 70 81
f 70 69 81
f 70 62 69
f 62 61 69
f 62 50 61
f 50 49 61
f 50 42 49
f 42 41 49
f 42 34 41
f 34 33 41
f 34 40 33
f 40 39 33
f 40 48 39
f 48 47 39
f 48 56 47
f 56 55 47
f 56 68 55
f 68 67 55
f 68 80 67
f 80 79 67
f 80 88 79
f 88 87 79
f 88 100 87
f 100 99 87
f 100 112 99
f 112 111 99
f 112 120 111
f 120 119 111
f 120 132 119
f 132 131 119
f 132 160 131
f 160 159 131
f 160 196 159
f 196 195 159
f 196 226 195
f 226 225 195
f 226 252 225
f 252 251 225
f 252 276 251
f 276 275 251
f 276 286 275
f 286 285 275
f 286 296 285
f 296 295 285
f 296 316 295
f 316 315 295
f 316 338 315
f 338 337 315
f 338 364 337
f 364 363 337
f 364 396 363
f 396 395 363
f 396 420 395
f 420 419 395
f 420 428 419
f 428 427 419
f 428 436 427
f 436 435 427
f 436 444 435
f 444 443 435
f 444 452 443
f 452 451 443
f 452 460 451
f 460 459 451
f 460 468 459
f 468 467 459
f 468 476 467
f 476 475 467
f 476 484 475
f 484 483 475
f 484 492 483
f 492 491 483
f 492 498 491
f 498 497 491
f 498 490 497
f 490 489 497
f 490 482 489
f 482 481 489
f 482 474 481
f 474 473 481
f 474 466 473
f 466 465 473
f 466 458 465
f 458 457 465
f 458 450 457
f 450 449 457
f 450 442 449
f 442 441 449
f 442 434 441
f 434 433 441
f 434 426 433
f 426 425 433
f 426 418 425
f 418 417 425
f 418 386 417
f 386 385 417
f 386 360 385
f 360 359 385
f 360 334 359
f 334 333 359
f 334 310 333
f 310 309 333
f 861 873 865
f 873 875 865
f 873 883 875
f 883 985 875
f 657 641 845
f 641 643 845
f 641 633 643
f 633 635 643
f 633 625 635
f 625 627 635
f 625 619 627
f 279 289 267
f 289 283 267
f 289 599 283
f 599 615 283
f 665 681 791
f 681 799 791
f 681 697 799
f 697 713 799
f 713 811 799
f 713 729 811
f 729 819 811
f 729 745 819
f 745 831 819
f 745 839 831
f 745 753 839
f 753 843 839
f 753 737 843
f 731 715 821
f 715 813 821
f 715 699 813
f 699 801 813
f 699 683 801
f 683 793 801
f 683 667 793
f 785 793 651
f 793 667 651
f 511 503 297
f 503 289 297
f 503 519 289
f 303 321 511
f 321 527 511
f 321 339 527
f 339 351 527
f 351 543 527
f 351 365 543
f 365 559 543
f 365 377 559
f 377 575 559
f 377 591 575
f 607 591 387
f 591 377 387
f 379 367 597
f 367 581 597
f 367 565 581
f 367 353 565
f 353 549 565
f 353 341 549
f 341 533 549
f 341 323 533
f 323 517 533
f 323 305 517
f 175 191 5
f 191 9 5
f 191 205 9
f 177 167 11
f 167 7 11
f 167 157 7
f 207 193 15
f 193 11 15
f 193 177 11
f 647 863 663
f 647 855 863
f 647 847 855
f 647 835 847
f 647 823 835
f 647 649 823
f 307 609 329
f 307 593 609
f 307 577 593
f 307 313 577
f 1 165 5
f 1 155 165
f 1 145 155
f 1 3 145
f 765 629 287
f 765 637 629
f 765 645 637
f 765 661 645
f 765 677 661
f 765 693 677
f 765 709 693
f 765 725 709
f 765 741 725
f 765 757 741
f 985 977 981
f 985 973 977
f 985 969 973
f 985 965 969
f 985 961 965
f 985 933 961
f 985 909 933
f 985 893 909
f 985 883 893
f 865 851 861
f 865 829 851
f 865 805 829
f 865 769 805
f 865 765 769
f 865 757 765
f 865 749 757
f 865 733 749
f 865 717 733
f 865 701 717
f 865 685 701
f 865 669 685
f 865 653 669
f 845 673 657
f 845 689 673
f 845 705 689
f 845 721 705
f 845 737 721
f 845 843 737
f 845 867 843
f 983 877 987
f 983 869 877
f 983 871 869
f 983 881 871
f 983 891 881
f 983 907 891
f 983 931 907
f 983 959 931
f 983 963 959
f 983 967 963
f 983 971 967
f 983 975 971
f 983 979 975
f 863 679 663
f 863 695 679
f 863 711 695
f 863 727 711
f 863 743 727
f 863 751 743
f 863 763 751
f 863 767 763
f 863 803 767
f 863 827 803
f 863 849 827
f 863 859 849
f 863 871 859
f 863 869 871
f 763 735 751
f 763 719 735
f 763 703 719
f 763 687 703
f 763 671 687
f 763 655 671
f 763 639 655
f 763 631 639
f 763 623 631
f 763 283 623
f 279 17 271
f 279 21 17
f 279 25 21
f 279 29 25
f 279 57 29
f 279 75 57
f 279 93 75
f 279 107 93
f 279 123 107
f 279 135 123
f 279 183 135
f 279 213 183
f 279 245 213
f 279 267 245
f 989 895 887
f 989 901 895
f 989 913 901
f 989 925 913
f 989 937 925
f 989 945 937
f 989 955 945
f 989 957 955
f 989 949 957
f 989 941 949
f 989 929 941
f 989 915 929
f 989 897 915
f 989 917 897
f 989 903 917
f 989 919 903
f 989 927 919
f 989 939 927
f 989 947 939
f 989 953 947
f 989 951 953
f 987 951 989
f 987 943 951
f 987 935 943
f 987 923 935
f 987 911 923
f 987 899 911
f 987 889 899
f 987 885 889
f 987 877 885
f 985 879 875
f 985 887 879
f 985 989 887
f 649 815 823
f 649 807 815
f 649 795 807
f 649 787 795
f 649 779 787
f 649 771 779
f 649 773 771
f 649 781 773
f 649 791 781
f 649 665 791
f 845 707 723
f 845 691 707
f 845 675 691
f 845 659 675
f 845 643 659
f 841 731 833
f 841 747 731
f 841 755 747
f 841 739 755
f 841 723 739
f 841 845 723
f 653 785 651
f 653 777 785
f 653 775 777
f 653 783 775
f 653 789 783
f 653 797 789
f 653 809 797
f 653 817 809
f 653 825 817
f 653 837 825
f 653 853 837
f 653 857 853
f 653 865 857
f 609 343 329
f 609 355 343
f 609 369 355
f 609 381 369
f 609 391 381
f 609 401 391
f 609 411 401
f 609 407 411
f 609 397 407
f 609 387 397
f 609 607 387
f 313 561 577
f 313 545 561
f 313 529 545
f 313 513 529
f 313 505 513
f 313 521 505
f 313 537 521
f 313 553 537
f 313 569 553
f 313 585 569
f 313 601 585
f 313 617 601
f 313 625 617
f 313 603 625
f 313 587 603
f 313 571 587
f 313 555 571
f 313 539 555
f 313 523 539
f 313 507 523
f 313 515 507
f 313 531 515
f 313 547 531
f 313 563 547
f 313 579 563
f 313 595 579
f 313 611 595
f 613 379 597
f 613 389 379
f 613 399 389
f 613 409 399
f 613 413 409
f 613 403 413
f 613 393 403
f 613 383 393
f 613 371 383
f 613 357 371
f 613 345 357
f 613 331 345
f 613 313 331
f 613 611 313
f 287 247 269
f 287 215 247
f 287 185 215
f 287 137 185
f 287 125 137
f 287 109 125
f 287 95 109
f 287 77 95
f 287 59 77
f 287 31 59
f 287 27 31
f 287 23 27
f 287 281 23
f 287 291 281
f 287 509 291
f 287 525 509
f 287 541 525
f 287 557 541
f 287 573 557
f 287 589 573
f 287 605 589
f 287 621 605
f 287 629 621
f 509 299 291
f 509 305 299
f 509 517 305
f 13 271 17
f 13 261 271
f 13 239 261
f 13 221 239
f 13 205 221
f 13 9 205
f 3 141 145
f 3 151 141
f 3 161 151
f 3 171 161
f 3 187 171
f 3 201 187
f 3 217 201
f 3 231 217
f 3 253 231
f 3 233 253
f 3 219 233
f 3 203 219
f 3 189 203
f 3 173 189
f 3 163 173
f 3 153 163
f 3 143 153
f 3 147 143
f 3 157 147
f 3 7 157
f 19 223 15
f 19 241 223
f 19 263 241
f 19 273 263
f 19 281 273
f 19 23 281
f 915 905 921
f 915 921 929
f 619 625 603
f 599 289 583
f 583 289 567
f 567 289 551
f 551 289 535
f 535 289 519
f 833 731 821
f 283 615 623
f 511 297 303
f 5 165 175
f 253 233 259
f 207 15 223
f 610 592 608
f 610 576 592
f 610 560 576
f 610 544 560
f 610 528 544
f 650 712 728
f 650 696 712
f 650 680 696
f 650 664 680
f 650 648 664
f 614 596 612
f 614 580 596
f 614 564 580
f 614 548 564
f 614 532 548
f 614 598 532
f 654 732 670
f 654 716 732
f 654 700 716
f 654 684 700
f 654 668 684
f 654 652 668
f 636 690 706
f 636 674 690
f 636 658 674
f 636 642 658
f 636 634 642
f 636 626 634
f 636 628 626
f 628 618 626
f 628 602 618
f 628 586 602
f 628 570 586
f 628 554 570
f 761 758 759
f 761 742 758
f 761 726 742
f 761 710 726
f 761 694 710
f 761 678 694
f 761 662 678
f 761 646 662
f 761 638 646
f 761 630 638
f 761 502 630
f 759 624 500
f 759 632 624
f 759 640 632
f 759 656 640
f 759 672 656
f 759 688 672
f 759 704 688
f 759 720 704
f 759 736 720
f 759 752 736
f 759 744 752
f 759 728 744
f 759 650 728
f 759 666 650
f 759 682 666
f 759 698 682
f 759 714 698
f 759 730 714
f 759 746 730
f 759 754 746
f 759 708 754
f 759 724 708
f 759 740 724
f 759 756 740
f 759 748 756
f 759 702 748
f 759 718 702
f 759 734 718
f 759 750 734
f 759 758 750
f 722 644 706
f 722 660 644
f 722 676 660
f 738 676 722
f 738 692 676
f 738 708 692
f 738 754 708
f 748 670 732
f 748 686 670
f 748 702 686
f 500 518 510
f 500 534 518
f 500 550 534
f 500 566 550
f 500 516 566
f 500 508 516
f 500 524 508
f 500 540 524
f 500 556 540
f 500 506 556
f 500 514 506
f 500 530 514
f 500 546 530
f 500 562 546
f 500 578 562
f 500 594 578
f 500 610 594
f 500 528 610
f 500 512 528
f 500 504 512
f 500 520 504
f 500 536 520
f 500 552 536
f 500 568 552
f 500 584 568
f 500 600 584
f 500 616 600
f 500 624 616
f 538 604 588
f 538 620 604
f 538 554 620
f 522 556 506
f 522 572 556
f 522 588 572
f 522 538 588
f 516 582 566
f 516 598 582
f 516 532 598
f 502 622 630
f 502 606 622
f 502 590 606
f 502 574 590
f 502 558 574
f 502 542 558
f 502 526 542
f 502 510 526
f 502 500 510
f 554 628 620
f 706 644 636
f 651 667 652
f 667 668 652
f 667 683 668
f 683 684 668
f 683 699 684
f 699 700 684
f 699 715 700
f 715 716 700
f 715 731 716
f 731 732 716
f 731 747 732
f 747 748 732
f 747 755 748
f 755 756 748
f 755 739 756
f 739 740 756
f 739 723 740
f 723 724 740
f 723 707 724
f 707 708 724
f 707 691 708
f 691 692 708
f 691 675 692
f 675 676 692
f 675 659 676
f 659 660 676
f 659 643 660
f 643 644 660
f 643 635 644
f 635 636 644
f 635 627 636
f 627 628 636
f 627 619 628
f 619 620 628
f 619 603 620
f 603 604 620
f 603 587 604
f 587 588 604
f 587 571 588
f 571 572 588
f 571 555 572
f 555 556 572
f 555 539 556
f 539 540 556
f 539 523 540
f 523 524 540
f 523 507 524
f 507 508 524
f 507 515 508
f 515 516 508
f 515 531 516
f 531 532 516
f 531 547 532
f 547 548 532
f 547 563 548
f 563 564 548
f 563 579 564
f 579 580 564
f 579 595 580
f 595 596 580
f 595 611 596
f 611 612 596
f 611 613 612
f 612 613 614
f 651 652 653
f 652 654 653
f 613 597 614
f 597 598 614
f 597 581 598
f 581 582 598
f 581 565 582
f 565 566 582
f 565 549 566
f 549 550 566
f 549 533 550
f 533 534 550
f 533 517 534
f 517 518 534
f 517 509 518
f 509 510 518
f 509 525 510
f 525 526 510
f 525 541 526
f 541 542 526
f 541 557 542
f 557 558 542
f 557 573 558
f 573 574 558
f 573 589 574
f 589 590 574
f 589 605 590
f 605 606 590
f 605 621 606
f 621 622 606
f 621 629 622
f 629 630 622
f 629 637 630
f 637 638 630
f 637 645 638
f 645 646 638
f 645 661 646
f 661 662 646
f 661 677 662
f 677 678 662
f 677 693 678
f 693 694 678
f 693 709 694
f 709 710 694
f 709 725 710
f 725 726 710
f 725 741 726
f 741 742 726
f 741 757 742
f 757 758 742
f 757 749 758
f 749 750 758
f 749 733 750
f 733 734 750
f 733 717 734
f 717 718 734
f 717 701 718
f 701 702 718
f 701 685 702
f 685 686 702
f 685 669 686
f 669 670 686
f 669 653 670
f 653 654 670
