v -0.500000 -0.042487 0.004631
v -0.500000 -0.042487 0.023153
v -0.500000 -0.028827 0.004631
v -0.500000 -0.028827 0.023153
v -0.500000 -0.035657 0.001627
v -0.499330 -0.049496 0.001627
v -0.499330 -0.021819 0.001627
v -0.498708 -0.035657 -0.004241
v -0.498701 -0.056086 0.004631
v -0.498701 -0.056086 0.023153
v -0.498701 -0.015228 0.004631
v -0.498701 -0.015228 0.023153
v -0.498045 -0.049371 -0.004241
v -0.498045 -0.021943 -0.004241
v -0.497328 -0.063205 0.001627
v -0.497328 -0.008109 0.001627
v -0.496186 -0.035657 -0.009693
v -0.496116 -0.069499 0.004631
v -0.496116 -0.069499 0.023153
v -0.496116 -0.001815 0.004631
v -0.496116 -0.001815 0.023153
v -0.496061 -0.062957 -0.004241
v -0.496061 -0.008358 -0.004241
v -0.495534 -0.049127 -0.009693
v -0.495534 -0.022187 -0.009693
v -0.494013 -0.076657 0.001627
v -0.494013 0.005343 0.001627
v -0.493585 -0.062472 -0.009693
v -0.493585 -0.008842 -0.009693
v -0.492775 -0.076288 -0.004241
v -0.492775 0.004973 -0.004241
v -0.492550 -0.035657 -0.014476
v -0.492268 -0.082606 0.004631
v -0.492268 -0.082606 0.023153
v -0.492268 0.011292 0.004631
v -0.492268 0.011292 0.023153
v -0.491915 -0.048777 -0.014476
v -0.491915 -0.022538 -0.014476
v -0.490358 -0.075566 -0.009693
v -0.490358 0.004252 -0.009693
v -0.490017 -0.061774 -0.014476
v -0.490017 -0.009541 -0.014476
v -0.489414 -0.089726 0.001627
v -0.489414 0.018412 0.001627
v -0.488218 -0.089239 -0.004241
v -0.488218 0.017925 -0.004241
v -0.487971 -0.035657 -0.018365
v -0.487358 -0.048335 -0.018365
v -0.487358 -0.022980 -0.018365
v -0.487191 -0.095288 0.004631
v -0.487191 -0.095288 0.023153
v -0.487191 0.023974 0.004631
v -0.487191 0.023974 0.023153
v -0.486874 -0.074527 -0.014476
v -0.486874 0.003212 -0.014476
v -0.485882 -0.088288 -0.009693
v -0.485882 0.016974 -0.009693
v -0.485524 -0.060894 -0.018365
v -0.485524 -0.010420 -0.018365
v -0.483576 -0.102291 0.001627
v -0.483576 0.030976 0.001627
v -0.482663 -0.035657 -0.021179
v -0.482515 -0.086917 -0.014476
v -0.482515 0.015603 -0.014476
v -0.482486 -0.073217 -0.018365
v -0.482486 0.001903 -0.018365
v -0.482433 -0.101690 -0.004241
v -0.482433 0.030376 -0.004241
v -0.482075 -0.047822 -0.021179
v -0.482075 -0.023492 -0.021179
v -0.480931 -0.107430 0.004631
v -0.480931 -0.107430 0.023153
v -0.480931 0.036116 0.004631
v -0.480931 0.036116 0.023153
v -0.480315 -0.059874 -0.021179
v -0.480315 -0.011440 -0.021179
v -0.480199 -0.100518 -0.009693
v -0.480199 0.029204 -0.009693
v -0.478274 -0.085190 -0.018365
v -0.478274 0.013876 -0.018365
v -0.477400 -0.071700 -0.021179
v -0.477400 0.000385 -0.021179
v -0.476980 -0.098828 -0.014476
v -0.476980 0.027514 -0.014476
v -0.476874 -0.035657 -0.022787
v -0.476552 -0.114233 0.001627
v -0.476552 0.042919 0.001627
v -0.476313 -0.047264 -0.022787
v -0.476313 -0.024051 -0.022787
v -0.475472 -0.113525 -0.004241
v -0.475472 0.042211 -0.004241
v -0.474634 -0.058762 -0.022787
v -0.474634 -0.012552 -0.022787
v -0.473546 -0.118922 0.004631
v -0.473546 -0.118922 0.023153
v -0.473546 0.047608 0.004631
v -0.473546 0.047608 0.023153
v -0.473362 -0.112143 -0.009693
v -0.473362 0.040828 -0.009693
v -0.473358 -0.083189 -0.021179
v -0.473358 0.011874 -0.021179
v -0.472925 -0.096701 -0.018365
v -0.472925 0.025386 -0.018365
v -0.472379 -0.035657 -0.023153
v -0.471853 -0.070044 -0.022787
v -0.471853 -0.001270 -0.022787
v -0.471745 -0.047758 -0.023153
v -0.471745 -0.023557 -0.023153
v -0.470321 -0.110150 -0.014476
v -0.470321 0.038836 -0.014476
v -0.469850 -0.059726 -0.023153
v -0.469850 -0.011589 -0.023153
v -0.468409 -0.125441 0.001627
v -0.468409 0.054127 0.001627
v -0.468225 -0.094234 -0.021179
v -0.468225 0.022920 -0.021179
v -0.467996 -0.081006 -0.022787
v -0.467996 0.009691 -0.022787
v -0.467402 -0.124633 -0.004241
v -0.467402 0.053319 -0.004241
v -0.466714 -0.071430 -0.023153
v -0.466714 0.000116 -0.023153
v -0.466491 -0.107641 -0.018365
v -0.466491 0.036327 -0.018365
v -0.465435 -0.123053 -0.009693
v -0.465435 0.051739 -0.009693
v -0.465101 -0.129660 0.004631
v -0.465101 -0.129660 0.023153
v -0.465101 0.058345 0.004631
v -0.465101 0.058345 0.023153
v -0.463100 -0.091544 -0.022787
v -0.463100 0.020229 -0.022787
v -0.462600 -0.120776 -0.014476
v -0.462600 0.049462 -0.014476
v -0.462371 -0.082742 -0.023153
v -0.462371 0.011428 -0.023153
v -0.462051 -0.104732 -0.021179
v -0.462051 0.033418 -0.021179
v -0.459221 -0.135812 0.001627
v -0.459221 0.064498 0.001627
v -0.459030 -0.117909 -0.018365
v -0.459030 0.046595 -0.018365
v -0.458297 -0.134910 -0.004241
v -0.458297 0.063595 -0.004241
v -0.457209 -0.101560 -0.022787
v -0.457209 0.030246 -0.022787
v -0.456870 -0.093539 -0.023153
v -0.456870 0.022224 -0.023153
v -0.456492 -0.133148 -0.009693
v -0.456492 0.061833 -0.009693
v -0.455675 -0.139546 0.004631
v -0.455675 -0.139546 0.023153
v -0.455675 0.068232 0.004631
v -0.455675 0.068232 0.023153
v -0.454892 -0.114586 -0.021179
v -0.454892 0.043271 -0.021179
v -0.453890 -0.130608 -0.014476
v -0.453890 0.059294 -0.014476
v -0.450614 -0.127410 -0.018365
v -0.450614 0.056095 -0.018365
v -0.450378 -0.110961 -0.022787
v -0.450378 0.039646 -0.022787
v -0.450271 -0.103701 -0.023153
v -0.450271 0.032387 -0.023153
v -0.449076 -0.145247 0.001627
v -0.449076 0.073933 0.001627
v -0.448243 -0.144260 -0.004241
v -0.448243 0.072946 -0.004241
v -0.446815 -0.123702 -0.021179
v -0.446815 0.052388 -0.021179
v -0.446617 -0.142332 -0.009693
v -0.446617 0.071018 -0.009693
v -0.445351 -0.148492 0.004631
v -0.445351 -0.148492 0.023153
v -0.445351 0.077178 0.004631
v -0.445351 0.077178 0.023153
v -0.444272 -0.139553 -0.014476
v -0.444272 0.068239 -0.014476
v -0.442673 -0.119658 -0.022787
v -0.442673 0.048344 -0.022787
v -0.442645 -0.113118 -0.023153
v -0.442645 0.041803 -0.023153
v -0.441319 -0.136053 -0.018365
v -0.441319 0.064739 -0.018365
v -0.438068 -0.153659 0.001627
v -0.438068 0.082345 0.001627
v -0.437897 -0.131996 -0.021179
v -0.437897 0.060682 -0.021179
v -0.437334 -0.152596 -0.004241
v -0.437334 0.081282 -0.004241
v -0.435901 -0.150520 -0.009693
v -0.435901 0.079206 -0.009693
v -0.434223 -0.156416 0.004631
v -0.434223 -0.156416 0.023153
v -0.434223 0.085101 0.004631
v -0.434223 0.085101 0.023153
v -0.434164 -0.127572 -0.022787
v -0.434164 0.056258 -0.022787
v -0.434077 -0.121686 -0.023153
v -0.434077 0.050371 -0.023153
v -0.433836 -0.147528 -0.014476
v -0.433836 0.076214 -0.014476
v -0.431234 -0.143760 -0.018365
v -0.431234 0.072445 -0.018365
v -0.428219 -0.139391 -0.021179
v -0.428219 0.068077 -0.021179
v -0.426298 -0.160969 0.001627
v -0.426298 0.089655 0.001627
v -0.425671 -0.159841 -0.004241
v -0.425671 0.088526 -0.004241
v -0.424931 -0.134627 -0.022787
v -0.424931 0.063313 -0.022787
v -0.424660 -0.129311 -0.023153
v -0.424660 0.057997 -0.023153
v -0.424445 -0.157636 -0.009693
v -0.424445 0.086322 -0.009693
v -0.422678 -0.154458 -0.014476
v -0.422678 0.083144 -0.014476
v -0.422393 -0.163246 0.004631
v -0.422393 -0.163246 0.023153
v -0.422393 0.091932 0.004631
v -0.422393 0.091932 0.023153
v -0.420453 -0.150457 -0.018365
v -0.420453 0.079142 -0.018365
v -0.417873 -0.145818 -0.021179
v -0.417873 0.074503 -0.021179
v -0.415060 -0.140758 -0.022787
v -0.415060 0.069444 -0.022787
v -0.414498 -0.135911 -0.023153
v -0.414498 0.064596 -0.023153
v -0.413879 -0.167110 0.001627
v -0.413879 0.095795 0.001627
v -0.413363 -0.165926 -0.004241
v -0.413363 0.094611 -0.004241
v -0.412356 -0.163613 -0.009693
v -0.412356 0.092299 -0.009693
v -0.410904 -0.160280 -0.014476
v -0.410904 0.088965 -0.014476
v -0.409967 -0.168921 0.004631
v -0.409967 -0.168921 0.023153
v -0.409967 0.097606 0.004631
v -0.409967 0.097606 0.023153
v -0.409075 -0.156082 -0.018365
v -0.409075 0.084768 -0.018365
v -0.406955 -0.151215 -0.021179
v -0.406955 0.079901 -0.021179
v -0.404643 -0.145908 -0.022787
v -0.404643 0.074594 -0.022787
v -0.403702 -0.141412 -0.023153
v -0.403702 0.070097 -0.023153
v -0.400924 -0.172023 0.001627
v -0.400924 0.100708 0.001627
v -0.400525 -0.170794 -0.004241
v -0.400525 0.099480 -0.004241
v -0.399746 -0.168395 -0.009693
v -0.399746 0.097081 -0.009693
v -0.398622 -0.164937 -0.014476
v -0.398622 0.093623 -0.014476
v -0.397207 -0.160583 -0.018365
v -0.397207 0.089268 -0.018365
v -0.397058 -0.173388 0.004631
v -0.397058 -0.173388 0.023153
v -0.397058 0.102074 0.004631
v -0.397058 0.102074 0.023153
v -0.395567 -0.155534 -0.021179
v -0.395567 0.084220 -0.021179
v -0.393778 -0.150029 -0.022787
v -0.393778 0.078715 -0.022787
v -0.392389 -0.145754 -0.023153
v -0.392389 0.074440 -0.023153
v -0.387556 -0.175662 0.001627
v -0.387556 0.104348 0.001627
v -0.387278 -0.174401 -0.004241
v -0.387278 0.103087 -0.004241
v -0.386733 -0.171938 -0.009693
v -0.386733 0.100624 -0.009693
v -0.385949 -0.168388 -0.014476
v -0.385949 0.097074 -0.014476
v -0.384961 -0.163917 -0.018365
v -0.384961 0.092603 -0.018365
v -0.384400 -0.035657 0.000000
v -0.384237 -0.038661 -0.023153
v -0.384237 -0.032653 -0.023153
v -0.383815 -0.158734 -0.021179
v -0.383815 0.087420 -0.021179
v -0.383783 -0.176609 0.004631
v -0.383783 -0.176609 0.023153
v -0.383783 0.105295 0.004631
v -0.383783 0.105295 0.023153
v -0.383750 -0.041630 0.000000
v -0.383750 -0.029685 0.000000
v -0.382945 -0.044528 -0.023153
v -0.382945 -0.026786 -0.023153
v -0.382566 -0.153082 -0.022787
v -0.382566 0.081767 -0.022787
v -0.381832 -0.047323 0.000000
v -0.381832 -0.023991 0.000000
v -0.380685 -0.148890 -0.023153
v -0.380685 0.077576 -0.023153
v -0.380423 -0.049981 -0.023153
v -0.380423 -0.021333 -0.023153
v -0.378735 -0.052471 0.000000
v -0.378735 -0.018844 0.000000
v -0.376787 -0.054764 -0.023153
v -0.376787 -0.016551 -0.023153
v -0.374603 -0.056832 0.000000
v -0.374603 -0.014482 0.000000
v -0.373900 -0.177995 0.001627
v -0.373900 0.106681 0.001627
v -0.373744 -0.176713 -0.004241
v -0.373744 0.105398 -0.004241
v -0.373440 -0.174208 -0.009693
v -0.373440 0.102894 -0.009693
v -0.373002 -0.170599 -0.014476
v -0.373002 0.099285 -0.014476
v -0.372450 -0.166054 -0.018365
v -0.372450 0.094739 -0.018365
v -0.372208 -0.058653 -0.023153
v -0.372208 -0.012661 -0.023153
v -0.371810 -0.160785 -0.021179
v -0.371810 0.089470 -0.021179
v -0.371112 -0.155038 -0.022787
v -0.371112 0.083724 -0.022787
v -0.370508 -0.035657 0.000000
v -0.370508 -0.035657 0.023153
v -0.370262 -0.178553 0.004631
v -0.370262 -0.178553 0.023153
v -0.370262 0.107239 0.004631
v -0.370262 0.107239 0.023153
v -0.370035 -0.039253 0.000000
v -0.370035 -0.039253 0.023153
v -0.370035 -0.032062 0.000000
v -0.370035 -0.032062 0.023153
v -0.369631 -0.060204 0.000000
v -0.369631 -0.011110 0.000000
v -0.368717 -0.150786 -0.023153
v -0.368717 0.079472 -0.023153
v -0.368647 -0.042603 0.000000
v -0.368647 -0.042603 0.023153
v -0.368647 -0.028711 0.000000
v -0.368647 -0.028711 0.023153
v -0.366900 -0.061467 -0.023153
v -0.366900 -0.009847 -0.023153
v -0.366439 -0.045480 0.000000
v -0.366439 -0.045480 0.023153
v -0.366439 -0.025834 0.000000
v -0.366439 -0.025834 0.023153
v -0.364049 -0.062428 0.000000
v -0.364049 -0.008887 0.000000
v -0.363562 -0.047688 0.000000
v -0.363562 -0.047688 0.023153
v -0.363562 -0.023627 0.000000
v -0.363562 -0.023627 0.023153
v -0.361111 -0.063074 -0.023153
v -0.361111 -0.008240 -0.023153
v -0.360212 -0.049075 0.000000
v -0.360212 -0.049075 0.023153
v -0.360212 -0.022239 0.000000
v -0.360212 -0.022239 0.023153
v -0.360081 -0.178998 0.001627
v -0.360081 0.107684 0.001627
v -0.360050 -0.177707 -0.004241
v -0.360050 0.106393 -0.004241
v -0.359989 -0.175185 -0.009693
v -0.359989 0.103871 -0.009693
v -0.359901 -0.171551 -0.014476
v -0.359901 0.100236 -0.014476
v -0.359791 -0.166973 -0.018365
v -0.359791 0.095659 -0.018365
v -0.359662 -0.161667 -0.021179
v -0.359662 0.090352 -0.021179
v -0.359523 -0.155880 -0.022787
v -0.359523 0.084565 -0.022787
v -0.358121 -0.063399 0.000000
v -0.358121 -0.007915 0.000000
v -0.356617 -0.179203 0.004631
v -0.356617 -0.179203 0.023153
v -0.356617 -0.178669 -0.000790
v -0.356617 -0.177088 -0.006002
v -0.356617 -0.174521 -0.010805
v -0.356617 -0.171066 -0.015015
v -0.356617 -0.166855 -0.018470
v -0.356617 -0.162052 -0.021038
v -0.356617 -0.156840 -0.022619
v -0.356617 -0.151420 -0.023153
v -0.356617 -0.049549 0.000000
v -0.356617 -0.049549 0.023153
v -0.356617 -0.021766 0.000000
v -0.356617 -0.021766 0.023153
v -0.356617 0.080106 -0.023153
v -0.356617 0.085526 -0.022619
v -0.356617 0.090738 -0.021038
v -0.356617 0.095541 -0.018470
v -0.356617 0.099751 -0.015015
v -0.356617 0.103207 -0.010805
v -0.356617 0.105774 -0.006002
v -0.356617 0.107355 -0.000790
v -0.356617 0.107889 0.004631
v -0.356617 0.107889 0.023153
v -0.355113 -0.063399 -0.023153
v -0.355113 -0.007915 -0.023153
v -0.353021 -0.049075 0.000000
v -0.353021 -0.049075 0.023153
v -0.353021 -0.022239 0.000000
v -0.353021 -0.022239 0.023153
v -0.352122 -0.063074 0.000000
v -0.352122 -0.008240 0.000000
v -0.349671 -0.047688 0.000000
v -0.349671 -0.047688 0.023153
v -0.349671 -0.023627 0.000000
v -0.349671 -0.023627 0.023153
v -0.349184 -0.062428 -0.023153
v -0.349184 -0.008887 -0.023153
v -0.346794 -0.045480 0.000000
v -0.346794 -0.045480 0.023153
v -0.346794 -0.025834 0.000000
v -0.346794 -0.025834 0.023153
v -0.346333 -0.061467 0.000000
v -0.346333 -0.009847 0.000000
v -0.344586 -0.042603 0.000000
v -0.344586 -0.042603 0.023153
v -0.344586 -0.028711 0.000000
v -0.344586 -0.028711 0.023153
v -0.343603 -0.060204 -0.023153
v -0.343603 -0.011110 -0.023153
v -0.343198 -0.039253 0.000000
v -0.343198 -0.039253 0.023153
v -0.343198 -0.032062 0.000000
v -0.343198 -0.032062 0.023153
v -0.342725 -0.035657 0.000000
v -0.342725 -0.035657 0.023153
v -0.341025 -0.058653 0.000000
v -0.341025 -0.012661 0.000000
v -0.338630 -0.056832 -0.023153
v -0.338630 -0.014482 -0.023153
v -0.336446 -0.054764 0.000000
v -0.336446 -0.016551 0.000000
v -0.334499 -0.052471 -0.023153
v -0.334499 -0.018844 -0.023153
v -0.332811 -0.049981 0.000000
v -0.332811 -0.021333 0.000000
v -0.331401 -0.047323 -0.023153
v -0.331401 -0.023991 -0.023153
v -0.330288 -0.044528 0.000000
v -0.330288 -0.026786 0.000000
v -0.329483 -0.041630 -0.023153
v -0.329483 -0.029685 -0.023153
v -0.328996 -0.038661 0.000000
v -0.328996 -0.032653 0.000000
v -0.328834 -0.035657 -0.023153
v -0.237767 -0.179193 0.003878
v -0.237767 -0.178382 -0.002075
v -0.237767 -0.176310 -0.007714
v -0.237767 -0.173074 -0.012776
v -0.237767 -0.168826 -0.017024
v -0.237767 -0.163764 -0.020260
v -0.237767 -0.158125 -0.022331
v -0.237767 -0.152172 -0.023142
v -0.237767 0.080858 -0.023142
v -0.237767 0.086811 -0.022331
v -0.237767 0.092450 -0.020260
v -0.237767 0.097512 -0.017024
v -0.237767 0.101760 -0.012776
v -0.237767 0.104996 -0.007714
v -0.237767 0.107068 -0.002075
v -0.237767 0.107879 0.003878
v -0.118917 -0.179193 0.003878
v -0.118917 -0.178382 -0.002075
v -0.118917 -0.176310 -0.007714
v -0.118917 -0.173074 -0.012776
v -0.118917 -0.168826 -0.017024
v -0.118917 -0.163764 -0.020260
v -0.118917 -0.158125 -0.022331
v -0.118917 -0.152172 -0.023142
v -0.118917 0.080858 -0.023142
v -0.118917 0.086811 -0.022331
v -0.118917 0.092450 -0.020260
v -0.118917 0.097512 -0.017024
v -0.118917 0.101760 -0.012776
v -0.118917 0.104996 -0.007714
v -0.118917 0.107068 -0.002075
v -0.118917 0.107879 0.003878
v -0.000067 -0.179193 0.003878
v -0.000067 -0.178382 -0.002075
v -0.000067 -0.176310 -0.007714
v -0.000067 -0.173074 -0.012776
v -0.000067 -0.168826 -0.017024
v -0.000067 -0.163764 -0.020260
v -0.000067 -0.158125 -0.022331
v -0.000067 -0.152172 -0.023142
v -0.000067 0.080858 -0.023142
v -0.000067 0.086811 -0.022331
v -0.000067 0.092450 -0.020260
v -0.000067 0.097512 -0.017024
v -0.000067 0.101760 -0.012776
v -0.000067 0.104996 -0.007714
v -0.000067 0.107068 -0.002075
v -0.000067 0.107879 0.003878
v 0.118783 -0.179193 0.003878
v 0.118783 -0.178382 -0.002075
v 0.118783 -0.176310 -0.007714
v 0.118783 -0.173074 -0.012776
v 0.118783 -0.168826 -0.017024
v 0.118783 -0.163764 -0.020260
v 0.118783 -0.158125 -0.022331
v 0.118783 -0.152172 -0.023142
v 0.118783 0.080858 -0.023142
v 0.118783 0.086811 -0.022331
v 0.118783 0.092450 -0.020260
v 0.118783 0.097512 -0.017024
v 0.118783 0.101760 -0.012776
v 0.118783 0.104996 -0.007714
v 0.118783 0.107068 -0.002075
v 0.118783 0.107879 0.003878
v 0.237633 -0.179193 0.003878
v 0.237633 -0.178382 -0.002075
v 0.237633 -0.176310 -0.007714
v 0.237633 -0.173074 -0.012776
v 0.237633 -0.168826 -0.017024
v 0.237633 -0.163764 -0.020260
v 0.237633 -0.158125 -0.022331
v 0.237633 -0.152172 -0.023142
v 0.237633 0.080858 -0.023142
v 0.237633 0.086811 -0.022331
v 0.237633 0.092450 -0.020260
v 0.237633 0.097512 -0.017024
v 0.237633 0.101760 -0.012776
v 0.237633 0.104996 -0.007714
v 0.237633 0.107068 -0.002075
v 0.237633 0.107879 0.003878
v 0.328699 -0.035657 0.000000
v 0.328862 -0.038661 -0.023153
v 0.328862 -0.032653 -0.023153
v 0.329349 -0.041630 0.000000
v 0.329349 -0.029685 0.000000
v 0.330154 -0.044528 -0.023153
v 0.330154 -0.026786 -0.023153
v 0.331267 -0.047323 0.000000
v 0.331267 -0.023991 0.000000
v 0.332676 -0.049981 -0.023153
v 0.332676 -0.021333 -0.023153
v 0.334364 -0.052471 0.000000
v 0.334364 -0.018844 0.000000
v 0.336312 -0.054764 -0.023153
v 0.336312 -0.016551 -0.023153
v 0.338496 -0.056832 0.000000
v 0.338496 -0.014482 0.000000
v 0.340891 -0.058653 -0.023153
v 0.340891 -0.012661 -0.023153
v 0.342591 -0.035657 0.000000
v 0.342591 -0.035657 0.023153
v 0.343064 -0.039253 0.000000
v 0.343064 -0.039253 0.023153
v 0.343064 -0.032062 0.000000
v 0.343064 -0.032062 0.023153
v 0.343469 -0.060204 0.000000
v 0.343469 -0.011110 0.000000
v 0.344452 -0.042603 0.000000
v 0.344452 -0.042603 0.023153
v 0.344452 -0.028711 0.000000
v 0.344452 -0.028711 0.023153
v 0.346199 -0.061467 -0.023153
v 0.346199 -0.009847 -0.023153
v 0.346660 -0.045480 0.000000
v 0.346660 -0.045480 0.023153
v 0.346660 -0.025834 0.000000
v 0.346660 -0.025834 0.023153
v 0.349050 -0.062428 0.000000
v 0.349050 -0.008887 0.000000
v 0.349537 -0.047688 0.000000
v 0.349537 -0.047688 0.023153
v 0.349537 -0.023627 0.000000
v 0.349537 -0.023627 0.023153
v 0.351988 -0.063074 -0.023153
v 0.351988 -0.008240 -0.023153
v 0.352887 -0.049075 0.000000
v 0.352887 -0.049075 0.023153
v 0.352887 -0.022239 0.000000
v 0.352887 -0.022239 0.023153
v 0.354978 -0.063399 0.000000
v 0.354978 -0.007915 0.000000
v 0.356482 -0.179203 0.004631
v 0.356482 -0.179203 0.023153
v 0.356482 -0.178669 -0.000790
v 0.356482 -0.177088 -0.006002
v 0.356482 -0.174521 -0.010805
v 0.356482 -0.171066 -0.015015
v 0.356482 -0.166855 -0.018470
v 0.356482 -0.162052 -0.021038
v 0.356482 -0.156840 -0.022619
v 0.356482 -0.151420 -0.023153
v 0.356482 -0.049549 0.000000
v 0.356482 -0.049549 0.023153
v 0.356482 -0.021766 0.000000
v 0.356482 -0.021766 0.023153
v 0.356482 0.080106 -0.023153
v 0.356482 0.085526 -0.022619
v 0.356482 0.090738 -0.021038
v 0.356482 0.095541 -0.018470
v 0.356482 0.099751 -0.015015
v 0.356482 0.103207 -0.010805
v 0.356482 0.105774 -0.006002
v 0.356482 0.107355 -0.000790
v 0.356482 0.107889 0.004631
v 0.356482 0.107889 0.023153
v 0.357987 -0.063399 -0.023153
v 0.357987 -0.007915 -0.023153
v 0.358401 0.080090 -0.023153
v 0.358862 0.107869 0.004631
v 0.358862 0.107869 0.023153
v 0.360078 -0.049075 0.000000
v 0.360078 -0.049075 0.023153
v 0.360078 -0.022239 0.000000
v 0.360078 -0.022239 0.023153
v 0.360319 0.080042 -0.023153
v 0.360977 -0.063074 0.000000
v 0.360977 -0.008240 0.000000
v 0.361240 0.107810 0.004631
v 0.361240 0.107810 0.023153
v 0.362236 0.079963 -0.023153
v 0.362506 0.085376 -0.022619
v 0.362765 0.090582 -0.021038
v 0.363003 0.095379 -0.018470
v 0.363213 0.099584 -0.015015
v 0.363384 0.103035 -0.010805
v 0.363428 -0.047688 0.000000
v 0.363428 -0.047688 0.023153
v 0.363428 -0.023627 0.000000
v 0.363428 -0.023627 0.023153
v 0.363512 0.105599 -0.006002
v 0.363591 0.107178 -0.000790
v 0.363617 0.107711 0.004631
v 0.363617 0.107711 0.023153
v 0.363915 -0.062428 -0.023153
v 0.363915 -0.008887 -0.023153
v 0.365193 -0.155599 -0.022787
v 0.365613 -0.161372 -0.021179
v 0.365997 -0.166666 -0.018365
v 0.366305 -0.045480 0.000000
v 0.366305 -0.045480 0.023153
v 0.366305 -0.025834 0.000000
v 0.366305 -0.025834 0.023153
v 0.366329 -0.171233 -0.014476
v 0.366592 -0.174859 -0.009693
v 0.366766 -0.061467 0.000000
v 0.366766 -0.009847 0.000000
v 0.366775 -0.177375 -0.004241
v 0.366783 0.107084 -0.001342
v 0.366868 -0.178664 0.001627
v 0.366904 0.105169 -0.007035
v 0.367098 0.102078 -0.012183
v 0.367358 0.097954 -0.016545
v 0.367670 0.092992 -0.019916
v 0.368020 0.087422 -0.022140
v 0.368393 0.081505 -0.023112
v 0.368513 -0.042603 0.000000
v 0.368513 -0.042603 0.023153
v 0.368513 -0.028711 0.000000
v 0.368513 -0.028711 0.023153
v 0.368838 -0.150759 -0.023153
v 0.368918 0.107955 0.004631
v 0.368918 0.107955 0.023153
v 0.369496 -0.060204 -0.023153
v 0.369496 -0.011110 -0.023153
v 0.369894 -0.178575 0.004631
v 0.369894 -0.178575 0.023153
v 0.369901 -0.039253 0.000000
v 0.369901 -0.039253 0.023153
v 0.369901 -0.032062 0.000000
v 0.369901 -0.032062 0.023153
v 0.370199 0.080138 -0.023153
v 0.370326 0.107531 -0.001342
v 0.370374 -0.035657 0.000000
v 0.370374 -0.035657 0.023153
v 0.370685 0.105647 -0.007035
v 0.371266 0.102604 -0.012183
v 0.372040 0.098546 -0.016545
v 0.372074 -0.058653 0.000000
v 0.372074 -0.012661 0.000000
v 0.372972 0.093662 -0.019916
v 0.373784 0.108419 -0.001342
v 0.374017 0.088179 -0.022140
v 0.374075 0.109202 0.004631
v 0.374075 0.109202 0.023153
v 0.374377 0.106595 -0.007035
v 0.374469 -0.056832 -0.023153
v 0.374469 -0.014482 -0.023153
v 0.375128 0.082356 -0.023112
v 0.375334 0.103649 -0.012183
v 0.376611 0.099720 -0.016545
v 0.376653 -0.054764 0.000000
v 0.376653 -0.016551 0.000000
v 0.376729 -0.154198 -0.022787
v 0.377104 0.109734 -0.001342
v 0.377703 -0.159904 -0.021179
v 0.377921 0.107998 -0.007035
v 0.378055 0.081450 -0.023153
v 0.378147 0.094990 -0.019916
v 0.378597 -0.165137 -0.018365
v 0.378600 -0.052471 -0.023153
v 0.378600 -0.018844 -0.023153
v 0.378902 0.111406 0.004631
v 0.378902 0.111406 0.023153
v 0.379240 0.105195 -0.012183
v 0.379368 -0.169650 -0.014476
v 0.379872 0.089683 -0.022140
v 0.379980 -0.173234 -0.009693
v 0.380233 0.111454 -0.001342
v 0.380289 -0.049981 0.000000
v 0.380289 -0.021333 0.000000
v 0.380405 -0.175720 -0.004241
v 0.380622 -0.176994 0.001627
v 0.380999 0.101457 -0.016545
v 0.381052 -0.148783 -0.023153
v 0.381261 0.109834 -0.007035
v 0.381698 -0.047323 -0.023153
v 0.381698 -0.023991 -0.023153
v 0.381704 0.084044 -0.023112
v 0.382811 -0.044528 0.000000
v 0.382811 -0.026786 0.000000
v 0.382921 0.107219 -0.012183
v 0.383116 0.096958 -0.019916
v 0.383122 0.113552 -0.001342
v 0.383189 -0.176697 0.004631
v 0.383189 -0.176697 0.023153
v 0.383221 0.114488 0.004631
v 0.383221 0.114488 0.023153
v 0.383616 -0.041630 -0.023153
v 0.383616 -0.029685 -0.023153
v 0.384103 -0.038661 0.000000
v 0.384103 -0.032653 0.000000
v 0.384265 -0.035657 -0.023153
v 0.384344 0.112074 -0.007035
v 0.385134 0.103730 -0.016545
v 0.385492 0.091908 -0.022140
v 0.385643 0.083871 -0.023153
v 0.385725 0.115997 -0.001342
v 0.386319 0.109688 -0.012183
v 0.386876 0.118336 0.004631
v 0.386876 0.118336 0.023153
v 0.387123 0.114683 -0.007035
v 0.387799 0.099532 -0.019916
v 0.388001 0.118748 -0.001342
v 0.388017 0.086543 -0.023112
v 0.388075 -0.151691 -0.022787
v 0.388952 0.106504 -0.016545
v 0.389381 0.112563 -0.012183
v 0.389553 0.117620 -0.007035
v 0.389596 -0.157276 -0.021179
v 0.389733 0.122807 0.004631
v 0.389733 0.122807 0.023153
v 0.389914 0.121763 -0.001342
v 0.390208 0.122564 -0.000790
v 0.390789 0.094820 -0.022140
v 0.390990 -0.162398 -0.018365
v 0.391595 0.120838 -0.007035
v 0.391616 0.121844 -0.006002
v 0.392058 0.115800 -0.012183
v 0.392122 0.102673 -0.019916
v 0.392193 -0.166816 -0.014476
v 0.392393 0.109735 -0.016545
v 0.392806 0.087353 -0.023153
v 0.392986 -0.145514 -0.023153
v 0.393148 -0.170324 -0.009693
v 0.393811 -0.172758 -0.004241
v 0.393901 0.120675 -0.010805
v 0.393966 0.089814 -0.023112
v 0.394150 -0.174004 0.001627
v 0.394309 0.119346 -0.012183
v 0.395401 0.113371 -0.016545
v 0.395679 0.098373 -0.022140
v 0.396017 0.106331 -0.019916
v 0.396249 -0.173585 0.004631
v 0.396249 -0.173585 0.023153
v 0.396977 0.119101 -0.015015
v 0.397929 0.117356 -0.016545
v 0.399126 -0.148100 -0.022787
v 0.399398 0.091823 -0.023153
v 0.399424 0.110448 -0.019916
v 0.399459 0.093805 -0.023112
v 0.400086 0.102511 -0.022140
v 0.400726 0.117184 -0.018470
v 0.401179 -0.153513 -0.021179
v 0.402287 0.114960 -0.019916
v 0.403061 -0.158476 -0.018365
v 0.403726 0.150163 0.004631
v 0.403939 0.107168 -0.022140
v 0.404202 0.149919 -0.000790
v 0.404408 0.098452 -0.023112
v 0.404503 -0.140990 -0.023153
v 0.404685 -0.162757 -0.014476
v 0.405002 0.114996 -0.021038
v 0.405284 0.097189 -0.023153
v 0.405609 0.149199 -0.006002
v 0.405974 -0.166156 -0.009693
v 0.406752 0.156077 0.004631
v 0.406752 0.156077 0.023153
v 0.406869 -0.168515 -0.004241
v 0.407178 0.112272 -0.022140
v 0.407327 -0.169723 0.001627
v 0.407332 0.155781 -0.001353
v 0.407895 0.148030 -0.010805
v 0.408329 0.157661 -0.001248
v 0.408735 0.103683 -0.023112
v 0.408962 -0.169266 0.004631
v 0.408962 -0.169266 0.023153
v 0.409047 0.154904 -0.007056
v 0.409642 0.112623 -0.022619
v 0.409780 -0.143459 -0.022787
v 0.409938 0.156731 -0.006860
v 0.410341 0.103342 -0.023153
v 0.410694 0.162363 0.004631
v 0.410694 0.162363 0.023153
v 0.410971 0.146457 -0.015015
v 0.411814 0.153488 -0.012210
v 0.412345 -0.148649 -0.021179
v 0.412373 0.109416 -0.023112
v 0.412522 0.163649 -0.001248
v 0.412540 0.155230 -0.011951
v 0.413945 0.162454 -0.006860
v 0.414467 0.110154 -0.023153
v 0.414698 -0.153407 -0.018365
v 0.414719 0.144539 -0.018470
v 0.415471 -0.135263 -0.023153
v 0.415505 0.151600 -0.016574
v 0.415667 0.167869 0.004631
v 0.415667 0.167869 0.023153
v 0.416015 0.153223 -0.016292
v 0.416246 0.160523 -0.011951
v 0.416727 -0.157511 -0.014476
v 0.417691 0.168818 -0.001248
v 0.418338 -0.160771 -0.009693
v 0.418885 0.167394 -0.006860
v 0.418995 0.142352 -0.021038
v 0.419320 0.157944 -0.016292
v 0.419456 -0.163032 -0.004241
v 0.419935 -0.137812 -0.022787
v 0.419946 0.149328 -0.019943
v 0.420029 -0.164190 0.001627
v 0.420207 0.150803 -0.019686
v 0.420816 0.165093 -0.011951
v 0.421216 -0.163778 0.004631
v 0.421216 -0.163778 0.023153
v 0.421522 0.172428 0.004631
v 0.421522 0.172428 0.023153
v 0.422990 -0.142730 -0.021179
v 0.423028 0.154833 -0.019686
v 0.423396 0.162019 -0.016292
v 0.423635 0.139978 -0.022619
v 0.423679 0.173010 -0.001248
v 0.424608 0.171401 -0.006860
v 0.424926 0.148078 -0.021979
v 0.424928 0.146780 -0.022158
v 0.425765 -0.128399 -0.023153
v 0.425790 -0.147238 -0.018365
v 0.426110 0.168800 -0.011951
v 0.426507 0.158311 -0.019686
v 0.427203 0.151330 -0.021979
v 0.428078 0.175901 0.004631
v 0.428078 0.175901 0.023153
v 0.428116 0.165325 -0.016292
v 0.428206 -0.151128 -0.014476
v 0.428440 0.136692 0.023153
v 0.428461 0.137510 -0.023153
v 0.428779 0.133397 -0.023153
v 0.428993 0.132498 0.023153
v 0.428993 0.140887 0.023153
v 0.429003 0.140926 -0.023132
v 0.429498 -0.131211 -0.022787
v 0.429958 0.145173 -0.023067
v 0.430009 0.154137 -0.021979
v 0.430125 -0.154216 -0.009693
v 0.430125 0.129498 -0.023153
v 0.430219 0.144073 -0.023116
v 0.430304 0.176100 -0.001248
v 0.430537 0.161133 -0.019686
v 0.430612 0.128589 0.023153
v 0.430612 0.144796 0.023153
v 0.430940 0.174354 -0.006860
v 0.431456 -0.156359 -0.004241
v 0.431654 0.147595 -0.023067
v 0.431967 0.171531 -0.011951
v 0.432137 -0.157456 0.001627
v 0.432411 0.126065 -0.023153
v 0.432621 0.147556 -0.023116
v 0.432903 -0.157170 0.004631
v 0.432903 -0.157170 0.023153
v 0.433013 -0.135811 -0.021179
v 0.433187 0.125232 0.023153
v 0.433187 0.148152 0.023153
v 0.433261 0.156414 -0.021979
v 0.433339 0.167760 -0.016292
v 0.433744 0.149686 -0.023067
v 0.434742 0.073743 -0.023153
v 0.434975 0.065782 -0.023153
v 0.434995 0.163212 -0.019686
v 0.435138 0.178182 0.004631
v 0.435138 0.178182 0.023153
v 0.435267 -0.120474 -0.023153
v 0.435490 0.123320 -0.023153
v 0.435649 0.081656 -0.023153
v 0.435842 0.150299 -0.023116
v 0.436166 0.151381 -0.023067
v 0.436196 0.071384 -0.023112
v 0.436236 -0.140028 -0.018365
v 0.436343 0.057935 -0.023153
v 0.436544 0.122657 0.023153
v 0.436544 0.150728 0.023153
v 0.436622 0.064608 -0.023112
v 0.436622 0.078160 -0.023112
v 0.436859 0.158091 -0.021979
v 0.437365 0.177992 -0.001248
v 0.437679 0.089357 -0.023153
v 0.437688 0.176162 -0.006860
v 0.437894 0.057939 -0.023112
v 0.437894 0.084829 -0.023112
v 0.438209 0.173204 -0.011951
v 0.438327 -0.123768 -0.022787
v 0.438820 0.050366 -0.023153
v 0.438846 0.152631 -0.023067
v 0.438906 0.169252 -0.016292
v 0.439016 -0.143667 -0.014476
v 0.439162 0.121442 -0.023153
v 0.439664 0.152114 -0.023116
v 0.439747 0.164485 -0.019686
v 0.439992 0.051483 -0.023112
v 0.439992 0.091286 -0.023112
v 0.440452 0.121038 0.023153
v 0.440452 0.152347 0.023153
v 0.440693 0.159119 -0.021979
v 0.440788 0.096690 -0.023153
v 0.441223 -0.146556 -0.009693
v 0.441702 0.153396 -0.023067
v 0.442124 0.071384 -0.022140
v 0.442266 -0.128009 -0.021179
v 0.442353 0.043228 -0.023153
v 0.442488 0.179203 0.004631
v 0.442488 0.179203 0.023153
v 0.442504 0.065351 -0.022140
v 0.442504 0.077417 -0.022140
v 0.442755 -0.148560 -0.004241
v 0.442883 0.045340 -0.023112
v 0.443190 0.120551 -0.023153
v 0.443539 -0.149586 0.001627
v 0.443636 0.059414 -0.022140
v 0.443636 0.083354 -0.022140
v 0.443825 0.152878 -0.023116
v 0.443870 -0.111581 -0.023153
v 0.443922 -0.149498 0.004631
v 0.443922 -0.149498 0.023153
v 0.444647 0.120486 0.023153
v 0.444647 0.152899 0.023153
v 0.444647 0.153654 -0.023067
v 0.444647 0.159465 -0.021979
v 0.444647 0.164914 -0.019686
v 0.444647 0.169754 -0.016292
v 0.444647 0.173767 -0.011951
v 0.444647 0.176771 -0.006860
v 0.444647 0.178629 -0.001248
v 0.445504 0.053665 -0.022140
v 0.445504 0.089103 -0.022140
v 0.445614 0.094221 -0.022619
v 0.445879 -0.131898 -0.018365
v 0.446497 -0.115403 -0.022787
v 0.446520 0.039607 -0.023112
v 0.446871 0.036668 -0.023153
v 0.447312 0.120706 -0.023153
v 0.447592 0.153396 -0.023067
v 0.447705 0.071384 -0.019916
v 0.448041 0.066051 -0.019916
v 0.448041 0.076717 -0.019916
v 0.448042 0.152540 -0.023116
v 0.448078 0.048196 -0.022140
v 0.448601 0.159119 -0.021979
v 0.448842 0.121038 0.023153
v 0.448842 0.152347 0.023153
v 0.448995 -0.135253 -0.014476
v 0.449042 0.060802 -0.019916
v 0.449042 0.081966 -0.019916
v 0.449548 0.164485 -0.019686
v 0.449902 0.178932 0.004631
v 0.449902 0.178932 0.023153
v 0.450254 0.091848 -0.021038
v 0.450388 0.169252 -0.016292
v 0.450448 0.152631 -0.023067
v 0.450693 0.055720 -0.019916
v 0.450693 0.087049 -0.019916
v 0.450830 -0.119241 -0.021179
v 0.451085 0.173204 -0.011951
v 0.451103 0.040054 -0.022619
v 0.451261 0.121897 -0.023153
v 0.451317 0.043092 -0.022140
v 0.451469 -0.137917 -0.009693
v 0.451474 -0.101820 -0.023153
v 0.451607 0.176162 -0.006860
v 0.451929 0.177992 -0.001248
v 0.452028 0.151121 -0.023116
v 0.452436 0.158091 -0.021979
v 0.452678 0.071384 -0.016545
v 0.452751 0.122657 0.023153
v 0.452751 0.150728 0.023153
v 0.452969 0.050884 -0.019916
v 0.452974 0.066674 -0.016545
v 0.452974 0.076094 -0.016545
v 0.453128 0.151381 -0.023067
v 0.453186 -0.139765 -0.004241
v 0.453773 -0.106343 -0.022787
v 0.453773 0.035029 -0.022787
v 0.453858 0.062038 -0.016545
v 0.453858 0.080730 -0.016545
v 0.454065 -0.140711 0.001627
v 0.454074 0.026608 -0.023153
v 0.454176 -0.140830 0.004631
v 0.454176 -0.140830 0.023153
v 0.454299 0.163212 -0.019686
v 0.454530 0.089660 -0.018470
v 0.454782 0.124045 -0.023153
v 0.454803 -0.122761 -0.018365
v 0.455173 0.043311 -0.021038
v 0.455317 0.057550 -0.016545
v 0.455317 0.085218 -0.016545
v 0.455511 0.148719 -0.023116
v 0.455550 0.149686 -0.023067
v 0.455832 0.046372 -0.019916
v 0.455955 0.167760 -0.016292
v 0.456033 0.156414 -0.021979
v 0.456107 0.125232 0.023153
v 0.456107 0.148152 0.023153
v 0.456809 0.071384 -0.012183
v 0.457073 0.067192 -0.012183
v 0.457073 0.075576 -0.012183
v 0.457157 0.177378 0.004631
v 0.457157 0.177378 0.023153
v 0.457235 0.126484 -0.023132
v 0.457326 0.053280 -0.016545
v 0.457327 0.171531 -0.011951
v 0.457640 0.147595 -0.023067
v 0.457860 0.063066 -0.012183
v 0.457860 0.079702 -0.012183
v 0.457993 -0.091304 -0.023153
v 0.458230 -0.125798 -0.014476
v 0.458253 0.145497 -0.023116
v 0.458278 0.087743 -0.015015
v 0.458355 0.174354 -0.006860
v 0.458456 -0.109745 -0.021179
v 0.458456 0.038431 -0.021179
v 0.458683 0.128589 0.023153
v 0.458683 0.144796 0.023153
v 0.458758 0.161133 -0.019686
v 0.458923 0.046312 -0.018470
v 0.458990 0.176100 -0.001248
v 0.459076 0.129312 -0.023116
v 0.459158 0.059071 -0.012183
v 0.459158 0.083697 -0.012183
v 0.459285 0.154137 -0.021979
v 0.459336 0.145173 -0.023067
v 0.459607 0.121577 -0.022619
v 0.459855 0.049295 -0.016545
v 0.459907 0.071384 -0.007035
v 0.460069 0.141676 -0.023116
v 0.460141 -0.096623 -0.022787
v 0.460141 0.025309 -0.022787
v 0.460146 0.067580 -0.007035
v 0.460146 0.075188 -0.007035
v 0.460162 0.015836 -0.023153
v 0.460302 0.132498 0.023153
v 0.460302 0.140887 0.023153
v 0.460494 0.133297 -0.023116
v 0.460586 0.130891 -0.023067
v 0.460586 0.142494 -0.023067
v 0.460833 0.137515 -0.023116
v 0.460854 0.136692 0.023153
v 0.460860 0.063836 -0.007035
v 0.460860 0.078932 -0.007035
v 0.460947 0.055270 -0.012183
v 0.460951 -0.128208 -0.009693
v 0.461178 0.165325 -0.016292
v 0.461351 0.133747 -0.023067
v 0.461351 0.139638 -0.023067
v 0.461354 0.086169 -0.010805
v 0.461609 0.136692 -0.023067
v 0.461825 0.071384 -0.001342
v 0.462038 0.060211 -0.007035
v 0.462038 0.082557 -0.007035
v 0.462049 0.067821 -0.001342
v 0.462049 0.074948 -0.001342
v 0.462092 0.151330 -0.021979
v 0.462211 0.048942 -0.015015
v 0.462588 0.073889 0.004631
v 0.462588 0.073889 0.023153
v 0.462616 0.068583 0.004631
v 0.462616 0.068583 0.023153
v 0.462718 0.064313 -0.001342
v 0.462718 0.078455 -0.001342
v 0.462750 -0.112865 -0.018365
v 0.462750 0.041551 -0.018365
v 0.462787 0.158311 -0.019686
v 0.462839 -0.129881 -0.004241
v 0.463184 0.168800 -0.011951
v 0.463197 0.051724 -0.012183
v 0.463353 -0.080151 -0.023153
v 0.463569 0.079104 0.004631
v 0.463569 0.079104 0.023153
v 0.463575 -0.131243 0.004631
v 0.463575 -0.131243 0.023153
v 0.463640 0.085000 -0.006002
v 0.463653 0.063379 0.004631
v 0.463653 0.063379 0.023153
v 0.463661 0.056762 -0.007035
v 0.463806 -0.130738 0.001627
v 0.463822 0.060917 -0.001342
v 0.463822 0.081851 -0.001342
v 0.464032 0.174587 0.004631
v 0.464032 0.174587 0.023153
v 0.464247 0.119203 -0.021038
v 0.464366 0.126605 -0.022158
v 0.464368 0.148078 -0.021979
v 0.464686 0.171401 -0.006860
v 0.464908 0.051101 -0.010805
v 0.465048 0.084280 -0.000790
v 0.465066 0.004476 -0.023153
v 0.465131 -0.099558 -0.021179
v 0.465131 0.028243 -0.021179
v 0.465342 0.057687 -0.001342
v 0.465523 0.084037 0.004631
v 0.465523 0.084037 0.023153
v 0.465541 -0.086334 -0.022787
v 0.465541 0.015020 -0.022787
v 0.465615 0.173010 -0.001248
v 0.465660 0.058467 0.004631
v 0.465660 0.058467 0.023153
v 0.465703 0.053544 -0.007035
v 0.465899 0.162019 -0.016292
v 0.466046 0.128904 -0.021979
v 0.466046 0.144481 -0.021979
v 0.466266 0.154833 -0.019686
v 0.466455 -0.115557 -0.014476
v 0.466455 0.044242 -0.014476
v 0.466913 0.052705 -0.006002
v 0.467073 0.132738 -0.021979
v 0.467073 0.140647 -0.021979
v 0.467255 0.054672 -0.001342
v 0.467419 0.136692 -0.021979
v 0.467491 -0.068491 -0.023153
v 0.468147 0.053693 -0.000790
v 0.468478 0.165093 -0.011951
v 0.468524 0.117016 -0.018470
v 0.468564 0.054026 0.004631
v 0.468564 0.054026 0.023153
v 0.468729 -0.007343 -0.023153
v 0.469087 0.150803 -0.019686
v 0.469349 0.124056 -0.019943
v 0.469396 -0.117694 -0.009693
v 0.469396 0.046379 -0.009693
v 0.469706 -0.102248 -0.018365
v 0.469706 0.030934 -0.018365
v 0.469923 -0.075572 -0.022787
v 0.469923 0.004257 -0.022787
v 0.469974 0.157944 -0.016292
v 0.470318 0.170646 0.004631
v 0.470318 0.170646 0.023153
v 0.470362 -0.056455 -0.023153
v 0.470409 0.167394 -0.006860
v 0.470791 -0.088773 -0.021179
v 0.470791 0.017459 -0.021179
v 0.471110 -0.019485 -0.023153
v 0.471166 0.127040 -0.019686
v 0.471166 0.146345 -0.019686
v 0.471437 -0.119176 -0.004241
v 0.471437 0.047862 -0.004241
v 0.471603 0.168818 -0.001248
v 0.471931 -0.044182 -0.023153
v 0.472037 -0.120819 0.004631
v 0.472037 -0.120819 0.023153
v 0.472181 -0.031811 -0.023153
v 0.472272 0.115098 -0.015015
v 0.472439 0.131792 -0.019686
v 0.472439 0.141593 -0.019686
v 0.472482 -0.119936 0.001627
v 0.472482 0.048621 0.001627
v 0.472868 0.136692 -0.019686
v 0.473048 0.160523 -0.011951
v 0.473246 -0.064437 -0.022787
v 0.473246 -0.006878 -0.022787
v 0.473279 0.153223 -0.016292
v 0.473653 -0.104570 -0.014476
v 0.473653 0.033256 -0.014476
v 0.473789 0.121785 -0.016574
v 0.475348 0.113525 -0.010805
v 0.475349 0.162454 -0.006860
v 0.475383 -0.077493 -0.021179
v 0.475383 0.006179 -0.021179
v 0.475478 -0.053033 -0.022787
v 0.475478 -0.018281 -0.022787
v 0.475604 -0.091010 -0.018365
v 0.475604 0.019696 -0.018365
v 0.475715 0.125385 -0.016292
v 0.475715 0.148000 -0.016292
v 0.475824 0.165672 0.004631
v 0.475824 0.165672 0.023153
v 0.476453 0.043162 0.004631
v 0.476453 0.043162 0.023153
v 0.476600 -0.041467 -0.022787
v 0.476600 -0.029847 -0.022787
v 0.476755 0.155230 -0.011951
v 0.476772 0.163649 -0.001248
v 0.476787 -0.106413 -0.009693
v 0.476787 0.035099 -0.009693
v 0.477206 0.130951 -0.016292
v 0.477206 0.142433 -0.016292
v 0.477480 0.119897 -0.012210
v 0.477634 0.112356 -0.006002
v 0.477709 0.136692 -0.016292
v 0.478866 -0.065822 -0.021179
v 0.478866 -0.005492 -0.021179
v 0.478961 -0.107692 -0.004241
v 0.478961 0.036378 -0.004241
v 0.479041 0.111636 -0.000790
v 0.479356 0.156731 -0.006860
v 0.479486 0.124012 -0.011951
v 0.479486 0.149373 -0.011951
v 0.479489 -0.109650 0.004631
v 0.479489 -0.109650 0.023153
v 0.479516 0.111392 0.004631
v 0.479757 -0.092940 -0.014476
v 0.479757 0.021625 -0.014476
v 0.480074 -0.108347 0.001627
v 0.480074 0.037032 0.001627
v 0.480248 0.118481 -0.007056
v 0.480383 0.159818 0.004631
v 0.480383 0.159818 0.023153
v 0.480391 -0.079255 -0.018365
v 0.480391 0.007940 -0.018365
v 0.480965 0.157661 -0.001248
v 0.481158 0.130254 -0.011951
v 0.481158 0.143130 -0.011951
v 0.481206 -0.053869 -0.021179
v 0.481206 -0.017445 -0.021179
v 0.481722 0.136692 -0.011951
v 0.481962 0.117604 -0.001353
v 0.482308 0.122985 -0.006860
v 0.482308 0.150400 -0.006860
v 0.482382 -0.041747 -0.021179
v 0.482382 -0.029567 -0.021179
v 0.482542 0.117307 0.004631
v 0.482542 0.117307 0.023153
v 0.483054 -0.094472 -0.009693
v 0.483054 0.023157 -0.009693
v 0.483293 0.031608 0.004631
v 0.483293 0.031608 0.023153
v 0.483855 0.153261 0.004631
v 0.483855 0.153261 0.023153
v 0.484020 -0.067092 -0.018365
v 0.484020 -0.004222 -0.018365
v 0.484055 0.122349 -0.001248
v 0.484055 0.151036 -0.001248
v 0.484116 0.129733 -0.006860
v 0.484116 0.143652 -0.006860
v 0.484710 -0.080774 -0.014476
v 0.484710 0.009460 -0.014476
v 0.484725 0.136692 -0.006860
v 0.485333 0.124182 0.004631
v 0.485333 0.124182 0.023153
v 0.485342 -0.095535 -0.004241
v 0.485342 0.024220 -0.004241
v 0.485864 -0.097833 0.004631
v 0.485864 -0.097833 0.023153
v 0.485947 0.129410 -0.001248
v 0.485947 0.143975 -0.001248
v 0.486137 0.146201 0.004631
v 0.486137 0.146201 0.023153
v 0.486458 -0.054636 -0.018365
v 0.486458 -0.016678 -0.018365
v 0.486513 -0.096079 0.001627
v 0.486513 0.024765 0.001627
v 0.486584 0.136692 -0.001248
v 0.486887 0.131437 0.004631
v 0.486887 0.131437 0.023153
v 0.487158 0.138852 0.004631
v 0.487158 0.138852 0.023153
v 0.487683 -0.042003 -0.018365
v 0.487683 -0.029311 -0.018365
v 0.488139 -0.081981 -0.009693
v 0.488139 0.010667 -0.009693
v 0.488466 -0.068188 -0.014476
v 0.488466 -0.003126 -0.014476
v 0.489023 0.019466 0.004631
v 0.489023 0.019466 0.023153
v 0.490519 -0.082818 -0.004241
v 0.490519 0.011504 -0.004241
v 0.490989 -0.055298 -0.014476
v 0.490989 -0.016016 -0.014476
v 0.491107 -0.085473 0.004631
v 0.491107 -0.085473 0.023153
v 0.491737 -0.083247 0.001627
v 0.491737 0.011933 0.001627
v 0.491996 -0.069058 -0.009693
v 0.491996 -0.002256 -0.009693
v 0.492257 -0.042225 -0.014476
v 0.492257 -0.029090 -0.014476
v 0.493593 0.006841 0.004631
v 0.493593 0.006841 0.023153
v 0.494445 -0.069662 -0.004241
v 0.494445 -0.001652 -0.004241
v 0.494587 -0.055823 -0.009693
v 0.494587 -0.015491 -0.009693
v 0.495173 -0.072677 0.004631
v 0.495173 -0.072677 0.023153
v 0.495699 -0.069971 0.001627
v 0.495699 -0.001343 0.001627
v 0.495888 -0.042400 -0.009693
v 0.495888 -0.028914 -0.009693
v 0.496964 -0.006155 0.004631
v 0.496964 -0.006155 0.023153
v 0.497083 -0.056188 -0.004241
v 0.497083 -0.015126 -0.004241
v 0.498025 -0.059557 0.004631
v 0.498025 -0.059557 0.023153
v 0.498361 -0.056374 0.001627
v 0.498361 -0.014940 0.001627
v 0.498408 -0.042522 -0.004241
v 0.498408 -0.028792 -0.004241
v 0.499106 -0.019410 0.004631
v 0.499106 -0.019410 0.023153
v 0.499639 -0.046228 0.004631
v 0.499639 -0.046228 0.023153
v 0.499698 -0.042584 0.001627
v 0.499698 -0.028730 0.001627
v 0.500000 -0.032806 0.004631
v 0.500000 -0.032806 0.023153
f 728 730 732
f 728 719 730
f 728 716 719
f 719 716 709
f 709 716 700
f 691 700 686
f 678 686 663
f 645 663 634
f 616 634 606
f 580 606 574
f 568 574 562
f 556 562 548
f 546 548 544
f 542 544 540
f 538 540 536
f 534 536 532
f 531 532 533
f 535 533 537
f 539 537 541
f 543 541 545
f 547 545 549
f 557 549 563
f 569 563 575
f 581 575 607
f 617 607 635
f 646 635 664
f 679 664 687
f 692 687 701
f 710 701 717
f 720 717 729
f 731 729 732
f 730 731 732
f 709 700 691
f 691 686 678
f 678 663 645
f 645 634 616
f 616 606 580
f 580 574 568
f 568 562 556
f 556 548 546
f 546 544 542
f 542 540 538
f 538 536 534
f 534 532 531
f 531 533 535
f 535 537 539
f 539 541 543
f 543 545 547
f 547 549 557
f 557 563 569
f 569 575 581
f 581 607 617
f 617 635 646
f 646 664 679
f 679 687 692
f 692 701 710
f 710 717 720
f 720 729 731
f 669 731 673
f 669 720 731
f 669 658 720
f 720 658 710
f 710 658 692
f 692 658 641
f 679 641 628
f 646 628 613
f 617 613 594
f 581 594 578
f 569 578 557
f 569 581 578
f 692 641 679
f 679 628 646
f 646 613 617
f 617 594 581
f 578 572 557
f 557 572 547
f 547 572 566
f 543 566 560
f 539 560 554
f 535 554 550
f 531 550 534
f 531 535 550
f 547 566 543
f 543 560 539
f 539 554 535
f 550 552 534
f 534 552 538
f 538 552 558
f 542 558 564
f 546 564 570
f 556 570 576
f 568 576 580
f 568 556 576
f 538 558 542
f 542 564 546
f 546 570 556
f 576 592 580
f 580 592 616
f 616 592 611
f 645 611 626
f 678 626 639
f 691 639 656
f 709 656 719
f 709 691 656
f 616 611 645
f 645 626 678
f 678 639 691
f 656 667 719
f 719 667 730
f 730 667 673
f 731 730 673
f 446 448 450
f 446 444 448
f 446 442 444
f 444 442 440
f 440 442 438
f 436 438 434
f 432 434 424
f 418 424 412
f 406 412 400
f 374 400 354
f 348 354 342
f 334 342 318
f 306 318 304
f 302 304 300
f 296 300 292
f 290 292 282
f 281 282 283
f 291 283 293
f 297 293 301
f 303 301 305
f 307 305 319
f 335 319 343
f 349 343 355
f 375 355 401
f 407 401 413
f 419 413 425
f 433 425 435
f 437 435 439
f 441 439 443
f 445 443 447
f 449 447 450
f 448 449 450
f 440 438 436
f 436 434 432
f 432 424 418
f 418 412 406
f 406 400 374
f 374 354 348
f 348 342 334
f 334 318 306
f 306 304 302
f 302 300 296
f 296 292 290
f 290 282 281
f 281 283 291
f 291 293 297
f 297 301 303
f 303 305 307
f 307 319 335
f 335 343 349
f 349 355 375
f 375 401 407
f 407 413 419
f 419 425 433
f 433 435 437
f 437 439 441
f 441 443 445
f 445 447 449
f 428 449 430
f 428 445 449
f 428 422 445
f 445 422 441
f 441 422 437
f 437 422 416
f 433 416 410
f 419 410 404
f 407 404 388
f 375 388 358
f 349 358 335
f 349 375 358
f 437 416 433
f 433 410 419
f 419 404 407
f 407 388 375
f 358 352 335
f 335 352 307
f 307 352 346
f 303 346 340
f 297 340 332
f 291 332 324
f 281 324 290
f 281 291 324
f 307 346 303
f 303 340 297
f 297 332 291
f 324 330 290
f 290 330 296
f 296 330 338
f 302 338 344
f 306 344 350
f 334 350 356
f 348 356 374
f 348 334 356
f 296 338 302
f 302 344 306
f 306 350 334
f 356 386 374
f 374 386 406
f 406 386 402
f 418 402 408
f 432 408 414
f 436 414 420
f 440 420 444
f 440 436 420
f 406 402 418
f 418 408 432
f 432 414 436
f 420 426 444
f 444 426 448
f 448 426 430
f 449 448 430
f 786 788 750
f 750 788 753
f 753 788 794
f 757 794 802
f 766 802 814
f 775 814 823
f 782 823 834
f 792 834 849
f 808 849 864
f 821 808 864
f 753 794 757
f 757 802 766
f 766 814 775
f 775 823 782
f 782 834 792
f 792 849 808
f 671 620 655
f 688 655 654
f 682 654 653
f 680 653 652
f 677 652 651
f 676 651 650
f 675 650 648
f 672 648 661
f 683 672 661
f 683 681 672
f 683 694 681
f 683 702 694
f 694 702 708
f 715 708 733
f 738 733 747
f 761 747 770
f 779 770 784
f 792 784 782
f 792 779 784
f 792 799 779
f 792 808 799
f 799 808 817
f 787 817 804
f 781 804 789
f 771 789 780
f 754 780 767
f 735 767 744
f 706 744 718
f 682 718 688
f 654 682 688
f 622 654 621
f 622 653 654
f 622 623 653
f 653 623 652
f 652 623 624
f 651 624 625
f 650 625 630
f 648 630 631
f 632 648 631
f 632 661 648
f 652 624 651
f 651 625 650
f 650 630 648
f 702 726 708
f 708 726 723
f 733 723 741
f 747 741 758
f 770 758 776
f 782 776 775
f 782 770 776
f 782 784 770
f 723 726 737
f 741 737 748
f 758 748 769
f 775 769 766
f 775 758 769
f 775 776 758
f 750 753 739
f 739 753 752
f 743 752 756
f 748 756 769
f 748 743 756
f 748 737 743
f 743 737 739
f 752 743 739
f 753 757 752
f 752 757 756
f 756 757 766
f 769 756 766
f 808 821 817
f 817 821 811
f 804 811 793
f 789 793 780
f 789 804 793
f 817 811 804
f 793 778 780
f 780 778 767
f 767 778 762
f 744 762 736
f 718 736 697
f 688 697 671
f 655 688 671
f 767 762 744
f 744 736 718
f 718 697 688
f 733 708 723
f 620 621 655
f 655 621 654
f 648 672 675
f 675 672 685
f 689 685 704
f 713 704 734
f 742 734 759
f 771 759 781
f 789 771 781
f 650 675 676
f 676 675 689
f 690 689 713
f 722 713 742
f 754 742 771
f 780 754 771
f 651 676 677
f 677 676 690
f 698 690 722
f 735 722 754
f 767 735 754
f 685 689 675
f 652 677 680
f 680 677 698
f 706 698 735
f 744 706 735
f 689 690 676
f 653 680 682
f 682 680 706
f 718 682 706
f 690 698 677
f 698 706 680
f 694 696 681
f 694 715 696
f 694 708 715
f 681 696 685
f 672 681 685
f 704 713 689
f 704 696 721
f 734 721 746
f 759 746 772
f 781 772 787
f 804 781 787
f 713 722 690
f 721 734 704
f 722 735 698
f 734 742 713
f 742 754 722
f 696 704 685
f 696 715 721
f 721 715 738
f 746 738 761
f 772 761 779
f 787 779 799
f 817 787 799
f 738 715 733
f 746 721 738
f 759 734 746
f 771 742 759
f 737 741 723
f 741 747 733
f 758 741 748
f 747 761 738
f 770 747 758
f 761 772 746
f 779 761 770
f 772 781 759
f 787 772 779
f 739 737 726
f 596 597 608
f 608 597 615
f 615 597 621
f 620 615 621
f 597 598 621
f 621 598 622
f 622 598 599
f 623 599 600
f 624 600 601
f 625 601 602
f 630 602 603
f 631 603 609
f 618 631 609
f 618 632 631
f 622 599 623
f 623 600 624
f 624 601 625
f 625 602 630
f 603 604 609
f 631 630 603
f 328 398 361
f 309 361 363
f 311 363 365
f 313 365 367
f 315 367 369
f 317 369 371
f 321 371 373
f 323 373 337
f 299 323 337
f 299 295 323
f 299 270 295
f 295 270 268
f 266 268 246
f 244 246 224
f 218 224 202
f 192 202 172
f 168 172 144
f 140 144 114
f 129 114 96
f 129 140 114
f 129 153 140
f 140 153 166
f 168 166 190
f 192 190 216
f 218 216 238
f 244 238 260
f 266 260 285
f 295 285 323
f 295 266 285
f 295 268 266
f 396 363 397
f 396 365 363
f 396 395 365
f 365 395 367
f 367 395 394
f 369 394 393
f 392 369 393
f 392 371 369
f 392 391 371
f 371 391 373
f 373 391 390
f 337 373 390
f 367 394 369
f 268 270 248
f 246 248 226
f 224 226 204
f 202 204 178
f 172 178 150
f 144 150 120
f 114 120 87
f 96 87 73
f 96 114 87
f 230 228 250
f 230 212 228
f 230 214 212
f 212 214 198
f 188 198 170
f 160 170 142
f 134 142 110
f 99 110 78
f 68 78 46
f 44 46 27
f 35 27 20
f 35 44 27
f 35 52 44
f 44 52 61
f 68 61 91
f 99 91 126
f 134 126 158
f 160 158 184
f 188 184 206
f 212 206 228
f 212 188 206
f 212 198 188
f 214 200 198
f 198 200 180
f 170 180 156
f 142 156 124
f 110 124 84
f 78 84 57
f 46 57 31
f 27 31 16
f 20 16 11
f 20 27 16
f 200 182 180
f 180 182 162
f 156 162 138
f 124 138 103
f 84 103 64
f 57 64 40
f 31 40 23
f 16 23 7
f 11 7 3
f 11 16 7
f 182 164 162
f 162 164 146
f 138 146 116
f 103 116 80
f 64 80 55
f 40 55 29
f 23 29 14
f 7 14 5
f 3 5 1
f 3 7 5
f 164 148 146
f 146 148 132
f 116 132 101
f 80 101 66
f 55 66 42
f 29 42 25
f 14 25 8
f 5 8 6
f 1 6 9
f 1 5 6
f 148 136 132
f 132 136 118
f 101 118 82
f 66 82 59
f 42 59 38
f 25 38 17
f 8 17 13
f 6 13 15
f 9 15 18
f 9 6 15
f 136 122 118
f 118 122 106
f 82 106 76
f 59 76 49
f 38 49 32
f 17 32 24
f 13 24 22
f 15 22 26
f 18 26 33
f 18 15 26
f 122 112 106
f 106 112 93
f 76 93 70
f 49 70 47
f 32 47 37
f 24 37 28
f 22 28 30
f 26 30 43
f 33 43 50
f 33 26 43
f 112 108 93
f 93 108 89
f 70 89 62
f 47 62 48
f 37 48 41
f 28 41 39
f 30 39 45
f 43 45 60
f 50 60 71
f 50 43 60
f 108 104 89
f 89 104 85
f 62 85 69
f 48 69 58
f 41 58 54
f 39 54 56
f 45 56 67
f 60 67 86
f 71 86 94
f 71 60 86
f 85 104 88
f 69 88 75
f 58 75 65
f 54 65 63
f 56 63 77
f 67 77 90
f 86 90 113
f 94 113 127
f 94 86 113
f 111 92 107
f 111 105 92
f 111 121 105
f 105 121 117
f 100 117 115
f 102 115 123
f 109 123 133
f 125 133 149
f 143 149 167
f 165 167 185
f 173 185 193
f 173 165 185
f 173 151 165
f 165 151 139
f 143 139 119
f 125 119 98
f 109 98 83
f 102 83 79
f 100 79 81
f 105 81 92
f 105 100 81
f 105 117 100
f 121 135 117
f 117 135 131
f 115 131 137
f 123 137 141
f 133 141 157
f 149 157 171
f 167 171 189
f 185 189 207
f 193 207 219
f 193 185 207
f 135 147 131
f 131 147 145
f 137 145 155
f 141 155 159
f 157 159 177
f 171 177 191
f 189 191 209
f 207 209 231
f 219 231 239
f 219 207 231
f 147 163 145
f 145 163 161
f 155 161 169
f 159 169 183
f 177 183 201
f 191 201 215
f 209 215 233
f 231 233 251
f 239 251 261
f 239 231 251
f 163 181 161
f 161 181 179
f 169 179 187
f 183 187 203
f 201 203 217
f 215 217 235
f 233 235 253
f 251 253 271
f 261 271 286
f 261 251 271
f 181 199 179
f 179 199 197
f 187 197 205
f 203 205 223
f 217 223 237
f 235 237 255
f 253 255 273
f 271 273 308
f 286 308 326
f 286 271 308
f 199 213 197
f 197 213 211
f 205 211 225
f 223 225 243
f 237 243 257
f 255 257 275
f 273 275 310
f 308 310 360
f 326 360 376
f 326 308 360
f 213 229 211
f 211 229 227
f 225 227 245
f 243 245 259
f 257 259 277
f 275 277 312
f 310 312 362
f 360 362 378
f 376 360 378
f 229 249 227
f 227 249 247
f 245 247 265
f 259 265 279
f 277 279 314
f 312 314 364
f 362 364 379
f 378 362 379
f 249 269 247
f 247 269 267
f 265 267 284
f 279 284 316
f 314 316 366
f 364 366 380
f 379 364 380
f 267 269 294
f 284 294 320
f 316 320 368
f 366 368 381
f 380 366 381
f 336 322 298
f 336 372 322
f 336 385 372
f 372 385 384
f 370 384 383
f 368 383 382
f 381 368 382
f 372 384 370
f 322 370 320
f 294 322 320
f 294 298 322
f 294 269 298
f 370 383 368
f 320 370 368
f 151 127 139
f 139 127 113
f 119 113 90
f 98 90 77
f 83 77 63
f 79 63 65
f 81 65 75
f 92 75 88
f 107 88 104
f 107 92 88
f 52 73 61
f 61 73 87
f 91 87 120
f 126 120 150
f 158 150 178
f 184 178 204
f 206 204 226
f 228 226 248
f 250 248 270
f 250 228 248
f 153 175 166
f 166 175 186
f 190 186 210
f 216 210 236
f 238 236 258
f 260 258 280
f 285 280 321
f 323 321 373
f 323 285 321
f 175 195 186
f 186 195 208
f 210 208 234
f 236 234 256
f 258 256 278
f 280 278 317
f 321 317 371
f 321 280 317
f 195 221 208
f 208 221 232
f 234 232 254
f 256 254 276
f 278 276 315
f 317 315 369
f 317 278 315
f 221 241 232
f 232 241 252
f 254 252 274
f 276 274 313
f 315 313 367
f 315 276 313
f 241 263 252
f 252 263 272
f 274 272 311
f 313 311 365
f 313 274 311
f 263 288 272
f 272 288 309
f 311 309 363
f 311 272 309
f 288 328 309
f 309 328 361
f 62 89 85
f 69 85 88
f 62 47 70
f 48 62 69
f 47 32 49
f 37 47 48
f 32 17 38
f 24 32 37
f 17 8 25
f 13 17 24
f 8 5 14
f 6 8 13
f 265 247 267
f 398 397 361
f 361 397 363
f 260 280 285
f 258 278 280
f 256 276 278
f 254 274 276
f 252 272 274
f 248 246 268
f 260 266 244
f 244 266 246
f 224 246 226
f 258 260 238
f 256 258 236
f 224 218 244
f 244 218 238
f 254 256 234
f 236 238 216
f 252 254 232
f 234 236 210
f 232 234 208
f 206 226 228
f 202 224 204
f 192 216 218
f 202 192 218
f 190 210 216
f 186 208 210
f 184 204 206
f 172 202 178
f 168 190 192
f 172 168 192
f 166 186 190
f 160 184 188
f 170 160 188
f 180 170 198
f 158 178 184
f 144 172 150
f 140 166 168
f 144 140 168
f 162 156 180
f 134 158 160
f 142 134 160
f 156 142 170
f 126 150 158
f 114 144 120
f 146 138 162
f 138 124 156
f 99 126 134
f 110 99 134
f 124 110 142
f 91 120 126
f 132 116 146
f 116 103 138
f 103 84 124
f 68 91 99
f 78 68 99
f 84 78 110
f 61 87 91
f 118 101 132
f 101 80 116
f 80 64 103
f 64 57 84
f 44 61 68
f 46 44 68
f 57 46 78
f 106 82 118
f 82 66 101
f 66 55 80
f 55 40 64
f 40 31 57
f 31 27 46
f 93 76 106
f 76 59 82
f 59 42 66
f 42 29 55
f 29 23 40
f 23 16 31
f 89 70 93
f 70 49 76
f 49 38 59
f 38 25 42
f 25 14 29
f 14 7 23
f 58 69 75
f 41 48 58
f 28 37 41
f 22 24 28
f 15 13 22
f 81 75 92
f 54 58 65
f 39 41 54
f 30 28 39
f 26 22 30
f 79 65 81
f 56 54 63
f 45 39 56
f 43 30 45
f 102 79 100
f 115 102 100
f 131 115 117
f 83 63 79
f 67 56 77
f 60 45 67
f 145 137 131
f 109 83 102
f 123 109 102
f 137 123 115
f 98 77 83
f 86 67 90
f 161 155 145
f 155 141 137
f 125 98 109
f 133 125 109
f 141 133 123
f 119 90 98
f 179 169 161
f 169 159 155
f 159 157 141
f 143 119 125
f 149 143 125
f 157 149 133
f 139 113 119
f 197 187 179
f 187 183 169
f 183 177 159
f 177 171 157
f 165 139 143
f 167 165 143
f 171 167 149
f 211 205 197
f 205 203 187
f 203 201 183
f 201 191 177
f 191 189 171
f 189 185 167
f 227 225 211
f 225 223 205
f 223 217 203
f 217 215 201
f 215 209 191
f 209 207 189
f 247 245 227
f 245 243 225
f 243 237 223
f 237 235 217
f 235 233 215
f 233 231 209
f 259 245 265
f 257 243 259
f 255 237 257
f 253 235 255
f 251 233 253
f 294 284 267
f 284 279 265
f 316 284 320
f 279 277 259
f 314 279 316
f 277 275 257
f 312 277 314
f 275 273 255
f 310 275 312
f 273 271 253
f 308 273 310
f 372 370 322
f 366 316 368
f 364 314 366
f 362 312 364
f 360 310 362
f 590 522 591
f 590 521 522
f 590 589 521
f 521 589 520
f 504 520 503
f 487 503 486
f 470 486 469
f 453 469 452
f 379 452 378
f 379 453 452
f 379 380 453
f 453 380 454
f 470 454 471
f 487 471 488
f 504 488 505
f 521 505 522
f 521 504 505
f 521 520 504
f 589 588 520
f 520 588 519
f 503 519 502
f 486 502 485
f 469 485 468
f 452 468 451
f 378 451 376
f 378 452 451
f 588 587 519
f 519 587 518
f 502 518 501
f 485 501 484
f 468 484 467
f 451 467 376
f 451 468 467
f 587 586 518
f 518 586 517
f 501 517 500
f 484 500 483
f 467 483 376
f 467 484 483
f 586 585 517
f 517 585 516
f 500 516 499
f 483 499 582
f 376 483 582
f 585 584 516
f 516 584 515
f 499 515 582
f 499 516 515
f 584 582 515
f 380 381 454
f 454 381 455
f 471 455 472
f 488 472 489
f 505 489 506
f 522 506 591
f 522 505 506
f 381 382 455
f 455 382 456
f 472 456 473
f 489 473 490
f 506 490 591
f 506 489 490
f 382 383 456
f 456 383 457
f 473 457 474
f 490 474 385
f 591 490 385
f 383 384 457
f 457 384 458
f 474 458 385
f 474 457 458
f 384 385 458
f 473 474 490
f 488 489 505
f 472 473 489
f 456 457 473
f 487 488 504
f 503 487 504
f 519 503 520
f 471 472 488
f 455 456 472
f 518 502 519
f 470 471 487
f 486 470 487
f 502 486 503
f 454 455 471
f 517 501 518
f 501 485 502
f 453 454 470
f 469 453 470
f 485 469 486
f 516 500 517
f 500 484 501
f 484 468 485
f 468 452 469
f 483 500 499
f 1012 966 1008
f 1062 1008 1046
f 1123 1046 1096
f 1156 1096 1138
f 1187 1138 1154
f 1208 1154 1170
f 1217 1170 1180
f 1228 1180 1201
f 1249 1228 1201
f 1249 1275 1228
f 1249 1287 1275
f 1275 1287 1296
f 1290 1296 1304
f 1298 1304 1306
f 1292 1306 1300
f 1282 1300 1281
f 1243 1281 1237
f 1193 1237 1183
f 1162 1183 1144
f 1162 1193 1183
f 1162 1172 1193
f 1193 1172 1203
f 1243 1203 1244
f 1282 1244 1273
f 1292 1273 1286
f 1298 1286 1284
f 1290 1284 1265
f 1275 1265 1228
f 1275 1290 1265
f 1275 1296 1290
f 1019 1046 990
f 1019 1096 1046
f 1019 1050 1096
f 1096 1050 1088
f 1138 1088 1119
f 1154 1119 1139
f 1170 1139 1145
f 1180 1145 1148
f 1201 1180 1148
f 1096 1088 1138
f 1138 1119 1154
f 1154 1139 1170
f 1170 1145 1180
f 1287 1301 1296
f 1296 1301 1310
f 1304 1310 1316
f 1306 1316 1312
f 1300 1312 1299
f 1281 1299 1272
f 1237 1272 1214
f 1183 1214 1157
f 1144 1157 1101
f 1144 1183 1157
f 1301 1313 1310
f 1310 1313 1320
f 1316 1320 1322
f 1312 1322 1311
f 1299 1311 1291
f 1272 1291 1253
f 1214 1253 1191
f 1157 1191 1127
f 1101 1127 1040
f 1101 1157 1127
f 1313 1323 1320
f 1320 1323 1328
f 1322 1328 1321
f 1311 1321 1305
f 1291 1305 1285
f 1253 1285 1232
f 1191 1232 1164
f 1127 1164 1061
f 1040 1061 994
f 1040 1127 1061
f 1323 1329 1328
f 1328 1329 1327
f 1321 1327 1315
f 1305 1315 1297
f 1285 1297 1259
f 1232 1259 1195
f 1164 1195 1122
f 1061 1122 1007
f 994 1007 948
f 994 1061 1007
f 1329 1325 1327
f 1327 1325 1319
f 1315 1319 1303
f 1297 1303 1283
f 1259 1283 1225
f 1195 1225 1155
f 1122 1155 1045
f 1007 1045 964
f 948 964 899
f 948 1007 964
f 1325 1317 1319
f 1319 1317 1309
f 1303 1309 1289
f 1283 1289 1247
f 1225 1247 1186
f 1155 1186 1095
f 1045 1095 988
f 964 988 918
f 899 918 869
f 854 869 837
f 824 837 809
f 790 809 777
f 763 777 745
f 714 745 693
f 660 693 636
f 591 636 590
f 591 660 636
f 1317 1307 1309
f 1309 1307 1295
f 1289 1295 1264
f 1247 1264 1207
f 1186 1207 1137
f 1095 1137 1018
f 988 1018 935
f 918 935 869
f 918 988 935
f 1307 1293 1295
f 1295 1293 1274
f 1264 1274 1216
f 1207 1216 1153
f 1137 1153 1041
f 1018 1041 963
f 935 963 888
f 869 888 837
f 869 935 888
f 1293 1266 1274
f 1274 1266 1227
f 1216 1227 1169
f 1153 1169 1076
f 1041 1076 977
f 963 977 905
f 888 905 846
f 837 846 809
f 837 888 846
f 1266 1222 1227
f 1227 1222 1179
f 1169 1179 1098
f 1076 1098 993
f 977 993 922
f 905 922 855
f 846 855 816
f 809 816 777
f 809 846 816
f 1222 1173 1179
f 1179 1173 1110
f 1098 1110 1006
f 993 1006 932
f 922 932 862
f 855 862 822
f 816 822 783
f 777 783 745
f 777 816 783
f 1173 1104 1110
f 1110 1104 1011
f 1006 1011 941
f 932 941 872
f 862 872 830
f 822 830 785
f 783 785 749
f 745 749 693
f 745 783 749
f 1104 1013 1011
f 1011 1013 949
f 944 949 886
f 883 886 842
f 839 842 805
f 800 805 773
f 768 773 724
f 712 724 665
f 649 665 582
f 584 649 582
f 584 647 649
f 584 585 647
f 647 585 644
f 711 644 707
f 765 707 764
f 798 764 795
f 836 795 832
f 880 832 872
f 941 880 872
f 941 944 880
f 941 1011 944
f 944 1011 949
f 944 886 883
f 880 883 836
f 832 880 836
f 883 842 839
f 836 839 798
f 795 836 798
f 839 805 800
f 798 800 765
f 764 798 765
f 800 773 768
f 765 768 711
f 707 765 711
f 768 724 712
f 711 712 647
f 644 711 647
f 712 665 649
f 647 712 649
f 585 586 644
f 644 586 643
f 707 643 705
f 764 705 760
f 795 760 791
f 832 791 830
f 872 832 830
f 586 587 643
f 643 587 638
f 705 638 699
f 760 699 755
f 791 755 785
f 830 791 785
f 587 588 638
f 638 588 589
f 637 589 590
f 636 637 590
f 636 695 637
f 636 693 695
f 695 693 749
f 755 749 785
f 755 695 749
f 755 699 695
f 695 699 637
f 637 699 638
f 589 637 638
f 660 714 693
f 714 763 745
f 763 790 777
f 790 824 809
f 824 854 837
f 854 899 869
f 918 899 964
f 1172 1175 1203
f 1203 1175 1204
f 1244 1204 1238
f 1273 1238 1254
f 1286 1254 1260
f 1284 1260 1248
f 1265 1248 1217
f 1228 1217 1180
f 1228 1265 1217
f 1175 1166 1204
f 1204 1166 1194
f 1238 1194 1215
f 1254 1215 1233
f 1260 1233 1226
f 1248 1226 1208
f 1217 1208 1170
f 1217 1248 1208
f 1194 1166 1184
f 1215 1184 1192
f 1233 1192 1196
f 1226 1196 1187
f 1208 1187 1154
f 1208 1226 1187
f 1121 1158 1150
f 1121 1128 1158
f 1121 1065 1128
f 1128 1065 1062
f 1123 1062 1046
f 1123 1128 1062
f 1123 1165 1128
f 1123 1156 1165
f 1123 1096 1156
f 1065 1012 1062
f 1062 1012 1008
f 1166 1150 1184
f 1184 1150 1158
f 1192 1158 1165
f 1196 1165 1156
f 1187 1156 1138
f 1187 1196 1156
f 966 990 1008
f 1008 990 1046
f 1284 1248 1265
f 1260 1226 1248
f 1233 1196 1226
f 1192 1165 1196
f 1158 1128 1165
f 1298 1284 1290
f 1304 1298 1290
f 1310 1304 1296
f 1286 1260 1284
f 1254 1233 1260
f 1215 1192 1233
f 1184 1158 1192
f 1320 1316 1310
f 1292 1286 1298
f 1306 1292 1298
f 1316 1306 1304
f 1273 1254 1286
f 1238 1215 1254
f 1194 1184 1215
f 1328 1322 1320
f 1322 1312 1316
f 1282 1273 1292
f 1300 1282 1292
f 1312 1300 1306
f 1244 1238 1273
f 1204 1194 1238
f 1327 1321 1328
f 1321 1311 1322
f 1311 1299 1312
f 1243 1244 1282
f 1281 1243 1282
f 1299 1281 1300
f 1203 1204 1244
f 1319 1315 1327
f 1315 1305 1321
f 1305 1291 1311
f 1291 1272 1299
f 1193 1203 1243
f 1237 1193 1243
f 1272 1237 1281
f 1309 1303 1319
f 1303 1297 1315
f 1297 1285 1305
f 1285 1253 1291
f 1253 1214 1272
f 1214 1183 1237
f 1295 1289 1309
f 1289 1283 1303
f 1283 1259 1297
f 1259 1232 1285
f 1232 1191 1253
f 1191 1157 1214
f 1274 1264 1295
f 1264 1247 1289
f 1247 1225 1283
f 1225 1195 1259
f 1195 1164 1232
f 1164 1127 1191
f 1227 1216 1274
f 1216 1207 1264
f 1207 1186 1247
f 1186 1155 1225
f 1155 1122 1195
f 1122 1061 1164
f 1179 1169 1227
f 1169 1153 1216
f 1153 1137 1207
f 1137 1095 1186
f 1095 1045 1155
f 1045 1007 1122
f 1110 1098 1179
f 1098 1076 1169
f 1076 1041 1153
f 1041 1018 1137
f 1018 988 1095
f 988 964 1045
f 1011 1006 1110
f 1006 993 1098
f 993 977 1076
f 977 963 1041
f 963 935 1018
f 932 1006 941
f 922 993 932
f 905 977 922
f 888 963 905
f 883 880 944
f 862 932 872
f 855 922 862
f 846 905 855
f 839 836 883
f 822 862 830
f 816 855 822
f 800 798 839
f 791 832 795
f 783 822 785
f 768 765 800
f 760 795 764
f 755 791 760
f 712 711 768
f 705 764 707
f 699 760 705
f 643 707 644
f 638 705 643
f 913 931 927
f 916 927 961
f 946 961 987
f 979 987 1021
f 1010 1021 1054
f 1039 1054 1084
f 1074 1084 1112
f 1094 1112 1102
f 1089 1094 1102
f 1089 1086 1094
f 1089 1082 1086
f 1089 1091 1082
f 1082 1091 1085
f 1063 1085 1073
f 1038 1073 1053
f 1020 1053 1035
f 1002 1035 1024
f 992 1024 1019
f 990 992 1019
f 990 965 992
f 990 966 965
f 965 966 936
f 942 936 919
f 926 919 906
f 915 906 909
f 939 909 934
f 969 934 971
f 1004 971 1010
f 1039 1010 1054
f 1039 1004 1010
f 1039 1031 1004
f 1039 1074 1031
f 1039 1084 1074
f 983 961 962
f 983 987 961
f 983 1016 987
f 987 1016 1021
f 1021 1016 1043
f 1054 1043 1080
f 1084 1080 1106
f 1112 1106 1120
f 1125 1112 1120
f 1125 1102 1112
f 1021 1043 1054
f 1054 1080 1084
f 1084 1106 1112
f 1091 1107 1085
f 1085 1107 1093
f 1073 1093 1083
f 1053 1083 1075
f 1035 1075 1058
f 1024 1058 1050
f 1019 1024 1050
f 1093 1107 1111
f 1083 1111 1109
f 1075 1109 1100
f 1058 1100 1088
f 1050 1058 1088
f 1148 1145 1130
f 1130 1145 1142
f 1124 1142 1132
f 1109 1132 1100
f 1109 1124 1132
f 1109 1111 1124
f 1124 1111 1130
f 1142 1124 1130
f 1145 1139 1142
f 1142 1139 1132
f 1132 1139 1119
f 1100 1119 1088
f 1100 1132 1119
f 965 936 942
f 973 942 960
f 986 960 978
f 1009 978 1003
f 1030 1003 1029
f 1059 1029 1064
f 1086 1064 1094
f 1086 1059 1064
f 1086 1082 1059
f 1059 1082 1063
f 1030 1063 1038
f 1009 1038 1020
f 986 1020 1002
f 973 1002 992
f 965 973 992
f 965 942 973
f 942 919 926
f 960 926 945
f 978 945 970
f 1003 970 999
f 1029 999 1031
f 1064 1031 1074
f 1094 1074 1112
f 1094 1064 1074
f 906 895 909
f 909 895 904
f 934 904 940
f 971 940 979
f 1010 979 1021
f 1010 971 979
f 895 894 904
f 904 894 910
f 940 910 946
f 979 946 987
f 979 940 946
f 894 901 910
f 910 901 916
f 946 916 961
f 946 910 916
f 901 913 916
f 916 913 927
f 1073 1085 1093
f 945 926 915
f 939 915 909
f 939 945 915
f 939 970 945
f 939 969 970
f 939 934 969
f 931 962 927
f 927 962 961
f 1031 1064 1029
f 1085 1063 1082
f 1004 1031 999
f 969 999 970
f 969 1004 999
f 969 971 1004
f 1063 1030 1059
f 1059 1030 1029
f 999 1029 1003
f 940 971 934
f 910 940 904
f 904 934 909
f 1038 1063 1073
f 1009 1003 1030
f 1038 1009 1030
f 978 970 1003
f 1111 1083 1093
f 1083 1053 1073
f 1075 1083 1109
f 1053 1020 1038
f 1035 1053 1075
f 978 1009 986
f 986 1009 1020
f 1002 1020 1035
f 945 978 960
f 942 926 960
f 1002 973 986
f 986 973 960
f 906 915 926
f 1130 1111 1107
f 1058 1075 1100
f 1024 1035 1058
f 992 1002 1024
f 1017 1057 931
f 931 1057 962
f 962 1057 1115
f 983 1115 1147
f 1016 1147 1176
f 1043 1176 1189
f 1080 1189 1212
f 1106 1212 1218
f 1120 1218 1224
f 1125 1120 1224
f 962 1115 983
f 983 1147 1016
f 1016 1176 1043
f 1043 1189 1080
f 1080 1212 1106
f 1106 1218 1120
f 391 459 390
f 391 460 459
f 391 392 460
f 460 392 461
f 477 461 478
f 494 478 495
f 511 495 512
f 528 512 529
f 602 529 603
f 602 528 529
f 602 601 528
f 528 601 527
f 511 527 510
f 494 510 493
f 477 493 476
f 460 476 459
f 460 477 476
f 460 461 477
f 392 393 461
f 461 393 462
f 478 462 479
f 495 479 496
f 512 496 513
f 529 513 530
f 603 530 604
f 603 529 530
f 393 394 462
f 462 394 463
f 479 463 480
f 496 480 497
f 513 497 514
f 530 514 604
f 530 513 514
f 394 395 463
f 463 395 464
f 480 464 481
f 497 481 498
f 514 498 604
f 514 497 498
f 395 396 464
f 464 396 465
f 481 465 482
f 498 482 398
f 604 498 398
f 396 397 465
f 465 397 466
f 482 466 398
f 482 465 466
f 397 398 466
f 601 600 527
f 527 600 526
f 510 526 509
f 493 509 492
f 476 492 475
f 459 475 390
f 459 476 475
f 600 599 526
f 526 599 525
f 509 525 508
f 492 508 491
f 475 491 390
f 475 492 491
f 599 598 525
f 525 598 524
f 508 524 507
f 491 507 596
f 390 491 596
f 598 597 524
f 524 597 523
f 507 523 596
f 507 524 523
f 597 596 523
f 508 507 491
f 493 492 476
f 509 508 492
f 525 524 508
f 494 493 477
f 478 494 477
f 462 478 461
f 510 509 493
f 526 525 509
f 463 479 462
f 511 510 494
f 495 511 494
f 479 495 478
f 527 526 510
f 464 480 463
f 480 496 479
f 528 527 511
f 512 528 511
f 496 512 495
f 465 481 464
f 481 497 480
f 497 513 496
f 513 529 512
f 498 481 482
f 1017 1034 1057
f 1057 1034 1052
f 1116 1057 1052
f 1116 1115 1057
f 1116 1152 1115
f 1115 1152 1147
f 1147 1152 1188
f 1176 1188 1211
f 1189 1211 1229
f 1212 1229 1240
f 1218 1240 1245
f 1224 1218 1245
f 1147 1188 1176
f 1176 1211 1189
f 1189 1229 1212
f 1212 1240 1218
f 853 874 849
f 834 853 849
f 834 838 853
f 834 823 838
f 838 823 825
f 825 823 814
f 815 814 802
f 807 802 794
f 801 794 788
f 796 788 786
f 796 801 788
f 864 849 868
f 868 849 874
f 825 814 815
f 815 802 807
f 807 794 801
f 1116 1052 1069
f 1134 1069 1140
f 1177 1140 1181
f 1213 1181 1210
f 1236 1210 1221
f 1242 1221 1219
f 1234 1219 1206
f 1230 1206 1199
f 1230 1234 1206
f 1230 1251 1234
f 1234 1251 1256
f 1242 1256 1258
f 1236 1258 1239
f 1213 1239 1209
f 1177 1209 1167
f 1134 1167 1152
f 1116 1134 1152
f 1116 1069 1134
f 1071 1081 1068
f 1071 1079 1081
f 1071 1060 1079
f 1079 1060 1070
f 1135 1070 1117
f 1151 1117 1136
f 1159 1136 1133
f 1146 1133 1099
f 1118 1099 1044
f 1051 1044 996
f 1032 996 981
f 1032 1051 996
f 1032 1113 1051
f 1051 1113 1129
f 1118 1129 1163
f 1146 1163 1182
f 1159 1182 1185
f 1151 1185 1168
f 1135 1168 1141
f 1079 1141 1081
f 1079 1135 1141
f 1079 1070 1135
f 1070 1060 1056
f 1117 1056 1087
f 1136 1087 1097
f 1133 1097 1077
f 1099 1077 1036
f 1044 1036 995
f 996 995 959
f 981 959 937
f 981 996 959
f 1022 1037 1042
f 1022 1023 1037
f 1022 1005 1023
f 1022 997 1005
f 1005 997 985
f 998 985 974
f 980 974 955
f 956 955 921
f 917 921 882
f 879 882 851
f 850 851 831
f 844 831 826
f 844 850 831
f 844 859 850
f 850 859 875
f 879 875 914
f 917 914 957
f 956 957 984
f 980 984 1015
f 998 1015 1026
f 1005 1026 1023
f 1005 998 1026
f 1005 985 998
f 997 972 985
f 985 972 968
f 974 968 954
f 955 954 925
f 921 925 892
f 882 892 856
f 851 856 833
f 831 833 818
f 826 818 812
f 826 831 818
f 968 972 953
f 954 953 930
f 925 930 896
f 892 896 861
f 856 861 841
f 833 841 820
f 818 820 803
f 812 803 796
f 812 818 803
f 924 933 947
f 924 920 933
f 924 903 920
f 924 902 903
f 903 902 893
f 871 893 858
f 847 858 840
f 828 840 825
f 815 828 825
f 815 819 828
f 815 807 819
f 819 807 810
f 829 810 820
f 841 829 820
f 841 848 829
f 841 861 848
f 848 861 876
f 857 876 891
f 871 891 903
f 893 871 903
f 902 885 893
f 893 885 881
f 858 881 852
f 840 852 838
f 825 840 838
f 881 885 870
f 852 870 853
f 838 852 853
f 885 874 870
f 870 874 853
f 807 801 810
f 810 801 803
f 820 810 803
f 801 796 803
f 859 897 875
f 875 897 912
f 914 912 958
f 957 958 989
f 984 989 1025
f 1015 1025 1049
f 1026 1049 1055
f 1023 1055 1037
f 1023 1026 1055
f 897 937 912
f 912 937 959
f 958 959 995
f 989 995 1036
f 1025 1036 1077
f 1049 1077 1097
f 1055 1097 1087
f 1037 1087 1056
f 1042 1056 1060
f 1042 1037 1056
f 1113 1160 1129
f 1129 1160 1171
f 1163 1171 1190
f 1182 1190 1205
f 1185 1205 1198
f 1168 1198 1178
f 1141 1178 1143
f 1081 1143 1078
f 1068 1078 1069
f 1052 1068 1069
f 1160 1199 1171
f 1171 1199 1206
f 1190 1206 1219
f 1205 1219 1221
f 1198 1221 1210
f 1178 1210 1181
f 1143 1181 1140
f 1078 1140 1069
f 1078 1143 1140
f 1251 1270 1256
f 1256 1270 1269
f 1258 1269 1261
f 1239 1261 1235
f 1209 1235 1197
f 1167 1197 1188
f 1152 1167 1188
f 1270 1279 1269
f 1269 1279 1276
f 1261 1276 1257
f 1235 1257 1220
f 1197 1220 1211
f 1188 1197 1211
f 1279 1277 1276
f 1276 1277 1268
f 1257 1268 1241
f 1220 1241 1229
f 1211 1220 1229
f 1277 1262 1268
f 1268 1262 1255
f 1241 1255 1240
f 1229 1241 1240
f 1262 1245 1255
f 1255 1245 1240
f 1078 1068 1081
f 972 947 953
f 953 947 933
f 930 933 911
f 896 911 876
f 861 896 876
f 1177 1167 1134
f 1140 1177 1134
f 1209 1197 1167
f 1235 1220 1197
f 1257 1241 1220
f 1268 1255 1241
f 1213 1209 1177
f 1181 1213 1177
f 1239 1235 1209
f 1261 1257 1235
f 1276 1268 1257
f 1143 1081 1141
f 1181 1143 1178
f 1198 1210 1178
f 1178 1141 1168
f 1239 1213 1236
f 1236 1213 1210
f 1261 1239 1258
f 1276 1261 1269
f 1221 1242 1236
f 1236 1242 1258
f 1269 1258 1256
f 1151 1168 1135
f 1117 1151 1135
f 1056 1117 1070
f 1185 1198 1168
f 1205 1221 1198
f 1234 1256 1242
f 1219 1234 1242
f 1055 1087 1037
f 1087 1136 1117
f 1185 1151 1159
f 1159 1151 1136
f 1133 1136 1097
f 1205 1185 1182
f 1219 1205 1190
f 1133 1146 1159
f 1159 1146 1182
f 1171 1206 1190
f 1190 1182 1163
f 1049 1097 1055
f 1099 1133 1077
f 1118 1163 1146
f 1099 1118 1146
f 1129 1171 1163
f 1049 1026 1015
f 968 974 985
f 1077 1049 1025
f 974 980 998
f 998 980 1015
f 989 1036 1025
f 1025 1015 984
f 1036 1044 1099
f 1129 1118 1051
f 1051 1118 1044
f 996 1044 995
f 953 954 968
f 956 984 980
f 955 956 980
f 954 955 974
f 957 989 984
f 958 995 989
f 933 930 953
f 930 925 954
f 925 921 955
f 911 896 930
f 957 956 917
f 917 956 921
f 896 892 925
f 958 957 914
f 892 882 921
f 959 958 912
f 882 879 917
f 917 879 914
f 912 914 875
f 933 920 911
f 911 920 891
f 876 911 891
f 903 891 920
f 856 892 861
f 851 882 856
f 850 875 879
f 851 850 879
f 891 871 857
f 857 871 847
f 835 847 828
f 819 835 828
f 819 829 835
f 819 810 829
f 881 858 893
f 876 857 848
f 848 857 835
f 829 848 835
f 858 847 871
f 847 835 857
f 841 833 856
f 833 831 851
f 818 833 820
f 870 852 881
f 852 840 858
f 840 828 847
f 796 786 797
f 797 786 751
f 751 786 750
f 750 739 751
f 751 739 740
f 740 739 726
f 727 726 702
f 703 702 683
f 684 683 661
f 662 661 633
f 662 684 661
f 740 726 727
f 727 702 703
f 703 683 684
f 661 632 633
f 633 632 619
f 619 632 618
f 610 618 609
f 604 610 609
f 604 605 610
f 619 618 610
f 604 398 605
f 605 398 399
f 398 328 399
f 399 328 329
f 329 328 288
f 289 288 263
f 264 263 241
f 242 241 221
f 222 221 195
f 196 195 175
f 176 175 153
f 154 153 129
f 130 129 96
f 97 96 73
f 74 73 52
f 53 52 35
f 36 35 20
f 21 20 11
f 12 11 3
f 4 3 1
f 2 1 9
f 10 9 18
f 19 18 33
f 34 33 50
f 51 50 71
f 72 71 94
f 95 94 127
f 128 127 151
f 152 151 173
f 174 173 193
f 194 193 219
f 220 219 239
f 240 239 261
f 262 261 286
f 287 286 326
f 327 326 377
f 327 287 326
f 329 288 289
f 289 263 264
f 264 241 242
f 242 221 222
f 222 195 196
f 196 175 176
f 176 153 154
f 154 129 130
f 130 96 97
f 97 73 74
f 74 52 53
f 53 35 36
f 36 20 21
f 21 11 12
f 12 3 4
f 4 1 2
f 2 9 10
f 10 18 19
f 19 33 34
f 34 50 51
f 51 71 72
f 72 94 95
f 95 127 128
f 128 151 152
f 152 173 174
f 174 193 194
f 194 219 220
f 220 239 240
f 240 261 262
f 262 286 287
f 326 376 377
f 729 1175 732
f 729 1166 1175
f 729 717 1166
f 1166 717 701
f 1150 701 687
f 664 1150 687
f 664 1121 1150
f 664 635 1121
f 1121 635 1065
f 1065 635 607
f 1012 607 966
f 1012 1065 607
f 1166 701 1150
f 607 575 966
f 966 575 936
f 936 575 596
f 919 596 906
f 919 936 596
f 575 563 596
f 596 563 549
f 425 549 435
f 425 596 549
f 425 390 596
f 425 413 390
f 390 413 214
f 230 390 214
f 230 250 390
f 390 250 270
f 299 390 270
f 299 337 390
f 549 545 435
f 435 545 439
f 439 545 541
f 443 541 537
f 447 537 533
f 450 533 532
f 446 532 536
f 442 536 540
f 438 540 544
f 434 544 548
f 424 548 591
f 385 424 591
f 385 412 424
f 385 400 412
f 385 213 400
f 385 229 213
f 385 249 229
f 385 269 249
f 385 298 269
f 385 336 298
f 439 541 443
f 443 537 447
f 447 533 450
f 450 532 446
f 446 536 442
f 442 540 438
f 438 544 434
f 548 562 591
f 591 562 574
f 854 574 899
f 854 591 574
f 854 824 591
f 591 824 790
f 763 591 790
f 763 714 591
f 591 714 660
f 606 994 574
f 606 1040 994
f 606 1101 1040
f 606 634 1101
f 1101 634 1144
f 1144 634 663
f 686 1144 663
f 686 1162 1144
f 686 700 1162
f 1162 700 716
f 1172 716 728
f 732 1172 728
f 732 1175 1172
f 1162 716 1172
f 214 413 200
f 200 413 401
f 182 401 164
f 182 200 401
f 164 401 148
f 148 401 355
f 136 355 343
f 122 343 319
f 112 319 305
f 301 112 305
f 301 108 112
f 301 293 108
f 108 293 283
f 104 283 282
f 107 282 292
f 300 107 292
f 300 111 107
f 300 304 111
f 111 304 318
f 121 318 342
f 135 342 354
f 147 354 400
f 163 400 181
f 163 147 400
f 148 355 136
f 136 343 122
f 122 319 112
f 108 283 104
f 104 282 107
f 111 318 121
f 121 342 135
f 135 354 147
f 424 434 548
f 1017 931 991
f 991 931 967
f 967 931 821
f 943 821 923
f 943 967 821
f 913 793 931
f 913 778 793
f 913 762 778
f 913 901 762
f 762 901 736
f 736 901 894
f 697 894 895
f 671 895 906
f 620 906 596
f 615 596 608
f 615 620 596
f 736 894 697
f 697 895 671
f 994 948 574
f 574 948 899
f 213 199 400
f 400 199 181
f 620 671 906
f 793 811 931
f 931 811 821
f 864 865 821
f 821 865 873
f 884 821 873
f 884 900 821
f 821 900 923
f 1034 1047 1052
f 1034 1027 1047
f 1034 1017 1027
f 1027 1017 1000
f 1000 1017 991
f 975 991 967
f 951 967 943
f 928 943 923
f 907 923 900
f 889 900 884
f 877 884 873
f 866 873 865
f 863 865 864
f 867 864 868
f 874 867 868
f 874 878 867
f 874 885 878
f 878 885 890
f 890 885 902
f 908 902 924
f 929 924 947
f 952 947 972
f 976 972 997
f 1001 997 1022
f 1028 1022 1042
f 1048 1042 1060
f 1067 1060 1071
f 1072 1071 1068
f 1066 1068 1052
f 1047 1066 1052
f 1000 991 975
f 975 967 951
f 951 943 928
f 928 923 907
f 907 900 889
f 889 884 877
f 877 873 866
f 866 865 863
f 863 864 867
f 890 902 908
f 908 924 929
f 929 947 952
f 952 972 976
f 976 997 1001
f 1001 1022 1028
f 1028 1042 1048
f 1048 1060 1067
f 1067 1071 1072
f 1072 1068 1066
f 667 668 673
f 667 657 668
f 667 656 657
f 657 656 640
f 640 656 639
f 627 639 626
f 612 626 611
f 593 611 592
f 577 592 576
f 571 576 570
f 565 570 564
f 559 564 558
f 553 558 552
f 551 552 550
f 555 550 554
f 561 554 560
f 567 560 566
f 573 566 572
f 579 572 578
f 595 578 594
f 614 594 613
f 629 613 628
f 642 628 641
f 659 641 658
f 670 658 669
f 674 669 673
f 668 674 673
f 640 639 627
f 627 626 612
f 612 611 593
f 593 592 577
f 577 576 571
f 571 570 565
f 565 564 559
f 559 558 553
f 553 552 551
f 551 550 555
f 555 554 561
f 561 560 567
f 567 566 573
f 573 572 579
f 579 578 595
f 595 594 614
f 614 613 629
f 629 628 642
f 642 641 659
f 659 658 670
f 670 669 674
f 426 427 430
f 426 421 427
f 426 420 421
f 421 420 415
f 415 420 414
f 409 414 408
f 403 408 402
f 387 402 386
f 357 386 356
f 351 356 350
f 345 350 344
f 339 344 338
f 331 338 330
f 325 330 324
f 333 324 332
f 341 332 340
f 347 340 346
f 353 346 352
f 359 352 358
f 389 358 388
f 405 388 404
f 411 404 410
f 417 410 416
f 423 416 422
f 429 422 428
f 431 428 430
f 427 431 430
f 415 414 409
f 409 408 403
f 403 402 387
f 387 386 357
f 357 356 351
f 351 350 345
f 345 344 339
f 339 338 331
f 331 330 325
f 325 324 333
f 333 332 341
f 341 340 347
f 347 346 353
f 353 352 359
f 359 358 389
f 389 388 405
f 405 404 411
f 411 410 417
f 417 416 423
f 423 422 429
f 429 428 431
f 1246 1245 1263
f 1263 1245 1262
f 1278 1262 1277
f 1280 1277 1279
f 1271 1279 1270
f 1252 1270 1251
f 1231 1251 1230
f 1200 1230 1199
f 1161 1199 1160
f 1114 1160 1113
f 1033 1113 1032
f 982 1032 981
f 938 981 937
f 898 937 897
f 860 897 859
f 845 859 844
f 827 844 826
f 813 826 812
f 797 812 796
f 797 813 812
f 1263 1262 1278
f 1278 1277 1280
f 1280 1279 1271
f 1271 1270 1252
f 1252 1251 1231
f 1231 1230 1200
f 1200 1199 1161
f 1161 1160 1114
f 1114 1113 1033
f 1033 1032 982
f 982 981 938
f 938 937 898
f 898 897 860
f 860 859 845
f 845 844 827
f 827 826 813
f 1245 1246 1224
f 1224 1246 1126
f 1125 1224 1126
f 1148 1130 1149
f 1149 1130 1131
f 1131 1130 1107
f 1108 1107 1091
f 1092 1091 1089
f 1090 1089 1102
f 1103 1102 1126
f 1103 1090 1102
f 1131 1107 1108
f 1108 1091 1092
f 1092 1089 1090
f 1102 1125 1126
f 582 665 583
f 583 665 666
f 666 665 724
f 725 724 773
f 774 773 805
f 806 805 842
f 843 842 886
f 887 886 949
f 950 949 1013
f 1014 1013 1104
f 1105 1104 1173
f 1174 1173 1222
f 1223 1222 1266
f 1267 1266 1293
f 1294 1293 1307
f 1308 1307 1317
f 1318 1317 1326
f 1318 1308 1317
f 666 724 725
f 725 773 774
f 774 805 806
f 806 842 843
f 843 886 887
f 887 949 950
f 950 1013 1014
f 1014 1104 1105
f 1105 1173 1174
f 1174 1222 1223
f 1223 1266 1267
f 1267 1293 1294
f 1294 1307 1308
f 1317 1325 1326
f 1326 1325 1329
f 1330 1329 1323
f 1324 1323 1313
f 1314 1313 1301
f 1302 1301 1287
f 1288 1287 1249
f 1250 1249 1201
f 1202 1201 1148
f 1149 1202 1148
f 1326 1329 1330
f 1330 1323 1324
f 1324 1313 1314
f 1314 1301 1302
f 1302 1287 1288
f 1288 1249 1250
f 1250 1201 1202
f 376 582 377
f 377 582 583
f 1066 1278 1072
f 1066 1047 1278
f 1278 1047 1263
f 1263 1047 1027
f 1246 1027 1000
f 975 1246 1000
f 975 951 1246
f 1246 951 1126
f 1126 951 703
f 684 1126 703
f 684 662 1126
f 1126 662 1103
f 1103 662 1090
f 1090 662 633
f 1092 633 605
f 1108 605 1131
f 1108 1092 605
f 1263 1027 1246
f 951 928 703
f 703 928 727
f 727 928 740
f 740 928 907
f 751 907 889
f 877 751 889
f 877 866 751
f 751 866 863
f 867 751 863
f 867 797 751
f 867 878 797
f 797 878 890
f 908 797 890
f 908 929 797
f 797 929 813
f 813 929 952
f 827 952 1200
f 1161 827 1200
f 1161 845 827
f 1161 1114 845
f 845 1114 860
f 860 1114 1033
f 898 1033 982
f 938 898 982
f 740 907 751
f 952 976 1200
f 1200 976 1231
f 1231 976 1001
f 1252 1001 1028
f 1271 1028 1048
f 1067 1271 1048
f 1067 1280 1271
f 1067 1072 1280
f 1280 1072 1278
f 1231 1001 1252
f 1252 1028 1271
f 670 674 1330
f 659 1330 1324
f 642 1324 1314
f 629 1314 614
f 629 642 1314
f 657 1326 668
f 657 640 1326
f 1326 640 1318
f 1318 640 627
f 1308 627 612
f 1294 612 593
f 1267 593 1223
f 1267 1294 593
f 1318 627 1308
f 1308 612 1294
f 577 1105 593
f 577 1014 1105
f 577 583 1014
f 577 571 583
f 583 571 409
f 377 409 403
f 152 403 128
f 152 377 403
f 152 174 377
f 377 174 194
f 220 377 194
f 220 240 377
f 377 240 262
f 287 377 262
f 287 327 377
f 409 571 415
f 415 571 565
f 421 565 559
f 427 559 553
f 431 553 551
f 429 551 555
f 423 555 561
f 417 561 567
f 411 567 573
f 605 573 579
f 1131 579 1149
f 1131 605 579
f 415 565 421
f 421 559 427
f 427 553 431
f 431 551 429
f 429 555 423
f 423 561 417
f 417 567 411
f 411 573 605
f 399 411 605
f 399 405 411
f 399 154 405
f 399 176 154
f 399 196 176
f 399 222 196
f 399 242 222
f 399 264 242
f 399 289 264
f 399 329 289
f 579 595 1149
f 1149 595 1202
f 1202 595 1250
f 1250 595 1288
f 1288 595 614
f 1302 614 1314
f 1302 1288 614
f 642 659 1324
f 659 670 1330
f 583 409 377
f 403 387 128
f 128 387 95
f 95 387 72
f 72 387 51
f 51 387 34
f 34 387 357
f 19 357 351
f 10 351 345
f 339 10 345
f 339 2 10
f 339 331 2
f 2 331 325
f 4 325 333
f 341 4 333
f 341 12 4
f 341 347 12
f 12 347 353
f 21 353 359
f 36 359 389
f 53 389 74
f 53 36 389
f 34 357 19
f 19 351 10
f 2 325 4
f 12 353 21
f 21 359 36
f 405 130 389
f 405 154 130
f 666 725 583
f 583 725 774
f 806 583 774
f 806 843 583
f 583 843 887
f 950 583 887
f 950 1014 583
f 1105 1174 593
f 593 1174 1223
f 1326 1330 668
f 668 1330 674
f 1092 1090 633
f 860 1033 898
f 827 813 952
f 633 619 605
f 605 619 610
f 130 97 389
f 389 97 74
