v -0.500000 -0.006830 -0.083347
v -0.500000 -0.006830 0.083347
v -0.500000 0.006830 -0.083347
v -0.500000 0.006830 0.083347
v -0.498702 -0.020428 -0.083347
v -0.498702 -0.020428 0.083347
v -0.498702 0.020428 -0.083347
v -0.498702 0.020428 0.083347
v -0.496116 -0.033841 -0.083347
v -0.496116 -0.033841 0.083347
v -0.496116 0.033841 -0.083347
v -0.496116 0.033841 0.083347
v -0.492268 -0.046948 -0.083347
v -0.492268 -0.046948 0.083347
v -0.492268 0.046948 -0.083347
v -0.492268 0.046948 0.083347
v -0.487191 -0.059629 -0.083347
v -0.487191 -0.059629 0.083347
v -0.487191 0.059629 -0.083347
v -0.487191 0.059629 0.083347
v -0.480932 -0.071771 -0.083347
v -0.480932 -0.071771 0.083347
v -0.480932 0.071771 -0.083347
v -0.480932 0.071771 0.083347
v -0.473546 -0.083262 -0.083347
v -0.473546 -0.083262 0.083347
v -0.473546 0.083262 -0.083347
v -0.473546 0.083262 0.083347
v -0.465102 -0.094000 -0.083347
v -0.465102 -0.094000 0.083347
v -0.465102 0.094000 -0.083347
v -0.465102 0.094000 0.083347
v -0.455676 -0.103886 -0.083347
v -0.455676 -0.103886 0.083347
v -0.455676 0.103886 -0.083347
v -0.455676 0.103886 0.083347
v -0.445352 -0.112832 -0.083347
v -0.445352 -0.112832 0.083347
v -0.445352 0.112832 -0.083347
v -0.445352 0.112832 0.083347
v -0.434225 -0.120755 -0.083347
v -0.434225 -0.120755 0.083347
v -0.434225 0.120755 -0.083347
v -0.434225 0.120755 0.083347
v -0.422395 -0.127585 -0.083347
v -0.422395 -0.127585 0.083347
v -0.422395 0.127585 -0.083347
v -0.422395 0.127585 0.083347
v -0.409970 -0.133260 -0.083347
v -0.409970 -0.133260 0.083347
v -0.409970 0.133260 -0.083347
v -0.409970 0.133260 0.083347
v -0.397061 -0.137727 -0.083347
v -0.397061 -0.137727 0.083347
v -0.397061 0.137727 -0.083347
v -0.397061 0.137727 0.083347
v -0.383786 -0.140948 -0.083347
v -0.383786 -0.140948 0.083347
v -0.383786 0.140948 -0.083347
v -0.383786 0.140948 0.083347
v -0.370512 -0.000000 -0.083347
v -0.370512 -0.000000 -0.027782
v -0.370512 -0.000000 0.027782
v -0.370512 -0.000000 0.083347
v -0.370265 -0.142892 -0.083347
v -0.370265 -0.142892 0.083347
v -0.370265 0.142892 -0.083347
v -0.370265 0.142892 0.083347
v -0.370039 -0.003595 -0.083347
v -0.370039 -0.003595 -0.027782
v -0.370039 -0.003595 0.027782
v -0.370039 -0.003595 0.083347
v -0.370039 0.003595 -0.083347
v -0.370039 0.003595 -0.027782
v -0.370039 0.003595 0.027782
v -0.370039 0.003595 0.083347
v -0.368651 -0.006946 -0.083347
v -0.368651 -0.006946 -0.027782
v -0.368651 -0.006946 0.027782
v -0.368651 -0.006946 0.083347
v -0.368651 0.006946 -0.083347
v -0.368651 0.006946 -0.027782
v -0.368651 0.006946 0.027782
v -0.368651 0.006946 0.083347
v -0.366443 -0.009823 -0.083347
v -0.366443 -0.009823 -0.027782
v -0.366443 -0.009823 0.027782
v -0.366443 -0.009823 0.083347
v -0.366443 0.009823 -0.083347
v -0.366443 0.009823 -0.027782
v -0.366443 0.009823 0.027782
v -0.366443 0.009823 0.083347
v -0.363566 -0.012030 -0.083347
v -0.363566 -0.012030 -0.027782
v -0.363566 -0.012030 0.027782
v -0.363566 -0.012030 0.083347
v -0.363566 0.012030 -0.083347
v -0.363566 0.012030 -0.027782
v -0.363566 0.012030 0.027782
v -0.363566 0.012030 0.083347
v -0.360216 -0.013418 -0.083347
v -0.360216 -0.013418 -0.027782
v -0.360216 -0.013418 0.027782
v -0.360216 -0.013418 0.083347
v -0.360216 0.013418 -0.083347
v -0.360216 0.013418 -0.027782
v -0.360216 0.013418 0.027782
v -0.360216 0.013418 0.083347
v -0.356621 -0.143542 -0.083347
v -0.356621 -0.143542 0.083347
v -0.356621 -0.013891 -0.083347
v -0.356621 -0.013891 -0.027782
v -0.356621 -0.013891 0.027782
v -0.356621 -0.013891 0.083347
v -0.356621 0.013891 -0.083347
v -0.356621 0.013891 -0.027782
v -0.356621 0.013891 0.027782
v -0.356621 0.013891 0.083347
v -0.356621 0.143542 -0.083347
v -0.356621 0.143542 0.083347
v -0.353025 -0.013418 -0.083347
v -0.353025 -0.013418 -0.027782
v -0.353025 -0.013418 0.027782
v -0.353025 -0.013418 0.083347
v -0.353025 0.013418 -0.083347
v -0.353025 0.013418 -0.027782
v -0.353025 0.013418 0.027782
v -0.353025 0.013418 0.083347
v -0.349675 -0.012030 -0.083347
v -0.349675 -0.012030 -0.027782
v -0.349675 -0.012030 0.027782
v -0.349675 -0.012030 0.083347
v -0.349675 0.012030 -0.083347
v -0.349675 0.012030 -0.027782
v -0.349675 0.012030 0.027782
v -0.349675 0.012030 0.083347
v -0.346798 -0.009823 -0.083347
v -0.346798 -0.009823 -0.027782
v -0.346798 -0.009823 0.027782
v -0.346798 -0.009823 0.083347
v -0.346798 0.009823 -0.083347
v -0.346798 0.009823 -0.027782
v -0.346798 0.009823 0.027782
v -0.346798 0.009823 0.083347
v -0.344591 -0.006946 -0.083347
v -0.344591 -0.006946 -0.027782
v -0.344591 -0.006946 0.027782
v -0.344591 -0.006946 0.083347
v -0.344591 0.006946 -0.083347
v -0.344591 0.006946 -0.027782
v -0.344591 0.006946 0.027782
v -0.344591 0.006946 0.083347
v -0.343203 -0.003595 -0.083347
v -0.343203 -0.003595 -0.027782
v -0.343203 -0.003595 0.027782
v -0.343203 -0.003595 0.083347
v -0.343203 0.003595 -0.083347
v -0.343203 0.003595 -0.027782
v -0.343203 0.003595 0.027782
v -0.343203 0.003595 0.083347
v -0.342730 -0.000000 -0.083347
v -0.342730 -0.000000 -0.027782
v -0.342730 -0.000000 0.027782
v -0.342730 -0.000000 0.083347
v -0.326523 -0.111129 -0.064825
v -0.326523 -0.111129 0.083347
v -0.326523 0.111129 -0.064825
v -0.326523 0.111129 0.083347
v 0.314785 -0.143542 -0.083347
v 0.314785 -0.143542 0.083347
v 0.319578 -0.142911 -0.083347
v 0.319578 -0.142911 0.000000
v 0.319578 -0.142911 0.083347
v 0.321730 -0.111129 -0.064825
v 0.321730 -0.111129 0.083347
v 0.321730 0.111129 -0.064825
v 0.321730 0.111129 0.083347
v 0.324045 -0.141060 -0.083347
v 0.324045 -0.141060 0.000000
v 0.324045 -0.141060 0.083347
v 0.327881 -0.138117 -0.083347
v 0.327881 -0.138117 0.000000
v 0.327881 -0.138117 0.083347
v 0.330825 -0.134281 -0.083347
v 0.330825 -0.134281 0.000000
v 0.330825 -0.134281 0.083347
v 0.332675 -0.129814 -0.083347
v 0.332675 -0.129814 0.000000
v 0.332675 -0.129814 0.083347
v 0.333306 -0.125020 -0.083347
v 0.333306 -0.125020 0.083347
v 0.333306 -0.000000 -0.083347
v 0.333306 -0.000000 0.083347
v 0.333937 0.004794 -0.083347
v 0.333937 0.004794 0.000000
v 0.333937 0.004794 0.083347
v 0.335788 0.009261 -0.083347
v 0.335788 0.009261 0.000000
v 0.335788 0.009261 0.083347
v 0.338731 0.013097 -0.083347
v 0.338731 0.013097 0.000000
v 0.338731 0.013097 0.083347
v 0.342567 0.016040 -0.083347
v 0.342567 0.016040 0.000000
v 0.342567 0.016040 0.083347
v 0.347034 0.017890 -0.083347
v 0.347034 0.017890 0.000000
v 0.347034 0.017890 0.083347
v 0.351828 0.018522 -0.083347
v 0.351828 0.018522 0.083347
v 0.472222 0.088481 0.000000
v 0.472360 0.085165 -0.083347
v 0.472360 0.085165 0.083347
v 0.472360 0.090789 -0.083347
v 0.472360 0.090789 0.083347
v 0.472763 0.082498 0.000000
v 0.472980 0.094441 0.000000
v 0.473493 0.079656 -0.083347
v 0.473493 0.079656 0.083347
v 0.473493 0.096298 -0.083347
v 0.473493 0.096298 0.083347
v 0.474578 0.076771 0.000000
v 0.475001 0.100098 0.000000
v 0.475712 0.074488 -0.083347
v 0.475712 0.074488 0.083347
v 0.475712 0.101466 -0.083347
v 0.475712 0.101466 0.083347
v 0.477581 0.071568 0.000000
v 0.478191 0.105189 0.000000
v 0.478927 0.069873 -0.083347
v 0.478927 0.069873 0.083347
v 0.478927 0.106082 -0.083347
v 0.478927 0.106082 0.083347
v 0.481478 0.018522 -0.083347
v 0.481478 0.018522 0.083347
v 0.481633 0.067133 0.000000
v 0.482401 0.109475 0.000000
v 0.483005 0.066000 -0.083347
v 0.483005 0.066000 0.083347
v 0.483005 0.109955 -0.083347
v 0.483005 0.109955 0.083347
v 0.486272 0.019153 -0.083347
v 0.486272 0.019153 0.000000
v 0.486272 0.019153 0.083347
v 0.486543 0.063671 0.000000
v 0.487434 0.112755 0.000000
v 0.487779 0.063027 -0.083347
v 0.487779 0.063027 0.083347
v 0.487779 0.112927 -0.083347
v 0.487779 0.112927 0.083347
v 0.490739 0.021003 -0.083347
v 0.490739 0.021003 0.000000
v 0.490739 0.021003 0.083347
v 0.490739 0.143542 -0.083347
v 0.490739 0.143542 0.083347
v 0.492083 0.061347 0.000000
v 0.493054 0.061077 -0.083347
v 0.493054 0.061077 0.083347
v 0.493054 0.114877 -0.083347
v 0.493054 0.114877 0.083347
v 0.493136 0.061056 -0.041673
v 0.493136 0.061056 0.000000
v 0.493136 0.061056 0.041673
v 0.493136 0.143226 -0.083347
v 0.493136 0.143226 -0.041673
v 0.493136 0.143226 0.000000
v 0.493136 0.143226 0.041673
v 0.493136 0.143226 0.083347
v 0.494575 0.023946 -0.083347
v 0.494575 0.023946 0.000000
v 0.494575 0.023946 0.083347
v 0.494953 0.060357 -0.083347
v 0.494953 0.060357 0.083347
v 0.494953 0.115597 -0.083347
v 0.494953 0.115597 0.083347
v 0.495296 0.115782 -0.041673
v 0.495296 0.115782 0.000000
v 0.495296 0.115782 0.041673
v 0.495370 0.060131 -0.041673
v 0.495370 0.060131 0.000000
v 0.495370 0.060131 0.041673
v 0.495370 0.142301 -0.083347
v 0.495370 0.142301 -0.041673
v 0.495370 0.142301 0.000000
v 0.495370 0.142301 0.041673
v 0.495370 0.142301 0.083347
v 0.496649 0.059241 -0.083347
v 0.496649 0.059241 0.083347
v 0.496649 0.116714 -0.083347
v 0.496649 0.116714 0.083347
v 0.497228 0.117236 -0.041673
v 0.497228 0.117236 0.000000
v 0.497228 0.117236 0.041673
v 0.497288 0.058659 -0.041673
v 0.497288 0.058659 0.000000
v 0.497288 0.058659 0.041673
v 0.497288 0.140829 -0.083347
v 0.497288 0.140829 -0.041673
v 0.497288 0.140829 0.000000
v 0.497288 0.140829 0.041673
v 0.497288 0.140829 0.083347
v 0.497519 0.027782 -0.083347
v 0.497519 0.027782 0.000000
v 0.497519 0.027782 0.083347
v 0.498061 0.057782 -0.083347
v 0.498061 0.057782 0.083347
v 0.498061 0.118173 -0.083347
v 0.498061 0.118173 0.083347
v 0.498717 0.119141 -0.041673
v 0.498717 0.119141 0.000000
v 0.498717 0.119141 0.041673
v 0.498759 0.056741 -0.041673
v 0.498759 0.056741 0.000000
v 0.498759 0.056741 0.041673
v 0.498759 0.138911 -0.083347
v 0.498759 0.138911 -0.041673
v 0.498759 0.138911 0.000000
v 0.498759 0.138911 0.041673
v 0.498759 0.138911 0.083347
v 0.499120 0.056050 -0.083347
v 0.499120 0.056050 0.083347
v 0.499120 0.119905 -0.083347
v 0.499120 0.119905 0.083347
v 0.499369 0.032249 -0.083347
v 0.499369 0.032249 0.000000
v 0.499369 0.032249 0.083347
v 0.499662 0.121366 -0.041673
v 0.499662 0.121366 0.000000
v 0.499662 0.121366 0.041673
v 0.499684 0.054507 -0.041673
v 0.499684 0.054507 0.000000
v 0.499684 0.054507 0.041673
v 0.499684 0.136678 -0.083347
v 0.499684 0.136678 -0.041673
v 0.499684 0.136678 0.000000
v 0.499684 0.136678 0.041673
v 0.499684 0.136678 0.083347
v 0.499777 0.054129 -0.083347
v 0.499777 0.054129 0.083347
v 0.499777 0.121826 -0.083347
v 0.499777 0.121826 0.083347
v 0.500000 0.123760 -0.041673
v 0.500000 0.123760 0.000000
v 0.500000 0.123760 0.041673
v 0.500000 0.037043 -0.083347
v 0.500000 0.037043 0.083347
v 0.500000 0.052110 -0.083347
v 0.500000 0.052110 0.083347
v 0.500000 0.123844 -0.083347
v 0.500000 0.123844 0.083347
v 0.500000 0.134281 -0.083347
v 0.500000 0.134281 0.083347
f 167 176 168
f 168 176 177
f 176 174 177
f 177 174 175
f 174 165 175
f 175 165 166
f 165 167 166
f 166 167 168
f 177 120 168
f 177 255 120
f 177 352 255
f 177 350 352
f 177 250 350
f 177 241 250
f 177 233 241
f 177 227 233
f 177 221 227
f 177 215 221
f 177 213 215
f 177 219 213
f 177 225 219
f 177 210 225
f 177 208 210
f 177 205 208
f 177 202 205
f 177 199 202
f 177 196 199
f 177 193 196
f 177 175 193
f 193 175 191
f 191 175 170
f 189 170 186
f 189 191 170
f 175 166 170
f 170 166 110
f 110 166 66
f 66 166 58
f 58 166 54
f 54 166 50
f 50 166 46
f 46 166 42
f 42 166 38
f 38 166 34
f 34 166 30
f 30 166 26
f 26 166 22
f 22 166 114
f 18 114 14
f 18 22 114
f 168 164 166
f 168 160 164
f 168 152 160
f 168 144 152
f 168 136 144
f 168 128 136
f 168 118 128
f 168 24 118
f 168 28 24
f 168 32 28
f 168 36 32
f 168 40 36
f 168 44 40
f 168 48 44
f 168 52 48
f 168 56 52
f 168 60 56
f 168 68 60
f 168 120 68
f 164 156 166
f 166 156 148
f 140 166 148
f 140 132 166
f 166 132 124
f 114 166 124
f 114 104 14
f 14 104 10
f 10 104 6
f 6 104 96
f 88 6 96
f 88 2 6
f 88 80 2
f 2 80 72
f 64 2 72
f 64 4 2
f 64 76 4
f 4 76 84
f 92 4 84
f 92 8 4
f 92 100 8
f 8 100 108
f 12 108 16
f 12 8 108
f 108 118 16
f 16 118 20
f 20 118 24
f 173 180 170
f 170 180 183
f 186 170 183
f 235 304 210
f 235 271 304
f 235 253 271
f 235 244 253
f 304 326 210
f 210 326 346
f 348 210 346
f 348 248 210
f 348 339 248
f 248 339 321
f 306 248 321
f 306 258 248
f 306 288 258
f 258 288 273
f 248 239 210
f 210 239 231
f 225 210 231
f 260 308 250
f 260 290 308
f 260 275 290
f 308 323 250
f 250 323 341
f 350 250 341
f 352 337 255
f 255 337 319
f 301 255 319
f 301 286 255
f 255 286 268
f 160 159 164
f 160 151 159
f 160 152 151
f 151 152 143
f 142 143 134
f 133 134 125
f 133 142 134
f 133 141 142
f 142 141 150
f 151 150 159
f 151 142 150
f 151 143 142
f 152 144 143
f 143 144 135
f 134 135 126
f 125 126 115
f 125 134 126
f 144 136 135
f 135 136 127
f 126 127 116
f 115 116 105
f 115 126 116
f 136 128 127
f 127 128 117
f 116 117 106
f 105 106 97
f 105 116 106
f 128 118 117
f 117 118 107
f 106 107 98
f 97 98 89
f 97 106 98
f 118 108 107
f 107 108 99
f 98 99 90
f 89 90 81
f 89 98 90
f 108 100 99
f 99 100 91
f 90 91 82
f 81 82 73
f 81 90 82
f 100 92 91
f 91 92 83
f 82 83 74
f 73 74 61
f 73 82 74
f 92 84 83
f 83 84 75
f 74 75 62
f 61 62 69
f 61 74 62
f 84 76 75
f 75 76 63
f 62 63 70
f 69 70 77
f 69 62 70
f 76 64 63
f 63 64 71
f 70 71 78
f 77 78 85
f 77 70 78
f 64 72 71
f 71 72 79
f 78 79 86
f 85 86 93
f 85 78 86
f 72 80 79
f 79 80 87
f 86 87 94
f 93 94 101
f 93 86 94
f 80 88 87
f 87 88 95
f 94 95 102
f 101 102 111
f 101 94 102
f 88 96 95
f 95 96 103
f 102 103 112
f 111 112 121
f 111 102 112
f 96 104 103
f 103 104 113
f 112 113 122
f 121 122 129
f 121 112 122
f 104 114 113
f 113 114 123
f 122 123 130
f 129 130 137
f 129 122 130
f 114 124 123
f 123 124 131
f 130 131 138
f 137 138 145
f 137 130 138
f 124 132 131
f 131 132 139
f 138 139 146
f 145 146 153
f 145 138 146
f 132 140 139
f 139 140 147
f 146 147 154
f 153 154 161
f 153 146 154
f 140 148 147
f 147 148 155
f 154 155 162
f 161 162 157
f 161 154 162
f 148 156 155
f 155 156 163
f 162 163 158
f 157 158 149
f 157 162 158
f 156 164 163
f 163 164 159
f 158 159 150
f 149 150 141
f 149 158 150
f 163 162 155
f 158 163 159
f 134 143 135
f 126 135 127
f 116 127 117
f 106 117 107
f 98 107 99
f 90 99 91
f 82 91 83
f 74 83 75
f 62 75 63
f 70 63 71
f 78 71 79
f 86 79 87
f 94 87 95
f 102 95 103
f 112 103 113
f 122 113 123
f 130 123 131
f 138 131 139
f 146 139 147
f 154 147 155
f 120 119 68
f 68 119 67
f 60 67 59
f 56 59 55
f 52 55 51
f 48 51 47
f 44 47 43
f 40 43 39
f 36 39 35
f 32 35 31
f 28 31 27
f 24 27 23
f 20 23 19
f 16 19 15
f 12 15 11
f 8 11 7
f 4 7 3
f 2 3 1
f 6 1 5
f 10 5 9
f 14 9 13
f 18 13 17
f 22 17 21
f 26 21 25
f 30 25 29
f 34 29 33
f 38 33 37
f 42 37 41
f 46 41 45
f 50 45 49
f 54 49 53
f 58 53 57
f 66 57 65
f 110 65 109
f 110 66 65
f 68 67 60
f 60 59 56
f 56 55 52
f 52 51 48
f 48 47 44
f 44 43 40
f 40 39 36
f 36 35 32
f 32 31 28
f 28 27 24
f 24 23 20
f 20 19 16
f 16 15 12
f 12 11 8
f 8 7 4
f 4 3 2
f 2 1 6
f 6 5 10
f 10 9 14
f 14 13 18
f 18 17 22
f 22 21 26
f 26 25 30
f 30 29 34
f 34 33 38
f 38 37 42
f 42 41 46
f 46 45 50
f 50 49 54
f 54 53 58
f 58 57 66
f 254 119 255
f 255 119 120
f 333 334 351
f 333 316 334
f 333 315 316
f 316 315 298
f 299 298 284
f 285 284 267
f 268 267 255
f 268 285 267
f 268 286 285
f 285 286 300
f 299 300 317
f 316 317 334
f 316 299 317
f 316 298 299
f 315 297 298
f 298 297 283
f 284 283 266
f 267 266 255
f 267 284 266
f 297 282 283
f 283 282 265
f 266 265 254
f 255 266 254
f 282 264 265
f 265 264 254
f 286 301 300
f 300 301 318
f 317 318 335
f 334 335 351
f 334 317 335
f 301 319 318
f 318 319 336
f 335 336 352
f 351 335 352
f 319 337 336
f 336 337 352
f 318 336 335
f 300 318 317
f 284 298 283
f 285 300 299
f 284 285 299
f 266 283 265
f 349 351 350
f 350 351 352
f 274 276 259
f 274 289 276
f 276 289 291
f 292 291 310
f 311 310 329
f 323 329 341
f 323 311 329
f 323 308 311
f 311 308 293
f 292 293 277
f 276 277 259
f 276 292 277
f 276 291 292
f 289 307 291
f 291 307 309
f 310 309 328
f 329 328 344
f 341 344 350
f 341 329 344
f 307 322 309
f 309 322 327
f 328 327 343
f 344 343 350
f 344 328 343
f 322 340 327
f 327 340 342
f 343 342 349
f 350 343 349
f 340 349 342
f 308 290 293
f 293 290 278
f 277 278 259
f 277 293 278
f 290 275 278
f 278 275 259
f 259 275 260
f 311 293 292
f 310 311 292
f 309 310 291
f 327 328 309
f 328 329 310
f 342 343 327
f 258 257 256
f 248 256 245
f 239 245 236
f 231 236 228
f 225 228 222
f 219 222 216
f 213 216 211
f 215 211 217
f 221 217 223
f 227 223 229
f 233 229 237
f 241 237 246
f 250 246 260
f 250 241 246
f 238 245 247
f 238 236 245
f 238 230 236
f 236 230 228
f 228 230 224
f 222 224 218
f 216 218 212
f 211 212 214
f 217 214 220
f 223 220 226
f 229 226 232
f 237 232 240
f 246 240 249
f 260 249 259
f 260 246 249
f 228 224 222
f 222 218 216
f 216 212 211
f 211 214 217
f 217 220 223
f 223 226 229
f 229 232 237
f 237 240 246
f 241 233 237
f 233 227 229
f 227 221 223
f 221 215 217
f 215 213 211
f 213 219 216
f 219 225 222
f 225 231 228
f 231 239 236
f 239 248 245
f 248 258 256
f 247 245 256
f 257 247 256
f 338 330 347
f 338 320 330
f 330 320 312
f 313 312 295
f 296 295 281
f 288 281 273
f 288 296 281
f 288 306 296
f 296 306 314
f 313 314 331
f 330 331 347
f 330 313 331
f 330 312 313
f 320 305 312
f 312 305 294
f 295 294 280
f 281 280 263
f 273 263 258
f 273 281 263
f 305 287 294
f 294 287 279
f 280 279 262
f 263 262 258
f 263 280 262
f 287 272 279
f 279 272 261
f 262 261 257
f 258 262 257
f 272 257 261
f 306 321 314
f 314 321 332
f 331 332 347
f 331 314 332
f 321 339 332
f 332 339 347
f 347 339 348
f 296 314 313
f 295 296 313
f 294 295 312
f 279 280 294
f 280 281 295
f 261 262 279
f 345 347 346
f 346 347 348
f 235 234 243
f 244 243 253
f 244 235 243
f 251 252 242
f 251 270 252
f 251 269 270
f 270 269 303
f 304 303 326
f 304 270 303
f 304 271 270
f 270 271 252
f 252 271 253
f 243 252 253
f 243 242 252
f 243 234 242
f 269 302 303
f 303 302 325
f 326 325 346
f 326 303 325
f 302 324 325
f 325 324 345
f 346 325 345
f 209 234 210
f 210 234 235
f 193 192 195
f 196 195 199
f 196 193 195
f 197 198 194
f 197 201 198
f 197 200 201
f 201 200 204
f 205 204 208
f 205 201 204
f 205 202 201
f 201 202 198
f 198 202 199
f 195 198 199
f 195 194 198
f 195 192 194
f 200 203 204
f 204 203 207
f 208 207 210
f 208 204 207
f 203 206 207
f 207 206 209
f 210 207 209
f 190 192 191
f 191 192 193
f 170 169 172
f 173 172 180
f 173 170 172
f 178 179 171
f 178 182 179
f 178 181 182
f 182 181 185
f 186 185 189
f 186 182 185
f 186 183 182
f 182 183 179
f 179 183 180
f 172 179 180
f 172 171 179
f 172 169 171
f 181 184 185
f 185 184 188
f 189 188 191
f 189 185 188
f 184 187 188
f 188 187 190
f 191 188 190
f 109 169 110
f 110 169 170
f 176 167 174
f 174 167 165
f 153 161 192
f 145 192 137
f 145 153 192
f 149 194 157
f 149 197 194
f 149 141 197
f 197 141 200
f 200 141 133
f 203 133 119
f 206 119 220
f 214 206 220
f 214 212 206
f 206 212 218
f 209 218 224
f 230 209 224
f 230 238 209
f 209 238 247
f 347 247 338
f 347 209 247
f 347 345 209
f 209 345 324
f 302 209 324
f 302 234 209
f 302 269 234
f 234 269 251
f 242 234 251
f 133 125 119
f 119 125 35
f 39 119 35
f 39 43 119
f 119 43 47
f 51 119 47
f 51 55 119
f 119 55 59
f 67 119 59
f 115 27 125
f 115 23 27
f 115 19 23
f 115 15 19
f 115 105 15
f 15 105 11
f 11 105 7
f 7 105 97
f 89 7 97
f 89 3 7
f 89 81 3
f 3 81 73
f 61 3 73
f 61 1 3
f 61 69 1
f 1 69 77
f 85 1 77
f 85 5 1
f 85 93 5
f 5 93 101
f 9 101 13
f 9 5 101
f 101 111 13
f 13 111 17
f 17 111 21
f 21 111 25
f 25 111 121
f 29 121 33
f 29 25 121
f 129 190 121
f 129 192 190
f 129 137 192
f 109 190 169
f 109 121 190
f 109 33 121
f 109 37 33
f 109 41 37
f 109 45 41
f 109 49 45
f 109 53 49
f 109 57 53
f 109 65 57
f 27 31 125
f 125 31 35
f 254 232 119
f 254 240 232
f 254 249 240
f 254 351 249
f 254 333 351
f 254 315 333
f 254 297 315
f 254 282 297
f 254 264 282
f 351 349 249
f 249 349 340
f 322 249 340
f 322 307 249
f 249 307 259
f 259 307 289
f 274 259 289
f 232 226 119
f 119 226 220
f 206 218 209
f 257 305 247
f 257 287 305
f 257 272 287
f 305 320 247
f 247 320 338
f 206 203 119
f 203 200 133
f 194 192 157
f 157 192 161
f 190 187 169
f 169 187 184
f 181 169 184
f 181 178 169
f 169 178 171
