v -0.500000 -0.083333 0.015625
v -0.500000 -0.083333 -0.088542
v -0.500000 0.083333 -0.088542
v -0.500000 0.083333 0.015625
v -0.489547 -0.085424 -0.088542
v -0.489547 -0.085424 -0.067708
v -0.450000 -0.093333 0.015625
v -0.450000 -0.093333 -0.026042
v -0.450000 0.093333 -0.026042
v -0.450000 0.093333 0.015625
v -0.424341 -0.098465 -0.088542
v -0.424341 -0.098465 -0.067708
v -0.328992 -0.117535 -0.067708
v -0.328992 -0.117535 -0.088542
v -0.317279 0.119878 -0.088542
v -0.317279 0.119878 -0.067708
v -0.291667 -0.125000 -0.026042
v -0.291667 -0.125000 -0.067708
v -0.291667 0.125000 -0.067708
v -0.291667 0.125000 -0.026042
v -0.287500 0.080540 -0.026042
v -0.287500 0.122207 -0.067708
v -0.287500 0.125000 -0.067708
v -0.287500 0.125000 -0.026042
v -0.270833 -0.192694 0.035255
v -0.270833 -0.192653 0.038864
v -0.270833 -0.192486 0.031653
v -0.270833 -0.192361 0.042461
v -0.270833 -0.192029 0.028073
v -0.270833 -0.191822 0.046029
v -0.270833 -0.191325 0.024534
v -0.270833 -0.191036 0.049551
v -0.270833 -0.190378 0.021052
v -0.270833 -0.190008 0.053010
v -0.270833 -0.189191 0.017644
v -0.270833 -0.188744 0.056390
v -0.270833 -0.187772 0.014326
v -0.270833 -0.187248 0.059674
v -0.270833 -0.186126 0.011114
v -0.270833 -0.185529 0.062847
v -0.270833 -0.184262 0.008024
v -0.270833 -0.183594 0.065893
v -0.270833 -0.182188 0.005071
v -0.270833 -0.181452 0.068797
v -0.270833 -0.179915 0.002268
v -0.270833 -0.179115 0.071547
v -0.270833 -0.177453 -0.000370
v -0.270833 -0.176593 0.074128
v -0.270833 -0.173898 0.076528
v -0.270833 -0.171044 0.078736
v -0.270833 -0.168043 0.080740
v -0.270833 -0.166667 0.036458
v -0.270833 -0.166603 0.034642
v -0.270833 -0.166603 0.038275
v -0.270833 -0.166413 0.032834
v -0.270833 -0.166413 0.040083
v -0.270833 -0.166098 0.031044
v -0.270833 -0.166098 0.041873
v -0.270833 -0.165658 0.029280
v -0.270833 -0.165658 0.043636
v -0.270833 -0.165096 0.027552
v -0.270833 -0.165096 0.045365
v -0.270833 -0.164911 0.082533
v -0.270833 -0.164415 0.025866
v -0.270833 -0.164415 0.047050
v -0.270833 -0.163618 0.024233
v -0.270833 -0.163618 0.048684
v -0.270833 -0.162710 0.022658
v -0.270833 -0.162710 0.050258
v -0.270833 -0.161693 0.021151
v -0.270833 -0.161693 0.051765
v -0.270833 -0.161663 0.084104
v -0.270833 -0.160574 0.019719
v -0.270833 -0.160574 0.053198
v -0.270833 -0.159358 0.054548
v -0.270833 -0.159358 0.018368
v -0.270833 -0.158313 0.085446
v -0.270833 -0.158050 0.055811
v -0.270833 -0.158050 0.017106
v -0.270833 -0.156658 0.056979
v -0.270833 -0.156658 0.015937
v -0.270833 -0.155187 0.058048
v -0.270833 -0.155187 0.014869
v -0.270833 -0.154878 0.086553
v -0.270833 -0.153646 0.059011
v -0.270833 -0.153646 0.013906
v -0.270833 -0.152041 0.013052
v -0.270833 -0.152041 0.059864
v -0.270833 -0.151375 0.087420
v -0.270833 -0.150380 0.060604
v -0.270833 -0.150380 0.012313
v -0.270833 -0.148672 0.011691
v -0.270833 -0.148672 0.061225
v -0.270833 -0.147821 0.088042
v -0.270833 -0.146925 0.061726
v -0.270833 -0.146925 0.011190
v -0.270833 -0.145147 0.062104
v -0.270833 -0.145147 0.010812
v -0.270833 -0.144231 0.088417
v -0.270833 -0.143347 0.062357
v -0.270833 -0.143347 0.010559
v -0.270833 -0.141534 0.010433
v -0.270833 -0.141534 0.062484
v -0.270833 -0.140625 0.088542
v -0.270833 -0.139716 0.062484
v -0.270833 -0.139716 0.010433
v -0.270833 -0.137903 0.062357
v -0.270833 -0.137903 0.010559
v -0.270833 -0.136103 0.062104
v -0.270833 -0.136103 0.010812
v -0.270833 -0.134325 0.061726
v -0.270833 -0.134325 0.011190
v -0.270833 -0.132578 0.011691
v -0.270833 -0.132578 0.061225
v -0.270833 -0.130870 0.012313
v -0.270833 -0.130870 0.060604
v -0.270833 -0.129209 0.059864
v -0.270833 -0.129209 0.013052
v -0.270833 -0.127604 0.059011
v -0.270833 -0.127604 0.013906
v -0.270833 -0.126063 0.058048
v -0.270833 -0.126063 0.014869
v -0.270833 -0.125000 -0.052824
v -0.270833 -0.125000 -0.026042
v -0.270833 -0.124592 0.056979
v -0.270833 -0.124592 0.015937
v -0.270833 -0.123200 0.055811
v -0.270833 -0.123200 0.017106
v -0.270833 -0.121892 0.054548
v -0.270833 -0.121892 0.018368
v -0.270833 -0.120676 0.019719
v -0.270833 -0.120676 0.053198
v -0.270833 -0.119557 0.021151
v -0.270833 -0.119557 0.051765
v -0.270833 -0.118540 0.050258
v -0.270833 -0.118540 0.022658
v -0.270833 -0.117632 0.048684
v -0.270833 -0.117632 0.024233
v -0.270833 -0.116835 0.025866
v -0.270833 -0.116835 0.047050
v -0.270833 -0.116154 0.027552
v -0.270833 -0.116154 0.045365
v -0.270833 -0.115592 0.043636
v -0.270833 -0.115592 0.029280
v -0.270833 -0.115152 0.031044
v -0.270833 -0.115152 0.041873
v -0.270833 -0.114837 0.032834
v -0.270833 -0.114837 0.040083
v -0.270833 -0.114647 0.034642
v -0.270833 -0.114647 0.038275
v -0.270833 -0.114583 0.036458
v -0.270833 -0.010224 0.088542
v -0.270833 -0.010224 -0.026042
v -0.259107 -0.125000 -0.088542
v -0.259107 -0.125000 -0.067708
v -0.239175 0.122207 -0.067708
v -0.236832 0.125000 -0.088542
v -0.236832 0.125000 -0.070501
v -0.197917 -0.192694 0.035255
v -0.197917 -0.192653 0.038864
v -0.197917 -0.192486 0.031653
v -0.197917 -0.192361 0.042461
v -0.197917 -0.192029 0.028073
v -0.197917 -0.191822 0.046029
v -0.197917 -0.191325 0.024534
v -0.197917 -0.191036 0.049551
v -0.197917 -0.190378 0.021052
v -0.197917 -0.190008 0.053010
v -0.197917 -0.189191 0.017644
v -0.197917 -0.188744 0.056390
v -0.197917 -0.187772 0.014326
v -0.197917 -0.187248 0.059674
v -0.197917 -0.186126 0.011114
v -0.197917 -0.185529 0.062847
v -0.197917 -0.184262 0.008024
v -0.197917 -0.183594 0.065893
v -0.197917 -0.182188 0.005071
v -0.197917 -0.181452 0.068797
v -0.197917 -0.179915 0.002268
v -0.197917 -0.179115 0.071547
v -0.197917 -0.177453 -0.000370
v -0.197917 -0.176593 0.074128
v -0.197917 -0.173898 0.076528
v -0.197917 -0.171044 0.078736
v -0.197917 -0.168043 0.080740
v -0.197917 -0.166667 0.036458
v -0.197917 -0.166603 0.034642
v -0.197917 -0.166603 0.038275
v -0.197917 -0.166413 0.032834
v -0.197917 -0.166413 0.040083
v -0.197917 -0.166098 0.031044
v -0.197917 -0.166098 0.041873
v -0.197917 -0.165658 0.029280
v -0.197917 -0.165658 0.043636
v -0.197917 -0.165096 0.027552
v -0.197917 -0.165096 0.045365
v -0.197917 -0.164911 0.082533
v -0.197917 -0.164415 0.025866
v -0.197917 -0.164415 0.047050
v -0.197917 -0.163618 0.024233
v -0.197917 -0.163618 0.048684
v -0.197917 -0.162710 0.022658
v -0.197917 -0.162710 0.050258
v -0.197917 -0.161693 0.021151
v -0.197917 -0.161693 0.051765
v -0.197917 -0.161663 0.084104
v -0.197917 -0.160574 0.019719
v -0.197917 -0.160574 0.053198
v -0.197917 -0.159358 0.054548
v -0.197917 -0.159358 0.018368
v -0.197917 -0.158313 0.085446
v -0.197917 -0.158050 0.055811
v -0.197917 -0.158050 0.017106
v -0.197917 -0.156658 0.056979
v -0.197917 -0.156658 0.015937
v -0.197917 -0.155187 0.058048
v -0.197917 -0.155187 0.014869
v -0.197917 -0.154878 0.086553
v -0.197917 -0.153646 0.059011
v -0.197917 -0.153646 0.013906
v -0.197917 -0.152041 0.013052
v -0.197917 -0.152041 0.059864
v -0.197917 -0.151375 0.087420
v -0.197917 -0.150380 0.060604
v -0.197917 -0.150380 0.012313
v -0.197917 -0.148672 0.011691
v -0.197917 -0.148672 0.061225
v -0.197917 -0.147821 0.088042
v -0.197917 -0.146925 0.061726
v -0.197917 -0.146925 0.011190
v -0.197917 -0.145147 0.062104
v -0.197917 -0.145147 0.010812
v -0.197917 -0.144231 0.088417
v -0.197917 -0.143347 0.062357
v -0.197917 -0.143347 0.010559
v -0.197917 -0.141534 0.010433
v -0.197917 -0.141534 0.062484
v -0.197917 -0.140625 0.088542
v -0.197917 -0.139716 0.062484
v -0.197917 -0.139716 0.010433
v -0.197917 -0.137903 0.062357
v -0.197917 -0.137903 0.010559
v -0.197917 -0.136103 0.062104
v -0.197917 -0.136103 0.010812
v -0.197917 -0.134325 0.061726
v -0.197917 -0.134325 0.011190
v -0.197917 -0.132578 0.011691
v -0.197917 -0.132578 0.061225
v -0.197917 -0.130870 0.012313
v -0.197917 -0.130870 0.060604
v -0.197917 -0.129209 0.059864
v -0.197917 -0.129209 0.013052
v -0.197917 -0.127604 0.059011
v -0.197917 -0.127604 0.013906
v -0.197917 -0.126063 0.058048
v -0.197917 -0.126063 0.014869
v -0.197917 -0.125000 -0.052824
v -0.197917 -0.125000 -0.070501
v -0.197917 -0.124592 0.056979
v -0.197917 -0.124592 0.015937
v -0.197917 -0.123200 0.055811
v -0.197917 -0.123200 0.017106
v -0.197917 -0.121892 0.054548
v -0.197917 -0.121892 0.018368
v -0.197917 -0.120676 0.019719
v -0.197917 -0.120676 0.053198
v -0.197917 -0.119557 0.021151
v -0.197917 -0.119557 0.051765
v -0.197917 -0.118540 0.050258
v -0.197917 -0.118540 0.022658
v -0.197917 -0.117632 0.048684
v -0.197917 -0.117632 0.024233
v -0.197917 -0.116835 0.025866
v -0.197917 -0.116835 0.047050
v -0.197917 -0.116154 0.027552
v -0.197917 -0.116154 0.045365
v -0.197917 -0.115592 0.043636
v -0.197917 -0.115592 0.029280
v -0.197917 -0.115152 0.031044
v -0.197917 -0.115152 0.041873
v -0.197917 -0.114837 0.032834
v -0.197917 -0.114837 0.040083
v -0.197917 -0.114647 0.034642
v -0.197917 -0.114647 0.038275
v -0.197917 -0.114583 0.036458
v -0.197917 -0.080540 -0.026042
v -0.197917 -0.040294 0.088542
v -0.197917 -0.040294 -0.026042
v -0.183333 0.040294 0.088542
v -0.183333 0.040294 -0.026042
v -0.183333 0.080540 -0.026042
v -0.183333 0.114583 0.036458
v -0.183333 0.114647 0.034642
v -0.183333 0.114647 0.038275
v -0.183333 0.114837 0.032834
v -0.183333 0.114837 0.040083
v -0.183333 0.115152 0.031044
v -0.183333 0.115152 0.041873
v -0.183333 0.115592 0.029280
v -0.183333 0.115592 0.043636
v -0.183333 0.116154 0.027552
v -0.183333 0.116154 0.045365
v -0.183333 0.116835 0.025866
v -0.183333 0.116835 0.047050
v -0.183333 0.117632 0.024233
v -0.183333 0.117632 0.048684
v -0.183333 0.118540 0.022658
v -0.183333 0.118540 0.050258
v -0.183333 0.119557 0.021151
v -0.183333 0.119557 0.051765
v -0.183333 0.120676 0.019719
v -0.183333 0.120676 0.053198
v -0.183333 0.121892 0.018368
v -0.183333 0.121892 0.054548
v -0.183333 0.123200 0.017106
v -0.183333 0.123200 0.055811
v -0.183333 0.124592 0.015937
v -0.183333 0.124592 0.056979
v -0.183333 0.125000 -0.070501
v -0.183333 0.125000 -0.052824
v -0.183333 0.126063 0.014869
v -0.183333 0.126063 0.058048
v -0.183333 0.127604 0.013906
v -0.183333 0.127604 0.059011
v -0.183333 0.129209 0.013052
v -0.183333 0.129209 0.059864
v -0.183333 0.130870 0.012313
v -0.183333 0.130870 0.060604
v -0.183333 0.132578 0.011691
v -0.183333 0.132578 0.061225
v -0.183333 0.134325 0.011190
v -0.183333 0.134325 0.061726
v -0.183333 0.136103 0.010812
v -0.183333 0.136103 0.062104
v -0.183333 0.137903 0.010559
v -0.183333 0.137903 0.062357
v -0.183333 0.139716 0.010433
v -0.183333 0.139716 0.062484
v -0.183333 0.140625 0.088542
v -0.183333 0.141534 0.010433
v -0.183333 0.141534 0.062484
v -0.183333 0.143347 0.010559
v -0.183333 0.143347 0.062357
v -0.183333 0.144231 0.088417
v -0.183333 0.145147 0.010812
v -0.183333 0.145147 0.062104
v -0.183333 0.146925 0.011190
v -0.183333 0.146925 0.061726
v -0.183333 0.147821 0.088042
v -0.183333 0.148672 0.011691
v -0.183333 0.148672 0.061225
v -0.183333 0.150380 0.012313
v -0.183333 0.150380 0.060604
v -0.183333 0.151375 0.087420
v -0.183333 0.152041 0.013052
v -0.183333 0.152041 0.059864
v -0.183333 0.153646 0.013906
v -0.183333 0.153646 0.059011
v -0.183333 0.154878 0.086553
v -0.183333 0.155187 0.014869
v -0.183333 0.155187 0.058048
v -0.183333 0.156658 0.015937
v -0.183333 0.156658 0.056979
v -0.183333 0.158050 0.017106
v -0.183333 0.158050 0.055811
v -0.183333 0.158313 0.085446
v -0.183333 0.159358 0.018368
v -0.183333 0.159358 0.054548
v -0.183333 0.160574 0.019719
v -0.183333 0.160574 0.053198
v -0.183333 0.161663 0.084104
v -0.183333 0.161693 0.021151
v -0.183333 0.161693 0.051765
v -0.183333 0.162710 0.022658
v -0.183333 0.162710 0.050258
v -0.183333 0.163618 0.024233
v -0.183333 0.163618 0.048684
v -0.183333 0.164415 0.025866
v -0.183333 0.164415 0.047050
v -0.183333 0.164911 0.082533
v -0.183333 0.165096 0.027552
v -0.183333 0.165096 0.045365
v -0.183333 0.165658 0.029280
v -0.183333 0.165658 0.043636
v -0.183333 0.166098 0.031044
v -0.183333 0.166098 0.041873
v -0.183333 0.166413 0.032834
v -0.183333 0.166413 0.040083
v -0.183333 0.166603 0.034642
v -0.183333 0.166603 0.038275
v -0.183333 0.166667 0.036458
v -0.183333 0.168043 0.080740
v -0.183333 0.171044 0.078736
v -0.183333 0.173898 0.076528
v -0.183333 0.176593 0.074128
v -0.183333 0.177453 -0.000370
v -0.183333 0.179115 0.071547
v -0.183333 0.179915 0.002268
v -0.183333 0.181452 0.068797
v -0.183333 0.182188 0.005071
v -0.183333 0.183594 0.065893
v -0.183333 0.184262 0.008024
v -0.183333 0.185529 0.062847
v -0.183333 0.186126 0.011114
v -0.183333 0.187248 0.059674
v -0.183333 0.187772 0.014326
v -0.183333 0.188744 0.056390
v -0.183333 0.189191 0.017644
v -0.183333 0.190008 0.053010
v -0.183333 0.190378 0.021052
v -0.183333 0.191036 0.049551
v -0.183333 0.191325 0.024534
v -0.183333 0.191822 0.046029
v -0.183333 0.192029 0.028073
v -0.183333 0.192361 0.042461
v -0.183333 0.192486 0.031653
v -0.183333 0.192653 0.038864
v -0.183333 0.192694 0.035255
v -0.147756 -0.125000 -0.088542
v -0.147756 -0.125000 -0.070501
v -0.145412 -0.122207 -0.067708
v -0.125481 0.125000 -0.088542
v -0.125481 0.125000 -0.067708
v -0.110417 0.010224 0.088542
v -0.110417 0.010224 -0.026042
v -0.110417 0.114583 0.036458
v -0.110417 0.114647 0.034642
v -0.110417 0.114647 0.038275
v -0.110417 0.114837 0.032834
v -0.110417 0.114837 0.040083
v -0.110417 0.115152 0.031044
v -0.110417 0.115152 0.041873
v -0.110417 0.115592 0.029280
v -0.110417 0.115592 0.043636
v -0.110417 0.116154 0.027552
v -0.110417 0.116154 0.045365
v -0.110417 0.116835 0.025866
v -0.110417 0.116835 0.047050
v -0.110417 0.117632 0.024233
v -0.110417 0.117632 0.048684
v -0.110417 0.118540 0.022658
v -0.110417 0.118540 0.050258
v -0.110417 0.119557 0.021151
v -0.110417 0.119557 0.051765
v -0.110417 0.120676 0.019719
v -0.110417 0.120676 0.053198
v -0.110417 0.121892 0.018368
v -0.110417 0.121892 0.054548
v -0.110417 0.123200 0.017106
v -0.110417 0.123200 0.055811
v -0.110417 0.124592 0.015937
v -0.110417 0.124592 0.056979
v -0.110417 0.125000 -0.052824
v -0.110417 0.125000 -0.026042
v -0.110417 0.126063 0.014869
v -0.110417 0.126063 0.058048
v -0.110417 0.127604 0.013906
v -0.110417 0.127604 0.059011
v -0.110417 0.129209 0.013052
v -0.110417 0.129209 0.059864
v -0.110417 0.130870 0.012313
v -0.110417 0.130870 0.060604
v -0.110417 0.132578 0.011691
v -0.110417 0.132578 0.061225
v -0.110417 0.134325 0.011190
v -0.110417 0.134325 0.061726
v -0.110417 0.136103 0.010812
v -0.110417 0.136103 0.062104
v -0.110417 0.137903 0.010559
v -0.110417 0.137903 0.062357
v -0.110417 0.139716 0.010433
v -0.110417 0.139716 0.062484
v -0.110417 0.140625 0.088542
v -0.110417 0.141534 0.010433
v -0.110417 0.141534 0.062484
v -0.110417 0.143347 0.010559
v -0.110417 0.143347 0.062357
v -0.110417 0.144231 0.088417
v -0.110417 0.145147 0.010812
v -0.110417 0.145147 0.062104
v -0.110417 0.146925 0.011190
v -0.110417 0.146925 0.061726
v -0.110417 0.147821 0.088042
v -0.110417 0.148672 0.011691
v -0.110417 0.148672 0.061225
v -0.110417 0.150380 0.012313
v -0.110417 0.150380 0.060604
v -0.110417 0.151375 0.087420
v -0.110417 0.152041 0.013052
v -0.110417 0.152041 0.059864
v -0.110417 0.153646 0.013906
v -0.110417 0.153646 0.059011
v -0.110417 0.154878 0.086553
v -0.110417 0.155187 0.014869
v -0.110417 0.155187 0.058048
v -0.110417 0.156658 0.015937
v -0.110417 0.156658 0.056979
v -0.110417 0.158050 0.017106
v -0.110417 0.158050 0.055811
v -0.110417 0.158313 0.085446
v -0.110417 0.159358 0.018368
v -0.110417 0.159358 0.054548
v -0.110417 0.160574 0.019719
v -0.110417 0.160574 0.053198
v -0.110417 0.161663 0.084104
v -0.110417 0.161693 0.021151
v -0.110417 0.161693 0.051765
v -0.110417 0.162710 0.022658
v -0.110417 0.162710 0.050258
v -0.110417 0.163618 0.024233
v -0.110417 0.163618 0.048684
v -0.110417 0.164415 0.025866
v -0.110417 0.164415 0.047050
v -0.110417 0.164911 0.082533
v -0.110417 0.165096 0.027552
v -0.110417 0.165096 0.045365
v -0.110417 0.165658 0.029280
v -0.110417 0.165658 0.043636
v -0.110417 0.166098 0.031044
v -0.110417 0.166098 0.041873
v -0.110417 0.166413 0.032834
v -0.110417 0.166413 0.040083
v -0.110417 0.166603 0.034642
v -0.110417 0.166603 0.038275
v -0.110417 0.166667 0.036458
v -0.110417 0.168043 0.080740
v -0.110417 0.171044 0.078736
v -0.110417 0.173898 0.076528
v -0.110417 0.176593 0.074128
v -0.110417 0.177453 -0.000370
v -0.110417 0.179115 0.071547
v -0.110417 0.179915 0.002268
v -0.110417 0.181452 0.068797
v -0.110417 0.182188 0.005071
v -0.110417 0.183594 0.065893
v -0.110417 0.184262 0.008024
v -0.110417 0.185529 0.062847
v -0.110417 0.186126 0.011114
v -0.110417 0.187248 0.059674
v -0.110417 0.187772 0.014326
v -0.110417 0.188744 0.056390
v -0.110417 0.189191 0.017644
v -0.110417 0.190008 0.053010
v -0.110417 0.190378 0.021052
v -0.110417 0.191036 0.049551
v -0.110417 0.191325 0.024534
v -0.110417 0.191822 0.046029
v -0.110417 0.192029 0.028073
v -0.110417 0.192361 0.042461
v -0.110417 0.192486 0.031653
v -0.110417 0.192653 0.038864
v -0.110417 0.192694 0.035255
v -0.093750 -0.125000 -0.026042
v -0.093750 -0.125000 -0.067708
v -0.093750 -0.122207 -0.067708
v -0.093750 -0.080540 -0.026042
v -0.071607 -0.125000 -0.088542
v -0.071607 -0.125000 -0.067708
v -0.049332 0.125000 -0.088542
v -0.049332 0.125000 -0.067708
v -0.000000 -0.039662 -0.067708
v -0.000000 0.051088 -0.067708
v 0.000000 -0.039662 -0.088542
v 0.000000 0.051088 -0.088542
v 0.049332 0.125000 -0.088542
v 0.049332 0.125000 -0.067708
v 0.071607 -0.125000 -0.088542
v 0.071607 -0.125000 -0.067708
v 0.093750 -0.125000 -0.026042
v 0.093750 -0.125000 -0.067708
v 0.093750 -0.122207 -0.067708
v 0.093750 -0.080540 -0.026042
v 0.110417 0.010224 0.088542
v 0.110417 0.010224 -0.026042
v 0.110417 0.114583 0.036458
v 0.110417 0.114647 0.034642
v 0.110417 0.114647 0.038275
v 0.110417 0.114837 0.032834
v 0.110417 0.114837 0.040083
v 0.110417 0.115152 0.031044
v 0.110417 0.115152 0.041873
v 0.110417 0.115592 0.029280
v 0.110417 0.115592 0.043636
v 0.110417 0.116154 0.027552
v 0.110417 0.116154 0.045365
v 0.110417 0.116835 0.025866
v 0.110417 0.116835 0.047050
v 0.110417 0.117632 0.024233
v 0.110417 0.117632 0.048684
v 0.110417 0.118540 0.022658
v 0.110417 0.118540 0.050258
v 0.110417 0.119557 0.021151
v 0.110417 0.119557 0.051765
v 0.110417 0.120676 0.019719
v 0.110417 0.120676 0.053198
v 0.110417 0.121892 0.018368
v 0.110417 0.121892 0.054548
v 0.110417 0.123200 0.017106
v 0.110417 0.123200 0.055811
v 0.110417 0.124592 0.015937
v 0.110417 0.124592 0.056979
v 0.110417 0.125000 -0.052824
v 0.110417 0.125000 -0.026042
v 0.110417 0.126063 0.014869
v 0.110417 0.126063 0.058048
v 0.110417 0.127604 0.013906
v 0.110417 0.127604 0.059011
v 0.110417 0.129209 0.013052
v 0.110417 0.129209 0.059864
v 0.110417 0.130870 0.012313
v 0.110417 0.130870 0.060604
v 0.110417 0.132578 0.011691
v 0.110417 0.132578 0.061225
v 0.110417 0.134325 0.011190
v 0.110417 0.134325 0.061726
v 0.110417 0.136103 0.010812
v 0.110417 0.136103 0.062104
v 0.110417 0.137903 0.010559
v 0.110417 0.137903 0.062357
v 0.110417 0.139716 0.010433
v 0.110417 0.139716 0.062484
v 0.110417 0.140625 0.088542
v 0.110417 0.141534 0.010433
v 0.110417 0.141534 0.062484
v 0.110417 0.143347 0.010559
v 0.110417 0.143347 0.062357
v 0.110417 0.144231 0.088417
v 0.110417 0.145147 0.010812
v 0.110417 0.145147 0.062104
v 0.110417 0.146925 0.011190
v 0.110417 0.146925 0.061726
v 0.110417 0.147821 0.088042
v 0.110417 0.148672 0.011691
v 0.110417 0.148672 0.061225
v 0.110417 0.150380 0.012313
v 0.110417 0.150380 0.060604
v 0.110417 0.151375 0.087420
v 0.110417 0.152041 0.013052
v 0.110417 0.152041 0.059864
v 0.110417 0.153646 0.013906
v 0.110417 0.153646 0.059011
v 0.110417 0.154878 0.086553
v 0.110417 0.155187 0.014869
v 0.110417 0.155187 0.058048
v 0.110417 0.156658 0.015937
v 0.110417 0.156658 0.056979
v 0.110417 0.158050 0.017106
v 0.110417 0.158050 0.055811
v 0.110417 0.158313 0.085446
v 0.110417 0.159358 0.018368
v 0.110417 0.159358 0.054548
v 0.110417 0.160574 0.019719
v 0.110417 0.160574 0.053198
v 0.110417 0.161663 0.084104
v 0.110417 0.161693 0.021151
v 0.110417 0.161693 0.051765
v 0.110417 0.162710 0.022658
v 0.110417 0.162710 0.050258
v 0.110417 0.163618 0.024233
v 0.110417 0.163618 0.048684
v 0.110417 0.164415 0.025866
v 0.110417 0.164415 0.047050
v 0.110417 0.164911 0.082533
v 0.110417 0.165096 0.027552
v 0.110417 0.165096 0.045365
v 0.110417 0.165658 0.029280
v 0.110417 0.165658 0.043636
v 0.110417 0.166098 0.031044
v 0.110417 0.166098 0.041873
v 0.110417 0.166413 0.032834
v 0.110417 0.166413 0.040083
v 0.110417 0.166603 0.034642
v 0.110417 0.166603 0.038275
v 0.110417 0.166667 0.036458
v 0.110417 0.168043 0.080740
v 0.110417 0.171044 0.078736
v 0.110417 0.173898 0.076528
v 0.110417 0.176593 0.074128
v 0.110417 0.177453 -0.000370
v 0.110417 0.179115 0.071547
v 0.110417 0.179915 0.002268
v 0.110417 0.181452 0.068797
v 0.110417 0.182188 0.005071
v 0.110417 0.183594 0.065893
v 0.110417 0.184262 0.008024
v 0.110417 0.185529 0.062847
v 0.110417 0.186126 0.011114
v 0.110417 0.187248 0.059674
v 0.110417 0.187772 0.014326
v 0.110417 0.188744 0.056390
v 0.110417 0.189191 0.017644
v 0.110417 0.190008 0.053010
v 0.110417 0.190378 0.021052
v 0.110417 0.191036 0.049551
v 0.110417 0.191325 0.024534
v 0.110417 0.191822 0.046029
v 0.110417 0.192029 0.028073
v 0.110417 0.192361 0.042461
v 0.110417 0.192486 0.031653
v 0.110417 0.192653 0.038864
v 0.110417 0.192694 0.035255
v 0.125481 0.125000 -0.088542
v 0.125481 0.125000 -0.067708
v 0.145412 -0.122207 -0.067708
v 0.147756 -0.125000 -0.088542
v 0.147756 -0.125000 -0.070501
v 0.183333 0.040294 0.088542
v 0.183333 0.040294 -0.026042
v 0.183333 0.080540 -0.026042
v 0.183333 0.114583 0.036458
v 0.183333 0.114647 0.034642
v 0.183333 0.114647 0.038275
v 0.183333 0.114837 0.032834
v 0.183333 0.114837 0.040083
v 0.183333 0.115152 0.031044
v 0.183333 0.115152 0.041873
v 0.183333 0.115592 0.029280
v 0.183333 0.115592 0.043636
v 0.183333 0.116154 0.027552
v 0.183333 0.116154 0.045365
v 0.183333 0.116835 0.025866
v 0.183333 0.116835 0.047050
v 0.183333 0.117632 0.024233
v 0.183333 0.117632 0.048684
v 0.183333 0.118540 0.022658
v 0.183333 0.118540 0.050258
v 0.183333 0.119557 0.021151
v 0.183333 0.119557 0.051765
v 0.183333 0.120676 0.019719
v 0.183333 0.120676 0.053198
v 0.183333 0.121892 0.018368
v 0.183333 0.121892 0.054548
v 0.183333 0.123200 0.017106
v 0.183333 0.123200 0.055811
v 0.183333 0.124592 0.015937
v 0.183333 0.124592 0.056979
v 0.183333 0.125000 -0.070501
v 0.183333 0.125000 -0.052824
v 0.183333 0.126063 0.014869
v 0.183333 0.126063 0.058048
v 0.183333 0.127604 0.013906
v 0.183333 0.127604 0.059011
v 0.183333 0.129209 0.013052
v 0.183333 0.129209 0.059864
v 0.183333 0.130870 0.012313
v 0.183333 0.130870 0.060604
v 0.183333 0.132578 0.011691
v 0.183333 0.132578 0.061225
v 0.183333 0.134325 0.011190
v 0.183333 0.134325 0.061726
v 0.183333 0.136103 0.010812
v 0.183333 0.136103 0.062104
v 0.183333 0.137903 0.010559
v 0.183333 0.137903 0.062357
v 0.183333 0.139716 0.010433
v 0.183333 0.139716 0.062484
v 0.183333 0.140625 0.088542
v 0.183333 0.141534 0.010433
v 0.183333 0.141534 0.062484
v 0.183333 0.143347 0.010559
v 0.183333 0.143347 0.062357
v 0.183333 0.144231 0.088417
v 0.183333 0.145147 0.010812
v 0.183333 0.145147 0.062104
v 0.183333 0.146925 0.011190
v 0.183333 0.146925 0.061726
v 0.183333 0.147821 0.088042
v 0.183333 0.148672 0.011691
v 0.183333 0.148672 0.061225
v 0.183333 0.150380 0.012313
v 0.183333 0.150380 0.060604
v 0.183333 0.151375 0.087420
v 0.183333 0.152041 0.013052
v 0.183333 0.152041 0.059864
v 0.183333 0.153646 0.013906
v 0.183333 0.153646 0.059011
v 0.183333 0.154878 0.086553
v 0.183333 0.155187 0.014869
v 0.183333 0.155187 0.058048
v 0.183333 0.156658 0.015937
v 0.183333 0.156658 0.056979
v 0.183333 0.158050 0.017106
v 0.183333 0.158050 0.055811
v 0.183333 0.158313 0.085446
v 0.183333 0.159358 0.018368
v 0.183333 0.159358 0.054548
v 0.183333 0.160574 0.019719
v 0.183333 0.160574 0.053198
v 0.183333 0.161663 0.084104
v 0.183333 0.161693 0.021151
v 0.183333 0.161693 0.051765
v 0.183333 0.162710 0.022658
v 0.183333 0.162710 0.050258
v 0.183333 0.163618 0.024233
v 0.183333 0.163618 0.048684
v 0.183333 0.164415 0.025866
v 0.183333 0.164415 0.047050
v 0.183333 0.164911 0.082533
v 0.183333 0.165096 0.027552
v 0.183333 0.165096 0.045365
v 0.183333 0.165658 0.029280
v 0.183333 0.165658 0.043636
v 0.183333 0.166098 0.031044
v 0.183333 0.166098 0.041873
v 0.183333 0.166413 0.032834
v 0.183333 0.166413 0.040083
v 0.183333 0.166603 0.034642
v 0.183333 0.166603 0.038275
v 0.183333 0.166667 0.036458
v 0.183333 0.168043 0.080740
v 0.183333 0.171044 0.078736
v 0.183333 0.173898 0.076528
v 0.183333 0.176593 0.074128
v 0.183333 0.177453 -0.000370
v 0.183333 0.179115 0.071547
v 0.183333 0.179915 0.002268
v 0.183333 0.181452 0.068797
v 0.183333 0.182188 0.005071
v 0.183333 0.183594 0.065893
v 0.183333 0.184262 0.008024
v 0.183333 0.185529 0.062847
v 0.183333 0.186126 0.011114
v 0.183333 0.187248 0.059674
v 0.183333 0.187772 0.014326
v 0.183333 0.188744 0.056390
v 0.183333 0.189191 0.017644
v 0.183333 0.190008 0.053010
v 0.183333 0.190378 0.021052
v 0.183333 0.191036 0.049551
v 0.183333 0.191325 0.024534
v 0.183333 0.191822 0.046029
v 0.183333 0.192029 0.028073
v 0.183333 0.192361 0.042461
v 0.183333 0.192486 0.031653
v 0.183333 0.192653 0.038864
v 0.183333 0.192694 0.035255
v 0.197917 -0.192694 0.035255
v 0.197917 -0.192653 0.038864
v 0.197917 -0.192486 0.031653
v 0.197917 -0.192361 0.042461
v 0.197917 -0.192029 0.028073
v 0.197917 -0.191822 0.046029
v 0.197917 -0.191325 0.024534
v 0.197917 -0.191036 0.049551
v 0.197917 -0.190378 0.021052
v 0.197917 -0.190008 0.053010
v 0.197917 -0.189191 0.017644
v 0.197917 -0.188744 0.056390
v 0.197917 -0.187772 0.014326
v 0.197917 -0.187248 0.059674
v 0.197917 -0.186126 0.011114
v 0.197917 -0.185529 0.062847
v 0.197917 -0.184262 0.008024
v 0.197917 -0.183594 0.065893
v 0.197917 -0.182188 0.005071
v 0.197917 -0.181452 0.068797
v 0.197917 -0.179915 0.002268
v 0.197917 -0.179115 0.071547
v 0.197917 -0.177453 -0.000370
v 0.197917 -0.176593 0.074128
v 0.197917 -0.173898 0.076528
v 0.197917 -0.171044 0.078736
v 0.197917 -0.168043 0.080740
v 0.197917 -0.166667 0.036458
v 0.197917 -0.166603 0.034642
v 0.197917 -0.166603 0.038275
v 0.197917 -0.166413 0.032834
v 0.197917 -0.166413 0.040083
v 0.197917 -0.166098 0.031044
v 0.197917 -0.166098 0.041873
v 0.197917 -0.165658 0.029280
v 0.197917 -0.165658 0.043636
v 0.197917 -0.165096 0.027552
v 0.197917 -0.165096 0.045365
v 0.197917 -0.164911 0.082533
v 0.197917 -0.164415 0.025866
v 0.197917 -0.164415 0.047050
v 0.197917 -0.163618 0.024233
v 0.197917 -0.163618 0.048684
v 0.197917 -0.162710 0.022658
v 0.197917 -0.162710 0.050258
v 0.197917 -0.161693 0.021151
v 0.197917 -0.161693 0.051765
v 0.197917 -0.161663 0.084104
v 0.197917 -0.160574 0.019719
v 0.197917 -0.160574 0.053198
v 0.197917 -0.159358 0.054548
v 0.197917 -0.159358 0.018368
v 0.197917 -0.158313 0.085446
v 0.197917 -0.158050 0.055811
v 0.197917 -0.158050 0.017106
v 0.197917 -0.156658 0.056979
v 0.197917 -0.156658 0.015937
v 0.197917 -0.155187 0.058048
v 0.197917 -0.155187 0.014869
v 0.197917 -0.154878 0.086553
v 0.197917 -0.153646 0.059011
v 0.197917 -0.153646 0.013906
v 0.197917 -0.152041 0.013052
v 0.197917 -0.152041 0.059864
v 0.197917 -0.151375 0.087420
v 0.197917 -0.150380 0.060604
v 0.197917 -0.150380 0.012313
v 0.197917 -0.148672 0.011691
v 0.197917 -0.148672 0.061225
v 0.197917 -0.147821 0.088042
v 0.197917 -0.146925 0.061726
v 0.197917 -0.146925 0.011190
v 0.197917 -0.145147 0.062104
v 0.197917 -0.145147 0.010812
v 0.197917 -0.144231 0.088417
v 0.197917 -0.143347 0.062357
v 0.197917 -0.143347 0.010559
v 0.197917 -0.141534 0.010433
v 0.197917 -0.141534 0.062484
v 0.197917 -0.140625 0.088542
v 0.197917 -0.139716 0.062484
v 0.197917 -0.139716 0.010433
v 0.197917 -0.137903 0.062357
v 0.197917 -0.137903 0.010559
v 0.197917 -0.136103 0.062104
v 0.197917 -0.136103 0.010812
v 0.197917 -0.134325 0.061726
v 0.197917 -0.134325 0.011190
v 0.197917 -0.132578 0.011691
v 0.197917 -0.132578 0.061225
v 0.197917 -0.130870 0.012313
v 0.197917 -0.130870 0.060604
v 0.197917 -0.129209 0.059864
v 0.197917 -0.129209 0.013052
v 0.197917 -0.127604 0.059011
v 0.197917 -0.127604 0.013906
v 0.197917 -0.126063 0.058048
v 0.197917 -0.126063 0.014869
v 0.197917 -0.125000 -0.052824
v 0.197917 -0.125000 -0.070501
v 0.197917 -0.124592 0.056979
v 0.197917 -0.124592 0.015937
v 0.197917 -0.123200 0.055811
v 0.197917 -0.123200 0.017106
v 0.197917 -0.121892 0.054548
v 0.197917 -0.121892 0.018368
v 0.197917 -0.120676 0.019719
v 0.197917 -0.120676 0.053198
v 0.197917 -0.119557 0.021151
v 0.197917 -0.119557 0.051765
v 0.197917 -0.118540 0.050258
v 0.197917 -0.118540 0.022658
v 0.197917 -0.117632 0.048684
v 0.197917 -0.117632 0.024233
v 0.197917 -0.116835 0.025866
v 0.197917 -0.116835 0.047050
v 0.197917 -0.116154 0.027552
v 0.197917 -0.116154 0.045365
v 0.197917 -0.115592 0.043636
v 0.197917 -0.115592 0.029280
v 0.197917 -0.115152 0.031044
v 0.197917 -0.115152 0.041873
v 0.197917 -0.114837 0.032834
v 0.197917 -0.114837 0.040083
v 0.197917 -0.114647 0.034642
v 0.197917 -0.114647 0.038275
v 0.197917 -0.114583 0.036458
v 0.197917 -0.080540 -0.026042
v 0.197917 -0.040294 0.088542
v 0.197917 -0.040294 -0.026042
v 0.236832 0.125000 -0.088542
v 0.236832 0.125000 -0.070501
v 0.239175 0.122207 -0.067708
v 0.259107 -0.125000 -0.088542
v 0.259107 -0.125000 -0.067708
v 0.270833 -0.192694 0.035255
v 0.270833 -0.192653 0.038864
v 0.270833 -0.192486 0.031653
v 0.270833 -0.192361 0.042461
v 0.270833 -0.192029 0.028073
v 0.270833 -0.191822 0.046029
v 0.270833 -0.191325 0.024534
v 0.270833 -0.191036 0.049551
v 0.270833 -0.190378 0.021052
v 0.270833 -0.190008 0.053010
v 0.270833 -0.189191 0.017644
v 0.270833 -0.188744 0.056390
v 0.270833 -0.187772 0.014326
v 0.270833 -0.187248 0.059674
v 0.270833 -0.186126 0.011114
v 0.270833 -0.185529 0.062847
v 0.270833 -0.184262 0.008024
v 0.270833 -0.183594 0.065893
v 0.270833 -0.182188 0.005071
v 0.270833 -0.181452 0.068797
v 0.270833 -0.179915 0.002268
v 0.270833 -0.179115 0.071547
v 0.270833 -0.177453 -0.000370
v 0.270833 -0.176593 0.074128
v 0.270833 -0.173898 0.076528
v 0.270833 -0.171044 0.078736
v 0.270833 -0.168043 0.080740
v 0.270833 -0.166667 0.036458
v 0.270833 -0.166603 0.034642
v 0.270833 -0.166603 0.038275
v 0.270833 -0.166413 0.032834
v 0.270833 -0.166413 0.040083
v 0.270833 -0.166098 0.031044
v 0.270833 -0.166098 0.041873
v 0.270833 -0.165658 0.029280
v 0.270833 -0.165658 0.043636
v 0.270833 -0.165096 0.027552
v 0.270833 -0.165096 0.045365
v 0.270833 -0.164911 0.082533
v 0.270833 -0.164415 0.025866
v 0.270833 -0.164415 0.047050
v 0.270833 -0.163618 0.024233
v 0.270833 -0.163618 0.048684
v 0.270833 -0.162710 0.022658
v 0.270833 -0.162710 0.050258
v 0.270833 -0.161693 0.021151
v 0.270833 -0.161693 0.051765
v 0.270833 -0.161663 0.084104
v 0.270833 -0.160574 0.019719
v 0.270833 -0.160574 0.053198
v 0.270833 -0.159358 0.054548
v 0.270833 -0.159358 0.018368
v 0.270833 -0.158313 0.085446
v 0.270833 -0.158050 0.055811
v 0.270833 -0.158050 0.017106
v 0.270833 -0.156658 0.056979
v 0.270833 -0.156658 0.015937
v 0.270833 -0.155187 0.058048
v 0.270833 -0.155187 0.014869
v 0.270833 -0.154878 0.086553
v 0.270833 -0.153646 0.059011
v 0.270833 -0.153646 0.013906
v 0.270833 -0.152041 0.013052
v 0.270833 -0.152041 0.059864
v 0.270833 -0.151375 0.087420
v 0.270833 -0.150380 0.060604
v 0.270833 -0.150380 0.012313
v 0.270833 -0.148672 0.011691
v 0.270833 -0.148672 0.061225
v 0.270833 -0.147821 0.088042
v 0.270833 -0.146925 0.061726
v 0.270833 -0.146925 0.011190
v 0.270833 -0.145147 0.062104
v 0.270833 -0.145147 0.010812
v 0.270833 -0.144231 0.088417
v 0.270833 -0.143347 0.062357
v 0.270833 -0.143347 0.010559
v 0.270833 -0.141534 0.010433
v 0.270833 -0.141534 0.062484
v 0.270833 -0.140625 0.088542
v 0.270833 -0.139716 0.062484
v 0.270833 -0.139716 0.010433
v 0.270833 -0.137903 0.062357
v 0.270833 -0.137903 0.010559
v 0.270833 -0.136103 0.062104
v 0.270833 -0.136103 0.010812
v 0.270833 -0.134325 0.061726
v 0.270833 -0.134325 0.011190
v 0.270833 -0.132578 0.011691
v 0.270833 -0.132578 0.061225
v 0.270833 -0.130870 0.012313
v 0.270833 -0.130870 0.060604
v 0.270833 -0.129209 0.059864
v 0.270833 -0.129209 0.013052
v 0.270833 -0.127604 0.059011
v 0.270833 -0.127604 0.013906
v 0.270833 -0.126063 0.058048
v 0.270833 -0.126063 0.014869
v 0.270833 -0.125000 -0.052824
v 0.270833 -0.125000 -0.026042
v 0.270833 -0.124592 0.056979
v 0.270833 -0.124592 0.015937
v 0.270833 -0.123200 0.055811
v 0.270833 -0.123200 0.017106
v 0.270833 -0.121892 0.054548
v 0.270833 -0.121892 0.018368
v 0.270833 -0.120676 0.019719
v 0.270833 -0.120676 0.053198
v 0.270833 -0.119557 0.021151
v 0.270833 -0.119557 0.051765
v 0.270833 -0.118540 0.050258
v 0.270833 -0.118540 0.022658
v 0.270833 -0.117632 0.048684
v 0.270833 -0.117632 0.024233
v 0.270833 -0.116835 0.025866
v 0.270833 -0.116835 0.047050
v 0.270833 -0.116154 0.027552
v 0.270833 -0.116154 0.045365
v 0.270833 -0.115592 0.043636
v 0.270833 -0.115592 0.029280
v 0.270833 -0.115152 0.031044
v 0.270833 -0.115152 0.041873
v 0.270833 -0.114837 0.032834
v 0.270833 -0.114837 0.040083
v 0.270833 -0.114647 0.034642
v 0.270833 -0.114647 0.038275
v 0.270833 -0.114583 0.036458
v 0.270833 -0.010224 0.088542
v 0.270833 -0.010224 -0.026042
v 0.287500 0.080540 -0.026042
v 0.287500 0.122207 -0.067708
v 0.287500 0.125000 -0.067708
v 0.287500 0.125000 -0.026042
v 0.291667 -0.125000 -0.026042
v 0.291667 -0.125000 -0.067708
v 0.291667 0.125000 -0.067708
v 0.291667 0.125000 -0.026042
v 0.317279 0.119878 -0.088542
v 0.317279 0.119878 -0.067708
v 0.328992 -0.117535 -0.067708
v 0.328992 -0.117535 -0.088542
v 0.424341 -0.098465 -0.088542
v 0.424341 -0.098465 -0.067708
v 0.450000 -0.093333 0.015625
v 0.450000 -0.093333 -0.026042
v 0.450000 0.093333 -0.026042
v 0.450000 0.093333 0.015625
v 0.489547 -0.085424 -0.088542
v 0.489547 -0.085424 -0.067708
v 0.500000 -0.083333 0.015625
v 0.500000 -0.083333 -0.088542
v 0.500000 0.083333 -0.088542
v 0.500000 0.083333 0.015625
f 1113 1112 967
f 967 1112 702
f 565 559 566
f 566 559 560
f 968 967 737
f 737 967 702
f 737 702 738
f 738 702 703
f 738 703 602
f 602 703 566
f 602 566 603
f 157 158 422
f 422 158 319
f 422 319 423
f 423 319 320
f 423 320 560
f 560 320 453
f 560 453 566
f 566 453 454
f 566 454 603
f 557 563 567
f 124 17 123
f 123 17 18
f 123 18 257
f 257 18 155
f 257 155 258
f 258 155 154
f 258 154 420
f 420 154 419
f 1105 1071 1106
f 1106 1071 1070
f 1106 1070 971
f 971 1070 935
f 971 935 970
f 970 935 936
f 970 936 705
f 705 936 706
f 705 564 970
f 970 564 565
f 419 154 564
f 564 154 559
f 564 559 565
f 1109 1123 1119
f 1119 1123 1122
f 1103 1104 1107
f 1107 1104 1108
f 5 2 15
f 15 2 3
f 1116 1117 1108
f 709 708 1101
f 1101 708 1100
f 1071 1105 1100
f 1100 1105 1116
f 1100 1116 1101
f 1101 1116 1108
f 1101 1108 1104
f 21 24 20
f 124 153 17
f 17 153 8
f 290 291 153
f 153 291 21
f 153 21 8
f 8 21 20
f 8 20 9
f 574 603 454
f 553 569 556
f 556 569 572
f 964 966 572
f 572 966 574
f 574 454 572
f 572 454 425
f 572 425 556
f 556 425 288
f 556 288 286
f 19 20 23
f 23 20 24
f 553 554 569
f 569 554 558
f 570 569 568
f 568 569 558
f 568 558 567
f 567 558 557
f 473 339 424
f 424 339 289
f 424 289 287
f 287 289 152
f 287 152 238
f 238 152 104
f 12 17 6
f 6 17 8
f 18 17 13
f 13 17 12
f 13 12 14
f 14 12 11
f 8 7 6
f 6 7 1
f 6 1 5
f 5 1 2
f 4 10 3
f 3 10 9
f 15 3 16
f 16 3 9
f 16 9 19
f 19 9 20
f 1 4 2
f 2 4 3
f 14 11 422
f 422 11 157
f 320 319 289
f 289 319 291
f 289 291 290
f 298 296 289
f 355 357 396
f 396 357 360
f 396 360 362
f 296 294 289
f 289 294 292
f 289 292 293
f 293 295 289
f 289 295 297
f 289 297 299
f 323 325 320
f 316 314 289
f 289 314 312
f 289 312 310
f 315 317 320
f 320 317 321
f 320 321 323
f 325 327 320
f 320 327 329
f 320 329 331
f 310 308 289
f 289 308 306
f 289 306 304
f 304 302 289
f 289 302 300
f 289 300 298
f 331 333 320
f 320 333 335
f 320 335 337
f 337 340 320
f 320 340 342
f 320 342 345
f 324 322 289
f 289 322 318
f 289 318 316
f 320 307 309
f 345 347 320
f 320 347 350
f 320 350 396
f 396 350 352
f 396 352 355
f 299 301 289
f 289 301 303
f 289 303 320
f 320 303 305
f 320 305 307
f 309 311 320
f 320 311 313
f 320 313 315
f 362 364 396
f 396 364 367
f 396 367 398
f 398 367 369
f 398 369 400
f 400 369 372
f 400 372 402
f 402 372 374
f 402 374 404
f 404 374 376
f 404 376 406
f 406 376 378
f 406 378 408
f 408 378 381
f 408 381 410
f 410 381 383
f 410 383 412
f 412 383 385
f 412 385 414
f 414 385 387
f 414 387 416
f 416 387 389
f 416 389 418
f 418 389 391
f 418 391 417
f 417 391 390
f 417 390 415
f 415 390 388
f 415 388 413
f 413 388 386
f 413 386 411
f 411 386 384
f 411 384 409
f 409 384 382
f 409 382 407
f 407 382 379
f 407 379 405
f 405 379 377
f 405 377 403
f 403 377 375
f 403 375 401
f 401 375 373
f 401 373 399
f 399 373 370
f 399 370 397
f 397 370 368
f 397 368 395
f 395 368 365
f 395 365 394
f 394 365 363
f 394 363 393
f 393 363 361
f 393 361 392
f 392 361 358
f 392 358 380
f 380 358 356
f 380 356 371
f 371 356 353
f 371 353 366
f 366 353 351
f 366 351 359
f 359 351 348
f 359 348 354
f 354 348 346
f 354 346 349
f 349 346 343
f 349 343 344
f 344 343 341
f 344 341 339
f 339 341 338
f 338 336 339
f 339 336 334
f 339 334 332
f 332 330 339
f 339 330 328
f 339 328 289
f 289 328 326
f 289 326 324
f 152 289 153
f 153 289 290
f 139 141 153
f 147 149 153
f 101 102 124
f 124 102 106
f 124 106 108
f 150 148 152
f 152 148 146
f 152 146 143
f 73 76 124
f 124 76 79
f 124 79 81
f 92 124 91
f 91 124 87
f 133 136 153
f 153 136 138
f 153 138 139
f 153 149 152
f 152 149 151
f 152 151 150
f 120 122 124
f 141 144 153
f 153 144 145
f 153 145 147
f 45 43 47
f 47 43 73
f 47 73 123
f 123 73 124
f 81 83 124
f 124 83 86
f 124 86 87
f 92 96 124
f 124 96 98
f 124 98 101
f 128 130 153
f 153 130 131
f 153 131 133
f 143 142 152
f 152 142 140
f 152 140 137
f 108 110 124
f 124 110 112
f 124 112 113
f 124 122 153
f 153 122 126
f 153 126 128
f 137 135 152
f 152 135 134
f 152 134 132
f 132 129 152
f 152 129 127
f 152 127 125
f 116 114 104
f 104 114 111
f 104 111 109
f 113 115 124
f 124 115 118
f 124 118 120
f 109 107 104
f 104 107 105
f 104 105 99
f 99 105 103
f 99 103 94
f 94 103 100
f 94 100 89
f 89 100 97
f 89 97 84
f 84 97 95
f 84 95 77
f 77 95 93
f 77 93 72
f 72 93 90
f 72 90 63
f 63 90 88
f 63 88 51
f 51 88 85
f 51 85 50
f 50 85 82
f 50 82 49
f 49 82 80
f 49 80 48
f 48 80 78
f 48 78 46
f 46 78 75
f 46 75 44
f 44 75 74
f 44 74 42
f 42 74 71
f 42 71 40
f 40 71 69
f 40 69 38
f 38 69 67
f 38 67 36
f 36 67 65
f 36 65 34
f 34 65 62
f 34 62 32
f 32 62 60
f 32 60 30
f 30 60 58
f 30 58 28
f 28 58 56
f 28 56 26
f 26 56 54
f 26 54 25
f 25 54 52
f 25 52 27
f 27 52 53
f 27 53 29
f 29 53 55
f 29 55 31
f 31 55 57
f 31 57 33
f 33 57 59
f 33 59 35
f 35 59 61
f 35 61 37
f 37 61 64
f 37 64 39
f 39 64 66
f 39 66 41
f 41 66 68
f 41 68 43
f 43 68 70
f 43 70 73
f 125 121 152
f 152 121 119
f 152 119 104
f 104 119 117
f 104 117 116
f 257 258 287
f 287 258 286
f 287 286 288
f 285 283 287
f 287 283 281
f 273 272 257
f 276 277 287
f 287 277 280
f 280 282 287
f 287 282 284
f 287 284 285
f 281 279 287
f 287 279 278
f 287 278 257
f 257 278 275
f 257 275 273
f 272 270 257
f 257 270 267
f 257 267 265
f 265 264 257
f 257 264 262
f 257 262 260
f 246 244 257
f 257 244 242
f 257 242 240
f 261 263 287
f 260 256 257
f 257 256 254
f 257 254 252
f 240 236 257
f 257 236 235
f 257 235 232
f 269 271 287
f 287 271 274
f 287 274 276
f 252 249 257
f 257 249 247
f 257 247 246
f 232 230 257
f 257 230 226
f 257 226 181
f 181 226 225
f 181 225 221
f 221 220 181
f 181 220 217
f 181 217 215
f 241 243 238
f 238 243 245
f 263 266 287
f 287 266 268
f 287 268 269
f 253 255 287
f 287 255 259
f 287 259 261
f 215 213 181
f 181 213 210
f 181 210 179
f 179 210 207
f 179 207 177
f 177 207 204
f 177 204 175
f 175 204 202
f 175 202 173
f 173 202 200
f 173 200 171
f 171 200 198
f 171 198 169
f 169 198 195
f 169 195 167
f 167 195 193
f 167 193 165
f 165 193 191
f 165 191 163
f 163 191 189
f 163 189 161
f 161 189 187
f 161 187 159
f 159 187 186
f 159 186 160
f 160 186 188
f 160 188 162
f 162 188 190
f 162 190 164
f 164 190 192
f 164 192 166
f 166 192 194
f 166 194 168
f 168 194 196
f 168 196 170
f 170 196 199
f 170 199 172
f 172 199 201
f 172 201 174
f 174 201 203
f 174 203 176
f 176 203 205
f 176 205 178
f 178 205 208
f 178 208 180
f 180 208 209
f 180 209 182
f 182 209 212
f 182 212 183
f 183 212 214
f 183 214 184
f 184 214 216
f 184 216 185
f 185 216 219
f 185 219 197
f 197 219 222
f 197 222 206
f 206 222 224
f 206 224 211
f 211 224 227
f 211 227 218
f 218 227 229
f 218 229 223
f 223 229 231
f 223 231 228
f 228 231 234
f 228 234 233
f 233 234 237
f 233 237 238
f 238 237 239
f 238 239 241
f 245 248 238
f 238 248 250
f 238 250 287
f 287 250 251
f 287 251 253
f 424 287 425
f 425 287 288
f 433 431 425
f 498 454 501
f 501 454 503
f 498 496 454
f 454 496 494
f 454 494 491
f 457 455 454
f 428 430 424
f 532 534 530
f 530 534 503
f 530 503 453
f 453 503 454
f 454 455 425
f 433 425 435
f 431 429 425
f 425 429 427
f 425 427 424
f 424 427 426
f 424 426 428
f 430 432 424
f 424 432 434
f 424 434 436
f 455 451 425
f 425 451 449
f 425 449 447
f 448 450 424
f 424 450 452
f 491 489 454
f 454 489 486
f 454 486 484
f 484 481 454
f 454 481 479
f 454 479 476
f 476 474 454
f 454 474 471
f 454 471 469
f 463 461 454
f 454 461 459
f 454 459 457
f 436 438 424
f 424 438 440
f 424 440 442
f 442 444 424
f 424 444 446
f 424 446 448
f 469 467 454
f 454 467 465
f 454 465 463
f 441 439 425
f 425 439 437
f 425 437 435
f 447 445 425
f 425 445 443
f 425 443 441
f 452 456 424
f 424 456 458
f 424 458 473
f 473 458 460
f 473 460 462
f 462 464 473
f 473 464 466
f 473 466 468
f 468 470 473
f 473 470 472
f 473 472 478
f 478 472 475
f 478 475 483
f 483 475 477
f 483 477 488
f 488 477 480
f 488 480 493
f 493 480 482
f 493 482 500
f 500 482 485
f 500 485 505
f 505 485 487
f 505 487 514
f 514 487 490
f 514 490 526
f 526 490 492
f 526 492 527
f 527 492 495
f 527 495 528
f 528 495 497
f 528 497 529
f 529 497 499
f 529 499 531
f 531 499 502
f 531 502 533
f 533 502 504
f 533 504 535
f 535 504 507
f 535 507 537
f 537 507 509
f 537 509 539
f 539 509 511
f 539 511 541
f 541 511 513
f 541 513 543
f 543 513 516
f 543 516 545
f 545 516 518
f 545 518 547
f 547 518 520
f 547 520 549
f 549 520 522
f 549 522 551
f 551 522 524
f 551 524 552
f 552 524 525
f 552 525 550
f 550 525 523
f 550 523 548
f 548 523 521
f 548 521 546
f 546 521 519
f 546 519 544
f 544 519 517
f 544 517 542
f 542 517 515
f 542 515 540
f 540 515 512
f 540 512 538
f 538 512 510
f 538 510 536
f 536 510 508
f 536 508 534
f 534 508 506
f 534 506 503
f 389 525 391
f 391 525 524
f 391 524 390
f 390 524 522
f 390 522 388
f 388 522 520
f 388 520 386
f 386 520 518
f 386 518 384
f 384 518 516
f 384 516 382
f 382 516 513
f 382 513 379
f 379 513 511
f 379 511 377
f 377 511 509
f 377 509 375
f 375 509 507
f 375 507 373
f 373 507 504
f 373 504 370
f 370 504 502
f 370 502 368
f 368 502 499
f 368 499 365
f 365 499 497
f 365 497 363
f 363 497 495
f 363 495 361
f 361 495 492
f 361 492 358
f 358 492 490
f 358 490 356
f 356 490 487
f 356 487 353
f 353 487 485
f 353 485 351
f 351 485 482
f 351 482 348
f 348 482 480
f 348 480 346
f 346 480 477
f 346 477 343
f 343 477 475
f 343 475 341
f 341 475 472
f 341 472 338
f 338 472 470
f 338 470 336
f 336 470 468
f 336 468 334
f 334 468 466
f 334 466 332
f 332 466 464
f 332 464 330
f 330 464 462
f 330 462 328
f 328 462 460
f 328 460 326
f 326 460 458
f 326 458 324
f 324 458 456
f 324 456 322
f 322 456 452
f 322 452 318
f 318 452 450
f 318 450 316
f 316 450 448
f 316 448 314
f 314 448 446
f 314 446 312
f 312 446 444
f 312 444 310
f 310 444 442
f 310 442 308
f 308 442 440
f 308 440 306
f 306 440 438
f 306 438 304
f 304 438 436
f 304 436 302
f 302 436 434
f 302 434 300
f 300 434 432
f 300 432 298
f 298 432 430
f 298 430 296
f 296 430 428
f 296 428 294
f 294 428 426
f 294 426 292
f 292 426 427
f 292 427 293
f 293 427 429
f 293 429 295
f 295 429 431
f 295 431 297
f 297 431 433
f 297 433 299
f 299 433 435
f 299 435 301
f 301 435 437
f 301 437 303
f 303 437 439
f 303 439 305
f 305 439 441
f 305 441 307
f 307 441 443
f 307 443 309
f 309 443 445
f 309 445 311
f 311 445 447
f 311 447 313
f 313 447 449
f 313 449 315
f 315 449 451
f 315 451 317
f 317 451 455
f 317 455 321
f 321 455 457
f 321 457 323
f 323 457 459
f 323 459 325
f 325 459 461
f 325 461 327
f 327 461 463
f 327 463 329
f 329 463 465
f 329 465 331
f 331 465 467
f 331 467 333
f 333 467 469
f 333 469 335
f 335 469 471
f 335 471 337
f 337 471 474
f 337 474 340
f 340 474 476
f 340 476 342
f 342 476 479
f 342 479 345
f 345 479 481
f 345 481 347
f 347 481 484
f 347 484 350
f 350 484 486
f 350 486 352
f 352 486 489
f 352 489 355
f 355 489 491
f 355 491 357
f 357 491 494
f 357 494 360
f 360 494 496
f 360 496 362
f 362 496 498
f 362 498 364
f 364 498 501
f 364 501 367
f 367 501 503
f 367 503 369
f 369 503 506
f 369 506 372
f 372 506 508
f 372 508 374
f 374 508 510
f 374 510 376
f 376 510 512
f 376 512 378
f 378 512 515
f 378 515 381
f 381 515 517
f 381 517 383
f 383 517 519
f 383 519 385
f 385 519 521
f 385 521 387
f 387 521 523
f 387 523 389
f 389 523 525
f 149 285 151
f 151 285 284
f 151 284 150
f 150 284 282
f 150 282 148
f 148 282 280
f 148 280 146
f 146 280 277
f 146 277 143
f 143 277 276
f 143 276 142
f 142 276 274
f 142 274 140
f 140 274 271
f 140 271 137
f 137 271 269
f 137 269 135
f 135 269 268
f 135 268 134
f 134 268 266
f 134 266 132
f 132 266 263
f 132 263 129
f 129 263 261
f 129 261 127
f 127 261 259
f 127 259 125
f 125 259 255
f 125 255 121
f 121 255 253
f 121 253 119
f 119 253 251
f 119 251 117
f 117 251 250
f 117 250 116
f 116 250 248
f 116 248 114
f 114 248 245
f 114 245 111
f 111 245 243
f 111 243 109
f 109 243 241
f 109 241 107
f 107 241 239
f 107 239 105
f 105 239 237
f 105 237 103
f 103 237 234
f 103 234 100
f 100 234 231
f 100 231 97
f 97 231 229
f 97 229 95
f 95 229 227
f 95 227 93
f 93 227 224
f 93 224 90
f 90 224 222
f 90 222 88
f 88 222 219
f 88 219 85
f 85 219 216
f 85 216 82
f 82 216 214
f 82 214 80
f 80 214 212
f 80 212 78
f 78 212 209
f 78 209 75
f 75 209 208
f 75 208 74
f 74 208 205
f 74 205 71
f 71 205 203
f 71 203 69
f 69 203 201
f 69 201 67
f 67 201 199
f 67 199 65
f 65 199 196
f 65 196 62
f 62 196 194
f 62 194 60
f 60 194 192
f 60 192 58
f 58 192 190
f 58 190 56
f 56 190 188
f 56 188 54
f 54 188 186
f 54 186 52
f 52 186 187
f 52 187 53
f 53 187 189
f 53 189 55
f 55 189 191
f 55 191 57
f 57 191 193
f 57 193 59
f 59 193 195
f 59 195 61
f 61 195 198
f 61 198 64
f 64 198 200
f 64 200 66
f 66 200 202
f 66 202 68
f 68 202 204
f 68 204 70
f 70 204 207
f 70 207 73
f 73 207 210
f 73 210 76
f 76 210 213
f 76 213 79
f 79 213 215
f 79 215 81
f 81 215 217
f 81 217 83
f 83 217 220
f 83 220 86
f 86 220 221
f 86 221 87
f 87 221 225
f 87 225 91
f 91 225 226
f 91 226 92
f 92 226 230
f 92 230 96
f 96 230 232
f 96 232 98
f 98 232 235
f 98 235 101
f 101 235 236
f 101 236 102
f 102 236 240
f 102 240 106
f 106 240 242
f 106 242 108
f 108 242 244
f 108 244 110
f 110 244 246
f 110 246 112
f 112 246 247
f 112 247 113
f 113 247 249
f 113 249 115
f 115 249 252
f 115 252 118
f 118 252 254
f 118 254 120
f 120 254 256
f 120 256 122
f 122 256 260
f 122 260 126
f 126 260 262
f 126 262 128
f 128 262 264
f 128 264 130
f 130 264 265
f 130 265 131
f 131 265 267
f 131 267 133
f 133 267 270
f 133 270 136
f 136 270 272
f 136 272 138
f 138 272 273
f 138 273 139
f 139 273 275
f 139 275 141
f 141 275 278
f 141 278 144
f 144 278 279
f 144 279 145
f 145 279 281
f 145 281 147
f 147 281 283
f 147 283 149
f 149 283 285
f 257 181 123
f 123 181 47
f 47 181 179
f 47 179 45
f 45 179 177
f 45 177 43
f 43 177 175
f 43 175 41
f 41 175 173
f 41 173 39
f 39 173 171
f 39 171 37
f 37 171 169
f 37 169 35
f 35 169 167
f 35 167 33
f 33 167 165
f 33 165 31
f 31 165 163
f 31 163 29
f 29 163 161
f 29 161 27
f 27 161 159
f 27 159 25
f 25 159 160
f 25 160 26
f 26 160 162
f 26 162 28
f 28 162 164
f 28 164 30
f 30 164 166
f 30 166 32
f 32 166 168
f 32 168 34
f 34 168 170
f 34 170 36
f 36 170 172
f 36 172 38
f 38 172 174
f 38 174 40
f 40 174 176
f 40 176 42
f 42 176 178
f 42 178 44
f 44 178 180
f 44 180 46
f 46 180 182
f 46 182 48
f 48 182 183
f 48 183 49
f 49 183 184
f 49 184 50
f 50 184 185
f 50 185 51
f 51 185 197
f 51 197 63
f 63 197 206
f 63 206 72
f 72 206 211
f 72 211 77
f 77 211 218
f 77 218 84
f 84 218 223
f 84 223 89
f 89 223 228
f 89 228 94
f 94 228 233
f 94 233 99
f 99 233 238
f 99 238 104
f 453 320 530
f 530 320 396
f 339 473 478
f 339 478 344
f 344 478 483
f 344 483 349
f 349 483 488
f 349 488 354
f 354 488 493
f 354 493 359
f 359 493 500
f 359 500 366
f 366 500 505
f 366 505 371
f 371 505 514
f 371 514 380
f 380 514 526
f 380 526 392
f 392 526 527
f 392 527 393
f 393 527 528
f 393 528 394
f 394 528 529
f 394 529 395
f 395 529 531
f 395 531 397
f 397 531 533
f 397 533 399
f 399 533 535
f 399 535 401
f 401 535 537
f 401 537 403
f 403 537 539
f 403 539 405
f 405 539 541
f 405 541 407
f 407 541 543
f 407 543 409
f 409 543 545
f 409 545 411
f 411 545 547
f 411 547 413
f 413 547 549
f 413 549 415
f 415 549 551
f 415 551 417
f 417 551 552
f 417 552 418
f 418 552 550
f 418 550 416
f 416 550 548
f 416 548 414
f 414 548 546
f 414 546 412
f 412 546 544
f 412 544 410
f 410 544 542
f 410 542 408
f 408 542 540
f 408 540 406
f 406 540 538
f 406 538 404
f 404 538 536
f 404 536 402
f 402 536 534
f 402 534 400
f 400 534 532
f 400 532 398
f 398 532 530
f 398 530 396
f 22 21 156
f 156 21 291
f 156 291 158
f 158 291 319
f 24 21 23
f 23 21 22
f 555 556 421
f 421 556 286
f 421 286 420
f 420 286 258
f 554 553 555
f 555 553 556
f 916 1051 965
f 965 1051 1099
f 965 1099 573
f 573 1099 707
f 573 707 622
f 622 707 757
f 1112 1113 1111
f 1111 1113 1114
f 1119 1122 1120
f 1120 1122 1121
f 1106 1111 1105
f 1105 1111 1114
f 1105 1114 1116
f 1116 1114 1120
f 1116 1120 1115
f 1115 1120 1121
f 1107 1108 1110
f 1110 1108 1117
f 1118 1124 1117
f 1117 1124 1123
f 1117 1123 1110
f 1110 1123 1109
f 1124 1121 1123
f 1123 1121 1122
f 709 737 738
f 712 714 709
f 740 707 736
f 736 707 734
f 713 711 709
f 709 711 710
f 709 710 712
f 745 743 738
f 719 717 709
f 709 717 715
f 709 715 713
f 714 716 709
f 709 716 718
f 709 718 720
f 707 708 709
f 728 730 707
f 707 730 732
f 707 732 734
f 720 722 709
f 709 722 724
f 709 724 707
f 707 724 726
f 707 726 728
f 740 742 707
f 707 742 744
f 707 744 757
f 757 744 746
f 746 748 757
f 757 748 750
f 757 750 752
f 782 780 814
f 814 780 778
f 814 778 775
f 739 735 709
f 709 735 733
f 709 733 731
f 731 729 709
f 709 729 727
f 709 727 725
f 738 743 709
f 709 743 741
f 709 741 739
f 725 723 709
f 709 723 721
f 709 721 719
f 752 754 757
f 757 754 756
f 757 756 762
f 762 756 759
f 762 759 767
f 767 759 761
f 767 761 772
f 772 761 764
f 772 764 777
f 777 764 766
f 777 766 784
f 784 766 769
f 784 769 789
f 789 769 771
f 789 771 798
f 798 771 774
f 798 774 810
f 810 774 776
f 810 776 811
f 811 776 779
f 811 779 812
f 812 779 781
f 812 781 813
f 813 781 783
f 813 783 815
f 815 783 786
f 815 786 817
f 817 786 788
f 817 788 819
f 819 788 791
f 819 791 821
f 821 791 793
f 821 793 823
f 823 793 795
f 823 795 825
f 825 795 797
f 825 797 827
f 827 797 800
f 827 800 829
f 829 800 802
f 829 802 831
f 831 802 804
f 831 804 833
f 833 804 806
f 833 806 835
f 835 806 808
f 835 808 836
f 836 808 809
f 836 809 834
f 834 809 807
f 834 807 832
f 832 807 805
f 832 805 830
f 830 805 803
f 830 803 828
f 828 803 801
f 828 801 826
f 826 801 799
f 826 799 824
f 824 799 796
f 824 796 822
f 822 796 794
f 822 794 820
f 820 794 792
f 820 792 818
f 818 792 790
f 818 790 816
f 816 790 787
f 816 787 814
f 814 787 785
f 814 785 782
f 775 773 814
f 814 773 770
f 814 770 738
f 738 770 768
f 738 768 765
f 765 763 738
f 738 763 760
f 738 760 758
f 758 755 738
f 738 755 753
f 738 753 751
f 751 749 738
f 738 749 747
f 738 747 745
f 707 1099 708
f 708 1099 1100
f 1070 1071 994
f 994 1071 975
f 988 990 992
f 1095 1097 1099
f 1099 1097 1098
f 1099 1098 1100
f 1100 1098 1096
f 1091 1088 1100
f 976 978 974
f 974 978 988
f 984 986 982
f 982 986 988
f 982 988 980
f 980 988 978
f 972 974 973
f 973 974 988
f 973 988 975
f 975 988 992
f 975 992 994
f 1088 1086 1100
f 1100 1086 1085
f 1100 1085 1083
f 1087 1089 1099
f 1096 1094 1100
f 1100 1094 1092
f 1100 1092 1091
f 1083 1080 1100
f 1100 1080 1078
f 1100 1078 1077
f 1067 1065 1071
f 1013 1011 975
f 1011 1008 975
f 975 1008 1006
f 975 1006 1004
f 1004 1002 975
f 975 1002 1000
f 975 1000 999
f 1020 1017 975
f 975 1017 1015
f 975 1015 1013
f 1068 1072 1099
f 1079 1081 1099
f 1089 1090 1099
f 1099 1090 1093
f 1099 1093 1095
f 1077 1075 1100
f 1100 1075 1073
f 1100 1073 1071
f 1071 1073 1069
f 1071 1069 1067
f 1054 1056 1051
f 1051 1056 1058
f 1051 1058 1061
f 1081 1082 1099
f 1099 1082 1084
f 1099 1084 1087
f 1065 1062 1071
f 1071 1062 1060
f 1071 1060 1059
f 1059 1057 1071
f 1071 1057 1055
f 1071 1055 1053
f 1038 1034 1071
f 1071 1034 1033
f 1071 1033 1030
f 999 1001 975
f 975 1001 1003
f 975 1003 977
f 977 1003 1005
f 977 1005 979
f 979 1005 1007
f 979 1007 981
f 981 1007 1009
f 981 1009 983
f 983 1009 1012
f 983 1012 985
f 985 1012 1014
f 985 1014 987
f 987 1014 1016
f 987 1016 989
f 989 1016 1018
f 989 1018 991
f 991 1018 1021
f 991 1021 993
f 993 1021 1022
f 993 1022 995
f 995 1022 1025
f 995 1025 996
f 996 1025 1027
f 996 1027 997
f 997 1027 1029
f 997 1029 998
f 998 1029 1032
f 998 1032 1010
f 1010 1032 1035
f 1010 1035 1019
f 1019 1035 1037
f 1019 1037 1024
f 1024 1037 1040
f 1024 1040 1031
f 1031 1040 1042
f 1031 1042 1036
f 1036 1042 1044
f 1036 1044 1041
f 1041 1044 1047
f 1041 1047 1046
f 1046 1047 1050
f 1046 1050 1051
f 1051 1050 1052
f 1051 1052 1054
f 1072 1074 1099
f 1099 1074 1076
f 1099 1076 1079
f 1053 1049 1071
f 1071 1049 1048
f 1071 1048 1045
f 1045 1043 1071
f 1071 1043 1039
f 1071 1039 1038
f 1061 1063 1051
f 1051 1063 1064
f 1051 1064 1099
f 1099 1064 1066
f 1099 1066 1068
f 1030 1028 1071
f 1071 1028 1026
f 1071 1026 975
f 975 1026 1023
f 975 1023 1020
f 964 936 935
f 963 962 964
f 964 962 960
f 926 923 916
f 916 923 921
f 965 966 964
f 946 944 965
f 965 944 941
f 960 958 964
f 964 958 955
f 964 955 954
f 954 952 964
f 964 952 949
f 964 949 965
f 965 949 947
f 965 947 946
f 941 939 965
f 965 939 937
f 965 937 933
f 964 943 945
f 945 948 964
f 964 948 950
f 964 950 951
f 951 953 964
f 964 953 956
f 964 956 957
f 933 931 965
f 965 931 929
f 965 929 916
f 916 929 928
f 916 928 926
f 957 959 964
f 964 959 961
f 964 961 963
f 904 935 903
f 903 935 859
f 903 859 899
f 899 859 898
f 934 938 964
f 891 893 859
f 859 893 895
f 859 895 898
f 904 908 935
f 935 908 910
f 935 910 913
f 913 914 935
f 935 914 918
f 935 918 920
f 938 940 964
f 964 940 942
f 964 942 943
f 921 919 916
f 916 919 917
f 916 917 911
f 911 917 915
f 911 915 906
f 906 915 912
f 906 912 901
f 901 912 909
f 901 909 896
f 896 909 907
f 896 907 889
f 889 907 905
f 889 905 884
f 884 905 902
f 884 902 875
f 875 902 900
f 875 900 863
f 863 900 897
f 863 897 862
f 862 897 894
f 862 894 861
f 861 894 892
f 861 892 860
f 860 892 890
f 860 890 858
f 858 890 887
f 858 887 856
f 856 887 886
f 856 886 854
f 854 886 883
f 854 883 852
f 852 883 881
f 852 881 850
f 850 881 879
f 850 879 848
f 848 879 877
f 848 877 846
f 846 877 874
f 846 874 844
f 844 874 872
f 844 872 842
f 842 872 870
f 842 870 840
f 840 870 868
f 840 868 838
f 838 868 866
f 838 866 837
f 837 866 864
f 837 864 839
f 839 864 865
f 839 865 841
f 841 865 867
f 841 867 843
f 843 867 869
f 843 869 845
f 845 869 871
f 845 871 847
f 847 871 873
f 847 873 849
f 849 873 876
f 849 876 851
f 851 876 878
f 851 878 853
f 853 878 880
f 853 880 855
f 855 880 882
f 855 882 857
f 857 882 885
f 857 885 859
f 859 885 888
f 859 888 891
f 920 922 935
f 935 922 924
f 935 924 925
f 925 927 935
f 935 927 930
f 935 930 964
f 964 930 932
f 964 932 934
f 965 573 966
f 966 573 574
f 679 602 603
f 691 689 687
f 578 580 574
f 603 698 679
f 679 698 683
f 679 683 681
f 606 608 603
f 699 697 701
f 701 697 695
f 701 695 700
f 700 695 693
f 693 691 700
f 700 691 687
f 700 687 698
f 698 687 685
f 698 685 683
f 592 594 574
f 574 594 596
f 668 670 698
f 698 670 672
f 698 672 674
f 605 601 573
f 573 601 599
f 581 579 573
f 579 577 573
f 573 577 575
f 573 575 574
f 574 575 576
f 574 576 578
f 596 598 574
f 574 598 600
f 574 600 603
f 603 600 604
f 603 604 606
f 698 652 655
f 580 582 574
f 574 582 584
f 574 584 586
f 608 610 603
f 603 610 612
f 603 612 614
f 613 611 622
f 622 611 609
f 622 609 573
f 573 609 607
f 573 607 605
f 599 597 573
f 573 597 595
f 573 595 593
f 586 588 574
f 574 588 590
f 574 590 592
f 614 616 603
f 603 616 618
f 603 618 620
f 628 630 603
f 603 630 633
f 603 633 635
f 635 638 603
f 603 638 640
f 603 640 643
f 643 645 603
f 603 645 647
f 603 647 698
f 698 647 650
f 698 650 652
f 674 673 698
f 698 673 671
f 698 671 696
f 696 671 669
f 696 669 694
f 694 669 667
f 694 667 692
f 692 667 665
f 692 665 690
f 690 665 662
f 690 662 688
f 688 662 660
f 688 660 686
f 686 660 658
f 686 658 684
f 684 658 656
f 684 656 682
f 682 656 653
f 682 653 680
f 680 653 651
f 680 651 678
f 678 651 648
f 678 648 677
f 677 648 646
f 677 646 676
f 676 646 644
f 676 644 675
f 675 644 641
f 675 641 663
f 663 641 639
f 663 639 654
f 654 639 636
f 654 636 649
f 649 636 634
f 649 634 642
f 642 634 631
f 642 631 637
f 637 631 629
f 637 629 632
f 632 629 626
f 632 626 627
f 627 626 624
f 627 624 622
f 622 624 621
f 622 621 619
f 619 617 622
f 622 617 615
f 622 615 613
f 620 623 603
f 603 623 625
f 603 625 628
f 655 657 698
f 698 657 659
f 698 659 661
f 593 591 573
f 573 591 589
f 573 589 587
f 661 664 698
f 698 664 666
f 698 666 668
f 587 585 573
f 573 585 583
f 573 583 581
f 808 674 809
f 809 674 672
f 809 672 807
f 807 672 670
f 807 670 805
f 805 670 668
f 805 668 803
f 803 668 666
f 803 666 801
f 801 666 664
f 801 664 799
f 799 664 661
f 799 661 796
f 796 661 659
f 796 659 794
f 794 659 657
f 794 657 792
f 792 657 655
f 792 655 790
f 790 655 652
f 790 652 787
f 787 652 650
f 787 650 785
f 785 650 647
f 785 647 782
f 782 647 645
f 782 645 780
f 780 645 643
f 780 643 778
f 778 643 640
f 778 640 775
f 775 640 638
f 775 638 773
f 773 638 635
f 773 635 770
f 770 635 633
f 770 633 768
f 768 633 630
f 768 630 765
f 765 630 628
f 765 628 763
f 763 628 625
f 763 625 760
f 760 625 623
f 760 623 758
f 758 623 620
f 758 620 755
f 755 620 618
f 755 618 753
f 753 618 616
f 753 616 751
f 751 616 614
f 751 614 749
f 749 614 612
f 749 612 747
f 747 612 610
f 747 610 745
f 745 610 608
f 745 608 743
f 743 608 606
f 743 606 741
f 741 606 604
f 741 604 739
f 739 604 600
f 739 600 735
f 735 600 598
f 735 598 733
f 733 598 596
f 733 596 731
f 731 596 594
f 731 594 729
f 729 594 592
f 729 592 727
f 727 592 590
f 727 590 725
f 725 590 588
f 725 588 723
f 723 588 586
f 723 586 721
f 721 586 584
f 721 584 719
f 719 584 582
f 719 582 717
f 717 582 580
f 717 580 715
f 715 580 578
f 715 578 713
f 713 578 576
f 713 576 711
f 711 576 575
f 711 575 710
f 710 575 577
f 710 577 712
f 712 577 579
f 712 579 714
f 714 579 581
f 714 581 716
f 716 581 583
f 716 583 718
f 718 583 585
f 718 585 720
f 720 585 587
f 720 587 722
f 722 587 589
f 722 589 724
f 724 589 591
f 724 591 726
f 726 591 593
f 726 593 728
f 728 593 595
f 728 595 730
f 730 595 597
f 730 597 732
f 732 597 599
f 732 599 734
f 734 599 601
f 734 601 736
f 736 601 605
f 736 605 740
f 740 605 607
f 740 607 742
f 742 607 609
f 742 609 744
f 744 609 611
f 744 611 746
f 746 611 613
f 746 613 748
f 748 613 615
f 748 615 750
f 750 615 617
f 750 617 752
f 752 617 619
f 752 619 754
f 754 619 621
f 754 621 756
f 756 621 624
f 756 624 759
f 759 624 626
f 759 626 761
f 761 626 629
f 761 629 764
f 764 629 631
f 764 631 766
f 766 631 634
f 766 634 769
f 769 634 636
f 769 636 771
f 771 636 639
f 771 639 774
f 774 639 641
f 774 641 776
f 776 641 644
f 776 644 779
f 779 644 646
f 779 646 781
f 781 646 648
f 781 648 783
f 783 648 651
f 783 651 786
f 786 651 653
f 786 653 788
f 788 653 656
f 788 656 791
f 791 656 658
f 791 658 793
f 793 658 660
f 793 660 795
f 795 660 662
f 795 662 797
f 797 662 665
f 797 665 800
f 800 665 667
f 800 667 802
f 802 667 669
f 802 669 804
f 804 669 671
f 804 671 806
f 806 671 673
f 806 673 808
f 808 673 674
f 1097 963 1098
f 1098 963 961
f 1098 961 1096
f 1096 961 959
f 1096 959 1094
f 1094 959 957
f 1094 957 1092
f 1092 957 956
f 1092 956 1091
f 1091 956 953
f 1091 953 1088
f 1088 953 951
f 1088 951 1086
f 1086 951 950
f 1086 950 1085
f 1085 950 948
f 1085 948 1083
f 1083 948 945
f 1083 945 1080
f 1080 945 943
f 1080 943 1078
f 1078 943 942
f 1078 942 1077
f 1077 942 940
f 1077 940 1075
f 1075 940 938
f 1075 938 1073
f 1073 938 934
f 1073 934 1069
f 1069 934 932
f 1069 932 1067
f 1067 932 930
f 1067 930 1065
f 1065 930 927
f 1065 927 1062
f 1062 927 925
f 1062 925 1060
f 1060 925 924
f 1060 924 1059
f 1059 924 922
f 1059 922 1057
f 1057 922 920
f 1057 920 1055
f 1055 920 918
f 1055 918 1053
f 1053 918 914
f 1053 914 1049
f 1049 914 913
f 1049 913 1048
f 1048 913 910
f 1048 910 1045
f 1045 910 908
f 1045 908 1043
f 1043 908 904
f 1043 904 1039
f 1039 904 903
f 1039 903 1038
f 1038 903 899
f 1038 899 1034
f 1034 899 898
f 1034 898 1033
f 1033 898 895
f 1033 895 1030
f 1030 895 893
f 1030 893 1028
f 1028 893 891
f 1028 891 1026
f 1026 891 888
f 1026 888 1023
f 1023 888 885
f 1023 885 1020
f 1020 885 882
f 1020 882 1017
f 1017 882 880
f 1017 880 1015
f 1015 880 878
f 1015 878 1013
f 1013 878 876
f 1013 876 1011
f 1011 876 873
f 1011 873 1008
f 1008 873 871
f 1008 871 1006
f 1006 871 869
f 1006 869 1004
f 1004 869 867
f 1004 867 1002
f 1002 867 865
f 1002 865 1000
f 1000 865 864
f 1000 864 999
f 999 864 866
f 999 866 1001
f 1001 866 868
f 1001 868 1003
f 1003 868 870
f 1003 870 1005
f 1005 870 872
f 1005 872 1007
f 1007 872 874
f 1007 874 1009
f 1009 874 877
f 1009 877 1012
f 1012 877 879
f 1012 879 1014
f 1014 879 881
f 1014 881 1016
f 1016 881 883
f 1016 883 1018
f 1018 883 886
f 1018 886 1021
f 1021 886 887
f 1021 887 1022
f 1022 887 890
f 1022 890 1025
f 1025 890 892
f 1025 892 1027
f 1027 892 894
f 1027 894 1029
f 1029 894 897
f 1029 897 1032
f 1032 897 900
f 1032 900 1035
f 1035 900 902
f 1035 902 1037
f 1037 902 905
f 1037 905 1040
f 1040 905 907
f 1040 907 1042
f 1042 907 909
f 1042 909 1044
f 1044 909 912
f 1044 912 1047
f 1047 912 915
f 1047 915 1050
f 1050 915 917
f 1050 917 1052
f 1052 917 919
f 1052 919 1054
f 1054 919 921
f 1054 921 1056
f 1056 921 923
f 1056 923 1058
f 1058 923 926
f 1058 926 1061
f 1061 926 928
f 1061 928 1063
f 1063 928 929
f 1063 929 1064
f 1064 929 931
f 1064 931 1066
f 1066 931 933
f 1066 933 1068
f 1068 933 937
f 1068 937 1072
f 1072 937 939
f 1072 939 1074
f 1074 939 941
f 1074 941 1076
f 1076 941 944
f 1076 944 1079
f 1079 944 946
f 1079 946 1081
f 1081 946 947
f 1081 947 1082
f 1082 947 949
f 1082 949 1084
f 1084 949 952
f 1084 952 1087
f 1087 952 954
f 1087 954 1089
f 1089 954 955
f 1089 955 1090
f 1090 955 958
f 1090 958 1093
f 1093 958 960
f 1093 960 1095
f 1095 960 962
f 1095 962 1097
f 1097 962 963
f 859 935 994
f 994 935 1070
f 1051 916 911
f 1051 911 1046
f 1046 911 906
f 1046 906 1041
f 1041 906 901
f 1041 901 1036
f 1036 901 896
f 1036 896 1031
f 1031 896 889
f 1031 889 1024
f 1024 889 884
f 1024 884 1019
f 1019 884 875
f 1019 875 1010
f 1010 875 863
f 1010 863 998
f 998 863 862
f 998 862 997
f 997 862 861
f 997 861 996
f 996 861 860
f 996 860 995
f 995 860 858
f 995 858 993
f 993 858 856
f 993 856 991
f 991 856 854
f 991 854 989
f 989 854 852
f 989 852 987
f 987 852 850
f 987 850 985
f 985 850 848
f 985 848 983
f 983 848 846
f 983 846 981
f 981 846 844
f 981 844 979
f 979 844 842
f 979 842 977
f 977 842 840
f 977 840 975
f 975 840 838
f 975 838 973
f 973 838 837
f 973 837 972
f 972 837 839
f 972 839 974
f 974 839 841
f 974 841 976
f 976 841 843
f 976 843 978
f 978 843 845
f 978 845 980
f 980 845 847
f 980 847 982
f 982 847 849
f 982 849 984
f 984 849 851
f 984 851 986
f 986 851 853
f 986 853 988
f 988 853 855
f 988 855 990
f 990 855 857
f 990 857 992
f 992 857 859
f 992 859 994
f 738 602 814
f 814 602 679
f 814 679 681
f 814 681 816
f 816 681 683
f 816 683 818
f 818 683 685
f 818 685 820
f 820 685 687
f 820 687 822
f 822 687 689
f 822 689 824
f 824 689 691
f 824 691 826
f 826 691 693
f 826 693 828
f 828 693 695
f 828 695 830
f 830 695 697
f 830 697 832
f 832 697 699
f 832 699 834
f 834 699 701
f 834 701 836
f 836 701 700
f 836 700 835
f 835 700 698
f 835 698 833
f 833 698 696
f 833 696 831
f 831 696 694
f 831 694 829
f 829 694 692
f 829 692 827
f 827 692 690
f 827 690 825
f 825 690 688
f 825 688 823
f 823 688 686
f 823 686 821
f 821 686 684
f 821 684 819
f 819 684 682
f 819 682 817
f 817 682 680
f 817 680 815
f 815 680 678
f 815 678 813
f 813 678 677
f 813 677 812
f 812 677 676
f 812 676 811
f 811 676 675
f 811 675 810
f 810 675 663
f 810 663 798
f 798 663 654
f 798 654 789
f 789 654 649
f 789 649 784
f 784 649 642
f 784 642 777
f 777 642 637
f 777 637 772
f 772 637 632
f 772 632 767
f 767 632 627
f 767 627 762
f 762 627 622
f 762 622 757
f 968 737 969
f 969 737 709
f 969 709 1102
f 1102 709 1101
f 1101 1104 1102
f 1102 1104 1103
f 706 936 704
f 704 936 964
f 704 964 571
f 571 964 572
f 571 572 570
f 570 572 569
f 10 7 9
f 9 7 8
f 7 10 1
f 1 10 4
f 1115 1118 1116
f 1116 1118 1117
f 1118 1115 1124
f 1124 1115 1121
f 16 6 15
f 15 6 5
f 158 157 156
f 156 157 11
f 156 11 12
f 19 23 22
f 16 19 6
f 6 19 22
f 6 22 12
f 12 22 156
f 971 566 1106
f 1106 566 703
f 1106 703 1111
f 1111 703 1112
f 1112 703 702
f 970 565 971
f 971 565 566
f 155 560 154
f 154 560 559
f 14 422 13
f 13 422 423
f 13 423 18
f 18 423 560
f 18 560 155
f 563 557 561
f 561 557 558
f 561 568 563
f 563 568 567
f 420 419 421
f 421 419 564
f 421 564 562
f 562 564 704
f 704 564 705
f 704 705 706
f 570 568 571
f 571 568 561
f 571 561 704
f 704 561 562
f 421 562 555
f 555 562 561
f 555 561 554
f 554 561 558
f 1109 1119 1110
f 1110 1119 1120
f 1114 1113 969
f 969 1113 967
f 969 967 968
f 1107 1110 1120
f 1103 1107 1102
f 1102 1107 1120
f 1102 1120 969
f 969 1120 1114
