v -0.500000 -0.231408 -0.148182
v -0.500000 -0.231408 0.024701
v -0.500000 -0.231191 0.028158
v -0.500000 -0.230710 0.030377
v -0.500000 -0.230143 0.032988
v -0.500000 -0.228979 0.035921
v -0.500000 -0.228427 0.037309
v -0.500000 -0.226133 0.041195
v -0.500000 -0.225808 0.041745
v -0.500000 -0.225045 0.042795
v -0.500000 -0.222185 0.046041
v -0.500000 -0.221353 0.046985
v -0.500000 -0.217365 0.050397
v -0.500000 -0.217006 0.050703
v -0.500000 -0.216379 0.051163
v -0.500000 -0.211685 0.054087
v -0.500000 -0.211015 0.054504
v -0.500000 -0.205183 0.057180
v -0.500000 -0.198921 0.059192
v -0.500000 -0.198547 0.059262
v -0.500000 -0.191393 0.060604
v -0.500000 -0.191188 0.060642
v -0.500000 -0.184092 0.061065
v -0.500000 -0.167869 0.061065
v -0.500000 -0.167869 0.148182
v -0.500000 0.019590 0.000000
v -0.500000 0.020833 -0.014208
v -0.500000 0.020833 0.014208
v -0.500000 0.024525 -0.027983
v -0.500000 0.024525 0.027983
v -0.500000 0.030552 -0.040909
v -0.500000 0.030552 0.040909
v -0.500000 0.038732 -0.052592
v -0.500000 0.038732 0.052592
v -0.500000 0.048817 -0.062676
v -0.500000 0.048817 0.062676
v -0.500000 0.060499 -0.070857
v -0.500000 0.060499 0.070857
v -0.500000 0.073425 -0.076884
v -0.500000 0.073425 0.076884
v -0.500000 0.087201 -0.080575
v -0.500000 0.087201 0.080575
v -0.500000 0.101408 -0.081818
v -0.500000 0.101408 0.081818
v -0.500000 0.115616 -0.080575
v -0.500000 0.115616 0.080575
v -0.500000 0.129392 -0.076884
v -0.500000 0.129392 0.076884
v -0.500000 0.142318 -0.070857
v -0.500000 0.142318 0.070857
v -0.500000 0.154000 -0.062676
v -0.500000 0.154000 0.062676
v -0.500000 0.164085 -0.052592
v -0.500000 0.164085 0.052592
v -0.500000 0.172265 -0.040909
v -0.500000 0.172265 0.040909
v -0.500000 0.178292 -0.027983
v -0.500000 0.178292 0.027983
v -0.500000 0.181984 -0.014208
v -0.500000 0.181984 0.014208
v -0.500000 0.183227 0.000000
v -0.500000 0.231408 -0.148182
v -0.500000 0.231408 0.148182
v -0.498424 -0.182833 0.061065
v -0.494880 -0.187283 0.060617
v -0.491423 -0.191623 0.059285
v -0.488139 -0.195747 0.057102
v -0.485108 -0.199552 0.054120
v -0.482404 -0.202946 0.050414
v -0.480096 -0.205845 0.046075
v -0.478238 -0.208177 0.041210
v -0.476878 -0.209885 0.035938
v -0.476048 -0.210927 0.030390
v -0.475769 -0.211277 0.024701
v -0.466642 -0.158787 0.061065
v -0.463323 -0.163408 0.060617
v -0.460087 -0.167915 0.059285
v -0.457558 -0.197215 -0.148182
v -0.457422 -0.197396 0.024701
v -0.457012 -0.172197 0.057102
v -0.454174 -0.176148 0.054120
v -0.454128 -0.134579 0.061065
v -0.454128 -0.134579 0.148182
v -0.451643 -0.179673 0.050414
v -0.449481 -0.182683 0.046075
v -0.447742 -0.185105 0.041210
v -0.446469 -0.186878 0.035938
v -0.445692 -0.187960 0.030390
v -0.445431 -0.188324 0.024701
v -0.433701 -0.136354 0.061065
v -0.430617 -0.141134 0.060617
v -0.427609 -0.145796 0.059285
v -0.424751 -0.150226 0.057102
v -0.422113 -0.154314 0.054120
v -0.419761 -0.157960 0.050414
v -0.417752 -0.161074 0.046075
v -0.416136 -0.163580 0.041210
v -0.414952 -0.165415 0.035938
v -0.414230 -0.166534 0.030390
v -0.413987 -0.166910 0.024701
v -0.412786 -0.166137 -0.148182
v -0.412768 -0.166166 0.024701
v -0.406047 -0.104566 0.061065
v -0.406047 -0.104566 0.148182
v -0.399683 -0.115589 0.061065
v -0.396841 -0.120516 0.060617
v -0.394069 -0.125323 0.059285
v -0.391436 -0.129889 0.057102
v -0.389005 -0.134104 0.054120
v -0.386837 -0.137862 0.050414
v -0.384986 -0.141073 0.046075
v -0.383496 -0.143655 0.041210
v -0.382405 -0.145547 0.035938
v -0.381740 -0.146701 0.030390
v -0.381516 -0.147089 0.024701
v -0.365911 -0.138331 -0.148182
v -0.365798 -0.138538 0.024701
v -0.364674 -0.096543 0.061065
v -0.362081 -0.101606 0.060617
v -0.359552 -0.106545 0.059285
v -0.357149 -0.111237 0.057102
v -0.355992 -0.077979 0.061065
v -0.355992 -0.077979 0.148182
v -0.354931 -0.115568 0.054120
v -0.352953 -0.119429 0.050414
v -0.351264 -0.122728 0.046075
v -0.349905 -0.125381 0.041210
v -0.348909 -0.127325 0.035938
v -0.348302 -0.128511 0.030390
v -0.348098 -0.128909 0.024701
v -0.328760 -0.079265 0.061065
v -0.326422 -0.084451 0.060617
v -0.324142 -0.089510 0.059285
v -0.321976 -0.094316 0.057102
v -0.319976 -0.098751 0.054120
v -0.318193 -0.102707 0.050414
v -0.317171 -0.113939 -0.148182
v -0.317136 -0.114013 0.024701
v -0.316670 -0.106085 0.046075
v -0.315445 -0.108803 0.041210
v -0.314548 -0.110794 0.035938
v -0.314000 -0.112008 0.030390
v -0.313816 -0.112417 0.024701
v -0.304204 -0.054944 0.061065
v -0.304204 -0.054944 0.148182
v -0.292030 -0.063797 0.061065
v -0.289953 -0.069093 0.060617
v -0.287928 -0.074259 0.059285
v -0.286003 -0.079167 0.057102
v -0.284227 -0.083696 0.054120
v -0.282644 -0.087736 0.050414
v -0.281291 -0.091186 0.046075
v -0.280202 -0.093962 0.041210
v -0.279405 -0.095995 0.035938
v -0.278919 -0.097235 0.030390
v -0.278756 -0.097652 0.024701
v -0.266817 -0.093085 -0.148182
v -0.266745 -0.093284 0.024701
v -0.254575 -0.050178 0.061065
v -0.252765 -0.055570 0.060617
v -0.250999 -0.060831 0.059285
v -0.250938 -0.035574 0.061065
v -0.250938 -0.035574 0.148182
v -0.249321 -0.065828 0.057102
v -0.247773 -0.070441 0.054120
v -0.246392 -0.074554 0.050414
v -0.245213 -0.078067 0.046075
v -0.244264 -0.080894 0.041210
v -0.243570 -0.082964 0.035938
v -0.243146 -0.084227 0.030390
v -0.243003 -0.084651 0.024701
v -0.216488 -0.038440 0.061065
v -0.215103 -0.075877 -0.148182
v -0.215053 -0.076038 0.024701
v -0.214949 -0.043917 0.060617
v -0.213447 -0.049258 0.059285
v -0.212021 -0.054333 0.057102
v -0.210704 -0.059017 0.054120
v -0.209530 -0.063194 0.050414
v -0.208527 -0.066762 0.046075
v -0.207720 -0.069632 0.041210
v -0.207129 -0.071734 0.035938
v -0.206769 -0.073016 0.030390
v -0.206648 -0.073447 0.024701
v -0.196451 -0.019965 0.061065
v -0.196451 -0.019965 0.148182
v -0.177864 -0.028614 0.061065
v -0.176599 -0.034161 0.060617
v -0.175366 -0.039570 0.059285
v -0.174194 -0.044710 0.057102
v -0.173112 -0.049454 0.054120
v -0.172147 -0.053684 0.050414
v -0.171323 -0.057297 0.046075
v -0.170661 -0.060204 0.041210
v -0.170175 -0.062333 0.035938
v -0.169879 -0.063631 0.030390
v -0.169779 -0.064068 0.024701
v -0.162293 -0.062400 -0.148182
v -0.162263 -0.062550 0.024701
v -0.141008 -0.008190 0.061065
v -0.141008 -0.008190 0.148182
v -0.138799 -0.020724 0.061065
v -0.137812 -0.026326 0.060617
v -0.136849 -0.031791 0.059285
v -0.135934 -0.036983 0.057102
v -0.135090 -0.041774 0.054120
v -0.134337 -0.046047 0.050414
v -0.133694 -0.049697 0.046075
v -0.133177 -0.052633 0.041210
v -0.132798 -0.054784 0.035938
v -0.132567 -0.056096 0.030390
v -0.132489 -0.056536 0.024701
v -0.108657 -0.052725 -0.148182
v -0.108624 -0.052942 0.024701
v -0.099389 -0.014789 0.061065
v -0.098682 -0.020434 0.060617
v -0.097993 -0.025939 0.059285
v -0.097338 -0.031170 0.057102
v -0.096733 -0.035998 0.054120
v -0.096194 -0.040303 0.050414
v -0.095734 -0.043980 0.046075
v -0.095363 -0.046939 0.041210
v -0.095092 -0.049105 0.035938
v -0.094926 -0.050427 0.030390
v -0.094871 -0.050871 0.024701
v -0.084880 -0.000309 0.061065
v -0.084880 -0.000309 0.148182
v -0.059732 -0.010825 0.061065
v -0.059307 -0.016497 0.060617
v -0.058893 -0.022030 0.059285
v -0.058499 -0.027287 0.057102
v -0.058136 -0.032139 0.054120
v -0.057812 -0.036466 0.050414
v -0.057535 -0.040161 0.046075
v -0.057313 -0.043135 0.041210
v -0.057150 -0.045312 0.035938
v -0.057050 -0.046640 0.030390
v -0.057017 -0.047087 0.024701
v -0.054467 -0.046900 -0.148182
v -0.054464 -0.046959 0.024701
v -0.028339 0.003642 0.061065
v -0.028339 0.003642 0.148182
v -0.019927 -0.008840 0.061065
v -0.019785 -0.014527 0.060617
v -0.019647 -0.020073 0.059285
v -0.019516 -0.025343 0.057102
v -0.019395 -0.030207 0.054120
v -0.019286 -0.034545 0.050414
v -0.019194 -0.038249 0.046075
v -0.019120 -0.041230 0.041210
v -0.019066 -0.043413 0.035938
v -0.019032 -0.044745 0.030390
v -0.019021 -0.045192 0.024701
v -0.000000 -0.045192 0.024701
v -0.000000 -0.044955 -0.148182
v 0.019021 -0.045192 0.024701
v 0.019033 -0.044745 0.030390
v 0.019066 -0.043413 0.035938
v 0.019120 -0.041230 0.041210
v 0.019194 -0.038249 0.046075
v 0.019287 -0.034545 0.050414
v 0.019395 -0.030207 0.054120
v 0.019516 -0.025343 0.057102
v 0.019647 -0.020073 0.059285
v 0.019786 -0.014527 0.060617
v 0.019927 -0.008840 0.061065
v 0.028340 0.003642 0.061065
v 0.028340 0.003642 0.148182
v 0.054464 -0.046959 0.024701
v 0.054467 -0.046900 -0.148182
v 0.057017 -0.047087 0.024701
v 0.057050 -0.046640 0.030390
v 0.057150 -0.045312 0.035938
v 0.057313 -0.043135 0.041210
v 0.057535 -0.040161 0.046075
v 0.057812 -0.036466 0.050414
v 0.058136 -0.032139 0.054120
v 0.058499 -0.027287 0.057102
v 0.058893 -0.022030 0.059285
v 0.059307 -0.016497 0.060617
v 0.059732 -0.010825 0.061065
v 0.084881 -0.000309 0.061065
v 0.084881 -0.000309 0.148182
v 0.094871 -0.050871 0.024701
v 0.094926 -0.050427 0.030390
v 0.095092 -0.049105 0.035938
v 0.095363 -0.046939 0.041210
v 0.095734 -0.043980 0.046075
v 0.096194 -0.040303 0.050414
v 0.096733 -0.035998 0.054120
v 0.097338 -0.031170 0.057102
v 0.097993 -0.025939 0.059285
v 0.098682 -0.020434 0.060617
v 0.099388 -0.014789 0.061065
v 0.108624 -0.052942 0.024701
v 0.108657 -0.052725 -0.148182
v 0.132490 -0.056536 0.024701
v 0.132567 -0.056096 0.030390
v 0.132798 -0.054784 0.035938
v 0.133177 -0.052633 0.041210
v 0.133695 -0.049697 0.046075
v 0.134337 -0.046047 0.050414
v 0.135090 -0.041774 0.054120
v 0.135934 -0.036983 0.057102
v 0.136849 -0.031791 0.059285
v 0.137812 -0.026326 0.060617
v 0.138799 -0.020724 0.061065
v 0.141009 -0.008190 0.061065
v 0.141009 -0.008190 0.148182
v 0.162263 -0.062550 0.024701
v 0.162293 -0.062400 -0.148182
v 0.169779 -0.064068 0.024701
v 0.169879 -0.063631 0.030390
v 0.170175 -0.062333 0.035938
v 0.170661 -0.060204 0.041210
v 0.171323 -0.057297 0.046075
v 0.172147 -0.053684 0.050414
v 0.173112 -0.049454 0.054120
v 0.174194 -0.044710 0.057102
v 0.175366 -0.039570 0.059285
v 0.176599 -0.034161 0.060617
v 0.177864 -0.028614 0.061065
v 0.196451 -0.019965 0.061065
v 0.196451 -0.019965 0.148182
v 0.206648 -0.073447 0.024701
v 0.206769 -0.073016 0.030390
v 0.207129 -0.071734 0.035938
v 0.207720 -0.069632 0.041210
v 0.208527 -0.066762 0.046075
v 0.209530 -0.063194 0.050414
v 0.210704 -0.059017 0.054120
v 0.212021 -0.054333 0.057102
v 0.213447 -0.049258 0.059285
v 0.214949 -0.043917 0.060617
v 0.215053 -0.076038 0.024701
v 0.215103 -0.075877 -0.148182
v 0.216488 -0.038440 0.061065
v 0.243003 -0.084651 0.024701
v 0.243146 -0.084227 0.030390
v 0.243569 -0.082964 0.035938
v 0.244264 -0.080894 0.041210
v 0.245213 -0.078067 0.046075
v 0.246392 -0.074554 0.050414
v 0.247773 -0.070441 0.054120
v 0.249321 -0.065828 0.057102
v 0.250938 -0.035574 0.061065
v 0.250938 -0.035574 0.148182
v 0.250999 -0.060831 0.059285
v 0.252765 -0.055570 0.060617
v 0.254575 -0.050178 0.061065
v 0.266745 -0.093284 0.024701
v 0.266817 -0.093085 -0.148182
v 0.278756 -0.097652 0.024701
v 0.278919 -0.097235 0.030390
v 0.279405 -0.095995 0.035938
v 0.280202 -0.093962 0.041210
v 0.281291 -0.091186 0.046075
v 0.282643 -0.087736 0.050414
v 0.284228 -0.083696 0.054120
v 0.286004 -0.079167 0.057102
v 0.287928 -0.074259 0.059285
v 0.289953 -0.069093 0.060617
v 0.292030 -0.063797 0.061065
v 0.304205 -0.054944 0.061065
v 0.304205 -0.054944 0.148182
v 0.313816 -0.112417 0.024701
v 0.314000 -0.112008 0.030390
v 0.314548 -0.110794 0.035938
v 0.315445 -0.108803 0.041210
v 0.316670 -0.106085 0.046075
v 0.317136 -0.114013 0.024701
v 0.317172 -0.113939 -0.148182
v 0.318193 -0.102707 0.050414
v 0.319976 -0.098751 0.054120
v 0.321976 -0.094316 0.057102
v 0.324142 -0.089510 0.059285
v 0.326422 -0.084451 0.060617
v 0.328760 -0.079265 0.061065
v 0.348098 -0.128909 0.024701
v 0.348302 -0.128511 0.030390
v 0.348909 -0.127325 0.035938
v 0.349905 -0.125381 0.041210
v 0.351264 -0.122728 0.046075
v 0.352953 -0.119429 0.050414
v 0.354931 -0.115568 0.054120
v 0.355992 -0.077979 0.061065
v 0.355992 -0.077979 0.148182
v 0.357149 -0.111237 0.057102
v 0.359552 -0.106545 0.059285
v 0.362081 -0.101606 0.060617
v 0.364674 -0.096543 0.061065
v 0.365798 -0.138538 0.024701
v 0.365911 -0.138331 -0.148182
v 0.381516 -0.147089 0.024701
v 0.381740 -0.146701 0.030390
v 0.382405 -0.145547 0.035938
v 0.383496 -0.143655 0.041210
v 0.384986 -0.141073 0.046075
v 0.386837 -0.137862 0.050414
v 0.389005 -0.134104 0.054120
v 0.391436 -0.129889 0.057102
v 0.394069 -0.125323 0.059285
v 0.396841 -0.120516 0.060617
v 0.399683 -0.115589 0.061065
v 0.406047 -0.104566 0.061065
v 0.406047 -0.104566 0.148182
v 0.412768 -0.166166 0.024701
v 0.412786 -0.166137 -0.148182
v 0.413987 -0.166910 0.024701
v 0.414230 -0.166534 0.030390
v 0.414952 -0.165415 0.035938
v 0.416136 -0.163580 0.041210
v 0.417752 -0.161074 0.046075
v 0.419761 -0.157960 0.050414
v 0.422113 -0.154314 0.054120
v 0.424751 -0.150226 0.057102
v 0.427609 -0.145796 0.059285
v 0.430617 -0.141134 0.060617
v 0.433701 -0.136354 0.061065
v 0.445431 -0.188324 0.024701
v 0.445692 -0.187960 0.030390
v 0.446469 -0.186878 0.035938
v 0.447742 -0.185105 0.041210
v 0.449482 -0.182683 0.046075
v 0.451643 -0.179673 0.050414
v 0.454128 -0.134579 0.061065
v 0.454128 -0.134579 0.148182
v 0.454174 -0.176148 0.054120
v 0.457012 -0.172197 0.057102
v 0.457422 -0.197396 0.024701
v 0.457558 -0.197215 -0.148182
v 0.460087 -0.167915 0.059285
v 0.463324 -0.163408 0.060617
v 0.466642 -0.158787 0.061065
v 0.475769 -0.211277 0.024701
v 0.476048 -0.210927 0.030390
v 0.476877 -0.209885 0.035938
v 0.478238 -0.208177 0.041210
v 0.480096 -0.205845 0.046075
v 0.482404 -0.202946 0.050414
v 0.485108 -0.199552 0.054120
v 0.488139 -0.195747 0.057102
v 0.491423 -0.191623 0.059285
v 0.494880 -0.187283 0.060617
v 0.498424 -0.182833 0.061065
v 0.500000 -0.231408 -0.148182
v 0.500000 -0.231408 0.024701
v 0.500000 -0.231191 0.028158
v 0.500000 -0.230710 0.030377
v 0.500000 -0.230143 0.032988
v 0.500000 -0.228979 0.035921
v 0.500000 -0.228427 0.037309
v 0.500000 -0.226133 0.041195
v 0.500000 -0.225808 0.041745
v 0.500000 -0.225045 0.042795
v 0.500000 -0.222185 0.046041
v 0.500000 -0.221353 0.046985
v 0.500000 -0.217365 0.050397
v 0.500000 -0.217006 0.050703
v 0.500000 -0.216379 0.051163
v 0.500000 -0.211685 0.054087
v 0.500000 -0.211015 0.054504
v 0.500000 -0.205183 0.057180
v 0.500000 -0.198921 0.059192
v 0.500000 -0.198547 0.059262
v 0.500000 -0.191393 0.060604
v 0.500000 -0.191188 0.060642
v 0.500000 -0.184092 0.061065
v 0.500000 -0.167869 0.061065
v 0.500000 -0.167869 0.148182
v 0.500000 0.019590 0.000000
v 0.500000 0.020833 -0.014208
v 0.500000 0.020833 0.014208
v 0.500000 0.024525 -0.027983
v 0.500000 0.024525 0.027983
v 0.500000 0.030552 -0.040909
v 0.500000 0.030552 0.040909
v 0.500000 0.038732 -0.052592
v 0.500000 0.038732 0.052592
v 0.500000 0.048817 -0.062676
v 0.500000 0.048817 0.062676
v 0.500000 0.060499 -0.070857
v 0.500000 0.060499 0.070857
v 0.500000 0.073425 -0.076884
v 0.500000 0.073425 0.076884
v 0.500000 0.087201 -0.080575
v 0.500000 0.087201 0.080575
v 0.500000 0.101408 -0.081818
v 0.500000 0.101408 0.081818
v 0.500000 0.115616 -0.080575
v 0.500000 0.115616 0.080575
v 0.500000 0.129392 -0.076884
v 0.500000 0.129392 0.076884
v 0.500000 0.142318 -0.070857
v 0.500000 0.142318 0.070857
v 0.500000 0.154000 -0.062676
v 0.500000 0.154000 0.062676
v 0.500000 0.164085 -0.052592
v 0.500000 0.164085 0.052592
v 0.500000 0.172265 -0.040909
v 0.500000 0.172265 0.040909
v 0.500000 0.178292 -0.027983
v 0.500000 0.178292 0.027983
v 0.500000 0.181984 -0.014208
v 0.500000 0.181984 0.014208
v 0.500000 0.183227 0.000000
v 0.500000 0.231408 -0.148182
v 0.500000 0.231408 0.148182
f 492 490 507
f 490 488 507
f 507 488 486
f 507 486 446
f 480 478 469
f 469 478 476
f 459 458 482
f 476 474 469
f 469 474 472
f 469 472 471
f 467 466 482
f 471 473 469
f 469 473 475
f 469 475 470
f 470 475 477
f 480 469 482
f 482 469 468
f 482 468 467
f 458 457 482
f 482 457 456
f 482 456 455
f 491 493 508
f 508 493 495
f 508 495 497
f 502 500 507
f 507 500 498
f 455 454 482
f 482 454 453
f 482 453 452
f 477 479 470
f 470 479 481
f 470 481 483
f 483 485 470
f 470 485 487
f 470 487 508
f 508 487 489
f 508 489 491
f 497 499 508
f 508 499 501
f 508 501 503
f 498 496 507
f 507 496 494
f 507 494 492
f 466 465 482
f 482 465 464
f 482 464 463
f 460 459 461
f 461 459 482
f 461 482 462
f 462 482 463
f 452 451 482
f 482 451 450
f 482 450 449
f 486 484 446
f 446 484 482
f 446 482 447
f 447 482 449
f 447 449 448
f 503 505 508
f 508 505 506
f 508 506 507
f 507 506 504
f 507 504 502
f 43 45 62
f 43 62 41
f 41 62 1
f 41 1 39
f 42 25 44
f 44 25 63
f 44 63 46
f 46 63 48
f 28 26 24
f 24 26 27
f 27 29 24
f 24 29 31
f 24 31 33
f 20 21 37
f 45 47 62
f 62 47 49
f 62 49 51
f 58 56 63
f 63 56 54
f 42 40 25
f 25 40 38
f 25 38 36
f 36 34 25
f 25 34 32
f 25 32 24
f 24 32 30
f 24 30 28
f 10 11 37
f 33 35 24
f 24 35 37
f 24 37 23
f 23 37 21
f 23 21 22
f 51 53 62
f 62 53 55
f 62 55 57
f 54 52 63
f 63 52 50
f 63 50 48
f 3 4 37
f 9 10 8
f 8 10 37
f 8 37 7
f 11 12 37
f 37 12 13
f 37 13 14
f 18 19 17
f 17 19 16
f 4 5 37
f 37 5 6
f 37 6 7
f 19 20 16
f 16 20 37
f 16 37 15
f 15 37 14
f 57 59 62
f 62 59 61
f 62 61 63
f 63 61 60
f 63 60 58
f 39 1 37
f 37 1 2
f 37 2 3
f 507 62 508
f 508 62 63
f 41 488 43
f 43 488 490
f 43 490 45
f 45 490 492
f 45 492 47
f 47 492 494
f 47 494 49
f 49 494 496
f 49 496 51
f 51 496 498
f 51 498 53
f 53 498 500
f 53 500 55
f 55 500 502
f 55 502 57
f 57 502 504
f 57 504 59
f 59 504 506
f 59 506 61
f 61 506 505
f 61 505 60
f 60 505 503
f 60 503 58
f 58 503 501
f 58 501 56
f 56 501 499
f 56 499 54
f 54 499 497
f 54 497 52
f 52 497 495
f 52 495 50
f 50 495 493
f 50 493 48
f 48 493 491
f 48 491 46
f 46 491 489
f 46 489 44
f 44 489 487
f 44 487 42
f 42 487 485
f 42 485 40
f 40 485 483
f 40 483 38
f 38 483 481
f 38 481 36
f 36 481 479
f 36 479 34
f 34 479 477
f 34 477 32
f 32 477 475
f 32 475 30
f 30 475 473
f 30 473 28
f 28 473 471
f 28 471 26
f 26 471 472
f 26 472 27
f 27 472 474
f 27 474 29
f 29 474 476
f 29 476 31
f 31 476 478
f 31 478 33
f 33 478 480
f 33 480 35
f 35 480 482
f 35 482 37
f 37 482 484
f 37 484 39
f 39 484 486
f 39 486 41
f 41 486 488
f 507 446 431
f 372 352 507
f 213 198 62
f 62 198 173
f 173 157 62
f 62 157 137
f 62 137 116
f 116 101 62
f 62 101 78
f 62 78 1
f 431 408 507
f 507 408 393
f 507 393 372
f 352 336 507
f 507 336 311
f 507 311 296
f 296 270 507
f 507 270 255
f 507 255 62
f 62 255 239
f 62 239 213
f 427 470 508
f 508 283 309
f 309 324 508
f 508 324 347
f 508 347 365
f 365 387 508
f 508 387 406
f 508 406 427
f 63 25 83
f 201 227 63
f 63 227 242
f 63 242 508
f 508 242 268
f 508 268 283
f 83 104 63
f 63 104 123
f 63 123 145
f 145 163 63
f 63 163 186
f 63 186 201
f 22 21 65
f 19 18 67
f 14 13 69
f 7 6 72
f 3 2 74
f 448 449 436
f 450 451 437
f 455 456 439
f 460 461 441
f 462 463 442
f 464 465 443
f 467 468 445
f 457 458 440
f 440 458 459
f 452 453 438
f 438 453 454
f 5 4 73
f 73 4 3
f 11 10 71
f 71 10 9
f 71 9 8
f 17 16 68
f 68 16 15
f 3 74 73
f 73 74 79
f 73 79 88
f 88 79 89
f 88 89 99
f 89 100 99
f 99 100 102
f 99 102 114
f 102 115 114
f 114 115 117
f 114 117 129
f 117 130 129
f 129 130 138
f 129 138 142
f 142 138 143
f 142 143 155
f 143 156 155
f 155 156 158
f 155 158 170
f 158 171 170
f 170 171 174
f 170 174 183
f 183 174 184
f 183 184 196
f 184 197 196
f 196 197 199
f 196 199 211
f 199 212 211
f 211 212 214
f 211 214 224
f 224 214 225
f 224 225 237
f 225 238 237
f 237 238 240
f 237 240 252
f 240 253 252
f 252 253 254
f 252 254 257
f 254 256 257
f 257 256 269
f 257 269 272
f 272 269 271
f 272 271 285
f 271 284 285
f 285 284 295
f 285 295 298
f 295 297 298
f 298 297 310
f 298 310 313
f 313 310 312
f 313 312 326
f 312 325 326
f 326 325 335
f 326 335 339
f 335 338 339
f 339 338 351
f 339 351 354
f 354 351 353
f 354 353 367
f 353 366 367
f 367 366 371
f 367 371 380
f 371 379 380
f 380 379 392
f 380 392 395
f 392 394 395
f 395 394 407
f 395 407 410
f 410 407 409
f 410 409 421
f 447 448 435
f 435 448 436
f 435 436 430
f 430 436 421
f 430 421 420
f 420 421 409
f 449 450 436
f 436 450 437
f 436 437 421
f 421 437 422
f 421 422 410
f 410 422 411
f 410 411 395
f 395 411 396
f 395 396 380
f 380 396 381
f 380 381 367
f 367 381 368
f 367 368 354
f 354 368 355
f 354 355 339
f 339 355 340
f 339 340 326
f 326 340 327
f 326 327 313
f 313 327 314
f 313 314 298
f 298 314 299
f 298 299 285
f 285 299 286
f 285 286 272
f 272 286 273
f 272 273 257
f 257 273 258
f 257 258 252
f 252 258 251
f 252 251 237
f 237 251 236
f 237 236 224
f 224 236 223
f 224 223 211
f 211 223 210
f 211 210 196
f 196 210 195
f 196 195 183
f 183 195 182
f 183 182 170
f 170 182 169
f 170 169 155
f 155 169 154
f 155 154 142
f 142 154 141
f 142 141 129
f 129 141 128
f 129 128 114
f 114 128 113
f 114 113 99
f 99 113 98
f 99 98 88
f 88 98 87
f 88 87 73
f 73 87 72
f 73 72 5
f 5 72 6
f 451 452 437
f 437 452 438
f 437 438 422
f 422 438 423
f 422 423 411
f 411 423 412
f 411 412 396
f 396 412 397
f 396 397 381
f 381 397 382
f 381 382 368
f 368 382 369
f 368 369 355
f 355 369 356
f 355 356 340
f 340 356 341
f 340 341 327
f 327 341 328
f 327 328 314
f 314 328 315
f 314 315 299
f 299 315 300
f 299 300 286
f 286 300 287
f 286 287 273
f 273 287 274
f 273 274 258
f 258 274 259
f 258 259 251
f 251 259 250
f 251 250 236
f 236 250 235
f 236 235 223
f 223 235 222
f 223 222 210
f 210 222 209
f 210 209 195
f 195 209 194
f 195 194 182
f 182 194 181
f 182 181 169
f 169 181 168
f 169 168 154
f 154 168 153
f 154 153 141
f 141 153 140
f 141 140 128
f 128 140 127
f 128 127 113
f 113 127 112
f 113 112 98
f 98 112 97
f 98 97 87
f 87 97 86
f 87 86 72
f 72 86 71
f 72 71 7
f 7 71 8
f 454 455 438
f 438 455 439
f 438 439 423
f 423 439 424
f 423 424 412
f 412 424 413
f 412 413 397
f 397 413 398
f 397 398 382
f 382 398 383
f 382 383 369
f 369 383 370
f 369 370 356
f 356 370 357
f 356 357 341
f 341 357 342
f 341 342 328
f 328 342 329
f 328 329 315
f 315 329 316
f 315 316 300
f 300 316 301
f 300 301 287
f 287 301 288
f 287 288 274
f 274 288 275
f 274 275 259
f 259 275 260
f 259 260 250
f 250 260 249
f 250 249 235
f 235 249 234
f 235 234 222
f 222 234 221
f 222 221 209
f 209 221 208
f 209 208 194
f 194 208 193
f 194 193 181
f 181 193 180
f 181 180 168
f 168 180 167
f 168 167 153
f 153 167 152
f 153 152 140
f 140 152 139
f 140 139 127
f 127 139 126
f 127 126 112
f 112 126 111
f 112 111 97
f 97 111 96
f 97 96 86
f 86 96 85
f 86 85 71
f 71 85 70
f 71 70 11
f 11 70 12
f 456 457 439
f 439 457 440
f 439 440 424
f 424 440 425
f 424 425 413
f 413 425 414
f 413 414 398
f 398 414 399
f 398 399 383
f 383 399 384
f 383 384 370
f 370 384 373
f 370 373 357
f 357 373 358
f 357 358 342
f 342 358 343
f 342 343 329
f 329 343 330
f 329 330 316
f 316 330 317
f 316 317 301
f 301 317 302
f 301 302 288
f 288 302 289
f 288 289 275
f 275 289 276
f 275 276 260
f 260 276 261
f 260 261 249
f 249 261 248
f 249 248 234
f 234 248 233
f 234 233 221
f 221 233 220
f 221 220 208
f 208 220 207
f 208 207 193
f 193 207 192
f 193 192 180
f 180 192 179
f 180 179 167
f 167 179 166
f 167 166 152
f 152 166 151
f 152 151 139
f 139 151 136
f 139 136 126
f 126 136 125
f 126 125 111
f 111 125 110
f 111 110 96
f 96 110 95
f 96 95 85
f 85 95 84
f 85 84 70
f 70 84 69
f 70 69 12
f 12 69 13
f 459 460 440
f 440 460 441
f 440 441 425
f 425 441 428
f 425 428 414
f 414 428 415
f 414 415 399
f 399 415 400
f 399 400 384
f 384 400 385
f 384 385 373
f 373 385 374
f 373 374 358
f 358 374 359
f 358 359 343
f 343 359 344
f 343 344 330
f 330 344 331
f 330 331 317
f 317 331 318
f 317 318 302
f 302 318 303
f 302 303 289
f 289 303 290
f 289 290 276
f 276 290 277
f 276 277 261
f 261 277 262
f 261 262 248
f 248 262 247
f 248 247 233
f 233 247 232
f 233 232 220
f 220 232 219
f 220 219 207
f 207 219 206
f 207 206 192
f 192 206 191
f 192 191 179
f 179 191 178
f 179 178 166
f 166 178 165
f 166 165 151
f 151 165 150
f 151 150 136
f 136 150 135
f 136 135 125
f 125 135 124
f 125 124 110
f 110 124 109
f 110 109 95
f 95 109 94
f 95 94 84
f 84 94 81
f 84 81 69
f 69 81 68
f 69 68 14
f 14 68 15
f 461 462 441
f 441 462 442
f 441 442 428
f 428 442 429
f 428 429 415
f 415 429 416
f 415 416 400
f 400 416 401
f 400 401 385
f 385 401 388
f 385 388 374
f 374 388 375
f 374 375 359
f 359 375 360
f 359 360 344
f 344 360 345
f 344 345 331
f 331 345 332
f 331 332 318
f 318 332 319
f 318 319 303
f 303 319 304
f 303 304 290
f 290 304 291
f 290 291 277
f 277 291 278
f 277 278 262
f 262 278 263
f 262 263 247
f 247 263 246
f 247 246 232
f 232 246 231
f 232 231 219
f 219 231 218
f 219 218 206
f 206 218 205
f 206 205 191
f 191 205 190
f 191 190 178
f 178 190 177
f 178 177 165
f 165 177 164
f 165 164 150
f 150 164 149
f 150 149 135
f 135 149 134
f 135 134 124
f 124 134 121
f 124 121 109
f 109 121 108
f 109 108 94
f 94 108 93
f 94 93 81
f 81 93 80
f 81 80 68
f 68 80 67
f 68 67 17
f 17 67 18
f 463 464 442
f 442 464 443
f 442 443 429
f 429 443 432
f 429 432 416
f 416 432 417
f 416 417 401
f 401 417 402
f 401 402 388
f 388 402 389
f 388 389 375
f 375 389 376
f 375 376 360
f 360 376 361
f 360 361 345
f 345 361 348
f 345 348 332
f 332 348 333
f 332 333 319
f 319 333 320
f 319 320 304
f 304 320 305
f 304 305 291
f 291 305 292
f 291 292 278
f 278 292 279
f 278 279 263
f 263 279 264
f 263 264 246
f 246 264 245
f 246 245 231
f 231 245 230
f 231 230 218
f 218 230 217
f 218 217 205
f 205 217 204
f 205 204 190
f 190 204 189
f 190 189 177
f 177 189 176
f 177 176 164
f 164 176 161
f 164 161 149
f 149 161 148
f 149 148 134
f 134 148 133
f 134 133 121
f 121 133 120
f 121 120 108
f 108 120 107
f 108 107 93
f 93 107 92
f 93 92 80
f 80 92 77
f 80 77 67
f 67 77 66
f 67 66 19
f 19 66 20
f 465 466 443
f 443 466 444
f 443 444 432
f 432 444 433
f 432 433 417
f 417 433 418
f 417 418 402
f 402 418 403
f 402 403 389
f 389 403 390
f 389 390 376
f 376 390 377
f 376 377 361
f 361 377 362
f 361 362 348
f 348 362 349
f 348 349 333
f 333 349 334
f 333 334 320
f 320 334 321
f 320 321 305
f 305 321 306
f 305 306 292
f 292 306 293
f 292 293 279
f 279 293 280
f 279 280 264
f 264 280 265
f 264 265 245
f 245 265 244
f 245 244 230
f 230 244 229
f 230 229 217
f 217 229 216
f 217 216 204
f 204 216 203
f 204 203 189
f 189 203 188
f 189 188 176
f 176 188 175
f 176 175 161
f 161 175 160
f 161 160 148
f 148 160 147
f 148 147 133
f 133 147 132
f 133 132 120
f 120 132 119
f 120 119 107
f 107 119 106
f 107 106 92
f 92 106 91
f 92 91 77
f 77 91 76
f 77 76 66
f 66 76 65
f 66 65 20
f 20 65 21
f 466 467 444
f 444 467 445
f 444 445 433
f 433 445 434
f 433 434 418
f 418 434 419
f 418 419 403
f 403 419 404
f 403 404 390
f 390 404 391
f 390 391 377
f 377 391 378
f 377 378 362
f 362 378 363
f 362 363 349
f 349 363 350
f 349 350 334
f 334 350 337
f 334 337 321
f 321 337 322
f 321 322 306
f 306 322 307
f 306 307 293
f 293 307 294
f 293 294 280
f 280 294 281
f 280 281 265
f 265 281 266
f 265 266 244
f 244 266 243
f 244 243 229
f 229 243 228
f 229 228 216
f 216 228 215
f 216 215 203
f 203 215 202
f 203 202 188
f 188 202 187
f 188 187 175
f 175 187 172
f 175 172 160
f 160 172 159
f 160 159 147
f 147 159 146
f 147 146 132
f 132 146 131
f 132 131 119
f 119 131 118
f 119 118 106
f 106 118 105
f 106 105 91
f 91 105 90
f 91 90 76
f 76 90 75
f 76 75 65
f 65 75 64
f 65 64 22
f 22 64 23
f 426 434 469
f 469 434 445
f 469 445 468
f 24 23 64
f 386 391 405
f 405 391 404
f 405 404 426
f 426 404 419
f 426 419 434
f 24 64 82
f 226 228 241
f 241 228 243
f 241 243 267
f 267 243 266
f 267 266 282
f 266 281 282
f 282 281 294
f 282 294 308
f 308 294 307
f 308 307 323
f 307 322 323
f 323 322 337
f 323 337 346
f 346 337 350
f 346 350 364
f 364 350 363
f 364 363 386
f 386 363 378
f 386 378 391
f 64 75 82
f 82 75 90
f 82 90 103
f 103 90 105
f 103 105 122
f 185 187 200
f 200 187 202
f 200 202 226
f 226 202 215
f 226 215 228
f 105 118 122
f 122 118 131
f 122 131 144
f 144 131 146
f 144 146 162
f 162 146 159
f 162 159 185
f 185 159 172
f 185 172 187
f 469 470 427
f 469 427 426
f 426 427 406
f 426 406 405
f 405 406 387
f 405 387 386
f 386 387 365
f 386 365 364
f 364 365 347
f 364 347 346
f 346 347 324
f 346 324 323
f 323 324 309
f 323 309 308
f 308 309 283
f 308 283 282
f 282 283 268
f 282 268 267
f 267 268 242
f 267 242 241
f 241 242 227
f 241 227 226
f 226 227 201
f 226 201 200
f 200 201 186
f 200 186 185
f 185 186 163
f 185 163 162
f 162 163 145
f 162 145 144
f 144 145 123
f 144 123 122
f 122 123 104
f 122 104 103
f 103 104 83
f 103 83 82
f 82 83 25
f 82 25 24
f 430 431 435
f 435 431 446
f 435 446 447
f 430 420 431
f 431 420 409
f 431 409 408
f 409 407 408
f 408 407 394
f 408 394 393
f 371 372 379
f 379 372 393
f 379 393 392
f 392 393 394
f 371 366 372
f 372 366 353
f 372 353 352
f 335 336 338
f 338 336 352
f 338 352 351
f 351 352 353
f 335 325 336
f 336 325 312
f 336 312 311
f 295 296 297
f 297 296 311
f 297 311 310
f 310 311 312
f 295 284 296
f 296 284 271
f 296 271 270
f 271 269 270
f 270 269 256
f 270 256 255
f 240 239 253
f 253 239 255
f 253 255 254
f 254 255 256
f 240 238 239
f 239 238 225
f 239 225 213
f 199 198 212
f 212 198 213
f 212 213 214
f 214 213 225
f 199 197 198
f 198 197 184
f 198 184 173
f 158 157 171
f 171 157 173
f 171 173 174
f 174 173 184
f 158 156 157
f 157 156 143
f 157 143 137
f 143 138 137
f 137 138 130
f 137 130 116
f 102 101 115
f 115 101 116
f 115 116 117
f 117 116 130
f 102 100 101
f 101 100 89
f 101 89 78
f 2 1 74
f 74 1 78
f 74 78 79
f 79 78 89
