v -0.500000 0.000000 -0.074424
v -0.500000 0.000000 -0.046207
v -0.497435 -0.050584 -0.074424
v -0.497435 -0.050584 -0.046207
v -0.497435 0.050584 -0.074424
v -0.497435 0.050584 -0.046207
v -0.489765 -0.100649 -0.074424
v -0.489765 -0.100649 -0.046207
v -0.489765 0.100649 -0.074424
v -0.489765 0.100649 -0.046207
v -0.477070 -0.149682 -0.074424
v -0.477070 -0.149682 -0.046207
v -0.477070 0.149682 -0.074424
v -0.477070 0.149682 -0.046207
v -0.459479 -0.197178 -0.074424
v -0.459479 -0.197178 -0.046207
v -0.459479 0.197178 -0.074424
v -0.459479 0.197178 -0.046207
v -0.443721 0.000000 -0.008541
v -0.441445 -0.044891 -0.008541
v -0.441445 0.044891 -0.008541
v -0.437173 -0.242651 -0.074424
v -0.437173 -0.242651 -0.046207
v -0.437173 0.242651 -0.074424
v -0.437173 0.242651 -0.046207
v -0.434638 -0.089321 -0.008541
v -0.434638 0.089321 -0.008541
v -0.423372 -0.132834 -0.008541
v -0.423372 0.132834 -0.008541
v -0.410382 -0.285634 -0.074424
v -0.410382 -0.285634 -0.046207
v -0.410382 0.285634 -0.074424
v -0.410382 0.285634 -0.046207
v -0.407761 -0.174984 -0.008541
v -0.407761 0.174984 -0.008541
v -0.387966 -0.215339 -0.008541
v -0.387966 0.215339 -0.008541
v -0.379379 -0.325686 -0.074424
v -0.379379 -0.325686 -0.046207
v -0.379379 0.325686 -0.074424
v -0.379379 0.325686 -0.046207
v -0.365124 0.000000 -0.008541
v -0.364190 -0.253484 -0.008541
v -0.364190 0.253484 -0.008541
v -0.363809 -0.030965 -0.008541
v -0.363809 0.030965 -0.008541
v -0.359872 -0.061706 -0.008541
v -0.359872 0.061706 -0.008541
v -0.353343 -0.092003 -0.008541
v -0.353343 0.092003 -0.008541
v -0.344483 -0.362397 -0.074424
v -0.344483 -0.362397 -0.046207
v -0.344483 0.362397 -0.074424
v -0.344483 0.362397 -0.046207
v -0.344267 -0.121637 -0.008541
v -0.344267 0.121637 -0.008541
v -0.341678 0.000000 -0.007456
v -0.340447 -0.028976 -0.007456
v -0.340447 0.028976 -0.007456
v -0.336763 -0.057744 -0.007456
v -0.336763 0.057744 -0.007456
v -0.336677 -0.289028 -0.008541
v -0.336677 0.289028 -0.008541
v -0.332712 -0.150395 -0.008541
v -0.332712 0.150395 -0.008541
v -0.330653 -0.086095 -0.007456
v -0.330653 0.086095 -0.007456
v -0.322160 -0.113826 -0.007456
v -0.322160 0.113826 -0.007456
v -0.318759 -0.178069 -0.008541
v -0.318759 0.178069 -0.008541
v -0.318432 0.000000 -0.004211
v -0.317284 -0.027005 -0.004211
v -0.317284 0.027005 -0.004211
v -0.313851 -0.053815 -0.004211
v -0.313851 0.053815 -0.004211
v -0.311347 -0.140738 -0.007456
v -0.311347 0.140737 -0.007456
v -0.308157 -0.080238 -0.004211
v -0.308157 0.080238 -0.004211
v -0.306053 -0.395388 -0.074424
v -0.306053 -0.395388 -0.046207
v -0.306053 0.395388 -0.074424
v -0.306053 0.395388 -0.046207
v -0.305709 -0.321606 -0.008541
v -0.305709 0.321606 -0.008541
v -0.302509 -0.204460 -0.008541
v -0.302509 0.204460 -0.008541
v -0.300242 -0.106082 -0.004211
v -0.300242 0.106082 -0.004211
v -0.298289 -0.166634 -0.007456
v -0.298289 0.166635 -0.007456
v -0.295584 0.000000 0.001166
v -0.294519 -0.025067 0.001166
v -0.294519 0.025067 0.001166
v -0.291333 -0.049954 0.001166
v -0.291333 0.049954 0.001166
v -0.290164 -0.131162 -0.004211
v -0.290164 0.131162 -0.004211
v -0.286047 -0.074481 0.001166
v -0.286047 0.074481 0.001166
v -0.284080 -0.229378 -0.008541
v -0.284080 0.229378 -0.008541
v -0.283083 -0.191331 -0.007456
v -0.283083 0.191331 -0.007456
v -0.278700 -0.098471 0.001166
v -0.278700 0.098471 0.001166
v -0.277995 -0.155297 -0.004211
v -0.277995 0.155297 -0.004211
v -0.273331 0.000000 0.008629
v -0.272346 -0.023180 0.008629
v -0.272346 0.023180 0.008629
v -0.271604 -0.350884 -0.008541
v -0.271604 0.350884 -0.008541
v -0.269399 -0.046193 0.008629
v -0.269399 0.046193 0.008629
v -0.269345 -0.121752 0.001166
v -0.269345 0.121752 0.001166
v -0.265838 -0.214649 -0.007456
v -0.265838 0.214649 -0.007456
v -0.264511 -0.068873 0.008629
v -0.264511 0.068873 0.008629
v -0.264482 -0.424322 -0.074424
v -0.264482 -0.424322 -0.046207
v -0.264482 0.424322 -0.074424
v -0.264482 0.424322 -0.046207
v -0.263823 -0.178314 -0.004211
v -0.263823 0.178314 -0.004211
v -0.263604 -0.252644 -0.008541
v -0.263604 0.252644 -0.008541
v -0.258049 -0.144155 0.001166
v -0.258049 0.144155 0.001166
v -0.257718 -0.091058 0.008629
v -0.257718 0.091057 0.008629
v -0.251862 0.000000 0.018116
v -0.250955 -0.021359 0.018116
v -0.250955 0.021359 0.018116
v -0.249067 -0.112585 0.008629
v -0.249067 0.112585 0.008629
v -0.248239 -0.042565 0.018116
v -0.248239 0.042565 0.018116
v -0.247751 -0.200045 -0.004211
v -0.247751 0.200045 -0.004211
v -0.246676 -0.236420 -0.007456
v -0.246676 0.236420 -0.007456
v -0.244894 -0.165520 0.001166
v -0.244894 0.165520 0.001166
v -0.243735 -0.063464 0.018116
v -0.243735 0.063464 0.018116
v -0.241228 -0.274089 -0.008541
v -0.241228 0.274089 -0.008541
v -0.238622 -0.133302 0.008629
v -0.238622 0.133302 0.008629
v -0.237475 -0.083905 0.018116
v -0.237475 0.083905 0.018116
v -0.234712 -0.376562 -0.008541
v -0.234712 0.376562 -0.008541
v -0.231360 0.000000 0.029544
v -0.230527 -0.019621 0.029544
v -0.230527 0.019621 0.029544
v -0.229975 -0.185692 0.001166
v -0.229975 0.185692 0.001166
v -0.229894 -0.220335 -0.004211
v -0.229894 0.220335 -0.004211
v -0.229504 -0.103742 0.018116
v -0.229504 0.103742 0.018116
v -0.228032 -0.039100 0.029544
v -0.228032 0.039100 0.029544
v -0.226458 -0.153058 0.008629
v -0.226458 0.153059 0.008629
v -0.225738 -0.256488 -0.007456
v -0.225738 0.256488 -0.007456
v -0.223895 -0.058298 0.029544
v -0.223895 0.058298 0.029544
v -0.220197 -0.448902 -0.074424
v -0.220197 -0.448902 -0.046207
v -0.220197 0.448902 -0.074424
v -0.220197 0.448902 -0.046207
v -0.219879 -0.122832 0.018116
v -0.219879 0.122832 0.018116
v -0.218144 -0.077075 0.029544
v -0.218144 0.077075 0.029544
v -0.217115 -0.293559 -0.008541
v -0.217115 0.293559 -0.008541
v -0.213399 -0.204526 0.001166
v -0.213399 0.204526 0.001166
v -0.212661 -0.171712 0.008629
v -0.212661 0.171712 0.008629
v -0.212001 0.000000 0.042816
v -0.211238 -0.017979 0.042816
v -0.211238 0.017979 0.042816
v -0.210822 -0.095298 0.029544
v -0.210822 0.095298 0.029544
v -0.210380 -0.239038 -0.004211
v -0.210380 0.239038 -0.004211
v -0.208952 -0.035828 0.042816
v -0.208952 0.035828 0.042816
v -0.208670 -0.141036 0.018116
v -0.208670 0.141036 0.018116
v -0.205161 -0.053420 0.042816
v -0.205161 0.053420 0.042816
v -0.203173 -0.274708 -0.007456
v -0.203173 0.274708 -0.007456
v -0.201981 -0.112833 0.029544
v -0.201981 0.112833 0.029544
v -0.199891 -0.070626 0.042816
v -0.199891 0.070626 0.042816
v -0.197333 -0.189128 0.008629
v -0.197333 0.189128 0.008629
v -0.195958 -0.158225 0.018116
v -0.195958 0.158225 0.018116
v -0.195412 -0.398375 -0.008541
v -0.195412 0.398375 -0.008541
v -0.195285 -0.221887 0.001166
v -0.195285 0.221887 0.001166
v -0.193951 0.000000 0.057818
v -0.193252 -0.016448 0.057818
v -0.193252 0.016448 0.057818
v -0.193182 -0.087324 0.042816
v -0.193182 0.087324 0.042816
v -0.191684 -0.129556 0.029544
v -0.191684 0.129556 0.029544
v -0.191437 -0.310914 -0.008541
v -0.191437 0.310914 -0.008541
v -0.191161 -0.032778 0.057818
v -0.191161 0.032778 0.057818
v -0.189350 -0.256018 -0.004211
v -0.189350 0.256018 -0.004211
v -0.187692 -0.048871 0.057818
v -0.187692 0.048871 0.057818
v -0.185080 -0.103392 0.042816
v -0.185080 0.103392 0.042816
v -0.182872 -0.064613 0.057818
v -0.182872 0.064613 0.057818
v -0.181833 -0.174273 0.018116
v -0.181833 0.174273 0.018116
v -0.180583 -0.205182 0.008629
v -0.180583 0.205182 0.008629
v -0.180007 -0.145345 0.029544
v -0.180007 0.145345 0.029544
v -0.179144 -0.290948 -0.007456
v -0.179144 0.290949 -0.007456
v -0.177362 0.000000 -0.006703
v -0.177362 0.000000 0.074424
v -0.176733 -0.079889 0.057818
v -0.176733 0.079889 0.057818
v -0.176723 -0.015041 0.074424
v -0.176723 0.015041 0.074424
v -0.175764 -0.237649 0.001166
v -0.175764 0.237649 0.001166
v -0.175645 -0.118715 0.042816
v -0.175645 0.118716 0.042816
v -0.174811 -0.029974 -0.006703
v -0.174811 -0.029974 0.074424
v -0.174811 0.029974 -0.006703
v -0.174811 0.029974 0.074424
v -0.173653 -0.468876 -0.074424
v -0.173653 -0.468876 -0.046207
v -0.173653 0.468876 -0.074424
v -0.173653 0.468876 -0.046207
v -0.171639 -0.044691 0.074424
v -0.171639 0.044691 0.074424
v -0.169322 -0.094589 0.057818
v -0.169322 0.094589 0.057818
v -0.167231 -0.059086 -0.006703
v -0.167231 -0.059086 0.074424
v -0.167231 0.059086 -0.006703
v -0.167231 0.059086 0.074424
v -0.167032 -0.160087 0.029544
v -0.167032 0.160087 0.029544
v -0.166956 -0.271154 -0.004211
v -0.166956 0.271154 -0.004211
v -0.166399 -0.189066 0.018116
v -0.166399 0.189066 0.018116
v -0.164945 -0.133184 0.042816
v -0.164945 0.133184 0.042816
v -0.164380 -0.326029 -0.008541
v -0.164380 0.326029 -0.008541
v -0.162532 -0.219758 0.008629
v -0.162532 0.219758 0.008629
v -0.161618 -0.073056 0.074424
v -0.161618 0.073056 0.074424
v -0.160690 -0.108607 0.057818
v -0.160690 0.108607 0.057818
v -0.154977 -0.251699 0.001166
v -0.154977 0.251699 0.001166
v -0.154840 -0.086499 -0.006703
v -0.154840 -0.086499 0.074424
v -0.154840 0.086499 0.074424
v -0.154840 0.086499 -0.006703
v -0.154107 -0.416101 -0.008541
v -0.154107 0.416101 -0.008541
v -0.153825 -0.305093 -0.007456
v -0.153825 0.305093 -0.007456
v -0.153056 -0.146692 0.042816
v -0.153056 0.146692 0.042816
v -0.152854 -0.173676 0.029544
v -0.152854 0.173676 0.029544
v -0.150900 -0.121844 0.057818
v -0.150900 0.121844 0.057818
v -0.149765 -0.202496 0.018116
v -0.149765 0.202497 0.018116
v -0.146946 -0.099318 0.074424
v -0.146946 0.099318 0.074424
v -0.143359 -0.284336 -0.004211
v -0.143359 0.284336 -0.004211
v -0.143309 -0.232749 0.008629
v -0.143309 0.232749 0.008629
v -0.140064 -0.159144 0.042816
v -0.140064 0.159144 0.042816
v -0.140024 -0.134202 0.057818
v -0.140024 0.134202 0.057818
v -0.137994 -0.111422 -0.006703
v -0.137994 -0.111422 0.074424
v -0.137994 0.111422 -0.006703
v -0.137994 0.111422 0.074424
v -0.137575 -0.186013 0.029544
v -0.137575 0.186013 0.029544
v -0.136139 -0.338795 -0.008541
v -0.136139 0.338795 -0.008541
v -0.133073 -0.263935 0.001166
v -0.133073 0.263935 0.001166
v -0.132053 -0.214468 0.018116
v -0.132053 0.214468 0.018116
v -0.128138 -0.145594 0.057818
v -0.128138 0.145594 0.057818
v -0.128048 -0.122724 0.074424
v -0.128048 0.122724 0.074424
v -0.127397 -0.317039 -0.007456
v -0.127397 0.317039 -0.007456
v -0.126063 -0.170449 0.042816
v -0.126063 0.170449 0.042816
v -0.125326 -0.484039 -0.074424
v -0.125326 -0.484039 -0.046207
v -0.125326 0.484039 -0.074424
v -0.125326 0.484039 -0.046207
v -0.123055 -0.244064 0.008629
v -0.123055 0.244064 0.008629
v -0.121304 -0.197010 0.029544
v -0.121304 0.197010 0.029544
v -0.118729 -0.295469 -0.004211
v -0.118729 0.295469 -0.004211
v -0.117179 -0.133141 0.074424
v -0.117179 -0.133141 -0.006703
v -0.117179 0.133141 -0.006703
v -0.117179 0.133141 0.074424
v -0.115329 -0.155936 0.057818
v -0.115329 0.155936 0.057818
v -0.113389 -0.224894 0.018116
v -0.113389 0.224894 0.018116
v -0.111220 -0.429556 -0.008541
v -0.111220 0.429557 -0.008541
v -0.111154 -0.180525 0.042816
v -0.111154 0.180526 0.042816
v -0.110210 -0.274269 0.001166
v -0.110210 0.274270 0.001166
v -0.106917 -0.349120 -0.008541
v -0.106917 0.349120 -0.008541
v -0.105465 -0.142599 0.074424
v -0.105465 0.142599 0.074424
v -0.104159 -0.206588 0.029544
v -0.104159 0.206588 0.029544
v -0.101913 -0.253621 0.008629
v -0.101913 0.253621 0.008629
v -0.101690 -0.165155 0.057818
v -0.101690 0.165155 0.057818
v -0.100051 -0.326701 -0.007456
v -0.100051 0.326701 -0.007456
v -0.095444 -0.189302 0.042816
v -0.095444 0.189302 0.042816
v -0.093908 -0.233700 0.018116
v -0.093908 0.233700 0.018116
v -0.093244 -0.304474 -0.004211
v -0.093244 0.304474 -0.004211
v -0.092992 -0.151029 0.074424
v -0.092992 -0.151029 -0.006703
v -0.092992 0.151029 -0.006703
v -0.092992 0.151029 0.074424
v -0.087317 -0.173184 0.057818
v -0.087317 0.173184 0.057818
v -0.086554 -0.282628 0.001166
v -0.086554 0.282628 0.001166
v -0.086264 -0.214677 0.029544
v -0.086264 0.214677 0.029544
v -0.080037 -0.261350 0.008629
v -0.080037 0.261350 0.008629
v -0.079849 -0.158371 0.074424
v -0.079849 0.158371 0.074424
v -0.079046 -0.196714 0.042816
v -0.079046 0.196714 0.042816
v -0.076924 -0.356929 -0.008541
v -0.076924 0.356929 -0.008541
v -0.075714 -0.494234 -0.074424
v -0.075714 -0.494234 -0.046207
v -0.075714 0.494234 -0.074424
v -0.075714 0.494234 -0.046207
v -0.073751 -0.240822 0.018116
v -0.073751 0.240822 0.018116
v -0.072316 -0.179965 0.057818
v -0.072316 0.179965 0.057818
v -0.071984 -0.334009 -0.007456
v -0.071984 0.334009 -0.007456
v -0.067748 -0.221219 0.029544
v -0.067748 0.221219 0.029544
v -0.067192 -0.438604 -0.008541
v -0.067192 0.438605 -0.008541
v -0.067087 -0.311284 -0.004211
v -0.067087 0.311285 -0.004211
v -0.066131 -0.164572 0.074424
v -0.066131 -0.164572 -0.006703
v -0.066131 0.164572 -0.006703
v -0.066131 0.164572 0.074424
v -0.062273 -0.288950 0.001166
v -0.062273 0.288950 0.001166
v -0.062079 -0.202709 0.042816
v -0.062079 0.202709 0.042816
v -0.057585 -0.267196 0.008629
v -0.057585 0.267196 0.008629
v -0.056793 -0.185449 0.057818
v -0.056793 0.185449 0.057818
v -0.053062 -0.246209 0.018116
v -0.053062 0.246209 0.018116
v -0.051936 -0.169588 0.074424
v -0.051936 0.169588 0.074424
v -0.048743 -0.226168 0.029544
v -0.048743 0.226168 0.029544
v -0.046377 -0.362167 -0.008541
v -0.046377 0.362167 -0.008541
v -0.044664 -0.207243 0.042816
v -0.044664 0.207243 0.042816
v -0.043399 -0.338910 -0.007456
v -0.043399 0.338910 -0.007456
v -0.040861 -0.189598 0.057818
v -0.040861 0.189598 0.057818
v -0.040446 -0.315852 -0.004211
v -0.040446 0.315852 -0.004211
v -0.037544 -0.293190 0.001166
v -0.037544 0.293190 0.001166
v -0.037366 -0.173381 -0.006703
v -0.037366 -0.173381 0.074424
v -0.037366 0.173381 -0.006703
v -0.037366 0.173381 0.074424
v -0.034718 -0.271117 0.008629
v -0.034718 0.271117 0.008629
v -0.031991 -0.249822 0.018116
v -0.031991 0.249822 0.018116
v -0.029387 -0.229486 0.029544
v -0.029387 0.229487 0.029544
v -0.026928 -0.210284 0.042816
v -0.026928 0.210285 0.042816
v -0.025325 -0.499358 -0.074424
v -0.025325 -0.499358 -0.046207
v -0.025325 0.499358 -0.046207
v -0.025325 0.499358 -0.074424
v -0.024635 -0.192380 0.057818
v -0.024635 0.192380 0.057818
v -0.022528 -0.175926 0.074424
v -0.022528 0.175926 0.074424
v -0.022474 -0.443152 -0.008541
v -0.022474 0.443152 -0.008541
v -0.015496 -0.364795 -0.008541
v -0.015496 0.364795 -0.008541
v -0.014501 -0.341370 -0.007456
v -0.014501 0.341370 -0.007456
v -0.013515 -0.318145 -0.004211
v -0.013515 0.318145 -0.004211
v -0.012545 -0.295318 0.001166
v -0.012545 0.295318 0.001166
v -0.011600 -0.273085 0.008629
v -0.011600 0.273085 0.008629
v -0.010689 -0.251635 0.018116
v -0.010689 0.251635 0.018116
v -0.009819 -0.231152 0.029544
v -0.009819 0.231152 0.029544
v -0.008998 -0.211811 0.042816
v -0.008998 0.211811 0.042816
v -0.008232 -0.193776 0.057818
v -0.008232 0.193776 0.057818
v -0.007527 -0.177202 -0.006703
v -0.007527 -0.177202 0.074424
v -0.007527 0.177202 -0.006703
v -0.007527 0.177202 0.074424
v 0.007528 -0.177202 0.074424
v 0.007528 0.177202 0.074424
v 0.008231 -0.193776 0.057818
v 0.008231 0.193776 0.057818
v 0.008998 -0.211811 0.042816
v 0.008998 0.211811 0.042816
v 0.009819 -0.231152 0.029544
v 0.009819 0.231152 0.029544
v 0.010689 -0.251635 0.018116
v 0.010689 0.251635 0.018116
v 0.011600 -0.273085 0.008629
v 0.011600 0.273085 0.008629
v 0.012545 -0.295318 0.001166
v 0.012545 0.295318 0.001166
v 0.013515 -0.318145 -0.004211
v 0.013515 0.318145 -0.004211
v 0.014501 -0.341370 -0.007456
v 0.014501 0.341370 -0.007456
v 0.015496 -0.364795 -0.008541
v 0.015496 0.364795 -0.008541
v 0.022474 -0.443152 -0.008541
v 0.022474 0.443152 -0.008541
v 0.022528 -0.175926 -0.006703
v 0.022528 -0.175926 0.074424
v 0.022528 0.175926 -0.006703
v 0.022528 0.175926 0.074424
v 0.024635 -0.192380 0.057818
v 0.024635 0.192380 0.057818
v 0.025325 -0.499358 -0.074424
v 0.025325 -0.499358 -0.046207
v 0.025325 0.499358 -0.046207
v 0.025325 0.499358 -0.074424
v 0.026928 -0.210284 0.042816
v 0.026928 0.210285 0.042816
v 0.029387 -0.229486 0.029544
v 0.029387 0.229487 0.029544
v 0.031991 -0.249822 0.018116
v 0.031991 0.249822 0.018116
v 0.034718 -0.271117 0.008629
v 0.034718 0.271117 0.008629
v 0.037367 -0.173381 0.074424
v 0.037367 0.173381 0.074424
v 0.037544 -0.293190 0.001166
v 0.037544 0.293190 0.001166
v 0.040447 -0.315852 -0.004211
v 0.040447 0.315852 -0.004211
v 0.040861 -0.189598 0.057818
v 0.040861 0.189598 0.057818
v 0.043399 -0.338910 -0.007456
v 0.043399 0.338910 -0.007456
v 0.044665 -0.207243 0.042816
v 0.044665 0.207243 0.042816
v 0.046377 -0.362167 -0.008541
v 0.046377 0.362167 -0.008541
v 0.048743 -0.226168 0.029544
v 0.048743 0.226168 0.029544
v 0.051936 -0.169588 -0.006703
v 0.051936 -0.169588 0.074424
v 0.051936 0.169588 -0.006703
v 0.051936 0.169588 0.074424
v 0.053062 -0.246209 0.018116
v 0.053062 0.246209 0.018116
v 0.056793 -0.185449 0.057818
v 0.056793 0.185449 0.057818
v 0.057585 -0.267196 0.008629
v 0.057585 0.267196 0.008629
v 0.062079 -0.202709 0.042816
v 0.062079 0.202709 0.042816
v 0.062273 -0.288950 0.001166
v 0.062273 0.288950 0.001166
v 0.066131 -0.164572 0.074424
v 0.066131 0.164572 0.074424
v 0.067087 -0.311284 -0.004211
v 0.067087 0.311285 -0.004211
v 0.067192 -0.438604 -0.008541
v 0.067192 0.438605 -0.008541
v 0.067748 -0.221219 0.029544
v 0.067748 0.221219 0.029544
v 0.071984 -0.334009 -0.007456
v 0.071984 0.334009 -0.007456
v 0.072316 -0.179965 0.057818
v 0.072316 0.179965 0.057818
v 0.073751 -0.240822 0.018116
v 0.073751 0.240822 0.018116
v 0.075714 -0.494234 -0.074424
v 0.075714 -0.494234 -0.046207
v 0.075714 0.494234 -0.074424
v 0.075714 0.494234 -0.046207
v 0.076924 -0.356929 -0.008541
v 0.076924 0.356929 -0.008541
v 0.079046 -0.196714 0.042816
v 0.079046 0.196714 0.042816
v 0.079849 -0.158371 -0.006703
v 0.079849 -0.158371 0.074424
v 0.079849 0.158371 -0.006703
v 0.079849 0.158371 0.074424
v 0.080038 -0.261350 0.008629
v 0.080038 0.261350 0.008629
v 0.086264 -0.214677 0.029544
v 0.086264 0.214677 0.029544
v 0.086554 -0.282628 0.001166
v 0.086554 0.282628 0.001166
v 0.087317 -0.173184 0.057818
v 0.087317 0.173184 0.057818
v 0.092992 -0.151029 0.074424
v 0.092992 0.151029 0.074424
v 0.093244 -0.304474 -0.004211
v 0.093244 0.304474 -0.004211
v 0.093908 -0.233700 0.018116
v 0.093908 0.233700 0.018116
v 0.095444 -0.189302 0.042816
v 0.095444 0.189302 0.042816
v 0.100051 -0.326701 -0.007456
v 0.100051 0.326701 -0.007456
v 0.101690 -0.165155 0.057818
v 0.101690 0.165155 0.057818
v 0.101913 -0.253621 0.008629
v 0.101913 0.253621 0.008629
v 0.104159 -0.206588 0.029544
v 0.104159 0.206588 0.029544
v 0.105465 -0.142599 -0.006703
v 0.105465 -0.142599 0.074424
v 0.105465 0.142599 -0.006703
v 0.105465 0.142599 0.074424
v 0.106917 -0.349120 -0.008541
v 0.106917 0.349120 -0.008541
v 0.110211 -0.274269 0.001166
v 0.110211 0.274270 0.001166
v 0.111154 -0.180525 0.042816
v 0.111154 0.180526 0.042816
v 0.111220 -0.429556 -0.008541
v 0.111220 0.429557 -0.008541
v 0.113389 -0.224894 0.018116
v 0.113389 0.224894 0.018116
v 0.115329 -0.155936 0.057818
v 0.115329 0.155936 0.057818
v 0.117179 -0.133141 0.074424
v 0.117179 0.133141 0.074424
v 0.118729 -0.295469 -0.004211
v 0.118729 0.295469 -0.004211
v 0.121304 -0.197010 0.029544
v 0.121304 0.197010 0.029544
v 0.123055 -0.244064 0.008629
v 0.123055 0.244064 0.008629
v 0.125326 -0.484039 -0.074424
v 0.125326 -0.484039 -0.046207
v 0.125326 0.484039 -0.074424
v 0.125326 0.484039 -0.046207
v 0.126063 -0.170449 0.042816
v 0.126063 0.170449 0.042816
v 0.127397 -0.317039 -0.007456
v 0.127397 0.317039 -0.007456
v 0.128048 -0.122724 -0.006703
v 0.128048 -0.122724 0.074424
v 0.128048 0.122724 -0.006703
v 0.128048 0.122724 0.074424
v 0.128138 -0.145594 0.057818
v 0.128138 0.145594 0.057818
v 0.132053 -0.214468 0.018116
v 0.132053 0.214468 0.018116
v 0.133073 -0.263935 0.001166
v 0.133073 0.263935 0.001166
v 0.136139 -0.338795 -0.008541
v 0.136139 0.338795 -0.008541
v 0.137575 -0.186013 0.029544
v 0.137575 0.186013 0.029544
v 0.137994 -0.111422 0.074424
v 0.137994 0.111422 0.074424
v 0.140024 -0.134202 0.057818
v 0.140024 0.134202 0.057818
v 0.140064 -0.159144 0.042816
v 0.140064 0.159144 0.042816
v 0.143310 -0.232749 0.008629
v 0.143310 0.232749 0.008629
v 0.143359 -0.284336 -0.004211
v 0.143359 0.284336 -0.004211
v 0.146946 -0.099318 -0.006703
v 0.146946 -0.099318 0.074424
v 0.146946 0.099318 -0.006703
v 0.146946 0.099318 0.074424
v 0.149765 -0.202496 0.018116
v 0.149765 0.202497 0.018116
v 0.150901 -0.121844 0.057818
v 0.150901 0.121844 0.057818
v 0.152854 -0.173676 0.029544
v 0.152854 0.173676 0.029544
v 0.153056 -0.146692 0.042816
v 0.153056 0.146692 0.042816
v 0.153825 -0.305093 -0.007456
v 0.153825 0.305093 -0.007456
v 0.154107 -0.416101 -0.008541
v 0.154107 0.416101 -0.008541
v 0.154840 -0.086499 0.074424
v 0.154840 0.086499 0.074424
v 0.154977 -0.251699 0.001166
v 0.154977 0.251699 0.001166
v 0.160690 -0.108607 0.057818
v 0.160690 0.108607 0.057818
v 0.161617 -0.073056 -0.006703
v 0.161617 -0.073056 0.074424
v 0.161617 0.073056 -0.006703
v 0.161617 0.073056 0.074424
v 0.162532 -0.219758 0.008629
v 0.162532 0.219758 0.008629
v 0.164380 -0.326029 -0.008541
v 0.164380 0.326029 -0.008541
v 0.164945 -0.133184 0.042816
v 0.164945 0.133184 0.042816
v 0.166399 -0.189066 0.018116
v 0.166399 0.189066 0.018116
v 0.166956 -0.271154 -0.004211
v 0.166956 0.271154 -0.004211
v 0.167032 -0.160087 0.029544
v 0.167032 0.160087 0.029544
v 0.167231 -0.059086 0.074424
v 0.167231 0.059086 0.074424
v 0.169322 -0.094589 0.057818
v 0.169322 0.094589 0.057818
v 0.171639 -0.044691 -0.006703
v 0.171639 -0.044691 0.074424
v 0.171639 0.044691 -0.006703
v 0.171639 0.044691 0.074424
v 0.173653 -0.468876 -0.074424
v 0.173653 -0.468876 -0.046207
v 0.173653 0.468876 -0.074424
v 0.173653 0.468876 -0.046207
v 0.174811 -0.029974 0.074424
v 0.174811 0.029974 0.074424
v 0.175646 -0.118715 0.042816
v 0.175646 0.118716 0.042816
v 0.175764 -0.237649 0.001166
v 0.175764 0.237649 0.001166
v 0.176723 -0.015041 -0.006703
v 0.176723 -0.015041 0.074424
v 0.176723 0.015041 -0.006703
v 0.176723 0.015041 0.074424
v 0.176734 -0.079889 0.057818
v 0.176734 0.079889 0.057818
v 0.177362 0.000000 0.074424
v 0.179144 -0.290948 -0.007456
v 0.179144 0.290949 -0.007456
v 0.180007 -0.145345 0.029544
v 0.180007 0.145345 0.029544
v 0.180583 -0.205182 0.008629
v 0.180583 0.205182 0.008629
v 0.181833 -0.174273 0.018116
v 0.181833 0.174273 0.018116
v 0.182872 -0.064613 0.057818
v 0.182872 0.064613 0.057818
v 0.185080 -0.103392 0.042816
v 0.185080 0.103392 0.042816
v 0.187693 -0.048871 0.057818
v 0.187693 0.048871 0.057818
v 0.189350 -0.256018 -0.004211
v 0.189350 0.256018 -0.004211
v 0.191161 -0.032778 0.057818
v 0.191161 0.032778 0.057818
v 0.191437 -0.310914 -0.008541
v 0.191437 0.310914 -0.008541
v 0.191684 -0.129556 0.029544
v 0.191684 0.129556 0.029544
v 0.193182 -0.087324 0.042816
v 0.193182 0.087324 0.042816
v 0.193252 -0.016448 0.057818
v 0.193252 0.016448 0.057818
v 0.193951 0.000000 0.057818
v 0.195285 -0.221887 0.001166
v 0.195285 0.221887 0.001166
v 0.195412 -0.398375 -0.008541
v 0.195412 0.398375 -0.008541
v 0.195958 -0.158225 0.018116
v 0.195958 0.158225 0.018116
v 0.197333 -0.189128 0.008629
v 0.197333 0.189128 0.008629
v 0.199891 -0.070626 0.042816
v 0.199891 0.070626 0.042816
v 0.201981 -0.112833 0.029544
v 0.201981 0.112833 0.029544
v 0.203173 -0.274708 -0.007456
v 0.203173 0.274708 -0.007456
v 0.205161 -0.053420 0.042816
v 0.205161 0.053420 0.042816
v 0.208670 -0.141036 0.018116
v 0.208670 0.141036 0.018116
v 0.208952 -0.035828 0.042816
v 0.208952 0.035828 0.042816
v 0.210380 -0.239038 -0.004211
v 0.210380 0.239038 -0.004211
v 0.210822 -0.095298 0.029544
v 0.210822 0.095298 0.029544
v 0.211238 -0.017979 0.042816
v 0.211238 0.017979 0.042816
v 0.212002 0.000000 0.042816
v 0.212661 -0.171712 0.008629
v 0.212661 0.171712 0.008629
v 0.213399 -0.204526 0.001166
v 0.213399 0.204526 0.001166
v 0.217115 -0.293559 -0.008541
v 0.217115 0.293559 -0.008541
v 0.218144 -0.077075 0.029544
v 0.218144 0.077075 0.029544
v 0.219879 -0.122832 0.018116
v 0.219879 0.122832 0.018116
v 0.220197 -0.448902 -0.074424
v 0.220197 -0.448902 -0.046207
v 0.220197 0.448902 -0.074424
v 0.220197 0.448902 -0.046207
v 0.223895 -0.058298 0.029544
v 0.223895 0.058298 0.029544
v 0.225738 -0.256488 -0.007456
v 0.225738 0.256488 -0.007456
v 0.226458 -0.153058 0.008629
v 0.226458 0.153059 0.008629
v 0.228033 -0.039100 0.029544
v 0.228033 0.039100 0.029544
v 0.229504 -0.103742 0.018116
v 0.229504 0.103742 0.018116
v 0.229894 -0.220335 -0.004211
v 0.229894 0.220335 -0.004211
v 0.229975 -0.185692 0.001166
v 0.229975 0.185692 0.001166
v 0.230527 -0.019621 0.029544
v 0.230527 0.019621 0.029544
v 0.231361 0.000000 0.029544
v 0.234713 -0.376562 -0.008541
v 0.234713 0.376562 -0.008541
v 0.237475 -0.083905 0.018116
v 0.237475 0.083905 0.018116
v 0.238622 -0.133302 0.008629
v 0.238622 0.133302 0.008629
v 0.241228 -0.274089 -0.008541
v 0.241228 0.274089 -0.008541
v 0.243735 -0.063464 0.018116
v 0.243735 0.063464 0.018116
v 0.244895 -0.165520 0.001166
v 0.244895 0.165520 0.001166
v 0.246676 -0.236420 -0.007456
v 0.246676 0.236420 -0.007456
v 0.247751 -0.200045 -0.004211
v 0.247751 0.200045 -0.004211
v 0.248239 -0.042565 0.018116
v 0.248239 0.042565 0.018116
v 0.249067 -0.112585 0.008629
v 0.249067 0.112585 0.008629
v 0.250955 -0.021359 0.018116
v 0.250955 0.021359 0.018116
v 0.251862 0.000000 0.018116
v 0.257718 -0.091058 0.008629
v 0.257718 0.091057 0.008629
v 0.258049 -0.144155 0.001166
v 0.258049 0.144155 0.001166
v 0.263604 -0.252644 -0.008541
v 0.263604 0.252644 -0.008541
v 0.263824 -0.178314 -0.004211
v 0.263824 0.178314 -0.004211
v 0.264482 -0.424322 -0.074424
v 0.264482 -0.424322 -0.046207
v 0.264482 0.424322 -0.074424
v 0.264482 0.424322 -0.046207
v 0.264512 -0.068873 0.008629
v 0.264512 0.068873 0.008629
v 0.265838 -0.214649 -0.007456
v 0.265838 0.214649 -0.007456
v 0.269345 -0.121752 0.001166
v 0.269345 0.121752 0.001166
v 0.269400 -0.046193 0.008629
v 0.269400 0.046193 0.008629
v 0.271604 -0.350884 -0.008541
v 0.271604 0.350884 -0.008541
v 0.272346 -0.023180 0.008629
v 0.272346 0.023180 0.008629
v 0.273331 0.000000 0.008629
v 0.277995 -0.155297 -0.004211
v 0.277995 0.155297 -0.004211
v 0.278700 -0.098471 0.001166
v 0.278700 0.098471 0.001166
v 0.283083 -0.191331 -0.007456
v 0.283083 0.191331 -0.007456
v 0.284080 -0.229378 -0.008541
v 0.284080 0.229378 -0.008541
v 0.286046 -0.074481 0.001166
v 0.286046 0.074481 0.001166
v 0.290164 -0.131162 -0.004211
v 0.290164 0.131162 -0.004211
v 0.291333 -0.049954 0.001166
v 0.291333 0.049954 0.001166
v 0.294519 -0.025067 0.001166
v 0.294519 0.025067 0.001166
v 0.295585 0.000000 0.001166
v 0.298289 -0.166634 -0.007456
v 0.298289 0.166635 -0.007456
v 0.300242 -0.106082 -0.004211
v 0.300242 0.106082 -0.004211
v 0.302509 -0.204460 -0.008541
v 0.302509 0.204460 -0.008541
v 0.305709 -0.321606 -0.008541
v 0.305709 0.321606 -0.008541
v 0.306053 -0.395388 -0.074424
v 0.306053 -0.395388 -0.046207
v 0.306053 0.395388 -0.074424
v 0.306053 0.395388 -0.046207
v 0.308157 -0.080238 -0.004211
v 0.308157 0.080238 -0.004211
v 0.311346 -0.140738 -0.007456
v 0.311346 0.140737 -0.007456
v 0.313851 -0.053815 -0.004211
v 0.313851 0.053815 -0.004211
v 0.317284 -0.027005 -0.004211
v 0.317284 0.027005 -0.004211
v 0.318432 0.000000 -0.004211
v 0.318759 -0.178069 -0.008541
v 0.318759 0.178069 -0.008541
v 0.322160 -0.113826 -0.007456
v 0.322160 0.113826 -0.007456
v 0.330653 -0.086095 -0.007456
v 0.330653 0.086095 -0.007456
v 0.332712 -0.150395 -0.008541
v 0.332712 0.150395 -0.008541
v 0.336677 -0.289028 -0.008541
v 0.336677 0.289028 -0.008541
v 0.336763 -0.057744 -0.007456
v 0.336763 0.057744 -0.007456
v 0.340447 -0.028976 -0.007456
v 0.340447 0.028976 -0.007456
v 0.341678 0.000000 -0.007456
v 0.344267 -0.121637 -0.008541
v 0.344267 0.121637 -0.008541
v 0.344484 -0.362397 -0.074424
v 0.344484 -0.362397 -0.046207
v 0.344484 0.362397 -0.074424
v 0.344484 0.362397 -0.046207
v 0.353343 -0.092003 -0.008541
v 0.353343 0.092003 -0.008541
v 0.359872 -0.061706 -0.008541
v 0.359872 0.061706 -0.008541
v 0.363809 -0.030965 -0.008541
v 0.363809 0.030965 -0.008541
v 0.364190 -0.253484 -0.008541
v 0.364190 0.253484 -0.008541
v 0.365124 0.000000 -0.008541
v 0.379379 -0.325686 -0.074424
v 0.379379 -0.325686 -0.046207
v 0.379379 0.325686 -0.074424
v 0.379379 0.325686 -0.046207
v 0.387966 -0.215339 -0.008541
v 0.387966 0.215339 -0.008541
v 0.407761 -0.174984 -0.008541
v 0.407761 0.174984 -0.008541
v 0.410382 -0.285634 -0.074424
v 0.410382 -0.285634 -0.046207
v 0.410382 0.285634 -0.074424
v 0.410382 0.285634 -0.046207
v 0.423372 -0.132834 -0.008541
v 0.423372 0.132834 -0.008541
v 0.434638 -0.089321 -0.008541
v 0.434638 0.089321 -0.008541
v 0.437173 -0.242651 -0.074424
v 0.437173 -0.242651 -0.046207
v 0.437173 0.242651 -0.074424
v 0.437173 0.242651 -0.046207
v 0.441445 -0.044891 -0.008541
v 0.441445 0.044891 -0.008541
v 0.443722 0.000000 -0.008541
v 0.459479 -0.197178 -0.074424
v 0.459479 -0.197178 -0.046207
v 0.459479 0.197178 -0.074424
v 0.459479 0.197178 -0.046207
v 0.477070 -0.149682 -0.074424
v 0.477070 -0.149682 -0.046207
v 0.477070 0.149682 -0.074424
v 0.477070 0.149682 -0.046207
v 0.489765 -0.100649 -0.074424
v 0.489765 -0.100649 -0.046207
v 0.489765 0.100649 -0.074424
v 0.489765 0.100649 -0.046207
v 0.497435 -0.050584 -0.074424
v 0.497435 -0.050584 -0.046207
v 0.497435 0.050584 -0.074424
v 0.497435 0.050584 -0.046207
v 0.500000 0.000000 -0.074424
v 0.500000 0.000000 -0.046207
f 51 912 925
f 51 38 30
f 15 11 912
f 925 933 51
f 51 933 941
f 51 941 948
f 51 30 912
f 912 30 22
f 912 22 15
f 939 931 51
f 51 931 923
f 51 923 910
f 786 705 627
f 257 175 786
f 786 175 123
f 11 7 912
f 912 7 3
f 912 3 1
f 707 83 125
f 125 177 707
f 707 177 259
f 707 259 335
f 948 952 51
f 51 952 956
f 51 956 960
f 954 950 51
f 51 950 946
f 51 946 939
f 627 567 786
f 786 567 511
f 786 511 451
f 451 393 786
f 786 393 333
f 786 333 257
f 123 81 786
f 786 81 51
f 786 51 838
f 838 51 910
f 838 910 880
f 17 912 13
f 13 912 1
f 13 1 9
f 9 1 5
f 335 395 707
f 707 395 454
f 707 454 629
f 629 454 514
f 629 514 569
f 960 962 51
f 51 962 958
f 51 958 954
f 17 24 912
f 912 24 32
f 912 32 40
f 788 840 707
f 707 840 882
f 707 882 83
f 83 882 912
f 83 912 53
f 53 912 40
f 3 2 1
f 1 2 6
f 1 6 5
f 5 6 10
f 5 10 9
f 9 10 14
f 9 14 13
f 13 14 18
f 13 18 17
f 17 18 25
f 17 25 24
f 24 25 33
f 24 33 32
f 32 33 41
f 32 41 40
f 40 41 54
f 40 54 53
f 53 54 84
f 53 84 83
f 83 84 126
f 83 126 125
f 125 126 178
f 125 178 177
f 177 178 260
f 177 260 259
f 259 260 336
f 259 336 335
f 335 336 396
f 335 396 395
f 395 396 453
f 395 453 454
f 454 453 513
f 454 513 514
f 514 513 570
f 514 570 569
f 569 570 630
f 569 630 629
f 629 630 708
f 629 708 707
f 707 708 789
f 707 789 788
f 788 789 841
f 788 841 840
f 840 841 883
f 840 883 882
f 882 883 913
f 882 913 912
f 912 913 926
f 912 926 925
f 925 926 934
f 925 934 933
f 933 934 942
f 933 942 941
f 941 942 949
f 941 949 948
f 948 949 953
f 948 953 952
f 952 953 957
f 952 957 956
f 956 957 961
f 956 961 960
f 960 961 963
f 960 963 962
f 962 963 959
f 962 959 958
f 958 959 955
f 958 955 954
f 954 955 951
f 954 951 950
f 950 951 947
f 950 947 946
f 946 947 940
f 946 940 939
f 939 940 932
f 939 932 931
f 931 932 924
f 931 924 923
f 923 924 911
f 923 911 910
f 910 911 881
f 910 881 880
f 880 881 839
f 880 839 838
f 838 839 787
f 838 787 786
f 786 787 706
f 786 706 705
f 705 706 628
f 705 628 627
f 627 628 568
f 627 568 567
f 567 568 512
f 567 512 511
f 511 512 452
f 511 452 451
f 451 452 394
f 451 394 393
f 393 394 334
f 393 334 333
f 333 334 258
f 333 258 257
f 257 258 176
f 257 176 175
f 175 176 124
f 175 124 123
f 123 124 82
f 123 82 81
f 81 82 52
f 81 52 51
f 51 52 39
f 51 39 38
f 38 39 31
f 38 31 30
f 30 31 23
f 30 23 22
f 22 23 16
f 22 16 15
f 15 16 12
f 15 12 11
f 11 12 8
f 11 8 7
f 7 8 4
f 7 4 3
f 3 4 2
f 959 943 955
f 955 943 937
f 955 937 951
f 951 937 935
f 951 935 947
f 947 935 929
f 947 929 940
f 940 929 927
f 940 927 932
f 932 927 920
f 932 920 924
f 924 920 901
f 924 901 911
f 911 901 878
f 911 878 881
f 881 878 850
f 881 850 839
f 839 850 807
f 839 807 787
f 787 807 751
f 787 751 706
f 706 751 673
f 706 673 628
f 628 673 613
f 628 613 568
f 568 613 557
f 568 557 512
f 512 557 503
f 512 503 452
f 452 503 459
f 452 459 394
f 394 459 405
f 394 405 334
f 334 405 351
f 334 351 258
f 258 351 291
f 258 291 176
f 176 291 212
f 176 212 124
f 124 212 156
f 124 156 82
f 82 156 113
f 82 113 52
f 52 113 85
f 52 85 39
f 39 85 62
f 39 62 31
f 31 62 43
f 31 43 23
f 23 43 36
f 23 36 16
f 16 36 34
f 16 34 12
f 12 34 28
f 12 28 8
f 8 28 26
f 8 26 4
f 4 26 20
f 4 20 2
f 2 20 19
f 2 19 6
f 6 19 21
f 6 21 10
f 10 21 27
f 10 27 14
f 14 27 29
f 14 29 18
f 18 29 35
f 18 35 25
f 25 35 37
f 25 37 33
f 33 37 44
f 33 44 41
f 41 44 63
f 41 63 54
f 54 63 86
f 54 86 84
f 84 86 114
f 84 114 126
f 126 114 157
f 126 157 178
f 178 157 213
f 178 213 260
f 260 213 292
f 260 292 336
f 336 292 352
f 336 352 396
f 396 352 406
f 396 406 453
f 453 406 460
f 453 460 513
f 513 460 504
f 513 504 570
f 570 504 558
f 570 558 630
f 630 558 614
f 630 614 708
f 708 614 674
f 708 674 789
f 789 674 752
f 789 752 841
f 841 752 808
f 841 808 883
f 883 808 851
f 883 851 913
f 913 851 879
f 913 879 926
f 926 879 902
f 926 902 934
f 934 902 921
f 934 921 942
f 942 921 928
f 942 928 949
f 949 928 930
f 949 930 953
f 953 930 936
f 953 936 957
f 957 936 938
f 957 938 961
f 961 938 944
f 961 944 963
f 963 944 945
f 963 945 959
f 959 945 943
f 352 392 406
f 406 392 428
f 406 428 460
f 460 428 462
f 460 462 504
f 504 462 502
f 504 502 558
f 558 502 536
f 558 536 614
f 29 56 35
f 35 56 65
f 35 65 37
f 37 65 71
f 37 71 44
f 44 71 88
f 44 88 63
f 63 88 103
f 63 103 86
f 613 571 557
f 557 571 535
f 557 535 503
f 503 535 501
f 503 501 459
f 459 501 461
f 459 461 405
f 405 461 427
f 405 427 351
f 103 130 86
f 86 130 151
f 86 151 114
f 114 151 184
f 114 184 157
f 157 184 224
f 157 224 213
f 213 224 278
f 213 278 292
f 292 278 320
f 292 320 352
f 352 320 358
f 352 358 392
f 936 915 938
f 938 915 917
f 938 917 944
f 944 917 919
f 944 919 945
f 945 919 922
f 945 922 943
f 943 922 918
f 943 918 937
f 937 918 916
f 937 916 935
f 427 391 351
f 351 391 357
f 351 357 291
f 291 357 319
f 291 319 212
f 212 319 277
f 212 277 156
f 156 277 223
f 156 223 113
f 113 223 183
f 113 183 85
f 183 150 85
f 85 150 129
f 85 129 62
f 62 129 102
f 62 102 43
f 43 102 87
f 43 87 36
f 36 87 70
f 36 70 34
f 34 70 64
f 34 64 28
f 536 572 614
f 614 572 608
f 614 608 674
f 674 608 646
f 674 646 752
f 752 646 688
f 752 688 808
f 808 688 741
f 808 741 851
f 851 741 781
f 851 781 879
f 64 55 28
f 28 55 49
f 28 49 26
f 26 49 47
f 26 47 20
f 20 47 45
f 20 45 19
f 19 45 42
f 19 42 21
f 21 42 46
f 21 46 27
f 27 46 48
f 27 48 29
f 29 48 50
f 29 50 56
f 781 814 879
f 879 814 835
f 879 835 902
f 902 835 862
f 902 862 921
f 921 862 877
f 921 877 928
f 928 877 894
f 928 894 930
f 930 894 900
f 930 900 936
f 936 900 909
f 936 909 915
f 916 914 935
f 935 914 908
f 935 908 929
f 929 908 899
f 929 899 927
f 927 899 893
f 927 893 920
f 920 893 876
f 920 876 901
f 901 876 861
f 901 861 878
f 861 834 878
f 878 834 813
f 878 813 850
f 850 813 780
f 850 780 807
f 807 780 740
f 807 740 751
f 751 740 687
f 751 687 673
f 673 687 645
f 673 645 613
f 613 645 607
f 613 607 571
f 247 217 254
f 254 217 225
f 254 225 261
f 261 225 229
f 261 229 266
f 266 229 233
f 266 233 281
f 281 233 245
f 281 245 288
f 288 245 263
f 288 263 303
f 303 263 283
f 303 283 314
f 314 283 299
f 314 299 327
f 327 299 311
f 327 311 343
f 343 311 325
f 343 325 359
f 359 325 347
f 359 347 375
f 375 347 365
f 375 365 387
f 387 365 379
f 387 379 409
f 409 379 399
f 409 399 423
f 423 399 419
f 423 419 440
f 440 419 433
f 440 433 457
f 457 433 455
f 457 455 480
f 480 455 477
f 480 477 483
f 483 477 485
f 483 485 506
f 506 485 509
f 506 509 523
f 523 509 529
f 523 529 540
f 540 529 545
f 540 545 553
f 553 545 563
f 553 563 576
f 576 563 585
f 576 585 587
f 587 585 597
f 587 597 604
f 604 597 617
f 604 617 619
f 619 617 639
f 619 639 636
f 636 639 651
f 636 651 649
f 649 651 665
f 649 665 660
f 660 665 679
f 660 679 675
f 675 679 699
f 675 699 682
f 682 699 719
f 682 719 697
f 697 719 730
f 697 730 702
f 702 730 734
f 702 734 709
f 709 734 738
f 709 738 716
f 716 738 746
f 716 746 721
f 721 746 748
f 721 748 718
f 718 748 747
f 718 747 710
f 710 747 739
f 710 739 704
f 704 739 735
f 704 735 698
f 698 735 731
f 698 731 684
f 684 731 720
f 684 720 676
f 676 720 700
f 676 700 662
f 662 700 680
f 662 680 650
f 650 680 666
f 650 666 638
f 638 666 652
f 638 652 620
f 620 652 640
f 620 640 606
f 606 640 618
f 606 618 588
f 588 618 598
f 588 598 578
f 578 598 586
f 578 586 554
f 554 586 564
f 554 564 542
f 542 564 546
f 542 546 524
f 524 546 530
f 524 530 508
f 508 530 510
f 508 510 484
f 484 510 486
f 484 486 482
f 482 486 478
f 482 478 458
f 458 478 456
f 458 456 442
f 442 456 434
f 442 434 424
f 424 434 420
f 424 420 412
f 412 420 400
f 412 400 388
f 388 400 380
f 388 380 378
f 378 380 366
f 378 366 360
f 360 366 348
f 360 348 346
f 346 348 326
f 346 326 328
f 328 326 312
f 328 312 316
f 316 312 300
f 316 300 304
f 304 300 284
f 304 284 289
f 289 284 264
f 289 264 282
f 282 264 246
f 282 246 268
f 268 246 234
f 268 234 262
f 262 234 230
f 262 230 256
f 256 230 226
f 256 226 248
f 248 226 218
f 248 218 244
f 244 218 216
f 244 216 247
f 247 216 217
f 217 190 225
f 225 190 196
f 225 196 229
f 229 196 200
f 229 200 233
f 233 200 206
f 233 206 245
f 245 206 219
f 245 219 263
f 263 219 231
f 263 231 283
f 283 231 251
f 283 251 299
f 299 251 275
f 299 275 311
f 311 275 295
f 311 295 325
f 325 295 309
f 325 309 347
f 347 309 331
f 347 331 365
f 365 331 353
f 365 353 379
f 379 353 369
f 379 369 399
f 399 369 389
f 399 389 419
f 419 389 415
f 419 415 433
f 433 415 429
f 433 429 455
f 455 429 449
f 455 449 477
f 477 449 475
f 477 475 485
f 485 475 487
f 485 487 509
f 509 487 515
f 509 515 529
f 529 515 533
f 529 533 545
f 545 533 549
f 545 549 563
f 563 549 573
f 563 573 585
f 585 573 593
f 585 593 597
f 597 593 611
f 597 611 617
f 617 611 631
f 617 631 639
f 639 631 653
f 639 653 651
f 651 653 669
f 651 669 665
f 665 669 689
f 665 689 679
f 679 689 711
f 679 711 699
f 699 711 732
f 699 732 719
f 719 732 744
f 719 744 730
f 730 744 757
f 730 757 734
f 734 757 763
f 734 763 738
f 738 763 767
f 738 767 746
f 746 767 773
f 746 773 748
f 748 773 775
f 748 775 747
f 747 775 774
f 747 774 739
f 739 774 768
f 739 768 735
f 735 768 764
f 735 764 731
f 731 764 758
f 731 758 720
f 720 758 745
f 720 745 700
f 700 745 733
f 700 733 680
f 680 733 712
f 680 712 666
f 666 712 690
f 666 690 652
f 652 690 670
f 652 670 640
f 640 670 654
f 640 654 618
f 618 654 632
f 618 632 598
f 598 632 612
f 598 612 586
f 586 612 594
f 586 594 564
f 564 594 574
f 564 574 546
f 546 574 550
f 546 550 530
f 530 550 534
f 530 534 510
f 510 534 516
f 510 516 486
f 486 516 488
f 486 488 478
f 478 488 476
f 478 476 456
f 456 476 450
f 456 450 434
f 434 450 430
f 434 430 420
f 420 430 416
f 420 416 400
f 400 416 390
f 400 390 380
f 380 390 370
f 380 370 366
f 366 370 354
f 366 354 348
f 348 354 332
f 348 332 326
f 326 332 310
f 326 310 312
f 312 310 296
f 312 296 300
f 300 296 276
f 300 276 284
f 284 276 252
f 284 252 264
f 264 252 232
f 264 232 246
f 246 232 220
f 246 220 234
f 234 220 207
f 234 207 230
f 230 207 201
f 230 201 226
f 226 201 197
f 226 197 218
f 218 197 191
f 218 191 216
f 216 191 189
f 216 189 217
f 217 189 190
f 190 159 196
f 196 159 167
f 196 167 200
f 200 167 173
f 200 173 206
f 206 173 181
f 206 181 219
f 219 181 192
f 219 192 231
f 231 192 204
f 231 204 251
f 251 204 221
f 251 221 275
f 275 221 239
f 275 239 295
f 295 239 269
f 295 269 309
f 309 269 297
f 309 297 331
f 331 297 317
f 331 317 353
f 353 317 339
f 353 339 369
f 369 339 361
f 369 361 389
f 389 361 383
f 389 383 415
f 415 383 403
f 415 403 429
f 429 403 425
f 429 425 449
f 449 425 447
f 449 447 475
f 475 447 473
f 475 473 487
f 487 473 489
f 487 489 515
f 515 489 517
f 515 517 533
f 533 517 537
f 533 537 549
f 549 537 559
f 549 559 573
f 573 559 581
f 573 581 593
f 593 581 601
f 593 601 611
f 611 601 623
f 611 623 631
f 631 623 647
f 631 647 653
f 653 647 667
f 653 667 669
f 669 667 695
f 669 695 689
f 689 695 724
f 689 724 711
f 711 724 742
f 711 742 732
f 732 742 759
f 732 759 744
f 744 759 771
f 744 771 757
f 757 771 782
f 757 782 763
f 763 782 790
f 763 790 767
f 767 790 796
f 767 796 773
f 773 796 804
f 773 804 775
f 775 804 806
f 775 806 774
f 774 806 805
f 774 805 768
f 768 805 797
f 768 797 764
f 764 797 791
f 764 791 758
f 758 791 783
f 758 783 745
f 745 783 772
f 745 772 733
f 733 772 760
f 733 760 712
f 712 760 743
f 712 743 690
f 690 743 725
f 690 725 670
f 670 725 696
f 670 696 654
f 654 696 668
f 654 668 632
f 632 668 648
f 632 648 612
f 612 648 624
f 612 624 594
f 594 624 602
f 594 602 574
f 574 602 582
f 574 582 550
f 550 582 560
f 550 560 534
f 534 560 538
f 534 538 516
f 516 538 518
f 516 518 488
f 488 518 490
f 488 490 476
f 476 490 474
f 476 474 450
f 450 474 448
f 450 448 430
f 430 448 426
f 430 426 416
f 416 426 404
f 416 404 390
f 390 404 384
f 390 384 370
f 370 384 362
f 370 362 354
f 354 362 340
f 354 340 332
f 332 340 318
f 332 318 310
f 310 318 298
f 310 298 296
f 296 298 270
f 296 270 276
f 276 270 240
f 276 240 252
f 252 240 222
f 252 222 232
f 232 222 205
f 232 205 220
f 220 205 193
f 220 193 207
f 207 193 182
f 207 182 201
f 201 182 174
f 201 174 197
f 197 174 168
f 197 168 191
f 191 168 160
f 191 160 189
f 189 160 158
f 189 158 190
f 190 158 159
f 159 136 167
f 167 136 140
f 167 140 173
f 173 140 148
f 173 148 181
f 181 148 154
f 181 154 192
f 192 154 165
f 192 165 204
f 204 165 179
f 204 179 221
f 221 179 198
f 221 198 239
f 239 198 210
f 239 210 269
f 269 210 235
f 269 235 297
f 297 235 273
f 297 273 317
f 317 273 301
f 317 301 339
f 339 301 323
f 339 323 361
f 361 323 349
f 361 349 383
f 383 349 371
f 383 371 403
f 403 371 397
f 403 397 425
f 425 397 421
f 425 421 447
f 447 421 445
f 447 445 473
f 473 445 471
f 473 471 489
f 489 471 491
f 489 491 517
f 517 491 519
f 517 519 537
f 537 519 543
f 537 543 559
f 559 543 565
f 559 565 581
f 581 565 591
f 581 591 601
f 601 591 615
f 601 615 623
f 623 615 641
f 623 641 647
f 647 641 663
f 647 663 667
f 667 663 691
f 667 691 695
f 695 691 728
f 695 728 724
f 724 728 753
f 724 753 742
f 742 753 765
f 742 765 759
f 759 765 784
f 759 784 771
f 771 784 798
f 771 798 782
f 782 798 809
f 782 809 790
f 790 809 815
f 790 815 796
f 796 815 823
f 796 823 804
f 804 823 827
f 804 827 806
f 806 827 829
f 806 829 805
f 805 829 828
f 805 828 797
f 797 828 824
f 797 824 791
f 791 824 816
f 791 816 783
f 783 816 810
f 783 810 772
f 772 810 799
f 772 799 760
f 760 799 785
f 760 785 743
f 743 785 766
f 743 766 725
f 725 766 754
f 725 754 696
f 696 754 729
f 696 729 668
f 668 729 692
f 668 692 648
f 648 692 664
f 648 664 624
f 624 664 642
f 624 642 602
f 602 642 616
f 602 616 582
f 582 616 592
f 582 592 560
f 560 592 566
f 560 566 538
f 538 566 544
f 538 544 518
f 518 544 520
f 518 520 490
f 490 520 492
f 490 492 474
f 474 492 472
f 474 472 448
f 448 472 446
f 448 446 426
f 426 446 422
f 426 422 404
f 404 422 398
f 404 398 384
f 384 398 372
f 384 372 362
f 362 372 350
f 362 350 340
f 340 350 324
f 340 324 318
f 318 324 302
f 318 302 298
f 298 302 274
f 298 274 270
f 270 274 236
f 270 236 240
f 240 236 211
f 240 211 222
f 222 211 199
f 222 199 205
f 205 199 180
f 205 180 193
f 193 180 166
f 193 166 182
f 182 166 155
f 182 155 174
f 174 155 149
f 174 149 168
f 168 149 141
f 168 141 160
f 160 141 137
f 160 137 158
f 158 137 135
f 158 135 159
f 159 135 136
f 136 111 140
f 140 111 115
f 140 115 148
f 148 115 121
f 148 121 154
f 154 121 133
f 154 133 165
f 165 133 138
f 165 138 179
f 179 138 152
f 179 152 198
f 198 152 169
f 198 169 210
f 210 169 187
f 210 187 235
f 235 187 208
f 235 208 273
f 273 208 237
f 273 237 301
f 301 237 279
f 301 279 323
f 323 279 307
f 323 307 349
f 349 307 337
f 349 337 371
f 371 337 363
f 371 363 397
f 397 363 385
f 397 385 421
f 421 385 417
f 421 417 445
f 445 417 443
f 445 443 471
f 471 443 469
f 471 469 491
f 491 469 493
f 491 493 519
f 519 493 521
f 519 521 543
f 543 521 547
f 543 547 565
f 565 547 579
f 565 579 591
f 591 579 599
f 591 599 615
f 615 599 625
f 615 625 641
f 641 625 655
f 641 655 663
f 663 655 685
f 663 685 691
f 691 685 726
f 691 726 728
f 728 726 755
f 728 755 753
f 753 755 776
f 753 776 765
f 765 776 794
f 765 794 784
f 784 794 811
f 784 811 798
f 798 811 825
f 798 825 809
f 809 825 830
f 809 830 815
f 815 830 842
f 815 842 823
f 823 842 848
f 823 848 827
f 827 848 852
f 827 852 829
f 829 852 854
f 829 854 828
f 828 854 853
f 828 853 824
f 824 853 849
f 824 849 816
f 816 849 843
f 816 843 810
f 810 843 831
f 810 831 799
f 799 831 826
f 799 826 785
f 785 826 812
f 785 812 766
f 766 812 795
f 766 795 754
f 754 795 777
f 754 777 729
f 729 777 756
f 729 756 692
f 692 756 727
f 692 727 664
f 664 727 686
f 664 686 642
f 642 686 656
f 642 656 616
f 616 656 626
f 616 626 592
f 592 626 600
f 592 600 566
f 566 600 580
f 566 580 544
f 544 580 548
f 544 548 520
f 520 548 522
f 520 522 492
f 492 522 494
f 492 494 472
f 472 494 470
f 472 470 446
f 446 470 444
f 446 444 422
f 422 444 418
f 422 418 398
f 398 418 386
f 398 386 372
f 372 386 364
f 372 364 350
f 350 364 338
f 350 338 324
f 324 338 308
f 324 308 302
f 302 308 280
f 302 280 274
f 274 280 238
f 274 238 236
f 236 238 209
f 236 209 211
f 211 209 188
f 211 188 199
f 199 188 170
f 199 170 180
f 180 170 153
f 180 153 166
f 166 153 139
f 166 139 155
f 155 139 134
f 155 134 149
f 149 134 122
f 149 122 141
f 141 122 116
f 141 116 137
f 137 116 112
f 137 112 135
f 135 112 110
f 135 110 136
f 136 110 111
f 111 94 115
f 115 94 96
f 115 96 121
f 121 96 100
f 121 100 133
f 133 100 106
f 133 106 138
f 138 106 117
f 138 117 152
f 152 117 131
f 152 131 169
f 169 131 146
f 169 146 187
f 187 146 161
f 187 161 208
f 208 161 185
f 208 185 237
f 237 185 214
f 237 214 279
f 279 214 249
f 279 249 307
f 307 249 285
f 307 285 337
f 337 285 321
f 337 321 363
f 363 321 355
f 363 355 385
f 385 355 381
f 385 381 417
f 417 381 413
f 417 413 443
f 443 413 437
f 443 437 469
f 469 437 467
f 469 467 493
f 493 467 495
f 493 495 521
f 521 495 525
f 521 525 547
f 547 525 551
f 547 551 579
f 579 551 583
f 579 583 599
f 599 583 609
f 599 609 625
f 625 609 643
f 625 643 655
f 655 643 677
f 655 677 685
f 685 677 713
f 685 713 726
f 726 713 749
f 726 749 755
f 755 749 778
f 755 778 776
f 776 778 802
f 776 802 794
f 794 802 817
f 794 817 811
f 811 817 832
f 811 832 825
f 825 832 846
f 825 846 830
f 830 846 857
f 830 857 842
f 842 857 863
f 842 863 848
f 848 863 867
f 848 867 852
f 852 867 869
f 852 869 854
f 854 869 871
f 854 871 853
f 853 871 870
f 853 870 849
f 849 870 868
f 849 868 843
f 843 868 864
f 843 864 831
f 831 864 858
f 831 858 826
f 826 858 847
f 826 847 812
f 812 847 833
f 812 833 795
f 795 833 818
f 795 818 777
f 777 818 803
f 777 803 756
f 756 803 779
f 756 779 727
f 727 779 750
f 727 750 686
f 686 750 714
f 686 714 656
f 656 714 678
f 656 678 626
f 626 678 644
f 626 644 600
f 600 644 610
f 600 610 580
f 580 610 584
f 580 584 548
f 548 584 552
f 548 552 522
f 522 552 526
f 522 526 494
f 494 526 496
f 494 496 470
f 470 496 468
f 470 468 444
f 444 468 438
f 444 438 418
f 418 438 414
f 418 414 386
f 386 414 382
f 386 382 364
f 364 382 356
f 364 356 338
f 338 356 322
f 338 322 308
f 308 322 286
f 308 286 280
f 280 286 250
f 280 250 238
f 238 250 215
f 238 215 209
f 209 215 186
f 209 186 188
f 188 186 162
f 188 162 170
f 170 162 147
f 170 147 153
f 153 147 132
f 153 132 139
f 139 132 118
f 139 118 134
f 134 118 107
f 134 107 122
f 122 107 101
f 122 101 116
f 116 101 97
f 116 97 112
f 112 97 95
f 112 95 110
f 110 95 93
f 110 93 111
f 111 93 94
f 94 73 96
f 96 73 75
f 96 75 100
f 100 75 79
f 100 79 106
f 106 79 89
f 106 89 117
f 117 89 98
f 117 98 131
f 131 98 108
f 131 108 146
f 146 108 127
f 146 127 161
f 161 127 142
f 161 142 185
f 185 142 163
f 185 163 214
f 214 163 194
f 214 194 249
f 249 194 227
f 249 227 285
f 285 227 271
f 285 271 321
f 321 271 305
f 321 305 355
f 355 305 341
f 355 341 381
f 381 341 373
f 381 373 413
f 413 373 407
f 413 407 437
f 437 407 435
f 437 435 467
f 467 435 465
f 467 465 495
f 495 465 497
f 495 497 525
f 525 497 527
f 525 527 551
f 551 527 555
f 551 555 583
f 583 555 589
f 583 589 609
f 609 589 621
f 609 621 643
f 643 621 657
f 643 657 677
f 677 657 693
f 677 693 713
f 713 693 736
f 713 736 749
f 749 736 769
f 749 769 778
f 778 769 800
f 778 800 802
f 802 800 821
f 802 821 817
f 817 821 836
f 817 836 832
f 832 836 855
f 832 855 846
f 846 855 865
f 846 865 857
f 857 865 874
f 857 874 863
f 863 874 884
f 863 884 867
f 867 884 888
f 867 888 869
f 869 888 890
f 869 890 871
f 871 890 892
f 871 892 870
f 870 892 891
f 870 891 868
f 868 891 889
f 868 889 864
f 864 889 885
f 864 885 858
f 858 885 875
f 858 875 847
f 847 875 866
f 847 866 833
f 833 866 856
f 833 856 818
f 818 856 837
f 818 837 803
f 803 837 822
f 803 822 779
f 779 822 801
f 779 801 750
f 750 801 770
f 750 770 714
f 714 770 737
f 714 737 678
f 678 737 694
f 678 694 644
f 644 694 658
f 644 658 610
f 610 658 622
f 610 622 584
f 584 622 590
f 584 590 552
f 552 590 556
f 552 556 526
f 526 556 528
f 526 528 496
f 496 528 498
f 496 498 468
f 468 498 466
f 468 466 438
f 438 466 436
f 438 436 414
f 414 436 408
f 414 408 382
f 382 408 374
f 382 374 356
f 356 374 342
f 356 342 322
f 322 342 306
f 322 306 286
f 286 306 272
f 286 272 250
f 250 272 228
f 250 228 215
f 215 228 195
f 215 195 186
f 186 195 164
f 186 164 162
f 162 164 143
f 162 143 147
f 147 143 128
f 147 128 132
f 132 128 109
f 132 109 118
f 118 109 99
f 118 99 107
f 107 99 90
f 107 90 101
f 101 90 80
f 101 80 97
f 97 80 76
f 97 76 95
f 95 76 74
f 95 74 93
f 93 74 72
f 93 72 94
f 94 72 73
f 73 58 75
f 75 58 60
f 75 60 79
f 79 60 66
f 79 66 89
f 89 66 68
f 89 68 98
f 98 68 77
f 98 77 108
f 108 77 91
f 108 91 127
f 127 91 104
f 127 104 142
f 142 104 119
f 142 119 163
f 163 119 144
f 163 144 194
f 194 144 171
f 194 171 227
f 227 171 202
f 227 202 271
f 271 202 241
f 271 241 305
f 305 241 293
f 305 293 341
f 341 293 329
f 341 329 373
f 373 329 367
f 373 367 407
f 407 367 401
f 407 401 435
f 435 401 431
f 435 431 465
f 465 431 463
f 465 463 497
f 497 463 499
f 497 499 527
f 527 499 531
f 527 531 555
f 555 531 561
f 555 561 589
f 589 561 595
f 589 595 621
f 621 595 633
f 621 633 657
f 657 633 671
f 657 671 693
f 693 671 722
f 693 722 736
f 736 722 761
f 736 761 769
f 769 761 792
f 769 792 800
f 800 792 819
f 800 819 821
f 821 819 844
f 821 844 836
f 836 844 859
f 836 859 855
f 855 859 872
f 855 872 865
f 865 872 886
f 865 886 874
f 874 886 895
f 874 895 884
f 884 895 897
f 884 897 888
f 888 897 903
f 888 903 890
f 890 903 905
f 890 905 892
f 892 905 907
f 892 907 891
f 891 907 906
f 891 906 889
f 889 906 904
f 889 904 885
f 885 904 898
f 885 898 875
f 875 898 896
f 875 896 866
f 866 896 887
f 866 887 856
f 856 887 873
f 856 873 837
f 837 873 860
f 837 860 822
f 822 860 845
f 822 845 801
f 801 845 820
f 801 820 770
f 770 820 793
f 770 793 737
f 737 793 762
f 737 762 694
f 694 762 723
f 694 723 658
f 658 723 672
f 658 672 622
f 622 672 634
f 622 634 590
f 590 634 596
f 590 596 556
f 556 596 562
f 556 562 528
f 528 562 532
f 528 532 498
f 498 532 500
f 498 500 466
f 466 500 464
f 466 464 436
f 436 464 432
f 436 432 408
f 408 432 402
f 408 402 374
f 374 402 368
f 374 368 342
f 342 368 330
f 342 330 306
f 306 330 294
f 306 294 272
f 272 294 242
f 272 242 228
f 228 242 203
f 228 203 195
f 195 203 172
f 195 172 164
f 164 172 145
f 164 145 143
f 143 145 120
f 143 120 128
f 128 120 105
f 128 105 109
f 109 105 92
f 109 92 99
f 99 92 78
f 99 78 90
f 90 78 69
f 90 69 80
f 80 69 67
f 80 67 76
f 76 67 61
f 76 61 74
f 74 61 59
f 74 59 72
f 72 59 57
f 72 57 73
f 73 57 58
f 58 45 60
f 60 45 47
f 60 47 66
f 66 47 49
f 66 49 68
f 68 49 55
f 68 55 77
f 77 55 64
f 77 64 91
f 91 64 70
f 91 70 104
f 104 70 87
f 104 87 119
f 119 87 102
f 119 102 144
f 144 102 129
f 144 129 171
f 171 129 150
f 171 150 202
f 202 150 183
f 202 183 241
f 241 183 223
f 241 223 293
f 293 223 277
f 293 277 329
f 329 277 319
f 329 319 367
f 367 319 357
f 367 357 401
f 401 357 391
f 401 391 431
f 431 391 427
f 431 427 463
f 463 427 461
f 463 461 499
f 499 461 501
f 499 501 531
f 531 501 535
f 531 535 561
f 561 535 571
f 561 571 595
f 595 571 607
f 595 607 633
f 633 607 645
f 633 645 671
f 671 645 687
f 671 687 722
f 722 687 740
f 722 740 761
f 761 740 780
f 761 780 792
f 792 780 813
f 792 813 819
f 819 813 834
f 819 834 844
f 844 834 861
f 844 861 859
f 859 861 876
f 859 876 872
f 872 876 893
f 872 893 886
f 886 893 899
f 886 899 895
f 895 899 908
f 895 908 897
f 897 908 914
f 897 914 903
f 903 914 916
f 903 916 905
f 905 916 918
f 905 918 907
f 907 918 922
f 907 922 906
f 906 922 919
f 906 919 904
f 904 919 917
f 904 917 898
f 898 917 915
f 898 915 896
f 896 915 909
f 896 909 887
f 887 909 900
f 887 900 873
f 873 900 894
f 873 894 860
f 860 894 877
f 860 877 845
f 845 877 862
f 845 862 820
f 820 862 835
f 820 835 793
f 793 835 814
f 793 814 762
f 762 814 781
f 762 781 723
f 723 781 741
f 723 741 672
f 672 741 688
f 672 688 634
f 634 688 646
f 634 646 596
f 596 646 608
f 596 608 562
f 562 608 572
f 562 572 532
f 532 572 536
f 532 536 500
f 500 536 502
f 500 502 464
f 464 502 462
f 464 462 432
f 432 462 428
f 432 428 402
f 402 428 392
f 402 392 368
f 368 392 358
f 368 358 330
f 330 358 320
f 330 320 294
f 294 320 278
f 294 278 242
f 242 278 224
f 242 224 203
f 203 224 184
f 203 184 172
f 172 184 151
f 172 151 145
f 145 151 130
f 145 130 120
f 120 130 103
f 120 103 105
f 105 103 88
f 105 88 92
f 92 88 71
f 92 71 78
f 78 71 65
f 78 65 69
f 69 65 56
f 69 56 67
f 67 56 50
f 67 50 61
f 61 50 48
f 61 48 59
f 59 48 46
f 59 46 57
f 57 46 42
f 57 42 58
f 58 42 45
f 247 253 243
f 247 254 253
f 253 254 261
f 253 261 265
f 261 266 265
f 265 266 281
f 265 281 287
f 281 288 287
f 287 288 303
f 287 303 313
f 303 314 313
f 313 314 327
f 313 327 344
f 327 343 344
f 344 343 359
f 344 359 376
f 359 375 376
f 376 375 387
f 376 387 410
f 387 409 410
f 410 409 423
f 410 423 439
f 423 440 439
f 439 440 457
f 439 457 479
f 457 480 479
f 479 480 483
f 479 483 505
f 483 506 505
f 505 506 523
f 505 523 539
f 523 540 539
f 539 540 553
f 539 553 575
f 553 576 575
f 575 576 587
f 575 587 603
f 587 604 603
f 603 604 619
f 603 619 635
f 619 636 635
f 635 636 649
f 635 649 659
f 649 660 659
f 659 660 675
f 659 675 681
f 675 682 681
f 681 682 697
f 681 697 701
f 697 702 701
f 701 702 709
f 701 709 715
f 709 716 715
f 715 716 721
f 715 721 717
f 721 718 717
f 717 718 710
f 717 710 703
f 710 704 703
f 703 704 698
f 703 698 683
f 698 684 683
f 683 684 676
f 683 676 661
f 676 662 661
f 661 662 650
f 661 650 637
f 650 638 637
f 637 638 620
f 637 620 605
f 620 606 605
f 605 606 588
f 605 588 577
f 588 578 577
f 577 578 554
f 577 554 541
f 554 542 541
f 541 542 524
f 541 524 507
f 524 508 507
f 507 508 484
f 507 484 481
f 484 482 481
f 481 482 458
f 481 458 441
f 458 442 441
f 441 442 424
f 441 424 411
f 424 412 411
f 411 412 388
f 411 388 377
f 388 378 377
f 377 378 360
f 377 360 345
f 360 346 345
f 345 346 328
f 345 328 315
f 328 316 315
f 315 316 304
f 315 304 290
f 304 289 290
f 290 289 282
f 290 282 267
f 282 268 267
f 267 268 262
f 267 262 255
f 262 256 255
f 255 256 248
f 255 248 243
f 243 248 244
f 243 244 247
f 659 681 635
f 635 681 701
f 635 701 603
f 605 577 541
f 481 441 717
f 315 376 345
f 345 376 377
f 376 410 439
f 505 539 377
f 717 703 683
f 637 605 661
f 661 605 541
f 661 541 683
f 441 411 717
f 717 411 377
f 717 377 715
f 376 439 377
f 377 439 479
f 377 479 505
f 701 715 603
f 603 715 377
f 603 377 575
f 575 377 539
f 683 541 717
f 717 541 507
f 717 507 481
f 315 290 376
f 376 290 267
f 376 267 255
f 313 253 287
f 287 253 265
f 255 243 376
f 376 243 253
f 376 253 344
f 344 253 313
